<svg xmlns="http://www.w3.org/2000/svg" width="26" height="26" viewBox="0 0 26 26" fill="none"><rect width="26" height="26" rx="6" fill="#DAECFF"></rect><path d="M17 6C17 5.44937 16.5506 5 16 5C15.4494 5 15 5.44937 15 6V9H17V6ZM18.5 9.97188H7.5C7.22266 9.97188 7 10.1945 7 10.4719V11.4719C7 11.7492 7.22266 11.9719 7.5 11.9719H8V13C8 15.375 9.67188 17.425 12 17.9V21H14V17.8984C16.3281 17.425 18 15.375 18 13V11.9719H18.5C18.7773 11.9719 19 11.7492 19 11.4719V10.4719C19 10.2219 18.7781 9.97188 18.5 9.97188ZM11 6C11 5.44937 10.5506 5 10 5C9.44937 5 9 5.44937 9 6V9H11V6Z" fill="#1D88FA"></path></svg>