<?xml version="1.0" encoding="utf-8"?>
<!-- Generator: Adobe Illustrator 21.1.0, SVG Export Plug-In . SVG Version: 6.00 Build 0)  -->
<svg version="1.1" xmlns="http://www.w3.org/2000/svg" xmlns:xlink="http://www.w3.org/1999/xlink" x="0px" y="0px"
	 viewBox="0 0 500 500" style="enable-background:new 0 0 500 500;" xml:space="preserve">
<style type="text/css">
	.st0{opacity:0.6;fill:#858585;}
	.st1{fill:#134744;}
	.st2{fill:#7ACFD0;}
	.st3{fill:none;stroke:#3C5670;stroke-width:0.5915;stroke-miterlimit:10;}
	.st4{fill:#9CE8E8;}
	.st5{fill:#5F8BAF;}
	.st6{fill:#236863;}
	.st7{fill:#3C5670;}
	.st8{fill:#EFEFEF;}
	.st9{fill:url(#XMLID_34_);}
	.st10{fill:url(#XMLID_35_);}
	.st11{fill:url(#XMLID_36_);}
	.st12{fill:url(#XMLID_37_);}
	.st13{fill:url(#XMLID_38_);}
	.st14{fill:url(#XMLID_39_);}
	.st15{fill:url(#XMLID_40_);}
	.st16{fill:#FFFFFF;}
	.st17{fill:#4FAFA5;}
	.st18{fill:#318C81;}
	.st19{fill:#1A6359;}
	.st20{fill:#ECF4FC;}
	.st21{fill:#0B564B;}
	.st22{fill:#388985;}
	.st23{fill:#D0D2D3;}
	.st24{fill:#5DC5C7;}
	.st25{fill:#46B2B2;}
	.st26{fill:#298484;}
	.st27{opacity:0.6;fill:#FFFFFF;}
	.st28{fill:#29B7A6;}
	.st29{fill:#6D6D6D;}
	.st30{fill:#999999;}
	.st31{fill:url(#XMLID_41_);}
	.st32{fill:#2A7F7B;}
	.st33{fill:#4FAAA7;}
	.st34{fill:#64D3CD;}
	.st35{fill:#9FF0F4;}
	.st36{fill:#F0F9FC;}
	.st37{fill:#5FC1B9;}
	.st38{fill:#1C9382;}
	.st39{fill:url(#XMLID_42_);}
	.st40{fill:#63C9BF;}
	.st41{fill:#6D6E70;}
	.st42{fill:#BBBDBF;}
	.st43{fill:#67C9CA;}
	.st44{fill:#3C9694;}
	.st45{fill:url(#XMLID_43_);}
	.st46{fill:#9BEAE6;}
	.st47{fill:#56A4A1;}
</style>
<g id="Layer_1">
</g>
<g id="Layer_6">
</g>
<g id="Layer_2">
</g>
<g id="Layer_3">
</g>
<g id="Layer_4">
</g>
<g id="Layer_5">
	<g>
		<g id="XMLID_17439_">
			<path id="XMLID_17654_" class="st0" d="M81.9,348.9l241.7,139.5c3.7,2.1,9.7,2.1,13.3,0l105.4-60.8c3.7-2.1,3.7-5.6,0-7.7
				L200.7,280.4c-3.7-2.1-9.7-2.1-13.3,0L81.9,341.2C78.2,343.3,78.2,346.7,81.9,348.9z"/>
			<g id="XMLID_17614_">
				<g id="XMLID_17629_">
					<path id="XMLID_17651_" class="st1" d="M90.7,331.1l235.2,135.8c3.6,2.1,9.4,2.1,13,0l98.7-57c3.6-2.1,3.6-5.4,0-7.5
						L202.4,266.6c-3.6-2.1-9.4-2.1-13,0l-98.7,57C87.1,325.7,87.1,329,90.7,331.1z"/>
					<path id="XMLID_17648_" class="st2" d="M168.2,296.3l-18.3,10.4c-1.2,0.7-2.9,0.8-3.9,0.2c-1-0.6-0.8-1.6,0.4-2.3l18.3-10.4
						c1.2-0.7,2.9-0.8,3.9-0.2C169.6,294.6,169.4,295.6,168.2,296.3z"/>
					<path id="XMLID_17646_" class="st2" d="M150.5,295.9c-1.3-0.7-3.3-0.7-4.5,0c-1.3,0.7-1.3,1.9,0,2.6c1.3,0.7,3.3,0.7,4.5,0
						C151.7,297.8,151.7,296.6,150.5,295.9z"/>
					<path id="XMLID_17631_" class="st2" d="M144.3,308.5c-1-0.6-2.6-0.6-3.5,0c-1,0.6-1,1.5,0,2c1,0.6,2.6,0.6,3.5,0
						C145.3,309.9,145.3,309,144.3,308.5z"/>
					<path id="XMLID_17630_" class="st3" d="M386.5,435.3c-3.9,2.2-10.1,2.2-14,0c-3.9-2.2-3.9-5.8,0-8.1c3.9-2.2,10.1-2.2,14,0
						C390.3,429.5,390.3,433.1,386.5,435.3z"/>
				</g>
				<g id="XMLID_17626_">
					<path id="XMLID_17628_" class="st4" d="M414.3,394.8L219.9,282.6c-2.4-1.4-6.3-1.4-8.7,0l-92.9,53.6c-2.4,1.4-2.4,3.6,0,5
						l194.4,112.2c2.4,1.4,6.3,1.4,8.7,0l92.9-53.6C416.7,398.4,416.7,396.2,414.3,394.8z"/>
					<path id="XMLID_17627_" class="st5" d="M117.4,340.4L117.4,340.4c-1.3-1.4-0.9-3.1,1-4.2l92.9-53.6c2.4-1.4,6.3-1.4,8.7,0
						l194.4,112.2c2.1,1.2,2.4,3.2,0.7,4.5c-0.3-0.3-0.6-0.6-1-0.8L219.6,286.3c-2.4-1.4-6.3-1.4-8.7,0l-92.9,53.6
						C117.8,340.1,117.6,340.2,117.4,340.4z"/>
				</g>
				<g id="XMLID_17623_">
					<path id="XMLID_17740_" class="st6" d="M88,327.4l0,14.4l0,0.1c-0.1,1.4,0.8,2.8,2.7,3.9l235.2,135.8c1.8,1,4.1,1.5,6.5,1.5
						c0.8,0,1.6-0.1,2.4-0.2c1.5-0.2,2.9-0.7,4.1-1.3l98.7-57c1.8-1,2.7-2.4,2.7-3.7l0-14.4c-0.1,1.3-1,2.5-2.7,3.5l-3.6,2.1
						l-1.5,0.9l-93.5,54c-1.2,0.7-2.6,1.1-4.1,1.3c-0.8,0.1-1.6,0.2-2.4,0.2c-2.4,0-4.7-0.5-6.5-1.5L90.7,331.1
						C88.9,330,88,328.7,88,327.4L88,327.4z"/>
					<path id="XMLID_17624_" class="st6" d="M325.9,481.5L90.7,345.8c-1.8-1.1-2.7-2.5-2.7-3.9l0-0.1l0-14.4l0,0
						c0,1.3,0.9,2.7,2.7,3.7l235.2,135.8c1.8,1,4.1,1.5,6.5,1.6l0,14.7C330,483.1,327.6,482.6,325.9,481.5z"/>
				</g>
				<g id="XMLID_17441_">
					<g id="XMLID_17530_">
						<g id="XMLID_17549_">
							<path id="XMLID_17569_" class="st7" d="M437.2,419.8c0,0.5-0.4,1.1-0.8,1.4c-0.4,0.3-0.8,0-0.8-0.5c0-0.5,0.4-1.2,0.8-1.4
								C436.9,419.1,437.2,419.3,437.2,419.8z"/>
							<path id="XMLID_17568_" class="st7" d="M433.2,422.1c0,0.5-0.4,1.1-0.8,1.4c-0.4,0.3-0.8,0-0.8-0.5c0-0.5,0.4-1.2,0.8-1.4
								C432.9,421.4,433.2,421.6,433.2,422.1z"/>
							<path id="XMLID_17561_" class="st7" d="M429.2,424.4c0,0.5-0.4,1.1-0.8,1.4c-0.4,0.3-0.8,0-0.8-0.5c0-0.5,0.4-1.2,0.8-1.4
								C428.8,423.7,429.2,423.9,429.2,424.4z"/>
							<path id="XMLID_17560_" class="st7" d="M425.2,426.8c0,0.5-0.4,1.1-0.8,1.4c-0.4,0.3-0.8,0-0.8-0.5c0-0.5,0.4-1.2,0.8-1.4
								C424.8,426,425.2,426.2,425.2,426.8z"/>
							<path id="XMLID_17559_" class="st7" d="M421.2,429.1c0,0.5-0.4,1.1-0.8,1.4c-0.4,0.3-0.8,0-0.8-0.5c0-0.5,0.4-1.2,0.8-1.4
								C420.8,428.3,421.2,428.6,421.2,429.1z"/>
							<path id="XMLID_17558_" class="st7" d="M417.2,431.4c0,0.5-0.4,1.1-0.8,1.4c-0.4,0.3-0.8,0-0.8-0.5c0-0.5,0.4-1.2,0.8-1.4
								C416.8,430.7,417.2,430.9,417.2,431.4z"/>
							<path id="XMLID_17557_" class="st7" d="M413.1,433.7c0,0.5-0.4,1.1-0.8,1.4c-0.4,0.3-0.8,0-0.8-0.5c0-0.5,0.4-1.2,0.8-1.4
								C412.8,433,413.1,433.2,413.1,433.7z"/>
							<path id="XMLID_17556_" class="st7" d="M409.1,436c0,0.5-0.4,1.1-0.8,1.4c-0.4,0.3-0.8,0-0.8-0.5c0-0.5,0.4-1.2,0.8-1.4
								C408.8,435.3,409.1,435.5,409.1,436z"/>
							<path id="XMLID_17550_" class="st7" d="M405.1,438.3c0,0.5-0.4,1.1-0.8,1.4c-0.4,0.3-0.8,0-0.8-0.5c0-0.5,0.4-1.2,0.8-1.4
								C404.8,437.6,405.1,437.8,405.1,438.3z"/>
						</g>
						<g id="XMLID_17531_">
							<path id="XMLID_17548_" class="st7" d="M437.3,415.6c0,0.5-0.4,1.1-0.8,1.4c-0.4,0.3-0.8,0-0.8-0.5c0-0.5,0.4-1.2,0.8-1.4
								C437,414.9,437.3,415.1,437.3,415.6z"/>
							<path id="XMLID_17547_" class="st7" d="M433.3,417.9c0,0.5-0.4,1.1-0.8,1.4c-0.4,0.3-0.8,0-0.8-0.5c0-0.5,0.4-1.2,0.8-1.4
								C433,417.2,433.3,417.4,433.3,417.9z"/>
							<path id="XMLID_17546_" class="st7" d="M429.3,420.2c0,0.5-0.4,1.1-0.8,1.4c-0.4,0.3-0.8,0-0.8-0.5c0-0.5,0.4-1.2,0.8-1.4
								C428.9,419.5,429.3,419.7,429.3,420.2z"/>
							<path id="XMLID_17545_" class="st7" d="M425.3,422.6c0,0.5-0.4,1.1-0.8,1.4c-0.4,0.3-0.8,0-0.8-0.5c0-0.5,0.4-1.2,0.8-1.4
								C424.9,421.8,425.3,422,425.3,422.6z"/>
							<path id="XMLID_17537_" class="st7" d="M421.3,424.9c0,0.5-0.4,1.1-0.8,1.4c-0.4,0.3-0.8,0-0.8-0.5c0-0.5,0.4-1.2,0.8-1.4
								C420.9,424.2,421.3,424.4,421.3,424.9z"/>
							<path id="XMLID_17536_" class="st7" d="M417.3,427.2c0,0.5-0.4,1.1-0.8,1.4c-0.4,0.3-0.8,0-0.8-0.5c0-0.5,0.4-1.2,0.8-1.4
								C416.9,426.5,417.3,426.7,417.3,427.2z"/>
							<path id="XMLID_17534_" class="st7" d="M413.3,429.5c0,0.5-0.4,1.1-0.8,1.4c-0.4,0.3-0.8,0-0.8-0.5c0-0.5,0.4-1.2,0.8-1.4
								C412.9,428.8,413.3,429,413.3,429.5z"/>
							<path id="XMLID_17533_" class="st7" d="M409.2,431.8c0,0.5-0.4,1.1-0.8,1.4c-0.4,0.3-0.8,0-0.8-0.5c0-0.5,0.4-1.2,0.8-1.4
								C408.9,431.1,409.2,431.3,409.2,431.8z"/>
							<path id="XMLID_17532_" class="st7" d="M405.2,434.2c0,0.5-0.4,1.1-0.8,1.4c-0.4,0.3-0.8,0-0.8-0.5c0-0.5,0.4-1.2,0.8-1.4
								C404.9,433.4,405.2,433.6,405.2,434.2z"/>
						</g>
					</g>
					<g id="XMLID_17444_">
						<g id="XMLID_17508_">
							<path id="XMLID_17529_" class="st7" d="M373.5,456.6c0,0.5-0.4,1.1-0.8,1.4c-0.4,0.3-0.8,0-0.8-0.5c0-0.5,0.4-1.2,0.8-1.4
								C373.1,455.9,373.5,456.1,373.5,456.6z"/>
							<path id="XMLID_17523_" class="st7" d="M369.5,458.9c0,0.5-0.4,1.1-0.8,1.4c-0.4,0.3-0.8,0-0.8-0.5c0-0.5,0.4-1.2,0.8-1.4
								C369.1,458.2,369.5,458.4,369.5,458.9z"/>
							<path id="XMLID_17522_" class="st7" d="M365.5,461.2c0,0.5-0.4,1.1-0.8,1.4c-0.4,0.3-0.8,0-0.8-0.5c0-0.5,0.4-1.2,0.8-1.4
								C365.1,460.5,365.5,460.7,365.5,461.2z"/>
							<path id="XMLID_17521_" class="st7" d="M361.5,463.5c0,0.5-0.4,1.1-0.8,1.4c-0.4,0.3-0.8,0-0.8-0.5c0-0.5,0.4-1.2,0.8-1.4
								C361.1,462.8,361.5,463,361.5,463.5z"/>
							<path id="XMLID_17520_" class="st7" d="M357.4,465.9c0,0.5-0.4,1.1-0.8,1.4c-0.4,0.3-0.8,0-0.8-0.5c0-0.5,0.4-1.2,0.8-1.4
								C357.1,465.1,357.4,465.3,357.4,465.9z"/>
							<path id="XMLID_17519_" class="st7" d="M353.4,468.2c0,0.5-0.4,1.1-0.8,1.4c-0.4,0.3-0.8,0-0.8-0.5c0-0.5,0.4-1.2,0.8-1.4
								C353.1,467.5,353.4,467.7,353.4,468.2z"/>
							<path id="XMLID_17518_" class="st7" d="M349.4,470.5c0,0.5-0.4,1.1-0.8,1.4s-0.8,0-0.8-0.5c0-0.5,0.4-1.2,0.8-1.4
								C349.1,469.8,349.4,470,349.4,470.5z"/>
							<path id="XMLID_17510_" class="st7" d="M345.4,472.8c0,0.5-0.4,1.1-0.8,1.4c-0.4,0.3-0.8,0-0.8-0.5c0-0.5,0.4-1.2,0.8-1.4
								C345,472.1,345.4,472.3,345.4,472.8z"/>
							<path id="XMLID_17509_" class="st7" d="M341.4,475.1c0,0.5-0.4,1.1-0.8,1.4c-0.4,0.3-0.8,0-0.8-0.5c0-0.5,0.4-1.2,0.8-1.4
								C341,474.4,341.4,474.6,341.4,475.1z"/>
						</g>
						<g id="XMLID_17446_">
							<path id="XMLID_17507_" class="st7" d="M373.6,452.4c0,0.5-0.4,1.1-0.8,1.4c-0.4,0.3-0.8,0-0.8-0.5c0-0.5,0.4-1.2,0.8-1.4
								C373.2,451.7,373.6,451.9,373.6,452.4z"/>
							<path id="XMLID_17506_" class="st7" d="M369.6,454.7c0,0.5-0.4,1.1-0.8,1.4c-0.4,0.3-0.8,0-0.8-0.5c0-0.5,0.4-1.2,0.8-1.4
								C369.2,454,369.6,454.2,369.6,454.7z"/>
							<path id="XMLID_17505_" class="st7" d="M365.6,457c0,0.5-0.4,1.1-0.8,1.4c-0.4,0.3-0.8,0-0.8-0.5c0-0.5,0.4-1.2,0.8-1.4
								C365.2,456.3,365.6,456.5,365.6,457z"/>
							<path id="XMLID_17499_" class="st7" d="M361.6,459.4c0,0.5-0.4,1.1-0.8,1.4c-0.4,0.3-0.8,0-0.8-0.5c0-0.5,0.4-1.2,0.8-1.4
								C361.2,458.6,361.6,458.8,361.6,459.4z"/>
							<path id="XMLID_17498_" class="st7" d="M357.5,461.7c0,0.5-0.4,1.1-0.8,1.4c-0.4,0.3-0.8,0-0.8-0.5c0-0.5,0.4-1.2,0.8-1.4
								C357.2,461,357.5,461.2,357.5,461.7z"/>
							<path id="XMLID_17497_" class="st7" d="M353.5,464c0,0.5-0.4,1.1-0.8,1.4c-0.4,0.3-0.8,0-0.8-0.5c0-0.5,0.4-1.2,0.8-1.4
								C353.2,463.3,353.5,463.5,353.5,464z"/>
							<path id="XMLID_17496_" class="st7" d="M349.5,466.3c0,0.5-0.4,1.1-0.8,1.4c-0.4,0.3-0.8,0-0.8-0.5c0-0.5,0.4-1.2,0.8-1.4
								C349.2,465.6,349.5,465.8,349.5,466.3z"/>
							<path id="XMLID_17495_" class="st7" d="M345.5,468.6c0,0.5-0.4,1.1-0.8,1.4c-0.4,0.3-0.8,0-0.8-0.5c0-0.5,0.4-1.2,0.8-1.4
								C345.1,467.9,345.5,468.1,345.5,468.6z"/>
							<path id="XMLID_17494_" class="st7" d="M341.5,471c0,0.5-0.4,1.1-0.8,1.4c-0.4,0.3-0.8,0-0.8-0.5c0-0.5,0.4-1.2,0.8-1.4
								C341.1,470.2,341.5,470.4,341.5,471z"/>
						</g>
					</g>
					<path id="XMLID_17443_" class="st7" d="M394.2,442.9c0,1.3-2.7,3.9-6,5.8c-3.3,1.9-6,2.4-6,1.1l0-2.4l12-6.9
						C394.2,440.5,394.2,441.6,394.2,442.9z"/>
					<polygon id="XMLID_17442_" class="st8" points="394.2,441.2 382.2,448.1 382.2,449.4 394.2,442.5 					"/>
				</g>
				<g id="XMLID_17615_">
					
						<linearGradient id="XMLID_34_" gradientUnits="userSpaceOnUse" x1="2137.1299" y1="1615.4744" x2="2207.0059" y2="1502.8505" gradientTransform="matrix(-0.5 0.866 -0.866 -0.5 2739.8381 -718.7328)">
						<stop  offset="0" style="stop-color:#FFFFFF;stop-opacity:0.4"/>
						<stop  offset="1" style="stop-color:#FFFFFF;stop-opacity:0"/>
					</linearGradient>
					<path id="XMLID_17622_" class="st9" d="M321.8,453.2l11.5-6.6L302,330l-23.3-13.4l36.6,137.8
						C317.5,454.9,320,454.3,321.8,453.2z"/>
					
						<linearGradient id="XMLID_35_" gradientUnits="userSpaceOnUse" x1="2207.9878" y1="1732.3937" x2="2226.0601" y2="1703.2653" gradientTransform="matrix(-0.5 0.866 -0.866 -0.5 2739.8381 -718.7328)">
						<stop  offset="0" style="stop-color:#FFFFFF;stop-opacity:0.4"/>
						<stop  offset="1" style="stop-color:#FFFFFF;stop-opacity:0"/>
					</linearGradient>
					<polygon id="XMLID_17621_" class="st10" points="150.2,359.6 140.5,323.4 136.1,326 144.2,356.1 					"/>
					
						<linearGradient id="XMLID_36_" gradientUnits="userSpaceOnUse" x1="2134.2559" y1="1545.7986" x2="2174.082" y2="1481.6079" gradientTransform="matrix(-0.5 0.866 -0.866 -0.5 2739.8381 -718.7328)">
						<stop  offset="0" style="stop-color:#FFFFFF;stop-opacity:0.4"/>
						<stop  offset="1" style="stop-color:#FFFFFF;stop-opacity:0"/>
					</linearGradient>
					<polygon id="XMLID_17620_" class="st11" points="360.6,431.1 366.3,427.7 347.1,356 339.2,351.4 					"/>
					
						<linearGradient id="XMLID_37_" gradientUnits="userSpaceOnUse" x1="2127.4495" y1="1517.533" x2="2156.5684" y2="1470.6003" gradientTransform="matrix(-0.5 0.866 -0.866 -0.5 2739.8381 -718.7328)">
						<stop  offset="0" style="stop-color:#FFFFFF;stop-opacity:0.4"/>
						<stop  offset="1" style="stop-color:#FFFFFF;stop-opacity:0"/>
					</linearGradient>
					<path id="XMLID_17619_" class="st12" d="M385.4,378.2l-24.8-14.3l15.6,58.2l18.2-10.5C391.3,399.9,388.3,388.8,385.4,378.2z"/>
					
						<linearGradient id="XMLID_38_" gradientUnits="userSpaceOnUse" x1="2151.0793" y1="1696.8914" x2="2220.3152" y2="1585.2994" gradientTransform="matrix(-0.5 0.866 -0.866 -0.5 2739.8381 -718.7328)">
						<stop  offset="0" style="stop-color:#FFFFFF;stop-opacity:0.4"/>
						<stop  offset="1" style="stop-color:#FFFFFF;stop-opacity:0"/>
					</linearGradient>
					<path id="XMLID_17618_" class="st13" d="M252.8,418.6l-36.7-137.1c-1.6,0-3.5,0.2-4.7,0.9l-18,10.4l29,108.1L252.8,418.6z"/>
					
						<linearGradient id="XMLID_39_" gradientUnits="userSpaceOnUse" x1="2179.7297" y1="1714.858" x2="2224.4753" y2="1642.7389" gradientTransform="matrix(-0.5 0.866 -0.866 -0.5 2739.8381 -718.7328)">
						<stop  offset="0" style="stop-color:#FFFFFF;stop-opacity:0.4"/>
						<stop  offset="1" style="stop-color:#FFFFFF;stop-opacity:0"/>
					</linearGradient>
					<path id="XMLID_17617_" class="st14" d="M203.7,390.3c-7.9-29.5-16.7-62.5-24-89.5l-18.2,10.5l17.3,64.6L203.7,390.3z"/>
					
						<linearGradient id="XMLID_40_" gradientUnits="userSpaceOnUse" x1="2141.5857" y1="1656.7612" x2="2213.7661" y2="1540.423" gradientTransform="matrix(-0.5 0.866 -0.866 -0.5 2739.8381 -718.7328)">
						<stop  offset="0" style="stop-color:#FFFFFF;stop-opacity:0.4"/>
						<stop  offset="1" style="stop-color:#FFFFFF;stop-opacity:0"/>
					</linearGradient>
					<polygon id="XMLID_17616_" class="st15" points="288.4,439.1 251.2,300.7 245.2,297.2 282.4,435.7 					"/>
				</g>
				<path id="XMLID_17736_" class="st16" d="M332.3,468.4v14.7c0.8,0,1.6-0.1,2.4-0.2v-14.7C334,468.3,333.2,468.4,332.3,468.4z"/>
			</g>
		</g>
		<g id="XMLID_137_">
			<path id="XMLID_147_" class="st17" d="M70,303.3c-1.6,0-2.8-0.5-3.4-1.3l-0.2,0.1c-1.2,3.2-4.4,7.5-8.9,10.1
				c-1.3,0.8-2.6,1.3-3.8,1.7c-3.3,1-6.1,0.6-7.8-1.9c-0.2,0.1-0.3,0.2-0.5,0.3c-1.8,0.9-3.6,1.6-5.3,2.1c0.8,2.8,2.1,4.6,3.7,5.7
				c3.7,2.4,9.1,1,14.8-2.4c9.7-5.6,13.1-11.3,14.2-12.8L70,303.3z"/>
			<path id="XMLID_146_" class="st18" d="M64.2,280.8l-0.7,1.3c0,0-8.5,7.5-11.2,12.4c-2.6,4.9-4.3,16.1-4.3,16.1l-1.3,2.4l-1.5-0.9
				l-8.2-4.6l-1.5-0.8c0,0,0,0,0,0c-1.7-1.4-2.8-4.1-2.8-8.4c0-10.4,5.5-18.6,12.7-22.8c4.2-2.4,6.2-1.7,7.2-1.3
				c0.2,0.2,0.3,0.3,0.3,0.3l10.4,5.8L64.2,280.8z"/>
			<path id="XMLID_145_" class="st17" d="M82.5,261.2l-4.6,6.9c0,0-8.7-12.5-30.1,11.8c-21.5,24.4-4.7,40.4-4.7,40.4l-5.1,7.7
				l-10.5-6l-0.1,0l-1-0.5c0,0,0,0,0,0c-3.9-2.5-6.2-8-6.2-17.2c0-16.8,11.9-36.2,29-46c10.1-5.8,17.9-6.4,22.8-2.9L82.5,261.2z"/>
			<polygon id="XMLID_144_" class="st18" points="74.8,272.5 70.3,275.2 64.4,278.6 63.5,278.1 56.6,274.1 53.1,272.1 63.5,266.1 
				67.5,268.4 69.9,269.7 			"/>
			<polygon id="XMLID_143_" class="st19" points="78.5,306 72.7,304.9 70,303.3 66.2,301.2 62.7,299.2 61.4,298.4 62.9,298.7 
				67.2,299.6 72.9,302.8 			"/>
			<polygon id="XMLID_142_" class="st19" points="64.4,278.6 64.4,280.7 64.2,280.8 53.1,274.6 53.1,272.1 			"/>
			<g id="XMLID_139_">
				<path id="XMLID_141_" class="st20" d="M74.8,272.5l-4.5,2.6l-5.9,3.4v2.1l-0.2,0.1c-0.2-0.1-0.4-0.2-0.7-0.3
					c-1.1-0.4-3.1-0.5-6.6,1.5c-1.4,0.8-2.7,1.7-3.9,2.8c-3.5,3-6.2,7.1-7.7,11.9c-0.8,2.5-1.2,5.2-1.2,8.1c0,0.7,0,1.3,0.1,1.9
					c0.2,2.3,0.8,4,1.6,5.3c1.7,2.5,4.5,3,7.8,1.9c1.2-0.4,2.5-1,3.8-1.7c4.5-2.6,7.8-6.9,8.9-10.1l0.2-0.1c0.6,0.8,1.8,1.3,3.4,1.3
					c0.9,0,1.9-0.2,3-0.5c1-0.3,2.1-0.8,3.2-1.5c9.3-5.3,13.1-15.3,13.1-24.4c0-11.1-4.9-17.6-13.6-17.4c-3,0-6.5,0.9-10.4,2.6
					c-1.5,0.7-3.1,1.5-4.8,2.5c-4.6,2.7-8.8,6-12.6,9.8c-7.3,7.4-12.6,16.6-15,25.7c-0.9,3.5-1.4,7-1.4,10.4c0,0.8,0,1.5,0,2.3
					c0.2,4.3,0.9,7.6,2.1,10.2c4.1,8.9,13.8,8,25.2,1.4c10.3-5.9,17.3-14.7,19.7-18.4l-5.8-1.1c-1.1,1.4-4.4,7.1-14.2,12.8
					c-5.7,3.3-11.2,4.8-14.8,2.4c-1.6-1.1-2.9-2.9-3.7-5.7c-0.5-1.7-0.8-3.8-0.9-6.3c0-0.5,0-1,0-1.5c0-5.8,1.5-11.7,4.3-17
					c0,0,0,0,0,0c1.1-2.1,2.4-4.1,3.8-6.1c2.6-3.5,5.8-6.6,9.4-9.3c1.3-1,2.7-1.8,4.1-2.7c1-0.6,1.9-1.1,2.8-1.5
					c1.4-0.7,2.7-1.2,4-1.6c0.7-0.2,1.3-0.4,1.9-0.5c3.6-0.7,6.4-0.1,8.5,1.7c2.4,2.2,3.7,6.1,3.7,11.6c0,5.1-1,9.8-4,11.5
					c-3.2,1.8-2.8-1.4-2.8-5.5V272.5z"/>
				<path id="XMLID_140_" class="st18" d="M64.4,292.5v0.8c0,0.7-0.1,1.4-0.2,2c-0.2,1.2-0.6,2.4-1.2,3.4c-0.1,0.1-0.2,0.3-0.3,0.4
					c-0.8,1.3-1.9,2.5-3.4,3.3c-0.6,0.4-1.2,0.6-1.7,0.7c-2.1,0.4-3.3-1.1-3.3-4.4c0-0.6,0-1.2,0.1-1.7c0.4-3.3,2-6.1,4.9-7.8
					C62.6,287.4,64.4,288.8,64.4,292.5z"/>
			</g>
			<path id="XMLID_138_" class="st17" d="M77.9,269.6c-2-1.8-4.9-2.4-8.5-1.7c0.2,0.6,0.3,1.2,0.5,1.9l4.9,2.8v11.7v2.9
				c0,4.1-0.3,7.3,2.8,5.5c2.9-1.7,4-6.3,4-11.5C81.6,275.7,80.4,271.8,77.9,269.6z"/>
		</g>
		<g>
			<polygon id="XMLID_68_" class="st21" points="202.7,145.2 397.9,257.9 397.9,398.7 202.7,286 			"/>
			<polygon id="XMLID_67_" class="st22" points="188.1,153.6 202.7,145.2 202.7,286 188.1,294.5 			"/>
			<polygon id="XMLID_66_" class="st21" points="397.9,257.9 299.9,94 202.7,145.2 			"/>
		</g>
		<g id="XMLID_49_">
			<polygon id="XMLID_65_" class="st23" points="378.3,387.5 207.6,288.9 207.6,12.8 378.3,111.4 			"/>
			<g id="XMLID_61_">
				<polygon id="XMLID_64_" class="st24" points="329.6,198.2 241.7,147.5 241.7,187 329.6,237.7 				"/>
				<polygon id="XMLID_63_" class="st25" points="241.7,147.5 246.6,144.7 334.4,195.4 329.6,198.2 				"/>
				<polygon id="XMLID_62_" class="st26" points="334.4,195.4 329.6,198.2 329.6,237.7 334.4,234.9 				"/>
			</g>
			<polygon id="XMLID_60_" class="st16" points="348.8,125.2 251.5,69.1 251.5,74.7 348.8,130.9 			"/>
			<polygon id="XMLID_59_" class="st27" points="348.8,133.7 298.7,104.7 298.7,108.3 348.8,137.3 			"/>
			<path id="XMLID_58_" class="st28" d="M353.6,133.7c0,3.1,2.2,6.9,4.9,8.4c2.7,1.6,4.9,0.3,4.9-2.8c0-3.1-2.2-6.9-4.9-8.4
				C355.8,129.3,353.6,130.6,353.6,133.7z"/>
			<g id="XMLID_52_">
				<polygon id="XMLID_57_" class="st16" points="352.7,156.2 228.3,84.3 228.3,87.9 352.7,159.8 				"/>
				<polygon id="XMLID_56_" class="st16" points="352.7,162.8 228.3,90.9 228.3,94.6 352.7,166.4 				"/>
				<polygon id="XMLID_55_" class="st16" points="352.7,169.4 228.3,97.6 228.3,101.2 352.7,173.1 				"/>
				<polygon id="XMLID_54_" class="st16" points="352.7,176.1 228.3,104.2 228.3,107.8 352.7,179.7 				"/>
				<polygon id="XMLID_53_" class="st16" points="352.7,182.7 228.3,110.9 228.3,114.5 352.7,186.4 				"/>
			</g>
			<polygon id="XMLID_51_" class="st29" points="378.3,387.5 383.2,384.7 383.2,108.6 378.3,111.4 			"/>
			<polygon id="XMLID_50_" class="st30" points="207.6,12.8 212.5,10 383.2,108.6 378.3,111.4 			"/>
		</g>
		<g>
			<g>
				<polygon id="XMLID_48_" class="st24" points="188.1,294.5 383.2,407.2 383.2,266.3 285.7,266.3 188.1,153.6 				"/>
				
					<linearGradient id="XMLID_41_" gradientUnits="userSpaceOnUse" x1="135.6839" y1="331.3572" x2="330.856" y2="331.3572" gradientTransform="matrix(-1 0 0 1 518.9139 0)">
					<stop  offset="0" style="stop-color:#FFFFF3;stop-opacity:0.3"/>
					<stop  offset="0.8177" style="stop-color:#FFFFFF;stop-opacity:0"/>
				</linearGradient>
				<polygon id="XMLID_47_" class="st31" points="188.1,294.5 285.7,255.5 383.2,407.2 				"/>
				<polygon id="XMLID_46_" class="st32" points="383.2,407.2 297.8,266.3 292.6,266.3 				"/>
				<polygon id="XMLID_45_" class="st32" points="188.1,294.5 278.7,258.3 275.9,255.1 				"/>
			</g>
			<polygon id="XMLID_44_" class="st33" points="383.2,407.2 397.9,398.7 397.9,257.9 383.2,266.3 			"/>
		</g>
		<g id="XMLID_90_">
			<g id="XMLID_99_">
				<polygon id="XMLID_100_" class="st34" points="214.1,59 218.7,56.3 218.7,135.4 214.1,138.1 				"/>
			</g>
			<g id="XMLID_97_">
				<polygon id="XMLID_98_" class="st28" points="214.1,138.1 145.6,98.5 145.6,19.4 214.1,59 				"/>
			</g>
			<g id="XMLID_95_">
				<polygon id="XMLID_96_" class="st35" points="218.4,56.3 149.9,16.7 145.3,19.4 213.8,58.9 				"/>
			</g>
			<g id="XMLID_93_">
				<polygon id="XMLID_94_" class="st36" points="214.1,138.1 214.1,129.4 194,67.6 169.6,104.2 158,74.3 145.6,89.1 145.6,98.5 
									"/>
			</g>
			<g id="XMLID_91_">
				<path id="XMLID_92_" class="st36" d="M167.9,49.8c3.7,2.1,6.6,7.2,6.6,11.5c0,4.2-3,5.9-6.6,3.8c-3.7-2.1-6.6-7.2-6.6-11.5
					C161.3,49.4,164.2,47.7,167.9,49.8z"/>
			</g>
		</g>
		<g id="XMLID_17_">
			<g id="XMLID_26_">
				<polygon id="XMLID_32_" class="st37" points="140.9,185.5 140.9,242.5 64.1,198.2 64.1,141.2 				"/>
				<polygon id="XMLID_31_" class="st38" points="140.9,242.5 97.5,188.4 64.1,198.2 97,191.9 				"/>
				<polygon id="XMLID_30_" class="st38" points="140.9,185.5 97,201.4 64.1,141.2 				"/>
				
					<linearGradient id="XMLID_42_" gradientUnits="userSpaceOnUse" x1="378.0283" y1="169.7011" x2="454.7774" y2="169.7011" gradientTransform="matrix(-1 0 0 1 518.9139 0)">
					<stop  offset="0" style="stop-color:#FFFFF3;stop-opacity:0.3"/>
					<stop  offset="0.8177" style="stop-color:#FFFFFF;stop-opacity:0"/>
				</linearGradient>
				<polygon id="XMLID_29_" class="st39" points="140.9,185.5 97,198.2 64.1,141.2 				"/>
				<polygon id="XMLID_28_" class="st40" points="64.1,141.2 69.6,138.1 146.4,182.4 140.9,185.5 				"/>
				<polygon id="XMLID_27_" class="st1" points="146.4,182.4 146.4,239.3 140.9,242.5 140.9,185.5 				"/>
			</g>
			<g id="XMLID_18_">
				<path id="XMLID_25_" class="st41" d="M67.6,188.3c5.4,3.2,9.7,10.8,9.7,16.9c0,6.1-2.7,7.6-8.1,4.5c-5.4-3.1-9.7-10.7-9.7-16.9
					C59.6,186.6,62.3,185.1,67.6,188.3z"/>
				<polygon id="XMLID_24_" class="st41" points="61.8,187 57.1,189.6 71.3,213.2 75.5,210.8 				"/>
				<path id="XMLID_23_" class="st42" d="M64.4,190.2c5.4,3.2,9.7,10.8,9.7,16.9c0,6.1-4.4,8.6-9.8,5.5c-5.4-3.1-9.7-10.7-9.7-16.9
					C54.7,189.4,59.1,187,64.4,190.2z"/>
				<g id="XMLID_19_">
					<path id="XMLID_20_" class="st16" d="M65.7,205.6l-2.6-1.5v-11.9l2.6,1.5V205.6z M65.7,210.3l-2.6-1.5v-3.3l2.6,1.5V210.3z"/>
				</g>
			</g>
		</g>
		<g id="XMLID_1_">
			<g id="XMLID_10_">
				<polygon id="XMLID_16_" class="st43" points="474.4,178.9 474.4,235.8 397.6,191.5 397.6,134.6 				"/>
				<polygon id="XMLID_15_" class="st44" points="474.4,235.8 430.9,181.7 397.6,191.5 430.5,185.2 				"/>
				<polygon id="XMLID_14_" class="st44" points="474.4,178.9 430.5,194.7 397.6,134.6 				"/>
				
					<linearGradient id="XMLID_43_" gradientUnits="userSpaceOnUse" x1="44.5523" y1="163.0542" x2="121.3014" y2="163.0542" gradientTransform="matrix(-1 0 0 1 518.9139 0)">
					<stop  offset="0" style="stop-color:#FFFFF3;stop-opacity:0.3"/>
					<stop  offset="0.8177" style="stop-color:#FFFFFF;stop-opacity:0"/>
				</linearGradient>
				<polygon id="XMLID_13_" class="st45" points="474.4,178.9 430.5,191.5 397.6,134.6 				"/>
				<polygon id="XMLID_12_" class="st46" points="397.6,134.6 403.1,131.4 479.8,175.7 474.4,178.9 				"/>
				<polygon id="XMLID_11_" class="st47" points="479.8,175.7 479.8,232.7 474.4,235.8 474.4,178.9 				"/>
			</g>
			<g id="XMLID_2_">
				<path id="XMLID_9_" class="st41" d="M401.1,181.7c5.4,3.2,9.7,10.8,9.7,16.9c0,6.1-2.7,7.6-8.1,4.5c-5.4-3.1-9.7-10.7-9.7-16.9
					C393.1,180,395.7,178.5,401.1,181.7z"/>
				<polygon id="XMLID_8_" class="st41" points="395.3,180.3 390.6,183 404.8,206.6 409,204.2 				"/>
				<path id="XMLID_7_" class="st42" d="M397.9,183.5c5.4,3.2,9.7,10.8,9.7,16.9c0,6.1-4.4,8.6-9.8,5.5c-5.4-3.1-9.7-10.7-9.7-16.9
					C388.2,182.8,392.5,180.3,397.9,183.5z"/>
				<g id="XMLID_3_">
					<path id="XMLID_4_" class="st16" d="M399.2,199l-2.6-1.5v-11.9l2.6,1.5V199z M399.2,203.6l-2.6-1.5v-3.3l2.6,1.5V203.6z"/>
				</g>
			</g>
		</g>
	</g>
</g>
</svg>
