<?xml version="1.0" encoding="utf-8"?>
<!-- Generator: Adobe Illustrator 21.1.0, SVG Export Plug-In . SVG Version: 6.00 Build 0)  -->
<svg version="1.1" xmlns="http://www.w3.org/2000/svg" xmlns:xlink="http://www.w3.org/1999/xlink" x="0px" y="0px"
	 viewBox="0 0 900 900" style="enable-background:new 0 0 900 900;" xml:space="preserve">
<style type="text/css">
	.st0{fill:url(#XMLID_2_);}
	.st1{opacity:0.6;fill:#858585;}
	.st2{fill:#134744;}
	.st3{fill:#FFFFFF;}
	.st4{fill:#236863;}
	.st5{fill:url(#SVGID_1_);}
	.st6{fill:#2E998F;}
	.st7{fill:#004492;}
	.st8{fill:#35C9B7;}
	.st9{fill:#072825;}
	.st10{fill:#A2C7FF;}
	.st11{fill:#0A3464;}
	.st12{fill:#56E2CE;}
	.st13{opacity:0.19;}
	.st14{fill:none;stroke:#FFFFFF;stroke-width:1.762;stroke-linecap:round;stroke-linejoin:round;stroke-miterlimit:10;}
	.st15{fill:#626262;}
	.st16{fill:#B2B2B2;}
	.st17{fill:#C7C7C7;}
	.st18{opacity:0.19;fill:#0A3464;}
	.st19{fill:url(#SVGID_2_);}
	.st20{fill:url(#SVGID_3_);}
	.st21{fill:url(#SVGID_4_);}
	.st22{clip-path:url(#SVGID_6_);fill:#14544E;}
	.st23{clip-path:url(#SVGID_6_);}
</style>
<g id="Layer_1">
	<linearGradient id="XMLID_2_" gradientUnits="userSpaceOnUse" x1="488.9102" y1="636.3014" x2="456.7015" y2="335.652">
		<stop  offset="0" style="stop-color:#FFFFF3;stop-opacity:0.3"/>
		<stop  offset="0.8177" style="stop-color:#FFFFFF;stop-opacity:0"/>
	</linearGradient>
	<polygon id="XMLID_17726_" class="st0" points="77.2,290.2 200.1,710.5 370,810.6 708.9,609.6 814.6,178.9 	"/>
	<path class="st1" d="M847.4,577.1c-2.1-1.9-4.6-3.6-7.4-5.2l-2.1-1.2c0,0,0,0,0,0v0L357.6,293.3c-22.2-12.8-58.1-12.8-80.2,0
		L61.9,418.5c-0.9,0.5-1.8,1.1-2.6,1.6c-35.9,22.1-35,57.6,2.9,79v0c0,0,0,0,0,0l482.5,278.6c22.2,12.8,58.1,12.8,80.2,0
		l213.1-123.8v0c0,0,0,0,0,0l2.4-1.4c2.8-1.6,5.2-3.4,7.3-5.2C873.5,626.7,873.5,597.7,847.4,577.1z"/>
	<g>
		<path class="st2" d="M837.9,530v34.3L357.6,287c-22.2-12.8-58.1-12.8-80.2,0L62.1,412.1v-34.2c-38.8,22-38.8,58.7,0,80.7v0
			c0,0,0,0,0,0l482.5,278.6c22.2,12.8,58.1,12.8,80.2,0l213.1-123.8v0c0,0,0,0,0,0l2.4-1.4c2.8-1.6,5.2-3.4,7.3-5.2
			C876.4,583.8,873.2,550.7,837.9,530z"/>
		<g>
			<path class="st3" d="M167.6,506.2l-59.4-34.1c-2.2-1.3-4-5-4-8.3l0,0c0-3.3,1.8-4.9,4-3.6l59.4,34.1c2.2,1.3,4,5,4,8.3l0,0
				C171.7,505.8,169.9,507.5,167.6,506.2z"/>
			<path class="st3" d="M242.6,549.2l-59.4-34.1c-2.2-1.3-4-5-4-8.3l0,0c0-3.3,1.8-4.9,4-3.6l59.4,34.1c2.2,1.3,4,5,4,8.3l0,0
				C246.6,548.9,244.8,550.5,242.6,549.2z"/>
		</g>
		<g>
			<path class="st4" d="M840,531.3L357.6,252.7c-22.2-12.8-58.1-12.8-80.2,0L61.9,377.9c-22.1,12.8-22,33.6,0.3,46.5l482.5,278.6
				c22.2,12.8,58.1,12.8,80.2,0l215.5-125.2C862.4,564.9,862.2,544.1,840,531.3z"/>
		</g>
		<linearGradient id="SVGID_1_" gradientUnits="userSpaceOnUse" x1="649.9767" y1="817.9119" x2="412.2732" y2="411.4861">
			<stop  offset="0" style="stop-color:#FFFFFF"/>
			<stop  offset="1" style="stop-color:#C2DAFF"/>
		</linearGradient>
		<path class="st5" d="M824.3,540.4L341.8,261.9c-13.5-7.8-35.2-7.8-48.5,0l-37.7,21.9c-4.4,2.5-5,6.5-1.5,9.5l8.5,7.2
			c3.3,2.8,2.7,6.5-1.4,8.9l-101.5,59c-4.1,2.4-10.5,2.7-15.3,0.8l-12.5-4.9c-5.2-2-12-1.6-16.4,0.9l-37.7,21.9
			c-13.4,7.8-13.3,20.3,0.2,28.1l482.5,278.6c13.4,7.8,35.2,7.8,48.5,0l215.5-125.2C837.8,560.8,837.7,548.2,824.3,540.4z"/>
		<g>
			<path class="st6" d="M226.5,310.9c-1.8-1.1-4.8-1.1-6.6,0l-44.6,25.9c-1.8,1.1-1.8,2.8,0,3.8c1.8,1.1,4.8,1.1,6.6,0l44.6-25.9
				C228.4,313.7,228.4,312,226.5,310.9"/>
			<path class="st6" d="M242.4,301.7c-1.8-1.1-4.8-1.1-6.6,0l-5.1,3c-1.8,1.1-1.8,2.8,0,3.8c1.8,1.1,4.8,1.1,6.6,0l5.1-3
				C244.2,304.5,244.2,302.8,242.4,301.7"/>
			<path class="st7" d="M169.5,344c-3.2-1.9-8.4-1.8-11.6,0c-3.2,1.9-3.2,4.9,0,6.7c3.2,1.9,8.4,1.9,11.6,0
				C172.7,348.9,172.7,345.9,169.5,344"/>
		</g>
		<path class="st8" d="M378.9,283.3l-37.1-21.4c-13.5-7.8-35.2-7.8-48.5,0l-37.7,21.9c-4.4,2.5-5,6.5-1.5,9.5l8.5,7.2
			c3.3,2.8,2.7,6.5-1.4,8.9l-101.5,59c-4.1,2.4-10.5,2.7-15.3,0.8l-12.5-4.9c-5.2-2-12-1.6-16.4,0.9l-37.7,21.9
			c-13.4,7.8-13.3,20.3,0.2,28.1l36.2,20.9L378.9,283.3z"/>
		<g>
			<path class="st6" d="M166.2,508.1L106.8,474c-2.2-1.3-4-5-4-8.3l0,0c0-3.3,1.8-4.9,4-3.6l59.4,34.1c2.2,1.3,4,5,4,8.3l0,0
				C170.2,507.7,168.4,509.4,166.2,508.1z"/>
			<path class="st6" d="M241.1,551.1L181.7,517c-2.2-1.3-4-5-4-8.3v0c0-3.3,1.8-4.9,4-3.6l59.4,34.1c2.2,1.3,4,5,4,8.3l0,0
				C245.1,550.8,243.3,552.4,241.1,551.1z"/>
		</g>
		<g>
			<path class="st9" d="M716,675l41.8-24c2.3-1.3,4.2-5.2,4.2-8.6l0,0c0-3.4-1.9-5.1-4.2-3.8l-41.8,24c-2.3,1.3-4.2,5.2-4.2,8.6l0,0
				C711.8,674.7,713.7,676.4,716,675z"/>
			<path class="st3" d="M759.6,638.2c0.6,0.7,0.9,1.9,0.9,3.3c0,3.4-1.9,7.3-4.2,8.6l-41.8,24c-0.6,0.4-1.2,0.5-1.8,0.4
				c0.8,1,1.9,1.2,3.3,0.5l41.8-24c2.3-1.3,4.2-5.2,4.2-8.6C762.1,639.9,761.1,638.4,759.6,638.2z"/>
		</g>
		<g>
			<path class="st10" d="M656.7,652.4c-1,0-1.9-0.5-2.4-1.4c-0.8-1.3-0.3-3,1-3.8l94.8-54.1c1.3-0.8,3-0.3,3.8,1
				c0.8,1.3,0.3,3-1,3.8l-94.8,54.1C657.7,652.3,657.2,652.4,656.7,652.4z"/>
		</g>
		<g>
			<path class="st4" d="M776.7,634.5c0-2.2,1.5-4.8,3.4-5.9c1.9-1.1,3.4-0.2,3.4,2c0,2.1-1.5,4.8-3.4,5.9
				C778.2,637.6,776.7,636.7,776.7,634.5z"/>
			<path class="st4" d="M785.8,629.2c0-2.2,1.5-4.8,3.4-5.9c1.9-1.1,3.4-0.2,3.4,2c0,2.1-1.5,4.8-3.4,5.9
				C787.3,632.3,785.8,631.4,785.8,629.2z"/>
			<path class="st4" d="M794.9,624c0-2.2,1.5-4.8,3.4-5.9c1.9-1.1,3.4-0.2,3.4,2c0,2.1-1.5,4.8-3.4,5.9
				C796.4,627.1,794.9,626.2,794.9,624z"/>
			<path class="st4" d="M804,618.8c0-2.2,1.5-4.8,3.4-5.9c1.9-1.1,3.4-0.2,3.4,2c0,2.1-1.5,4.8-3.4,5.9
				C805.5,621.8,804,620.9,804,618.8z"/>
			<path class="st4" d="M813.1,613.5c0-2.2,1.5-4.8,3.4-5.9s3.4-0.2,3.4,2c0,2.1-1.5,4.8-3.4,5.9S813.1,615.7,813.1,613.5z"/>
			<path class="st4" d="M822.1,608.3c0-2.2,1.5-4.8,3.4-5.9c1.9-1.1,3.4-0.2,3.4,2c0,2.1-1.5,4.8-3.4,5.9
				C823.7,611.3,822.1,610.4,822.1,608.3z"/>
		</g>
		<g>
			<path class="st4" d="M641.1,712.6c0-2.2,1.5-4.8,3.4-5.9c1.9-1.1,3.4-0.2,3.4,2c0,2.1-1.5,4.8-3.4,5.9
				C642.7,715.6,641.1,714.7,641.1,712.6z"/>
			<path class="st4" d="M650.2,707.3c0-2.2,1.5-4.8,3.4-5.9c1.9-1.1,3.4-0.2,3.4,2c0,2.1-1.5,4.8-3.4,5.9
				C651.8,710.4,650.2,709.5,650.2,707.3z"/>
			<path class="st4" d="M659.3,702.1c0-2.2,1.5-4.8,3.4-5.9c1.9-1.1,3.4-0.2,3.4,2c0,2.1-1.5,4.8-3.4,5.9
				C660.9,705.1,659.3,704.2,659.3,702.1z"/>
			<path class="st4" d="M668.4,696.8c0-2.2,1.5-4.8,3.4-5.9c1.9-1.1,3.4-0.2,3.4,2c0,2.1-1.5,4.8-3.4,5.9
				C669.9,699.9,668.4,699,668.4,696.8z"/>
			<path class="st4" d="M677.5,691.6c0-2.2,1.5-4.8,3.4-5.9c1.9-1.1,3.4-0.2,3.4,2c0,2.1-1.5,4.8-3.4,5.9
				C679,694.6,677.5,693.8,677.5,691.6z"/>
			<path class="st4" d="M686.6,686.3c0-2.2,1.5-4.8,3.4-5.9c1.9-1.1,3.4-0.2,3.4,2c0,2.1-1.5,4.8-3.4,5.9
				C688.1,689.4,686.6,688.5,686.6,686.3z"/>
		</g>
		<path class="st11" d="M125.8,396.2c-12.9,7.5-12.9,19.7,0,27.1c12.9,7.5,34.1,7.5,47,0c12.9-7.5,12.9-19.7,0-27.1
			C159.8,388.7,138.7,388.7,125.8,396.2z"/>
	</g>
</g>
<g id="Layer_6">
	<g>
		<path class="st8" d="M555.5,651.4c-8,4.6-8.1,12.2-0.1,16.9l0.8,0.5c7.9,4.7,21,4.8,29,0.2l197.8-114.2c8-4.6,8.1-12.2,0.2-16.9
			c-7.9-4.7-20.9-4.8-28.9-0.2L555.5,651.4z"/>
		<path class="st4" d="M746.3,533.4c-11.8,6.8-11.8,18,0,24.8c11.8,6.8,31.1,6.8,42.9,0c11.8-6.8,11.8-18,0-24.8
			C777.4,526.5,758.1,526.5,746.3,533.4z"/>
		<g>
			<path class="st3" d="M653.9,608.1c-1.2,0.7-1.2,1.8,0,2.5c1.2,0.7,3.1,0.7,4.3,0c1.2-0.7,1.2-1.8,0-2.5
				C657,607.4,655,607.4,653.9,608.1z"/>
			<path class="st3" d="M661.8,603.6c-1.2,0.7-1.2,1.8,0,2.5c1.2,0.7,3.1,0.7,4.3,0c1.2-0.7,1.2-1.8,0-2.5
				C664.9,602.9,663,602.9,661.8,603.6z"/>
			<path class="st3" d="M669.7,599c-1.2,0.7-1.2,1.8,0,2.5c1.2,0.7,3.1,0.7,4.3,0c1.2-0.7,1.2-1.8,0-2.5
				C672.8,598.3,670.9,598.3,669.7,599z"/>
			<path class="st3" d="M677.6,594.4c-1.2,0.7-1.2,1.8,0,2.5c1.2,0.7,3.1,0.7,4.3,0c1.2-0.7,1.2-1.8,0-2.5
				C680.7,593.8,678.8,593.8,677.6,594.4z"/>
			<path class="st3" d="M685.5,589.9c-1.2,0.7-1.2,1.8,0,2.5c1.2,0.7,3.1,0.7,4.3,0c1.2-0.7,1.2-1.8,0-2.5
				C688.6,589.2,686.7,589.2,685.5,589.9z"/>
			<path class="st3" d="M693.4,585.3c-1.2,0.7-1.2,1.8,0,2.5c1.2,0.7,3.1,0.7,4.3,0c1.2-0.7,1.2-1.8,0-2.5
				C696.5,584.6,694.6,584.6,693.4,585.3z"/>
		</g>
		<g>
			<polyline class="st8" points="782.4,535.5 747.2,540.3 763.2,546.7 782.4,535.5 			"/>
			<polyline class="st12" points="782.4,535.5 763.2,546.7 774.3,556 782.4,535.5 			"/>
		</g>
	</g>
</g>
<g id="Layer_2">
	<g>
		<g class="st13">
			<path class="st11" d="M424.3,683.3c-13.3,7.7-13.3,20.2,0,27.9l7,4c13.3,7.7,34.9,7.7,48.2,0L621,633.4l-31.1-18
				c-13.3-7.7-35-7.7-48.2,0L424.3,683.3z"/>
		</g>
		<g>
			<path class="st4" d="M424.3,666.2c-13.3,7.7-13.3,20.2,0,27.9l7,4c13.3,7.7,34.9,7.7,48.2,0L621,616.4l-31.1-18
				c-13.3-7.7-35-7.7-48.2,0L424.3,666.2z"/>
			<g>
				<path class="st10" d="M465.2,665.4l-3,1.7l-2.1-1.9l-1.6,0.9l1.1,2.3l-1.2,1.7l1,0.8l1.7-1l4.9,4.3c0.4,0.4,0.8,0.7,1.2,0.9
					c1.8,1,3.6,1,5.6-0.2c0.4-0.2,0.8-0.5,1.2-0.8c0.3-0.3,0.5-0.6,0.7-0.8l-1.9-1.1c-0.4,0.5-0.8,0.8-1.3,1.1
					c-0.4,0.2-0.7,0.3-1.1,0.3c-0.4,0-0.7-0.1-1-0.3c-0.3-0.2-0.5-0.4-0.8-0.7l-4.9-4.3l3-1.7L465.2,665.4"/>
				<path class="st10" d="M478.7,657.6l-2.7,1.6l3.1,5.4c0.3,0.6,1,1.5,1.9,2.8l-0.1,0c-0.5-0.3-1.2-0.6-2-1.1c-0.9-0.4-1.5-0.8-2-1
					l-6.4-2.9l-2.5,1.4l13.8,5.9l0.4,0.9c0.4,0.7,0.5,1.3,0.4,1.7c-0.1,0.4-0.4,0.8-1,1.1c-0.3,0.2-0.8,0.4-1.5,0.7l2,1.2
					c0.6-0.2,1.2-0.5,1.7-0.8c1-0.6,1.6-1.3,1.9-2c0.2-0.8,0-1.7-0.5-2.7L478.7,657.6"/>
				<path class="st10" d="M491.7,659.2c-1-0.6-1.8-1.2-2.4-2c-0.6-0.8-0.9-1.5-0.9-2.1c0-0.7,0.3-1.2,0.9-1.5
					c1.1-0.6,2.4-0.5,3.8,0.3c1,0.6,1.8,1.3,2.5,2c0.6,0.7,1,1.4,1,2c0,0.6-0.2,1.1-0.9,1.5c-0.6,0.4-1.3,0.5-2,0.5
					C493.1,659.8,492.4,659.6,491.7,659.2 M495.7,652.4c-1.3-0.8-2.6-1.2-4-1.3c-1.3-0.1-2.5,0.2-3.5,0.8c-1.3,0.8-1.8,1.9-1.5,3.4
					l-0.1,0.1l-1.8-1.3l-2,1.2l13.6,12.1l2.5-1.5l-4-3.5c-0.5-0.4-1.1-0.9-1.7-1.3l0.1-0.1c1.9,0.4,3.5,0.2,4.8-0.6
					c1-0.6,1.6-1.4,1.8-2.3c0.1-0.9-0.2-1.9-0.9-2.9C498.3,654.2,497.2,653.2,495.7,652.4"/>
				<path class="st10" d="M500.5,644.9l-2.5,1.5l9.4,8.4l2.5-1.5L500.5,644.9 M498,642.5c-0.4-0.2-0.8-0.3-1.2-0.3
					c-0.4,0-0.8,0.2-1.2,0.4c-0.5,0.3-0.8,0.6-0.7,0.9c0.1,0.3,0.3,0.6,0.8,0.9c0.4,0.2,0.8,0.3,1.3,0.3c0.4,0,0.8-0.2,1.2-0.4
					c0.5-0.3,0.7-0.6,0.7-0.9C498.7,643.1,498.5,642.8,498,642.5"/>
				<path class="st10" d="M517.9,638.2c-1-0.6-2.1-0.9-3.1-0.9c-1.1,0-2.1,0.3-3,0.8c-0.7,0.4-1.2,0.9-1.5,1.5s-0.3,1.3,0,2.1
					l-0.1,0l-2-1.4l-2,1.2l9.4,8.4l2.5-1.5l-4-3.5c-0.8-0.7-1.3-1.4-1.7-2.1c-0.4-0.7-0.5-1.3-0.4-1.8c0.1-0.5,0.4-0.9,0.9-1.2
					c0.9-0.5,1.9-0.5,2.8,0c0.3,0.2,0.7,0.5,1.2,0.9l5.7,5.1l2.5-1.5l-5.6-4.9C519,638.9,518.4,638.5,517.9,638.2"/>
				<path class="st10" d="M533.3,642c-0.6-0.3-0.8-0.7-0.8-1.2c0-0.5,0.4-1,1.1-1.5l1.6-0.8c0.9-0.4,1.6-0.7,2.1-0.7
					c0.5-0.1,1,0,1.3,0.2c0.7,0.4,1,0.9,0.7,1.5c-0.3,0.6-1,1.2-2.2,1.9c-0.8,0.5-1.6,0.7-2.2,0.8
					C534.4,642.4,533.8,642.3,533.3,642 M527,634.9c-0.6-0.3-1-0.7-1.3-1.1c-0.3-0.4-0.4-0.8-0.3-1.1c0.1-0.4,0.3-0.7,0.8-1
					c0.9-0.5,1.9-0.5,3,0.1c0.6,0.3,1,0.7,1.3,1.1c0.3,0.4,0.4,0.8,0.4,1.1c-0.1,0.4-0.3,0.7-0.8,0.9c-0.5,0.3-1,0.4-1.5,0.4
					C528.1,635.3,527.5,635.2,527,634.9 M530.7,627.4l-4.1,2.4c-0.7,0.2-1.4,0.5-1.9,0.9c-1.5,0.8-2.2,1.8-2.2,2.8
					c0,1,0.7,1.9,2.1,2.7c1.2,0.7,2.6,0.9,4.2,0.7c-0.4,0.6-0.6,1.1-0.5,1.5c0,0.4,0.3,0.8,0.8,1c0.6,0.3,1.3,0.4,2.2,0.3
					c-0.7,0.9-1.1,1.6-1,2.2c0,0.6,0.4,1.1,1.2,1.5c0.9,0.5,2.1,0.7,3.4,0.6c1.3-0.2,2.7-0.7,4.2-1.5c2-1.2,3.1-2.3,3.5-3.3
					c0.3-1.1-0.2-2-1.7-2.8c-0.9-0.5-1.8-0.7-2.8-0.7c-1,0-2.2,0.4-3.7,1l-1.5,0.7c-0.5,0.2-0.9,0.4-1.2,0.4c-0.3,0.1-0.6,0-0.9-0.1
					c-0.5-0.3-0.5-0.7,0.1-1.3c0.3-0.1,0.7-0.3,1.1-0.5c1.4-0.8,2.2-1.7,2.2-2.7c0-1-0.6-1.8-2-2.6c-0.6-0.3-1.2-0.6-1.8-0.7
					l1.7-1.4L530.7,627.4"/>
				<path class="st10" d="M545.9,630.5c-0.4-0.2-0.9-0.4-1.3-0.4c-0.5,0-0.9,0.1-1.3,0.4c-0.6,0.3-0.9,0.7-0.9,1.1
					c0,0.4,0.3,0.8,0.9,1.1c0.4,0.2,0.8,0.3,1.3,0.3c0.5,0,1-0.1,1.4-0.4c0.6-0.3,0.8-0.7,0.8-1.1
					C546.8,631.2,546.5,630.8,545.9,630.5"/>
				<path class="st10" d="M554.1,625.8c-0.4-0.2-0.9-0.4-1.4-0.4c-0.5,0-0.9,0.1-1.3,0.4c-0.6,0.3-0.9,0.7-0.9,1.1
					c0,0.4,0.3,0.8,0.9,1.1c0.4,0.2,0.8,0.3,1.3,0.4c0.5,0,1-0.1,1.4-0.4c0.5-0.3,0.8-0.7,0.8-1.1
					C554.9,626.5,554.7,626.1,554.1,625.8"/>
				<path class="st10" d="M562.2,621.1c-0.4-0.2-0.9-0.4-1.3-0.4c-0.5,0-0.9,0.1-1.3,0.4c-0.6,0.3-0.9,0.7-0.9,1.1
					c0,0.4,0.3,0.8,0.9,1.1c0.4,0.2,0.8,0.3,1.3,0.4c0.5,0,1-0.1,1.4-0.4c0.6-0.3,0.8-0.7,0.8-1.1
					C563.1,621.7,562.8,621.4,562.2,621.1"/>
			</g>
		</g>
	</g>
</g>
<g id="Layer_3">
	<g>
		<g class="st13">
			<path class="st11" d="M502,566.2c-4,2.3-4,6.1,0,8.4l62.6,36.7c4,2.3,10.5,2.4,14.5,0l214-123.5l22-1.5l-80-46.3
				c-4-2.3-10.5-2.3-14.5,0L502,566.2z"/>
		</g>
		<g>
			<path class="st8" d="M502,547.4c-4,2.3-4,6.1,0,8.4l62.6,36.7c4,2.3,10.5,2.4,14.5,0l214-123.5l22-1.5l-80-46.3
				c-4-2.3-10.5-2.3-14.5,0L502,547.4z"/>
			<g>
				<path class="st4" d="M724.3,450.7l1.6-0.9l9.8,5.7c5.7,3.3,5.8,8.7,0.1,12c-5.7,3.3-15,3.3-20.8,0l-9.8-5.7l1.6-0.9l9.8,5.7
					c4.8,2.8,12.7,2.8,17.5,0c4.8-2.8,4.8-7.3-0.1-10.1L724.3,450.7 M738.9,453.6l-10.4-6c-1.4-0.8-3.7-0.8-5.1,0l-2.2,1.3l-3.7-2.1
					c-4.8-2.8-12.7-2.8-17.5,0c-4.8,2.8-4.8,7.3,0,10.1l3.7,2.1l-2.2,1.3c-1.4,0.8-1.4,2.2,0,3l10.4,6c6.4,3.7,16.1,4.2,23.5,1.6
					c1.2-0.4,2.7-0.3,3.7,0.2l4.9,2.8c1.2,0.7,1.2,1.8,0,2.5l-5.6,3.2c-0.9,0.5-0.9,1.3,0,1.8c0.9,0.5,2.3,0.5,3.2,0l18.6-10.8
					c0.9-0.5,0.9-1.3,0-1.8c-0.9-0.5-2.3-0.5-3.2,0l-5.6,3.2c-1.2,0.7-3.1,0.7-4.3,0l-4.9-2.8c-1-0.6-1.2-1.5-0.4-2.1
					C746.2,463,745.3,457.3,738.9,453.6"/>
				<path class="st3" d="M702.2,475.1c-1.1-0.6-2.9-0.6-4,0l-140,81.4c-1.1,0.6-1.1,1.7,0,2.3c1.1,0.6,2.9,0.6,4,0l140-81.4
					C703.3,476.7,703.2,475.7,702.2,475.1"/>
			</g>
			<path class="st4" d="M592.3,525.5c-6.1,3.5-6.1,9.2,0,12.8c6.1,3.5,16,3.5,22.1,0c6.1-3.5,6.1-9.2,0-12.8
				C608.3,522,598.4,522,592.3,525.5z"/>
		</g>
	</g>
</g>
<g id="Layer_4">
	<g>
		<g class="st13">
			<path class="st11" d="M298,547.1c-4,2.3-4,6.1,0,8.4l128.8,74.7l-1.5-22.1l154.1-89c4-2.3,4-6.1,0-8.4l-101.9-58.9
				c-4-2.3-10.5-2.3-14.5,0L298,547.1z"/>
		</g>
		<g>
			<path class="st6" d="M298,523.3c-4,2.3-4,6.1,0,8.4l128.8,74.7l-1.5-22.1l154.1-89c4-2.3,4-6.1,0-8.4L477.5,428
				c-4-2.3-10.5-2.3-14.5,0L298,523.3z"/>
			<g>
				<line class="st14" x1="403.4" y1="484.1" x2="464.1" y2="449"/>
				<line class="st14" x1="413.7" y1="490" x2="474.5" y2="454.9"/>
				<line class="st14" x1="424" y1="496" x2="466.6" y2="471.4"/>
				<line class="st14" x1="434.4" y1="502" x2="472.1" y2="480.2"/>
			</g>
			<g>
				<path class="st3" d="M421.6,512.8L448,528l-49.6,28.8l-5.2,3L338.2,528l54.7-31.8L421.6,512.8 M470.3,534.7L392.9,490l-65.3,38
					l77.4,44.7L470.3,534.7"/>
				<path class="st2" d="M368.3,525.9c-5.1-2.9-5.1-7.7-0.1-10.6c5-2.9,13.2-2.9,18.3,0c5.1,2.9,5.1,7.7,0,10.6
					C381.5,528.8,373.4,528.8,368.3,525.9 M421.6,512.8l-28.7-16.6L338.2,528l55.1,31.8l-24-13.9l-0.1-10.9l29.1,0l-0.1-22.3
					L421.6,512.8"/>
				<polyline class="st15" points="398.3,535 369.2,535 369.2,545.9 393.3,559.8 398.4,556.8 398.3,535 				"/>
				<polyline class="st16" points="448,528 421.6,512.8 398.2,512.8 398.3,535 398.4,556.8 448,528 				"/>
				<path class="st17" d="M386.5,515.3c-5.1-2.9-13.2-2.9-18.3,0c-5,2.9-5,7.7,0.1,10.6c5.1,2.9,13.2,2.9,18.3,0
					C391.6,523,391.6,518.3,386.5,515.3"/>
			</g>
		</g>
	</g>
</g>
<g id="Layer_5">
	<g>
		<path class="st18" d="M306.9,440.2c-4,2.3-4,6.1,0,8.4l63.1,36.5c4,2.3,10.5,2.3,14.5,0l218.5-126.2c4-2.3,4-6.1,0-8.4L540,314
			c-4-2.3-10.5-2.3-14.5,0L306.9,440.2z"/>
		<path class="st4" d="M306.9,418.8c-4,2.3-4,6.1,0,8.4l63.1,36.5c4,2.3,10.5,2.3,14.5,0l218.5-126.2c4-2.3,4-6.1,0-8.4L540,292.7
			c-4-2.3-10.5-2.3-14.5,0L306.9,418.8z"/>
		<g>
			<path class="st8" d="M373.8,411.3c-0.2-0.1-0.3-0.2-0.4-0.4c-0.2-0.4,0.2-0.9,1-1l12.1-1.9c0.5-0.1,1,0,1.4,0.2
				c0.4,0.2,0.5,0.5,0.4,0.8l-3.2,7l-0.3,0.4c-0.4,0.2-0.9,0.3-1.4,0.2c-0.3,0-0.5-0.1-0.7-0.2c-0.3-0.2-0.5-0.5-0.4-0.8l2.6-5.7
				l-9.8,1.5C374.7,411.5,374.2,411.5,373.8,411.3 M397.3,402.8l9.8-1.5c0.5-0.1,1,0,1.3,0.2c0.2,0.1,0.3,0.2,0.4,0.4
				c0.1,0.3,0,0.6-0.4,0.8l-0.6,0.2l-12.1,1.9c-0.5,0.1-1,0-1.3-0.2c-0.4-0.2-0.5-0.5-0.4-0.8l3.2-7c0.2-0.4,1-0.7,1.7-0.6
				c0.3,0,0.5,0.1,0.7,0.2c0.3,0.2,0.5,0.5,0.4,0.8L397.3,402.8 M385.4,422.2c-1.1-0.6-1.1-1.7,0-2.3l29-16.9c1.1-0.7,3-0.6,4,0
				c0.2,0.1,0.4,0.3,0.6,0.5c4.1,5.3,2.4,11.7-5.1,16.1c-7.5,4.3-18.5,5.3-27.7,3C385.9,422.4,385.6,422.3,385.4,422.2 M418.6,396.3
				c-12.4-7.2-32.5-7.2-44.8,0c-12.3,7.2-12.3,18.8,0.1,26c12.4,7.2,32.5,7.2,44.8,0C431,415.1,431,403.5,418.6,396.3"/>
			<path class="st11" d="M387.9,408.2c-0.4-0.2-0.9-0.3-1.4-0.2l-12.1,1.9c-0.7,0.1-1.2,0.6-1,1c0.1,0.1,0.2,0.3,0.4,0.4
				c0.3,0.2,0.8,0.3,1.3,0.2l9.8-1.5l-2.6,5.7c-0.1,0.3,0,0.6,0.4,0.8c0.2,0.1,0.4,0.2,0.7,0.2c0.5,0.1,1,0,1.4-0.2l0.3-0.4l3.2-7
				C388.4,408.7,388.3,408.4,387.9,408.2"/>
			<path class="st11" d="M408.5,401.4c-0.3-0.2-0.8-0.3-1.3-0.2l-9.8,1.5l2.6-5.7c0.1-0.3,0-0.6-0.4-0.8c-0.2-0.1-0.4-0.2-0.7-0.2
				c-0.7-0.1-1.5,0.1-1.7,0.6l-3.2,7c-0.1,0.3,0,0.6,0.4,0.8c0.4,0.2,0.9,0.3,1.3,0.2l12.1-1.9l0.6-0.2c0.4-0.2,0.5-0.5,0.4-0.8
				C408.8,401.7,408.6,401.5,408.5,401.4"/>
			<path class="st3" d="M418.4,402.9c-1.1-0.6-2.9-0.6-4,0l-29,16.9c-1.1,0.7-1.1,1.7,0,2.3c0.2,0.1,0.5,0.2,0.8,0.3
				c9.2,2.3,20.2,1.4,27.7-3c7.5-4.4,9.2-10.8,5.1-16.1C418.8,403.2,418.6,403.1,418.4,402.9"/>
			<path class="st8" d="M438.3,379c-2.2-1.2-2.8-2.9-1.4-3.7c1.4-0.8,4.3-0.5,6.4,0.8c2.1,1.2,2.8,2.9,1.4,3.7
				S440.4,380.2,438.3,379 M450.8,371.7c-2.2-1.2-2.8-2.9-1.4-3.7c1.4-0.8,4.3-0.5,6.4,0.8c2.1,1.2,2.8,2.9,1.4,3.7
				C455.9,373.3,453,372.9,450.8,371.7 M447.1,388.3c-0.3-0.2-0.5-0.4-0.4-0.7c0.8-3.4,3.7-6.7,8.1-9.3c4.4-2.6,10.1-4.2,16-4.7
				c0.5,0,0.9,0.1,1.2,0.2c0.2,0.1,0.4,0.3,0.4,0.5c0.1,0.3-0.1,0.5-0.4,0.7c-0.2,0.1-0.5,0.2-0.8,0.2c-5.3,0.4-10.4,2-14.4,4.3
				c-4,2.3-6.6,5.3-7.3,8.3c-0.1,0.4-0.8,0.8-1.6,0.7C447.6,388.5,447.3,388.4,447.1,388.3 M474.5,363.8c-12.4-7.2-32.5-7.2-44.8,0
				c-12.3,7.2-12.3,18.8,0.1,26c12.4,7.2,32.5,7.2,44.8,0C487,382.6,486.9,371,474.5,363.8"/>
			<path class="st11" d="M443.3,376c-2.2-1.2-5-1.6-6.4-0.8c-1.4,0.8-0.8,2.5,1.4,3.7c2.1,1.2,5,1.6,6.4,0.8S445.5,377.3,443.3,376"
				/>
			<path class="st11" d="M455.9,368.7c-2.2-1.2-5-1.6-6.4-0.8c-1.4,0.8-0.8,2.5,1.4,3.7c2.1,1.2,5,1.6,6.4,0.8
				C458.7,371.6,458,370,455.9,368.7"/>
			<path class="st11" d="M472,373.8c-0.3-0.2-0.7-0.3-1.2-0.2c-5.9,0.5-11.6,2.2-16,4.7c-4.4,2.6-7.3,5.8-8.1,9.3
				c-0.1,0.3,0.1,0.5,0.4,0.7c0.2,0.1,0.5,0.2,0.8,0.2c0.7,0.1,1.5-0.2,1.6-0.7c0.7-3.1,3.3-6,7.3-8.3c4-2.3,9.1-3.8,14.4-4.3
				c0.3,0,0.6-0.1,0.8-0.2c0.3-0.2,0.5-0.4,0.4-0.7C472.4,374.1,472.2,373.9,472,373.8"/>
			<path class="st8" d="M494.2,346.5c-2.2-1.2-2.8-2.9-1.4-3.7c1.4-0.8,4.3-0.5,6.4,0.8c2.1,1.2,2.8,2.9,1.4,3.7
				C499.2,348.1,496.4,347.7,494.2,346.5 M506.8,339.2c-2.2-1.2-2.8-2.9-1.4-3.7c1.4-0.8,4.3-0.5,6.4,0.8c2.1,1.2,2.8,2.9,1.4,3.7
				C511.8,340.8,508.9,340.4,506.8,339.2 M499.3,353.6c-0.2-0.1-0.4-0.3-0.4-0.5c-0.1-0.3,0.1-0.5,0.4-0.7c0.2-0.1,0.5-0.2,0.8-0.2
				c5.3-0.4,10.4-2,14.4-4.3c4-2.3,6.6-5.3,7.3-8.4c0.1-0.4,0.8-0.8,1.6-0.7c0.3,0,0.6,0.1,0.8,0.2c0.3,0.2,0.5,0.4,0.4,0.7
				c-0.8,3.4-3.7,6.7-8.1,9.3c-4.4,2.6-10.1,4.2-16,4.7C500,353.9,499.6,353.8,499.3,353.6 M530.4,331.3c-12.4-7.2-32.5-7.2-44.8,0
				c-12.3,7.2-12.3,18.8,0.1,26c12.4,7.2,32.5,7.2,44.8,0C542.9,350.1,542.8,338.5,530.4,331.3"/>
			<path class="st11" d="M499.2,343.5c-2.2-1.2-5-1.6-6.4-0.8c-1.4,0.8-0.8,2.5,1.4,3.7c2.1,1.2,5,1.6,6.4,0.8
				C502,346.4,501.4,344.8,499.2,343.5"/>
			<path class="st11" d="M511.8,336.2c-2.2-1.2-5-1.6-6.4-0.8c-1.4,0.8-0.8,2.5,1.4,3.7c2.1,1.2,5,1.6,6.4,0.8
				C514.6,339.1,514,337.5,511.8,336.2"/>
			<path class="st11" d="M524.2,339.2c-0.2-0.1-0.5-0.2-0.8-0.2c-0.8-0.1-1.5,0.2-1.6,0.7c-0.7,3.1-3.4,6.1-7.3,8.4
				c-4,2.3-9.1,3.8-14.4,4.3c-0.3,0-0.6,0.1-0.8,0.2c-0.3,0.2-0.5,0.4-0.4,0.7c0,0.2,0.2,0.3,0.4,0.5c0.3,0.2,0.7,0.3,1.2,0.2
				c5.9-0.5,11.6-2.2,16-4.7c4.4-2.6,7.3-5.8,8.1-9.3C524.6,339.6,524.5,339.3,524.2,339.2"/>
		</g>
	</g>
</g>
<g id="Layer_7">
	<g>
		<path class="st18" d="M295.6,350.1c-4.2-2.4-4.2-6.4,0-8.8l107-61.8c4.2-2.4,11-2.4,15.2,0l72.9,42l-21.7,2.9l-101.3,58.5
			c-4.2,2.4-11,2.4-15.2,0L295.6,350.1z"/>
		<path class="st8" d="M295.6,328.9c-4.2-2.4-4.2-6.4,0-8.8l107-61.8c4.2-2.4,11-2.4,15.2,0l72.9,42l-21.7,2.9l-101.3,58.5
			c-4.2,2.4-11,2.4-15.2,0L295.6,328.9z"/>
		<line class="st14" x1="333.1" y1="317.7" x2="414.6" y2="270.7"/>
		<line class="st14" x1="346" y1="325.2" x2="427.5" y2="278.2"/>
		<line class="st14" x1="358.9" y1="332.7" x2="440.4" y2="285.6"/>
		<line class="st14" x1="414.6" y1="315.5" x2="453.3" y2="293.1"/>
	</g>
</g>
<g id="Layer_8">
	<g>
		<linearGradient id="SVGID_2_" gradientUnits="userSpaceOnUse" x1="380.3423" y1="307.832" x2="325.308" y2="208.9098">
			<stop  offset="0" style="stop-color:#FFFFFF;stop-opacity:0"/>
			<stop  offset="0.1503" style="stop-color:#EBF3FF;stop-opacity:0.1503"/>
			<stop  offset="0.534" style="stop-color:#BDD7FF;stop-opacity:0.534"/>
			<stop  offset="0.8299" style="stop-color:#A1C5FF;stop-opacity:0.8299"/>
			<stop  offset="1" style="stop-color:#96BFFF"/>
		</linearGradient>
		<polygon class="st19" points="392,174.9 392,307.6 318.1,349.9 318.1,217.2 		"/>
		<g>
			<path class="st8" d="M392,182.2c0,7.5-5.3,16.6-11.8,20.4l-50.3,28.8c-6.5,3.7-11.8,0.6-11.8-6.8v-61.1c0-7.5,5.3-16.6,11.8-20.4
				l50.3-28.8c6.5-3.7,11.8-0.6,11.8,6.8V182.2z"/>
			<g>
				<path class="st3" d="M357.2,190.3l-24.1,13.8c-2,1.1-3.6,0.1-3.6-2.3V173c0-2.4,1.6-5.3,3.6-6.4l24.1-13.8
					c2-1.1,3.6-0.1,3.6,2.3v28.8C360.9,186.2,359.2,189.1,357.2,190.3z"/>
				<path class="st3" d="M367.1,172.3l9.8,4c1.5,0.6,3.8-2,3.8-4.3v-27.8c0-2.3-2.3-2.3-3.8,0l-9.8,15.2
					C363.7,164.7,363.7,170.9,367.1,172.3z"/>
			</g>
		</g>
	</g>
</g>
<g id="Layer_9">
	<g>
		<linearGradient id="SVGID_3_" gradientUnits="userSpaceOnUse" x1="288.3838" y1="355.654" x2="246.9561" y2="282.5164">
			<stop  offset="0" style="stop-color:#FFFFFF;stop-opacity:0"/>
			<stop  offset="0.1503" style="stop-color:#EBF3FF;stop-opacity:0.1503"/>
			<stop  offset="0.534" style="stop-color:#BDD7FF;stop-opacity:0.534"/>
			<stop  offset="0.8299" style="stop-color:#A1C5FF;stop-opacity:0.8299"/>
			<stop  offset="1" style="stop-color:#96BFFF"/>
		</linearGradient>
		<polygon class="st20" points="304.9,249.9 304.9,346.9 231,389.2 231,292.2 		"/>
		<g>
			<path class="st8" d="M304.9,252.5c0,7.5-5.3,16.6-11.8,20.4l-50.3,28.8c-6.5,3.7-11.8,0.6-11.8-6.8v-61.1
				c0-7.5,5.3-16.6,11.8-20.4l50.3-28.8c6.5-3.7,11.8-0.6,11.8,6.8V252.5z"/>
			<path class="st3" d="M277.9,252.8l-3,3.3c-1.6,1.7-3.4,2.5-4.6,1.9c-3-1.4-5.4-4.6-6.5-9.3s-0.8-10.3,0.5-15.5
				c0.6-2.1,2.1-4.3,3.8-5.4l3.3-2.2c1.1-0.7,1.9-2.4,1.6-3.4l-3.1-10.2c-0.3-0.9-1.3-0.9-2.3,0.1c-10.6,11.6-16.4,30.7-13,44.8
				c3.4,14,14.7,18.2,26.3,10.4c1-0.7,1.7-2.2,1.5-3.2l-2-11.2C280.1,251.7,278.9,251.7,277.9,252.8z"/>
		</g>
	</g>
</g>
<g id="Layer_10">
	<g>
		<g>
			<linearGradient id="SVGID_4_" gradientUnits="userSpaceOnUse" x1="149.2694" y1="412.3725" x2="149.2694" y2="339.9153">
				<stop  offset="0" style="stop-color:#FFFFFF;stop-opacity:0"/>
				<stop  offset="0.6894" style="stop-color:#4E9AFF"/>
			</linearGradient>
			<rect x="73.8" y="351.1" class="st21" width="150.9" height="64.9"/>
			<g>
				<defs>
					<path id="SVGID_5_" d="M95.9,320.3c-29.4,17-29.4,44.7,0,61.7c29.4,17,77.4,17,106.8,0c29.4-17,29.4-44.7,0-61.7
						S125.2,303.3,95.9,320.3z"/>
				</defs>
				<clipPath id="SVGID_6_">
					<use xlink:href="#SVGID_5_"  style="overflow:visible;"/>
				</clipPath>
				<path class="st22" d="M95.9,320.3c-29.4,17-29.4,44.7,0,61.7c29.4,17,77.4,17,106.8,0c29.4-17,29.4-44.7,0-61.7
					S125.2,303.3,95.9,320.3z"/>
				<g class="st23">
					<path class="st4" d="M174.7,331c0,0-43.8-16.4-63.6-4.9c-19.8,11.5,8.8,36.8,8.8,36.8c9.9-0.1,19.4-2.4,27.7-5.9c0,0,0,0,0,0
						l-7.2-4.2c-4.4-0.1-8.7-1.2-12-3.1l-4.7-2.7c-2-1.2-2.7-2.8-1.9-4.4c0.9-2,1-5-2.1-8.8c0,0,10.6,2.3,21.3-0.7
						c2.5-0.7,5.5-0.5,7.5,0.6l4.3,2.5c3.2,1.9,4.9,4.3,5,6.7l7,4.1c0,0,0,0,0,0C170.6,342.3,174.5,336.8,174.7,331"/>
					<path class="st3" d="M185,345.9l-3.7,1.7c-5,2.3-12.1,2-16.6-0.6c0,0,0,0,0,0l-7-4.1c-0.1-2.4-1.7-4.9-5-6.7l-4.3-2.5
						c-2-1.2-5-1.3-7.5-0.6c-10.7,3-21.3,0.7-21.3,0.7c3.1,3.8,3,6.8,2.1,8.8c-0.7,1.6-0.1,3.3,1.9,4.4l4.7,2.7
						c3.3,1.9,7.6,2.9,12,3.1l7.2,4.2c0,0,0,0,0,0c4.5,2.6,4.9,6.8,1,9.6l-2.9,2.2c5.3,0.4,17.7,0.6,29.1-6
						C186,356.2,185.8,349,185,345.9"/>
					<path class="st12" d="M255.3,357.4l-31.5-15c-8.5-4.1-20.5-4.6-29.9-1.3l-9.4,3.3c0,0,0.3,0.6,0.5,1.5
						c0.8,3.1,1,10.3-10.4,16.9c-11.4,6.6-23.8,6.5-29.1,6c-1.7-0.1-2.6-0.3-2.6-0.3l-5.7,5.5c-5.7,5.5-4.7,12.4,2.3,17.3l26,18.2
						l44.8-26.1L255.3,357.4"/>
				</g>
			</g>
		</g>
	</g>
</g>
<g id="Layer_11">
	<g>
		<g class="st13">
			<path class="st11" d="M307.6,389.6c-4-2.3-10.5-2.3-14.5,0L162.5,465c-4,2.3-4,6.1,0,8.4l68.3,39.4l0-11c0-2.2,1.2-4.2,3.1-5.3
				l122.1-70.5c4-2.3,4-6.1,0-8.4L307.6,389.6z"/>
		</g>
		<g>
			<path class="st6" d="M307.6,368.2c-4-2.3-10.5-2.3-14.5,0l-130.6,75.4c-4,2.3-4,6.1,0,8.4l68.3,39.4l0-11c0-2.2,1.2-4.2,3.1-5.3
				l122.1-70.5c4-2.3,4-6.1,0-8.4L307.6,368.2z"/>
			<g>
				<line class="st14" x1="189.8" y1="444.4" x2="286" y2="388.8"/>
				<line class="st14" x1="200.2" y1="450.4" x2="296.3" y2="394.8"/>
				<line class="st14" x1="210.5" y1="456.3" x2="284.7" y2="413.4"/>
				<line class="st14" x1="220.8" y1="462.3" x2="258.6" y2="440.5"/>
			</g>
		</g>
	</g>
</g>
</svg>
