<svg version="1.1" id="Layer_1" xmlns="http://www.w3.org/2000/svg" xmlns:xlink="http://www.w3.org/1999/xlink" x="0px" y="0px" width="400px" height="400px" viewBox="0 0 400 400" enable-background="new 0 0 400 400" xml:space="preserve">
<g>
	<defs>
		<rect id="SVGID_1_" width="400" height="400"/>
	</defs>
	<clipPath id="SVGID_2_">
		<use xlink:href="#SVGID_1_" overflow="visible"/>
	</clipPath>
	<g clip-path="url(#SVGID_2_)">
		<defs>
			<rect id="SVGID_3_" width="400" height="400"/>
		</defs>
		<clipPath id="SVGID_4_">
			<use xlink:href="#SVGID_3_" overflow="visible"/>
		</clipPath>
		<path clip-path="url(#SVGID_4_)" fill="#366D8B" d="M180.431,88.262l-5.487,1.682c-1.484-3.512-3.415-6.729-5.709-9.604    l3.822-4.107c1.045-1.122,0.974-2.914-0.158-4.008l-3.021-2.914c-1.138-1.101-2.919-1.086-3.981,0.031l-3.793,4    c-3.046-2.342-6.413-4.262-10.004-5.701l1.258-5.334c0.36-1.531-0.609-3.107-2.172-3.52l-4.172-1.105    c-1.577-0.421-3.162,0.487-3.533,2.026l-1.279,5.291c-3.877-0.547-7.896-0.57-11.954-0.002l-1.621-5.318    c-0.475-1.566-2.171-2.505-3.792-2.091l-4.334,1.106c-1.637,0.421-2.58,2.044-2.096,3.63l1.635,5.375    c-3.887,1.548-7.461,3.619-10.655,6.106l-4.333-3.989c-1.272-1.174-3.303-1.161-4.538,0.035l-3.297,3.194    c-1.247,1.208-1.21,3.146,0.081,4.321l4.47,4.074c-2.537,3.272-4.596,6.891-6.1,10.742l-6.266-1.398    c-1.778-0.395-3.588,0.642-4.038,2.322l-1.204,4.48c-0.454,1.692,0.631,3.372,2.424,3.754l6.466,1.375    c-0.459,4.001-0.343,8.103,0.413,12.201l-6.631,2.032c-1.787,0.548-2.826,2.343-2.318,4.01l1.35,4.433    c0.508,1.668,2.369,2.558,4.146,1.992l6.786-2.16c1.755,3.691,4.01,7.025,6.666,9.953l-4.973,5.242    c-1.269,1.338-1.23,3.351,0.086,4.486l3.486,3.015c1.309,1.129,3.381,0.954,4.629-0.387l5.006-5.378    c3.305,2.131,6.899,3.796,10.678,4.944l-1.697,7.017c-0.412,1.709,0.637,3.333,2.338,3.618l4.502,0.759    c1.684,0.284,3.368-0.863,3.769-2.557l1.657-7.035c3.802,0.166,7.671-0.174,11.512-1.051l2.029,6.657    c0.483,1.586,2.167,2.393,3.754,1.803l4.195-1.557c1.569-0.583,2.448-2.324,1.971-3.892l-2.006-6.588    c3.459-1.735,6.599-3.886,9.377-6.356l4.88,4.447c1.167,1.059,2.978,0.907,4.049-0.338l2.832-3.299    c1.059-1.232,0.984-3.087-0.164-4.146l-4.758-4.383c2.129-3.071,3.843-6.397,5.099-9.883l6.105,1.3    c1.499,0.319,2.975-0.689,3.306-2.246l0.874-4.13c0.328-1.547-0.611-3.07-2.098-3.402l-5.92-1.317    c0.389-3.626,0.306-7.335-0.296-11.041l5.617-1.786c1.449-0.462,2.25-2.048,1.796-3.546l-1.214-3.98    C183.428,88.67,181.885,87.816,180.431,88.262 M145.958,134.572c-16.067,5.551-33.504-2.917-38.433-19.096    c-4.93-16.179,4.773-33.107,21.144-37.658c15.812-4.4,31.996,4.461,36.625,19.658    C169.922,112.671,161.475,129.208,145.958,134.572"/>
		<polygon clip-path="url(#SVGID_4_)" fill="#366D8B" points="105.813,68.008 101.861,69.063 101.582,72.982   "/>
		<polygon clip-path="url(#SVGID_4_)" fill="#366D8B" points="145.088,57.813 149.611,56.484 150.624,59.811   "/>
		<polygon clip-path="url(#SVGID_4_)" fill="#366D8B" points="167.163,68.625 171.712,67.437 171.357,70.297   "/>
		<polygon clip-path="url(#SVGID_4_)" fill="#366D8B" points="180.836,88.189 185.486,87.166 184.672,89.819   "/>
		<polygon clip-path="url(#SVGID_4_)" fill="#366D8B" points="182.772,121.645 187.371,120.932 186.814,117.173   "/>
		<polygon clip-path="url(#SVGID_4_)" fill="#366D8B" points="170.858,143.008 175.033,142.523 174.458,139.504   "/>
		<polygon clip-path="url(#SVGID_4_)" fill="#366D8B" points="153.215,156.047 149.471,156.499 151.145,151.027   "/>
		<polygon clip-path="url(#SVGID_4_)" fill="#366D8B" points="132.81,158.086 128.414,158.492 130.428,153.654   "/>
		<polygon clip-path="url(#SVGID_4_)" fill="#366D8B" points="87,91.08 91.359,89.9 90.608,93.568   "/>
		<polygon clip-path="url(#SVGID_4_)" fill="#366D8B" points="88.725,127.547 92.859,126.925 91.56,123.785   "/>
		<polygon clip-path="url(#SVGID_4_)" fill="#366D8B" points="104.439,148.65 108.496,148.103 108.03,145.443   "/>
		<path clip-path="url(#SVGID_4_)" fill="#5B8DA3" d="M184.978,87.265l-5.535,1.698c-1.495-3.542-3.443-6.784-5.755-9.684    l3.855-4.141c1.051-1.132,0.978-2.938-0.162-4.04l-3.044-2.936c-1.15-1.109-2.945-1.096-4.015,0.029l-3.825,4.032    c-3.07-2.359-6.465-4.295-10.085-5.746l1.265-5.378c0.367-1.542-0.613-3.129-2.185-3.547l-4.208-1.119    c-1.592-0.421-3.188,0.493-3.563,2.051l-1.288,5.332c-3.911-0.555-7.962-0.575-12.052-0.003l-1.634-5.363    c-0.482-1.581-2.193-2.527-3.822-2.11l-4.371,1.118c-1.654,0.421-2.603,2.059-2.116,3.66l1.653,5.419    c-3.922,1.561-7.527,3.646-10.746,6.157l-4.368-4.024c-1.285-1.18-3.332-1.171-4.575,0.035l-3.325,3.221    c-1.258,1.22-1.222,3.171,0.082,4.36l4.508,4.105c-2.561,3.299-4.636,6.946-6.152,10.83l-6.321-1.407    c-1.789-0.401-3.615,0.645-4.069,2.339l-1.213,4.517c-0.458,1.703,0.639,3.401,2.443,3.786l6.521,1.385    c-0.462,4.032-0.345,8.169,0.417,12.3l-6.688,2.049c-1.8,0.552-2.848,2.363-2.337,4.043l1.362,4.468    c0.511,1.68,2.385,2.578,4.18,2.006l6.842-2.177c1.768,3.722,4.043,7.084,6.72,10.037l-5.014,5.286    c-1.277,1.347-1.242,3.375,0.084,4.521l3.517,3.041c1.317,1.137,3.407,0.961,4.666-0.39l5.047-5.424    c3.334,2.149,6.958,3.828,10.765,4.983l-1.709,7.074c-0.416,1.724,0.643,3.358,2.358,3.648l4.54,0.766    c1.696,0.285,3.395-0.872,3.798-2.579l1.672-7.09c3.833,0.165,7.734-0.177,11.608-1.065l2.044,6.714    c0.487,1.599,2.184,2.413,3.787,1.817l4.229-1.571c1.58-0.586,2.467-2.342,1.987-3.924l-2.024-6.638    c3.489-1.751,6.656-3.918,9.458-6.407l4.919,4.479c1.173,1.07,3.004,0.914,4.082-0.342l2.857-3.324    c1.066-1.242,0.993-3.111-0.167-4.178l-4.795-4.418c2.143-3.097,3.874-6.452,5.141-9.963l6.158,1.309    c1.509,0.32,3.002-0.695,3.333-2.266l0.88-4.164c0.332-1.56-0.613-3.096-2.115-3.43l-5.97-1.328    c0.392-3.656,0.311-7.395-0.296-11.13l5.664-1.803c1.461-0.463,2.267-2.063,1.809-3.573l-1.223-4.011    C187.999,87.676,186.441,86.817,184.978,87.265 M150.216,133.957c-16.199,5.598-33.783-2.941-38.751-19.25    c-4.967-16.309,4.817-33.374,21.322-37.966c15.941-4.438,32.261,4.496,36.926,19.816    C174.381,111.877,165.865,128.549,150.216,133.957"/>
		<path clip-path="url(#SVGID_4_)" fill="#BFC8D6" d="M244.996,314.208c-4.25-1.408-7.429-5.017-8.325-9.451l-6.187-30.62    l-52.924,1.879l-6.515,31.902c-0.911,4.465,2.741,8.946,6.947,10.594l22.142,8.663c4.119,1.61,8.543,2.252,12.947,1.876    l46.791-4.001c1.373-0.117,2.468-1.194,2.627-2.573c0.158-1.379,1.118-2.93-0.186-3.362L244.996,314.208z"/>
		<path clip-path="url(#SVGID_4_)" fill="#D8DEE8" d="M245.52,312.345c-4.247-1.391-7.421-4.951-8.316-9.332l-6.179-30.235    l-51.638,1.859l-6.505,31.5c-0.911,4.41,1.5,8.835,5.701,10.456l22.121,8.555c4.114,1.594,8.538,2.227,12.931,1.855l46.748-3.952    c1.367-0.117,2.466-1.177,2.625-2.542c0.157-1.359-0.664-2.646-1.968-3.074L245.52,312.345z"/>
		<path clip-path="url(#SVGID_4_)" fill="#BFC8D6" d="M69.414,294.488c-5.74,0.343-10.434-3.382-10.434-8.301V108.84    c0-4.92,4.694-8.722,10.434-8.474l265.421,11.503c4.216,0.182,7.627,3.736,7.627,7.919v150.833c0,4.185-3.411,7.793-7.627,8.042    L69.414,294.488z"/>
		<path clip-path="url(#SVGID_4_)" fill="#EBEFF2" d="M71.799,294.488c-5.74,0.343-10.434-3.382-10.434-8.301V108.84    c0-4.92,4.694-8.722,10.434-8.474l265.424,11.503c4.215,0.182,7.626,3.736,7.626,7.919v150.833c0,4.185-3.411,7.793-7.626,8.042    L71.799,294.488z"/>
		<g opacity="0.3" clip-path="url(#SVGID_4_)">
			<g>
				<defs>
					<rect id="SVGID_5_" x="66.236" y="104.494" width="275.071" height="185.873"/>
				</defs>
				<clipPath id="SVGID_6_">
					<use xlink:href="#SVGID_5_" overflow="visible"/>
				</clipPath>
				<path clip-path="url(#SVGID_6_)" fill="#D8DEE8" d="M337.223,115.418L71.801,104.5c-3.071-0.125-5.565,1.9-5.565,4.529v137.927      v38.965c0,2.625,2.494,4.613,5.565,4.436l265.421-15.24c2.258-0.129,4.083-2.057,4.083-4.301v-34.479V119.652      C341.306,117.406,339.48,115.512,337.223,115.418"/>
			</g>
		</g>
		<path clip-path="url(#SVGID_4_)" fill="#BFC8D6" d="M71.799,275.29c-1.194,0.061-2.166-0.724-2.166-1.746V109.16    c0-1.023,0.972-1.816,2.166-1.769l265.424,10.514c0.88,0.033,1.595,0.773,1.595,1.652v140.946c0,0.875-0.715,1.623-1.595,1.668    L71.799,275.29z"/>
		<g opacity="0.6" clip-path="url(#SVGID_4_)">
			<g>
				<defs>
					<rect id="SVGID_7_" x="61.365" y="100.357" width="283.483" height="194.152"/>
				</defs>
				<clipPath id="SVGID_8_">
					<use xlink:href="#SVGID_7_" overflow="visible"/>
				</clipPath>
				<path clip-path="url(#SVGID_8_)" fill="#FFFFFF" d="M309.515,267.687c-22.331-13.811-6.736-53.085-31.811-72.817      c-25.282-19.894-60.857,4.506-78.569-16.098c-13.186-15.34,2.244-33.864-10.348-48.29      c-19.746-22.625-70.292,8.491-93.514-13.798c-3.298-3.164-6.626-7.964-8.518-15.668l-14.957-0.649      c-5.739-0.248-10.437,3.553-10.437,8.473v177.348c0,4.919,4.697,8.644,10.437,8.301l265.422-15.825      c4.213-0.249,7.626-3.857,7.626-8.042v-2.681C327.223,273.919,316.449,271.979,309.515,267.687"/>
			</g>
		</g>
		<g clip-path="url(#SVGID_4_)">
			<g>
				<defs>
					<rect id="SVGID_9_" x="86.537" y="225.725" width="63.885" height="36.159"/>
				</defs>
				<clipPath id="SVGID_10_">
					<use xlink:href="#SVGID_9_" overflow="visible"/>
				</clipPath>
				<polygon clip-path="url(#SVGID_10_)" fill="#F4F7FA" points="86.537,261.884 150.422,259.219 150.422,225.725 86.537,227.274           "/>
			</g>
		</g>
		<g clip-path="url(#SVGID_4_)">
			<g>
				<defs>
					<rect id="SVGID_11_" x="86.803" y="123.424" width="180.583" height="83.146"/>
				</defs>
				<clipPath id="SVGID_12_">
					<use xlink:href="#SVGID_11_" overflow="visible"/>
				</clipPath>
				<g opacity="0.7" clip-path="url(#SVGID_12_)">
					<g>
						<defs>
							<rect id="SVGID_13_" x="86.803" y="123.424" width="180.583" height="83.146"/>
						</defs>
						<clipPath id="SVGID_14_">
							<use xlink:href="#SVGID_13_" overflow="visible"/>
						</clipPath>
						<polygon clip-path="url(#SVGID_14_)" fill="#F4F7FA" points="257.68,204.213 267.384,204.077 267.384,133.115 257.68,132.867               "/>
						<polygon clip-path="url(#SVGID_14_)" fill="#F4F7FA" points="240.165,204.453 250.058,204.316 250.058,168.496         240.165,168.436       "/>
						<polygon clip-path="url(#SVGID_14_)" fill="#F4F7FA" points="222.305,204.699 232.395,204.56 232.395,125.365 222.305,125.07               "/>
						<polygon clip-path="url(#SVGID_14_)" fill="#F4F7FA" points="204.097,204.95 214.384,204.809 214.384,136.699         204.097,136.463       "/>
						<polygon clip-path="url(#SVGID_14_)" fill="#F4F7FA" points="185.521,205.207 196.016,205.063 196.016,186.619         185.521,186.661       "/>
						<polygon clip-path="url(#SVGID_14_)" fill="#F4F7FA" points="166.573,205.469 177.279,205.323 177.279,161.535         166.573,161.434       "/>
						<polygon clip-path="url(#SVGID_14_)" fill="#F4F7FA" points="147.24,205.736 158.162,205.586 158.162,141.841 147.24,141.626               "/>
						<polygon clip-path="url(#SVGID_14_)" fill="#F4F7FA" points="127.508,206.008 138.658,205.854 138.658,158.892         127.508,158.775       "/>
						<polygon clip-path="url(#SVGID_14_)" fill="#F4F7FA" points="107.368,206.284 118.748,206.128 118.748,132.533         107.368,132.259       "/>
						<polygon clip-path="url(#SVGID_14_)" fill="#F4F7FA" points="86.803,206.57 98.424,206.41 98.424,123.752 86.803,123.424               "/>
					</g>
				</g>
			</g>
		</g>
		<g clip-path="url(#SVGID_4_)">
			<g>
				<defs>
					<rect id="SVGID_15_" x="276.301" y="247.144" width="47.741" height="6.82"/>
				</defs>
				<clipPath id="SVGID_16_">
					<use xlink:href="#SVGID_15_" overflow="visible"/>
				</clipPath>
				<polygon clip-path="url(#SVGID_16_)" fill="#F4F7FA" points="276.3,253.964 324.042,251.976 324.042,247.144 276.3,249.001           "/>
			</g>
		</g>
		<g clip-path="url(#SVGID_4_)">
			<g>
				<defs>
					<rect id="SVGID_17_" x="276.301" y="184.77" width="47.741" height="5.116"/>
				</defs>
				<clipPath id="SVGID_18_">
					<use xlink:href="#SVGID_17_" overflow="visible"/>
				</clipPath>
				<polygon clip-path="url(#SVGID_18_)" fill="#F4F7FA" points="276.3,189.885 324.042,189.601 324.042,184.768 276.3,184.922           "/>
			</g>
		</g>
		<g clip-path="url(#SVGID_4_)">
			<g>
				<defs>
					<rect id="SVGID_19_" x="276.301" y="176.424" width="47.741" height="4.963"/>
				</defs>
				<clipPath id="SVGID_20_">
					<use xlink:href="#SVGID_19_" overflow="visible"/>
				</clipPath>
				<polygon clip-path="url(#SVGID_20_)" fill="#F4F7FA" points="276.3,181.389 324.042,181.331 324.042,176.501 276.3,176.425           "/>
			</g>
		</g>
		<g clip-path="url(#SVGID_4_)">
			<g>
				<defs>
					<rect id="SVGID_21_" x="276.301" y="239.194" width="7.778" height="7.91"/>
				</defs>
				<clipPath id="SVGID_22_">
					<use xlink:href="#SVGID_21_" overflow="visible"/>
				</clipPath>
				<polygon clip-path="url(#SVGID_22_)" fill="#F4F7FA" points="276.3,247.104 284.079,246.811 284.079,239.194 276.3,239.456           "/>
			</g>
		</g>
		<g clip-path="url(#SVGID_4_)">
			<g>
				<defs>
					<rect id="SVGID_23_" x="86.537" y="234.49" width="63.885" height="27.394"/>
				</defs>
				<clipPath id="SVGID_24_">
					<use xlink:href="#SVGID_23_" overflow="visible"/>
				</clipPath>
				<path clip-path="url(#SVGID_24_)" fill="#F4F7FA" d="M104.082,240.802c4.057,0.152,4.662-2.196,8.657-2.426      c6.777-0.385,8.435,6.209,14.968,6.111c5.329-0.084,6.67-4.537,11.948-4.044c3.923,0.366,4.694,2.979,8.52,3.354      c0.763,0.074,1.516,0.045,2.248-0.062v15.482l-63.885,2.665V234.49c3.424,0.248,5.924,1.021,7.713,1.808      C98.557,238.187,99.988,240.647,104.082,240.802"/>
			</g>
		</g>
		<g clip-path="url(#SVGID_4_)">
			<g>
				<defs>
					<rect id="SVGID_25_" x="276.301" y="126.654" width="47.741" height="43.29"/>
				</defs>
				<clipPath id="SVGID_26_">
					<use xlink:href="#SVGID_25_" overflow="visible"/>
				</clipPath>
				<polygon clip-path="url(#SVGID_26_)" fill="#F4F7FA" points="276.3,169.689 324.042,169.945 324.042,128.058 276.3,126.654           "/>
			</g>
		</g>
		<g clip-path="url(#SVGID_4_)">
			<g>
				<defs>
					<rect id="SVGID_27_" x="86.803" y="211.87" width="180.583" height="11.604"/>
				</defs>
				<clipPath id="SVGID_28_">
					<use xlink:href="#SVGID_27_" overflow="visible"/>
				</clipPath>
				<polygon clip-path="url(#SVGID_28_)" fill="#F4F7FA" points="86.803,223.475 267.387,219.441 267.387,211.87 86.803,215.145           "/>
			</g>
		</g>
		<g clip-path="url(#SVGID_4_)">
			<g>
				<defs>
					<rect id="SVGID_29_" x="158.163" y="222.369" width="109.224" height="36.525"/>
				</defs>
				<clipPath id="SVGID_30_">
					<use xlink:href="#SVGID_29_" overflow="visible"/>
				</clipPath>
				<polygon clip-path="url(#SVGID_30_)" fill="#F4F7FA" points="158.163,258.895 267.387,254.338 267.387,222.369 158.163,224.986           "/>
			</g>
		</g>
		<path clip-path="url(#SVGID_4_)" fill="#366D8B" d="M310.479,250.255l-3.491,1.068c-0.945-2.233-2.172-4.278-3.633-6.109    l2.431-2.61c0.664-0.715,0.62-1.856-0.1-2.55l-1.921-1.853c-0.724-0.699-1.856-0.69-2.531,0.019l-2.411,2.545    c-1.937-1.49-4.081-2.709-6.366-3.627l0.801-3.391c0.23-0.974-0.39-1.976-1.382-2.238l-2.652-0.705    c-1.004-0.268-2.01,0.311-2.247,1.291l-0.813,3.363c-2.468-0.35-5.02-0.363-7.604-0.003l-1.031-3.382    c-0.302-0.996-1.38-1.593-2.411-1.329l-2.757,0.703c-1.041,0.267-1.641,1.301-1.333,2.308l1.043,3.421    c-2.474,0.985-4.747,2.302-6.78,3.882l-2.755-2.537c-0.808-0.745-2.101-0.736-2.883,0.022l-2.098,2.031    c-0.796,0.769-0.771,2.002,0.051,2.749l2.843,2.59c-1.615,2.083-2.922,4.385-3.877,6.833l-3.988-0.886    c-1.133-0.254-2.281,0.407-2.57,1.472l-0.764,2.852c-0.291,1.077,0.403,2.147,1.543,2.388l4.113,0.877    c-0.295,2.542-0.219,5.15,0.263,7.756l-4.219,1.295c-1.134,0.35-1.797,1.489-1.474,2.551l0.859,2.817    c0.32,1.06,1.505,1.628,2.635,1.267l4.316-1.372c1.116,2.348,2.553,4.469,4.238,6.328l-3.164,3.336    c-0.805,0.851-0.781,2.13,0.055,2.853l2.219,1.92c0.83,0.717,2.15,0.604,2.944-0.246l3.184-3.422    c2.102,1.356,4.388,2.414,6.792,3.143l-1.08,4.464c-0.263,1.089,0.404,2.12,1.487,2.301l2.863,0.483    c1.07,0.181,2.145-0.55,2.396-1.628l1.055-4.474c2.42,0.107,4.881-0.108,7.32-0.668l1.291,4.232    c0.307,1.011,1.377,1.522,2.388,1.147l2.671-0.991c0.994-0.368,1.555-1.475,1.251-2.474l-1.276-4.19    c2.201-1.102,4.197-2.469,5.968-4.044l3.103,2.828c0.74,0.676,1.894,0.578,2.574-0.216l1.801-2.096    c0.672-0.785,0.628-1.962-0.104-2.635l-3.026-2.788c1.353-1.953,2.444-4.069,3.243-6.285l3.881,0.827    c0.957,0.201,1.896-0.439,2.105-1.43l0.556-2.628c0.21-0.983-0.388-1.952-1.335-2.162l-3.766-0.839    c0.249-2.305,0.194-4.666-0.186-7.023l3.571-1.138c0.922-0.29,1.433-1.299,1.142-2.252l-0.773-2.532    C312.383,250.513,311.402,249.972,310.479,250.255 M288.554,279.708c-10.221,3.53-21.311-1.855-24.447-12.146    c-3.131-10.288,3.041-21.054,13.449-23.952c10.058-2.799,20.351,2.838,23.293,12.504    C303.793,265.779,298.422,276.294,288.554,279.708"/>
		<polygon clip-path="url(#SVGID_4_)" fill="#366D8B" points="263.02,237.372 260.507,238.045 260.328,240.535   "/>
		<polygon clip-path="url(#SVGID_4_)" fill="#366D8B" points="287.997,230.888 290.872,230.042 291.52,232.159   "/>
		<polygon clip-path="url(#SVGID_4_)" fill="#366D8B" points="302.036,237.763 304.933,237.009 304.704,238.828   "/>
		<polygon clip-path="url(#SVGID_4_)" fill="#366D8B" points="310.733,250.207 313.692,249.557 313.175,251.247   "/>
		<polygon clip-path="url(#SVGID_4_)" fill="#366D8B" points="311.966,271.484 314.892,271.031 314.536,268.642   "/>
		<polygon clip-path="url(#SVGID_4_)" fill="#366D8B" points="304.388,285.073 307.044,284.765 306.679,282.843   "/>
		<polygon clip-path="url(#SVGID_4_)" fill="#366D8B" points="293.168,293.364 290.786,293.651 291.852,290.173   "/>
		<polygon clip-path="url(#SVGID_4_)" fill="#366D8B" points="280.19,294.661 277.394,294.921 278.676,291.845   "/>
		<polygon clip-path="url(#SVGID_4_)" fill="#366D8B" points="251.055,252.046 253.824,251.298 253.348,253.63   "/>
		<polygon clip-path="url(#SVGID_4_)" fill="#366D8B" points="252.152,275.239 254.781,274.844 253.954,272.848   "/>
		<polygon clip-path="url(#SVGID_4_)" fill="#366D8B" points="262.147,288.66 264.728,288.312 264.43,286.62   "/>
		<path clip-path="url(#SVGID_4_)" fill="#5B8DA3" d="M313.37,249.621l-3.521,1.079c-0.951-2.252-2.188-4.316-3.661-6.158    l2.454-2.633c0.668-0.723,0.621-1.87-0.104-2.571l-1.937-1.866c-0.73-0.705-1.874-0.699-2.555,0.018l-2.433,2.564    c-1.95-1.499-4.11-2.732-6.415-3.656l0.808-3.418c0.231-0.982-0.393-1.991-1.393-2.256l-2.677-0.712    c-1.012-0.269-2.026,0.314-2.263,1.303l-0.82,3.39c-2.488-0.35-5.065-0.365-7.667-0.002l-1.036-3.408    c-0.308-1.006-1.396-1.606-2.433-1.342l-2.781,0.71c-1.048,0.271-1.655,1.313-1.344,2.329l1.05,3.445    c-2.494,0.994-4.787,2.322-6.832,3.917l-2.781-2.558c-0.815-0.753-2.117-0.744-2.909,0.02l-2.112,2.051    c-0.802,0.773-0.778,2.018,0.053,2.773l2.864,2.608c-1.628,2.099-2.948,4.419-3.913,6.889l-4.018-0.896    c-1.141-0.253-2.301,0.411-2.589,1.488l-0.774,2.871c-0.291,1.084,0.408,2.164,1.556,2.409l4.146,0.883    c-0.293,2.564-0.219,5.194,0.268,7.821l-4.254,1.305c-1.146,0.35-1.813,1.501-1.487,2.568l0.866,2.842    c0.326,1.072,1.52,1.641,2.656,1.279l4.355-1.387c1.122,2.369,2.571,4.507,4.273,6.382l-3.19,3.364    c-0.812,0.855-0.79,2.145,0.055,2.875l2.234,1.933c0.84,0.724,2.168,0.612,2.969-0.247l3.21-3.449    c2.119,1.368,4.424,2.435,6.849,3.169l-1.087,4.5c-0.268,1.095,0.406,2.136,1.497,2.32l2.886,0.485    c1.08,0.182,2.16-0.553,2.419-1.642l1.063-4.508c2.438,0.105,4.921-0.11,7.383-0.676l1.301,4.27    c0.312,1.016,1.388,1.534,2.409,1.156l2.688-1c1.004-0.374,1.569-1.489,1.262-2.497l-1.286-4.222    c2.22-1.112,4.232-2.492,6.014-4.077l3.132,2.851c0.746,0.681,1.909,0.585,2.595-0.218l1.818-2.111    c0.68-0.792,0.63-1.979-0.107-2.659l-3.051-2.809c1.365-1.97,2.464-4.103,3.271-6.339l3.915,0.832    c0.961,0.206,1.91-0.441,2.12-1.438l0.56-2.648c0.211-0.992-0.391-1.969-1.343-2.181l-3.799-0.846    c0.251-2.326,0.197-4.701-0.189-7.08l3.604-1.146c0.931-0.296,1.441-1.313,1.147-2.271l-0.773-2.553    C315.29,249.883,314.302,249.336,313.37,249.621 M291.261,279.317c-10.303,3.561-21.486-1.869-24.646-12.246    c-3.16-10.373,3.063-21.226,13.563-24.145c10.14-2.823,20.515,2.857,23.484,12.604    C306.629,265.273,301.211,275.876,291.261,279.317"/>
	</g>
	<g clip-path="url(#SVGID_2_)">
		<defs>
			<path id="SVGID_31_" d="M144.365,167.196c-4.349,3.995-4.562,10.697-0.492,15.012l44.678,47.377     c3.169,3.359,8.006,4.489,12.192,3.203c1.383-0.42,4.737-1.949,5.893-2.902c4.688-3.882,5.021-10.708,0.734-15.21l-45.519-47.758     c-1.962-2.06-5.008-3.008-8.135-3.008C150.242,163.91,146.668,165.08,144.365,167.196"/>
		</defs>
		<clipPath id="SVGID_32_">
			<use xlink:href="#SVGID_31_" overflow="visible"/>
		</clipPath>
		
			<linearGradient id="SVGID_33_" gradientUnits="userSpaceOnUse" x1="99.6299" y1="299.5615" x2="101.6299" y2="299.5615" gradientTransform="matrix(-8.7641 24.6462 24.6462 8.7641 -6325.249 -4906.876)">
			<stop offset="0" style="stop-color:#311944"/>
			<stop offset="1" style="stop-color:#893976"/>
		</linearGradient>
		<polygon clip-path="url(#SVGID_32_)" fill="url(#SVGID_33_)" points="233.806,171.786 203.593,256.756 117.654,226.197     147.87,141.228   "/>
	</g>
	<g clip-path="url(#SVGID_2_)">
		<defs>
			<rect id="SVGID_34_" width="400" height="400"/>
		</defs>
		<clipPath id="SVGID_35_">
			<use xlink:href="#SVGID_34_" overflow="visible"/>
		</clipPath>
		<g opacity="0.3" clip-path="url(#SVGID_35_)">
			<g>
				<defs>
					<rect id="SVGID_36_" x="140.956" y="163.91" width="62.516" height="47.773"/>
				</defs>
				<clipPath id="SVGID_37_">
					<use xlink:href="#SVGID_36_" overflow="visible"/>
				</clipPath>
				<g clip-path="url(#SVGID_37_)">
					<defs>
						<path id="SVGID_38_" d="M144.365,167.199c4.377-4.023,13.344-4.628,17.487-0.281l41.62,43.666        c-4.034,0.445-8.353,2.176-13.913,0.094c-9.262-3.465-8.794-12.572-16.936-17.446c-3.723-2.228-9.651-3.814-19.519-1.234        l-9.231-9.791C139.803,177.893,140.016,171.191,144.365,167.199"/>
					</defs>
					<clipPath id="SVGID_39_">
						<use xlink:href="#SVGID_38_" overflow="visible"/>
					</clipPath>
					
						<linearGradient id="SVGID_40_" gradientUnits="userSpaceOnUse" x1="99.6313" y1="299.373" x2="101.631" y2="299.373" gradientTransform="matrix(-8.7641 24.6463 24.6463 8.7641 -6327.8687 -4907.8125)">
						<stop offset="0" style="stop-color:#311944"/>
						<stop offset="1" style="stop-color:#893976"/>
					</linearGradient>
					<polygon clip-path="url(#SVGID_39_)" fill="url(#SVGID_40_)" points="219.313,168.204 196.323,232.856 123.959,207.127        146.952,142.472      "/>
				</g>
			</g>
		</g>
	</g>
	<g clip-path="url(#SVGID_2_)">
		<defs>
			<path id="SVGID_41_" d="M126.665,161.184c-0.208,0.049-0.415,0.108-0.615,0.184c-4.96,1.876-5.809,11.783-1.895,22.128     c3.91,10.344,11.104,17.207,16.063,15.332c0.37-0.139,0.719-0.326,1.044-0.553l14.045-5.096l-14.231-37.627L126.665,161.184z"/>
		</defs>
		<clipPath id="SVGID_42_">
			<use xlink:href="#SVGID_41_" overflow="visible"/>
		</clipPath>
		
			<linearGradient id="SVGID_43_" gradientUnits="userSpaceOnUse" x1="97.9966" y1="300.29" x2="99.9966" y2="300.29" gradientTransform="matrix(18.4692 10.231 -10.231 18.4692 1382.9893 -6380.085)">
			<stop offset="0" style="stop-color:#311944"/>
			<stop offset="1" style="stop-color:#893976"/>
		</linearGradient>
		<polygon clip-path="url(#SVGID_42_)" fill="url(#SVGID_43_)" points="101.102,190.102 147.074,215.568 174.448,166.154     128.475,140.688   "/>
	</g>
	<g clip-path="url(#SVGID_2_)">
		<defs>
			<path id="SVGID_44_" d="M141.076,155.552c-0.742,14.602,3.978,27.087,14.231,37.627l120.739-6.105L237.214,81.043     L141.076,155.552z"/>
		</defs>
		<clipPath id="SVGID_45_">
			<use xlink:href="#SVGID_44_" overflow="visible"/>
		</clipPath>
		
			<linearGradient id="SVGID_46_" gradientUnits="userSpaceOnUse" x1="99.4326" y1="300.2871" x2="101.4321" y2="300.2871" gradientTransform="matrix(45.1537 75.2428 75.2428 -45.1537 -26901.6406 6171.8052)">
			<stop offset="0" style="stop-color:#AA80F9"/>
			<stop offset="0.9964" style="stop-color:#6165D7"/>
			<stop offset="1" style="stop-color:#6165D7"/>
		</linearGradient>
		<polygon clip-path="url(#SVGID_45_)" fill="url(#SVGID_46_)" points="240.113,21.166 325.521,163.49 176.267,253.059     90.859,110.734   "/>
	</g>
	<g clip-path="url(#SVGID_2_)">
		<defs>
			<rect id="SVGID_47_" width="400" height="400"/>
		</defs>
		<clipPath id="SVGID_48_">
			<use xlink:href="#SVGID_47_" overflow="visible"/>
		</clipPath>
		<g opacity="0.3" clip-path="url(#SVGID_48_)">
			<g>
				<defs>
					<rect id="SVGID_49_" x="142.823" y="153.625" width="133.223" height="39.555"/>
				</defs>
				<clipPath id="SVGID_50_">
					<use xlink:href="#SVGID_49_" overflow="visible"/>
				</clipPath>
				<g clip-path="url(#SVGID_50_)">
					<defs>
						<path id="SVGID_51_" d="M235.246,167.023c-11.702-0.007-20.497-13.652-32.573-9.657c-9.468,3.134-8.855,13.251-18.36,15.728        c-9.729,2.537-15.112-6.953-26.931-6.544c-5.374,0.187-10.242,2.369-14.559,5.565c2.179,7.727,6.331,14.739,12.484,21.064        l120.739-6.105l-19.93-33.45C247.843,163.83,240.917,167.026,235.246,167.023"/>
					</defs>
					<clipPath id="SVGID_52_">
						<use xlink:href="#SVGID_51_" overflow="visible"/>
					</clipPath>
					
						<linearGradient id="SVGID_53_" gradientUnits="userSpaceOnUse" x1="99.4302" y1="300.1445" x2="101.4293" y2="300.1445" gradientTransform="matrix(45.7178 76.1828 76.1828 -45.7178 -27245.0195 6249.0625)">
						<stop offset="0" style="stop-color:#AA80F9"/>
						<stop offset="0.9964" style="stop-color:#6165D7"/>
						<stop offset="1" style="stop-color:#6165D7"/>
					</linearGradient>
					<polygon clip-path="url(#SVGID_52_)" fill="url(#SVGID_53_)" points="240.771,94.59 293.61,182.639 178.096,251.962        125.256,163.912      "/>
				</g>
			</g>
		</g>
	</g>
	<g clip-path="url(#SVGID_2_)">
		<defs>
			<path id="SVGID_54_" d="M240.48,77.266c-14.465,5.471-16.938,34.356-5.531,64.517c11.407,30.162,32.382,50.177,46.844,44.706     c14.458-5.469,16.935-34.354,5.527-64.516c-10.142-26.81-27.841-45.605-41.808-45.605     C243.771,76.367,242.086,76.658,240.48,77.266"/>
		</defs>
		<clipPath id="SVGID_55_">
			<use xlink:href="#SVGID_54_" overflow="visible"/>
		</clipPath>
		
			<linearGradient id="SVGID_56_" gradientUnits="userSpaceOnUse" x1="99.7124" y1="299.1152" x2="101.7128" y2="299.1152" gradientTransform="matrix(42.0624 23.3004 -23.3004 42.0624 2993.405 -14794.4766)">
			<stop offset="0" style="stop-color:#E38DDD"/>
			<stop offset="0.0036" style="stop-color:#E38DDD"/>
			<stop offset="1" style="stop-color:#9571F6"/>
		</linearGradient>
		<polygon clip-path="url(#SVGID_55_)" fill="url(#SVGID_56_)" points="174.543,164.818 281.073,223.83 347.727,103.508     241.195,44.496   "/>
	</g>
	<g clip-path="url(#SVGID_2_)">
		<defs>
			<path id="SVGID_57_" d="M241.181,79.121c-3.068,1.159-5.6,3.588-7.52,7.219c-1.954,3.693-3.188,8.437-3.673,14.094     c-0.427,4.975-0.251,10.393,0.493,16.061c1.033,7.886,8.819,13.583,11.969,21.914c3.354,8.857,1.945,19.664,6.733,26.532     c2.953,4.229,6.118,7.979,9.41,11.124c4.106,3.919,8.175,6.656,12.081,8.135c3.841,1.451,7.345,1.596,10.418,0.436     c3.068-1.161,5.598-3.592,7.517-7.219c1.954-3.694,3.188-8.436,3.673-14.096c1.021-11.896-1.396-26.33-6.813-40.646     c-5.417-14.315-13.153-26.741-21.792-34.981c-4.106-3.925-8.173-6.66-12.08-8.137c-2.135-0.806-4.17-1.21-6.08-1.21     C243.989,78.346,242.543,78.604,241.181,79.121"/>
		</defs>
		<clipPath id="SVGID_58_">
			<use xlink:href="#SVGID_57_" overflow="visible"/>
		</clipPath>
		
			<linearGradient id="SVGID_59_" gradientUnits="userSpaceOnUse" x1="100.7456" y1="299.2734" x2="102.7456" y2="299.2734" gradientTransform="matrix(28.3101 -9.8924 9.8924 28.3101 -5584.894 -7331.9883)">
			<stop offset="0" style="stop-color:#311944"/>
			<stop offset="1" style="stop-color:#893976"/>
		</linearGradient>
		<polygon clip-path="url(#SVGID_58_)" fill="url(#SVGID_59_)" points="236.497,205.645 326.762,174.104 286.366,58.497     196.103,90.039   "/>
	</g>
	<g clip-path="url(#SVGID_2_)">
		<defs>
			<path id="SVGID_60_" d="M233.855,114.602c-1.21,0.472-2.343,1.066-3.391,1.768c1.028,7.925,3.172,16.339,6.337,24.71     c3.332,8.809,7.545,16.904,12.304,23.746c1.157-0.158,2.31-0.432,3.438-0.827c11.245-3.932,16.255-18.386,11.021-32.22     c-4.244-11.222-13.842-18.381-23.24-18.381C238.134,113.398,235.953,113.787,233.855,114.602"/>
		</defs>
		<clipPath id="SVGID_61_">
			<use xlink:href="#SVGID_60_" overflow="visible"/>
		</clipPath>
		
			<linearGradient id="SVGID_62_" gradientUnits="userSpaceOnUse" x1="99.2417" y1="300.6914" x2="101.2408" y2="300.6914" gradientTransform="matrix(29.4817 49.1275 49.1275 -29.4817 -17479.375 4076.8943)">
			<stop offset="0" style="stop-color:#FFC444"/>
			<stop offset="0.9964" style="stop-color:#F36F56"/>
			<stop offset="1" style="stop-color:#F36F56"/>
		</linearGradient>
		<polygon clip-path="url(#SVGID_61_)" fill="url(#SVGID_62_)" points="258.646,96.485 291.485,151.209 240.613,181.738     207.773,127.014   "/>
	</g>
	<g clip-path="url(#SVGID_2_)">
		<defs>
			<path id="SVGID_63_" d="M241.181,79.121c-3.068,1.159-5.6,3.588-7.52,7.219c-1.954,3.693-3.188,8.437-3.673,14.094     c-1.02,11.896,1.401,26.332,6.813,40.646c5.416,14.316,13.154,26.74,21.792,34.985c4.106,3.919,8.175,6.656,12.081,8.135     c3.841,1.451,7.345,1.596,10.418,0.436c3.068-1.161,5.598-3.592,7.517-7.219c1.954-3.694,3.188-8.436,3.673-14.096     c1.021-11.896-1.396-26.33-6.813-40.646c-5.417-14.315-13.153-26.741-21.792-34.981c-4.106-3.925-8.173-6.66-12.08-8.137     c-2.135-0.806-4.17-1.21-6.08-1.21C243.989,78.346,242.543,78.604,241.181,79.121"/>
		</defs>
		<clipPath id="SVGID_64_">
			<use xlink:href="#SVGID_63_" overflow="visible"/>
		</clipPath>
		<g opacity="0.3" clip-path="url(#SVGID_64_)">
			<g>
				<defs>
					<rect id="SVGID_65_" x="239.913" y="117.102" width="24.016" height="37.383"/>
				</defs>
				<clipPath id="SVGID_66_">
					<use xlink:href="#SVGID_65_" overflow="visible"/>
				</clipPath>
				<g clip-path="url(#SVGID_66_)">
					<defs>
						<path id="SVGID_67_" d="M261.718,132.218c3.884,10.276,2.506,20.121-3.002,21.967c-5.422,1.816-12.818-4.828-16.596-14.816        c-3.781-9.989-2.593-19.763,2.723-21.866C250.239,115.372,257.829,121.947,261.718,132.218"/>
					</defs>
					<clipPath id="SVGID_68_">
						<use xlink:href="#SVGID_67_" overflow="visible"/>
					</clipPath>
					
						<linearGradient id="SVGID_69_" gradientUnits="userSpaceOnUse" x1="99.166" y1="300.9199" x2="101.1669" y2="300.9199" gradientTransform="matrix(21.753 36.2485 36.2485 -21.753 -12834.7285 3050.877)">
						<stop offset="0" style="stop-color:#FFC444"/>
						<stop offset="0.9964" style="stop-color:#F36F56"/>
						<stop offset="1" style="stop-color:#F36F56"/>
					</linearGradient>
					<polygon clip-path="url(#SVGID_68_)" fill="url(#SVGID_69_)" points="258.383,103.344 283.528,145.245 245.559,168.03        220.414,126.13      "/>
				</g>
			</g>
		</g>
	</g>
	<g clip-path="url(#SVGID_2_)">
		<defs>
			<path id="SVGID_70_" d="M265.691,74.875c-10.015,4.183-15.431,14.042-12.098,22.015c3.332,7.974,14.152,11.041,24.168,6.855     c10.013-4.188,15.43-14.042,12.099-22.014c-2.321-5.557-8.275-8.73-15.06-8.73C271.845,73,268.733,73.602,265.691,74.875"/>
		</defs>
		<clipPath id="SVGID_71_">
			<use xlink:href="#SVGID_70_" overflow="visible"/>
		</clipPath>
		
			<linearGradient id="SVGID_72_" gradientUnits="userSpaceOnUse" x1="99.4775" y1="302.3594" x2="101.4766" y2="302.3594" gradientTransform="matrix(21.3111 17.2451 17.2451 -21.3111 -7074.5483 4808.8154)">
			<stop offset="0" style="stop-color:#FFC444"/>
			<stop offset="0.9964" style="stop-color:#F36F56"/>
			<stop offset="1" style="stop-color:#F36F56"/>
		</linearGradient>
		<polygon clip-path="url(#SVGID_71_)" fill="url(#SVGID_72_)" points="267.249,52.006 310.273,86.822 276.202,128.924     233.18,94.108   "/>
	</g>
	<g clip-path="url(#SVGID_2_)">
		<defs>
			<rect id="SVGID_73_" width="400" height="400"/>
		</defs>
		<clipPath id="SVGID_74_">
			<use xlink:href="#SVGID_73_" overflow="visible"/>
		</clipPath>
		<path clip-path="url(#SVGID_74_)" fill="#FFFFFF" d="M268.929,98.543l-5.741-13.73c-0.366-0.882,0.129-1.772,0.926-1.657    l14.441,2.026c0.914,0.131,1.454,1.425,0.902,2.164l-8.698,11.703C270.277,99.698,269.296,99.425,268.929,98.543"/>
		<g opacity="0.3" clip-path="url(#SVGID_74_)">
			<g>
				<defs>
					<rect id="SVGID_75_" x="252.608" y="86.578" width="31.26" height="19.039"/>
				</defs>
				<clipPath id="SVGID_76_">
					<use xlink:href="#SVGID_75_" overflow="visible"/>
				</clipPath>
				<g clip-path="url(#SVGID_76_)">
					<defs>
						<path id="SVGID_77_" d="M280.626,98.225c-3.969-3.349-3.423-8.258-7.531-9.774c-4.177-1.544-6.992,2.688-12.148,2.169        c-1.992-0.204-4.505-1.133-7.297-4.043c-1.317,3.404-1.434,7.02-0.057,10.312c3.333,7.975,14.153,11.042,24.168,6.856        c2.295-0.958,4.348-2.215,6.107-3.68C282.495,99.574,281.445,98.917,280.626,98.225"/>
					</defs>
					<clipPath id="SVGID_78_">
						<use xlink:href="#SVGID_77_" overflow="visible"/>
					</clipPath>
					
						<linearGradient id="SVGID_79_" gradientUnits="userSpaceOnUse" x1="99.4126" y1="302.1377" x2="101.4133" y2="302.1377" gradientTransform="matrix(21.6464 18.7008 18.7008 -21.6464 -7547.6826 4766.6396)">
						<stop offset="0" style="stop-color:#FFC444"/>
						<stop offset="0.9964" style="stop-color:#F36F56"/>
						<stop offset="1" style="stop-color:#F36F56"/>
					</linearGradient>
					<polygon clip-path="url(#SVGID_78_)" fill="url(#SVGID_79_)" points="265.743,70.917 294.433,95.703 270.341,123.588        241.652,98.803      "/>
				</g>
			</g>
		</g>
	</g>
	<g clip-path="url(#SVGID_2_)">
		<defs>
			<path id="SVGID_80_" d="M295.864,100.542c-12.979,3.248-21.407,14.258-18.82,24.59c2.586,10.332,15.201,16.077,28.182,12.832     c12.979-3.25,21.41-14.255,18.824-24.59c-2.097-8.378-10.785-13.738-20.916-13.738     C300.769,99.635,298.321,99.928,295.864,100.542"/>
		</defs>
		<clipPath id="SVGID_81_">
			<use xlink:href="#SVGID_80_" overflow="visible"/>
		</clipPath>
		
			<linearGradient id="SVGID_82_" gradientUnits="userSpaceOnUse" x1="99.8496" y1="301.8809" x2="101.8501" y2="301.8809" gradientTransform="matrix(22.7766 24.9627 24.9627 -22.7766 -9522.3535 4489.5972)">
			<stop offset="0" style="stop-color:#AA80F9"/>
			<stop offset="0.9964" style="stop-color:#6165D7"/>
			<stop offset="1" style="stop-color:#6165D7"/>
		</linearGradient>
		<polygon clip-path="url(#SVGID_81_)" fill="url(#SVGID_82_)" points="302.93,73.658 347.332,122.322 298.163,167.187     253.761,118.522   "/>
	</g>
	<g clip-path="url(#SVGID_2_)">
		<defs>
			<rect id="SVGID_83_" width="400" height="400"/>
		</defs>
		<clipPath id="SVGID_84_">
			<use xlink:href="#SVGID_83_" overflow="visible"/>
		</clipPath>
		<path clip-path="url(#SVGID_84_)" fill="#FFFFFF" d="M297.484,107.012c-4.645,1.163-7.468,5.868-6.304,10.51    c0.75,3.008,6.033,9.125,9.656,13.057c1.507,1.635,4.225,0.956,4.783-1.195c1.345-5.176,3.126-13.061,2.375-16.068    C306.832,108.674,302.125,105.852,297.484,107.012 M300.715,119.932c-2.491,0.623-5.021-0.89-5.641-3.384    c-0.625-2.492,0.891-5.019,3.384-5.645c2.491-0.623,5.019,0.894,5.643,3.387C304.726,116.783,303.207,119.308,300.715,119.932"/>
		<g opacity="0.3" clip-path="url(#SVGID_84_)">
			<g>
				<defs>
					<rect id="SVGID_85_" x="276.575" y="112.576" width="36.775" height="26.293"/>
				</defs>
				<clipPath id="SVGID_86_">
					<use xlink:href="#SVGID_85_" overflow="visible"/>
				</clipPath>
				<g clip-path="url(#SVGID_86_)">
					<defs>
						<path id="SVGID_87_" d="M309.739,131.77c-4.219-4.816-2.643-10.7-7.369-13.312c-4.803-2.651-9.02,1.986-15.205,0.396        c-2.391-0.616-5.278-2.215-8.143-6.277c-2.237,3.904-3.046,8.289-1.979,12.555c2.587,10.332,15.202,16.077,28.183,12.831        c2.974-0.744,5.708-1.896,8.125-3.353C311.767,133.756,310.609,132.762,309.739,131.77"/>
					</defs>
					<clipPath id="SVGID_88_">
						<use xlink:href="#SVGID_87_" overflow="visible"/>
					</clipPath>
					
						<linearGradient id="SVGID_89_" gradientUnits="userSpaceOnUse" x1="99.7837" y1="301.709" x2="101.7844" y2="301.709" gradientTransform="matrix(22.9156 26.7987 26.7987 -22.9156 -10091.1387 4350.5645)">
						<stop offset="0" style="stop-color:#AA80F9"/>
						<stop offset="0.9964" style="stop-color:#6165D7"/>
						<stop offset="1" style="stop-color:#6165D7"/>
					</linearGradient>
					<polygon clip-path="url(#SVGID_88_)" fill="url(#SVGID_89_)" points="297.566,94.115 327.495,129.115 291.762,159.668        261.835,124.668      "/>
				</g>
			</g>
		</g>
	</g>
	<g clip-path="url(#SVGID_2_)">
		<defs>
			<path id="SVGID_90_" d="M274.313,158.08c-1.709,8.542,5.363,17.14,15.643,19.17c10.111,1.998,19.531-3.124,21.189-11.416     c1.662-8.289-5.028-16.804-15.09-19.051c-1.665-0.375-3.321-0.552-4.934-0.552C282.851,146.232,275.746,150.93,274.313,158.08"/>
		</defs>
		<clipPath id="SVGID_91_">
			<use xlink:href="#SVGID_90_" overflow="visible"/>
		</clipPath>
		
			<linearGradient id="SVGID_92_" gradientUnits="userSpaceOnUse" x1="99.5586" y1="301.834" x2="101.5586" y2="301.834" gradientTransform="matrix(7.9202 25.8879 25.8879 -7.9202 -8314.167 -38.7662)">
			<stop offset="0" style="stop-color:#FF9085"/>
			<stop offset="1" style="stop-color:#FB6FBB"/>
		</linearGradient>
		<polygon clip-path="url(#SVGID_91_)" fill="url(#SVGID_92_)" points="309.364,134.983 322.043,176.421 276.044,190.495     263.368,149.056   "/>
	</g>
	<g clip-path="url(#SVGID_2_)">
		<defs>
			<path id="SVGID_93_" d="M274.313,158.08c-1.709,8.542,5.363,17.14,15.643,19.17c10.111,1.998,19.531-3.124,21.189-11.416     c1.662-8.289-5.028-16.804-15.09-19.051c-1.665-0.375-3.321-0.552-4.934-0.552C282.851,146.232,275.746,150.93,274.313,158.08"/>
		</defs>
		<clipPath id="SVGID_94_">
			<use xlink:href="#SVGID_93_" overflow="visible"/>
		</clipPath>
		
			<linearGradient id="SVGID_95_" gradientUnits="userSpaceOnUse" x1="99.5586" y1="301.834" x2="101.5586" y2="301.834" gradientTransform="matrix(7.9202 25.8879 25.8879 -7.9202 -8314.167 -38.7662)">
			<stop offset="0" style="stop-color:#FF9085"/>
			<stop offset="1" style="stop-color:#FB6FBB"/>
		</linearGradient>
		<polygon clip-path="url(#SVGID_94_)" fill="url(#SVGID_95_)" points="309.364,134.983 322.043,176.421 276.044,190.495     263.368,149.056   "/>
	</g>
	<g clip-path="url(#SVGID_2_)">
		<defs>
			<rect id="SVGID_96_" width="400" height="400"/>
		</defs>
		<clipPath id="SVGID_97_">
			<use xlink:href="#SVGID_96_" overflow="visible"/>
		</clipPath>
		<path clip-path="url(#SVGID_97_)" fill="#FFFFFF" d="M304.097,160.109L304.097,160.109c-0.346-2.292-1.957-4.211-4.201-4.7    c-2.941-0.638-5.85,1.421-6.488,4.605c0.639-3.185-1.25-6.285-4.228-6.935c-2.293-0.497-4.566,0.606-5.793,2.597    c-4.581,7.1,7.477,17.05,7.477,17.05S305.491,168.315,304.097,160.109"/>
		<g opacity="0.3" clip-path="url(#SVGID_97_)">
			<g>
				<defs>
					<rect id="SVGID_98_" x="274.062" y="149.542" width="22.686" height="28.141"/>
				</defs>
				<clipPath id="SVGID_99_">
					<use xlink:href="#SVGID_98_" overflow="visible"/>
				</clipPath>
				<g clip-path="url(#SVGID_99_)">
					<defs>
						<path id="SVGID_100_" d="M295.195,174.268c-1.313-4.937,1.759-8.67-0.647-12.196c-2.461-3.602-6.996-1.695-10.832-5.03        c-1.488-1.294-3-3.494-3.649-7.5c-2.946,2.07-5.044,5.009-5.753,8.538c-1.709,8.543,5.363,17.137,15.644,19.17        c2.331,0.459,4.624,0.542,6.79,0.295C295.937,176.393,295.468,175.282,295.195,174.268"/>
					</defs>
					<clipPath id="SVGID_101_">
						<use xlink:href="#SVGID_100_" overflow="visible"/>
					</clipPath>
					
						<linearGradient id="SVGID_102_" gradientUnits="userSpaceOnUse" x1="99.5088" y1="301.6104" x2="101.5088" y2="301.6104" gradientTransform="matrix(7.4151 27.3549 27.3549 -7.4151 -8707.5098 -336.3705)">
						<stop offset="0" style="stop-color:#FF9085"/>
						<stop offset="1" style="stop-color:#FB6FBB"/>
					</linearGradient>
					<polygon clip-path="url(#SVGID_101_)" fill="url(#SVGID_102_)" points="295.289,143.393 304.09,175.859 274.271,183.941        265.47,151.476      "/>
				</g>
			</g>
		</g>
	</g>
	<g clip-path="url(#SVGID_2_)">
		<defs>
			<path id="SVGID_103_" d="M149.073,225.835l15.207,2.807c0,0,4.344-9.241,0.09-23.952l-4.161-2.34     C160.208,202.35,162.702,215.658,149.073,225.835"/>
		</defs>
		<clipPath id="SVGID_104_">
			<use xlink:href="#SVGID_103_" overflow="visible"/>
		</clipPath>
		
			<linearGradient id="SVGID_105_" gradientUnits="userSpaceOnUse" x1="99.3423" y1="300.957" x2="101.3415" y2="300.957" gradientTransform="matrix(-0.5998 -20.9901 -20.9901 0.5998 6535.9399 2133.4868)">
			<stop offset="0" style="stop-color:#F36F56"/>
			<stop offset="0.0036" style="stop-color:#F36F56"/>
			<stop offset="1" style="stop-color:#FFC444"/>
		</linearGradient>
		<polygon clip-path="url(#SVGID_104_)" fill="url(#SVGID_105_)" points="149.088,229.198 148.322,202.371 168.608,201.791     169.375,228.619   "/>
	</g>
	<g clip-path="url(#SVGID_2_)">
		<defs>
			<path id="SVGID_106_" d="M160.094,200.473c0.369,0.547,1.604,1.338,1.533,3.267l1.355,1.021c0,0,0.707-2.039,0.527-2.93     c-0.176-0.897-2.379-1.986-3.902-3.152c-0.291-0.22-0.468-0.312-0.558-0.312C158.66,198.366,159.795,200.027,160.094,200.473"/>
		</defs>
		<clipPath id="SVGID_107_">
			<use xlink:href="#SVGID_106_" overflow="visible"/>
		</clipPath>
		
			<linearGradient id="SVGID_108_" gradientUnits="userSpaceOnUse" x1="100.1553" y1="304.2754" x2="102.1553" y2="304.2754" gradientTransform="matrix(-0.0764 4.5424 -4.5424 -0.0764 1550.9741 -230.932)">
			<stop offset="0" style="stop-color:#F36F56"/>
			<stop offset="0.0036" style="stop-color:#F36F56"/>
			<stop offset="1" style="stop-color:#FFC444"/>
		</linearGradient>
		<polygon clip-path="url(#SVGID_107_)" fill="url(#SVGID_108_)" points="158.662,198.281 158.553,204.758 163.686,204.844     163.795,198.368   "/>
	</g>
	<g clip-path="url(#SVGID_2_)">
		<defs>
			<path id="SVGID_109_" d="M151.626,320.035c0,0,0.709,0.751,2.071,0.228l1.492-4.906l-3.251-0.313L151.626,320.035z"/>
		</defs>
		<clipPath id="SVGID_110_">
			<use xlink:href="#SVGID_109_" overflow="visible"/>
		</clipPath>
		
			<linearGradient id="SVGID_111_" gradientUnits="userSpaceOnUse" x1="84.2207" y1="274.7031" x2="86.2212" y2="274.7031" gradientTransform="matrix(2.119 -0.3607 -0.3607 -2.119 71.9431 930.7357)">
			<stop offset="0" style="stop-color:#F36F56"/>
			<stop offset="0.0036" style="stop-color:#F36F56"/>
			<stop offset="1" style="stop-color:#FFC444"/>
		</linearGradient>
		<polygon clip-path="url(#SVGID_110_)" fill="url(#SVGID_111_)" points="150.676,315.204 155.09,314.453 156.141,320.626     151.727,321.378   "/>
	</g>
	<g clip-path="url(#SVGID_2_)">
		<defs>
			<path id="SVGID_112_" d="M150.592,320.793c0.255,0.579,1.138,1.894,1.9,2.984c0.706,1.009,1.979,1.458,3.162,1.104     c0.396-0.12,0.801-0.234,1.157-0.327c0.742-0.192,0.787-1.229,0.065-1.484c-0.352-0.124-0.698-0.223-1-0.269     c-0.896-0.141-2.128-2.255-2.275-3.104c-0.142-0.847-1.041-0.986-1.041-0.986S150.116,319.711,150.592,320.793"/>
		</defs>
		<clipPath id="SVGID_113_">
			<use xlink:href="#SVGID_112_" overflow="visible"/>
		</clipPath>
		
			<linearGradient id="SVGID_114_" gradientUnits="userSpaceOnUse" x1="102.5078" y1="299.2051" x2="104.5106" y2="299.2051" gradientTransform="matrix(-2.2381 20.4406 20.4406 2.2381 -5730.1128 -2465.9519)">
			<stop offset="0" style="stop-color:#444B8C"/>
			<stop offset="0.9964" style="stop-color:#26264F"/>
			<stop offset="1" style="stop-color:#26264F"/>
		</linearGradient>
		<polygon clip-path="url(#SVGID_113_)" fill="url(#SVGID_114_)" points="158.303,318.789 157.51,326.044 149.41,325.157     150.206,317.902   "/>
	</g>
	<g clip-path="url(#SVGID_2_)">
		<defs>
			<path id="SVGID_115_" d="M136.877,279.519c1.495,6.111,17.339,5.079,18.888,11.903c0.854,3.757-3.572,5.742-5.276,13.398     c-1.116,5.011-0.404,9.46,0.372,12.437c1.554,0.025,3.109,0.053,4.667,0.078c4.931-5.744,11.713-15.607,11.635-27.27     c-0.017-2.805-0.424-4.519-0.583-5.139c-2.969-11.551-16.294-16.591-19.899-17.833     C137.525,273.566,136.34,277.313,136.877,279.519"/>
		</defs>
		<clipPath id="SVGID_116_">
			<use xlink:href="#SVGID_115_" overflow="visible"/>
		</clipPath>
		
			<linearGradient id="SVGID_117_" gradientUnits="userSpaceOnUse" x1="101.6641" y1="300.873" x2="103.6641" y2="300.873" gradientTransform="matrix(-18.2264 14.9717 14.9717 18.2264 -2486.4658 -6724.6812)">
			<stop offset="0" style="stop-color:#AB316D"/>
			<stop offset="1" style="stop-color:#792D3D"/>
		</linearGradient>
		<polygon clip-path="url(#SVGID_116_)" fill="url(#SVGID_117_)" points="191.885,297.094 148.791,332.491 111.697,287.335     154.792,251.938   "/>
	</g>
	<g clip-path="url(#SVGID_2_)">
		<defs>
			<path id="SVGID_118_" d="M102.363,334.257c-0.427,0.127-0.775,1.134-0.952,1.408c-0.351,0.55,0.049,1.265,0.698,1.249     l6.767-0.157c0.416-0.011,0.597-0.53,0.279-0.796c-0.316-0.269-0.75-0.481-1.307-0.427c-0.605,0.063-1.561-0.299-2.541-0.663     c-0.907-0.336-1.835-0.669-2.521-0.669C102.63,334.202,102.49,334.219,102.363,334.257"/>
		</defs>
		<clipPath id="SVGID_119_">
			<use xlink:href="#SVGID_118_" overflow="visible"/>
		</clipPath>
		
			<linearGradient id="SVGID_120_" gradientUnits="userSpaceOnUse" x1="103.1997" y1="298.9199" x2="105.1997" y2="298.9199" gradientTransform="matrix(-6.6058 16.9557 16.9557 6.6058 -4265.3633 -3430.0874)">
			<stop offset="0" style="stop-color:#444B8C"/>
			<stop offset="0.9964" style="stop-color:#26264F"/>
			<stop offset="1" style="stop-color:#26264F"/>
		</linearGradient>
		<polygon clip-path="url(#SVGID_119_)" fill="url(#SVGID_120_)" points="110.395,334.56 108.364,339.776 100.137,336.571     102.168,331.356   "/>
	</g>
	<g clip-path="url(#SVGID_2_)">
		<defs>
			<path id="SVGID_121_" d="M102.363,334.257c0,0,0.973,0.727,2.393,0.414l2.848-1.96l-2.455-0.993L102.363,334.257z"/>
		</defs>
		<clipPath id="SVGID_122_">
			<use xlink:href="#SVGID_121_" overflow="visible"/>
		</clipPath>
		
			<linearGradient id="SVGID_123_" gradientUnits="userSpaceOnUse" x1="83.3149" y1="272.0566" x2="85.3149" y2="272.0566" gradientTransform="matrix(2.5249 0.2376 0.2376 -2.5249 -172.5448 1000.2365)">
			<stop offset="0" style="stop-color:#F36F56"/>
			<stop offset="0.0036" style="stop-color:#F36F56"/>
			<stop offset="1" style="stop-color:#FFC444"/>
		</linearGradient>
		<polygon clip-path="url(#SVGID_122_)" fill="url(#SVGID_123_)" points="102.408,331.227 107.908,331.745 107.558,335.47     102.057,334.952   "/>
	</g>
	<g clip-path="url(#SVGID_2_)">
		<defs>
			<rect id="SVGID_124_" width="400" height="400"/>
		</defs>
		<clipPath id="SVGID_125_">
			<use xlink:href="#SVGID_124_" overflow="visible"/>
		</clipPath>
		<g opacity="0.3" clip-path="url(#SVGID_125_)">
			<g>
				<defs>
					<rect id="SVGID_126_" x="136.77" y="272.504" width="24.57" height="43.413"/>
				</defs>
				<clipPath id="SVGID_127_">
					<use xlink:href="#SVGID_126_" overflow="visible"/>
				</clipPath>
				<g clip-path="url(#SVGID_127_)">
					<defs>
						<path id="SVGID_128_" d="M158.638,297.184c1.868-5.047,4.109-11.269,1.551-14.801c-2.591-3.575-8.267-0.558-13.958-3.438        c-2.112-1.067-4.283-2.98-6.088-6.441c-3.195,3.3-3.63,5.515-3.265,7.016c1.495,6.109,17.339,5.078,18.888,11.902        c0.854,3.758-3.572,5.742-5.276,13.398c-0.96,4.308-0.568,8.199,0.055,11.097c0.556-2.69,1.415-5.518,2.734-8.374        C155.32,303.12,156.668,302.499,158.638,297.184"/>
					</defs>
					<clipPath id="SVGID_129_">
						<use xlink:href="#SVGID_128_" overflow="visible"/>
					</clipPath>
					
						<linearGradient id="SVGID_130_" gradientUnits="userSpaceOnUse" x1="99.6514" y1="302.1885" x2="101.6508" y2="302.1885" gradientTransform="matrix(-22.5171 -7.6025 -7.6025 22.5171 4723.2271 -5741.6631)">
						<stop offset="0" style="stop-color:#AB316D"/>
						<stop offset="1" style="stop-color:#792D3D"/>
					</linearGradient>
					<polygon clip-path="url(#SVGID_129_)" fill="url(#SVGID_130_)" points="160.064,323.868 123.354,311.474 139.197,264.554        175.908,276.948      "/>
				</g>
			</g>
		</g>
	</g>
	<g clip-path="url(#SVGID_2_)">
		<defs>
			<path id="SVGID_131_" d="M129.928,270.089c-2.178,2.517-2.178,4.622-3.77,13.406c-2.059,11.383-3.087,17.074-6.256,22.43     c-4.324,7.316-8.16,7.048-12.469,15.337c-2.351,4.531-3.344,8.727-3.815,11.563c0.404,0.188,1.002,0.419,1.758,0.513     c1.013,0.127,1.842-0.056,2.327-0.196c6.833-5.657,15.541-14.126,23.468-26.008c10.708-16.051,15.381-31.429,17.574-41.494     c-1.626-0.187-3.402-0.317-5.213-0.317C138.495,265.321,133.166,266.342,129.928,270.089"/>
		</defs>
		<clipPath id="SVGID_132_">
			<use xlink:href="#SVGID_131_" overflow="visible"/>
		</clipPath>
		
			<linearGradient id="SVGID_133_" gradientUnits="userSpaceOnUse" x1="101.7393" y1="299.6367" x2="103.7396" y2="299.6367" gradientTransform="matrix(-12.9992 26.0612 26.0612 12.9992 -6351.0313 -6265.502)">
			<stop offset="0" style="stop-color:#AB316D"/>
			<stop offset="1" style="stop-color:#792D3D"/>
		</linearGradient>
		<polygon clip-path="url(#SVGID_132_)" fill="url(#SVGID_133_)" points="175.963,278.896 139.755,351.485 76.4,319.887     112.609,247.294   "/>
	</g>
	<g clip-path="url(#SVGID_2_)">
		<defs>
			<rect id="SVGID_134_" width="400" height="400"/>
		</defs>
		<clipPath id="SVGID_135_">
			<use xlink:href="#SVGID_134_" overflow="visible"/>
		</clipPath>
		<g opacity="0.3" clip-path="url(#SVGID_135_)">
			<g>
				<defs>
					<rect id="SVGID_136_" x="103.619" y="266.103" width="34.148" height="67.277"/>
				</defs>
				<clipPath id="SVGID_137_">
					<use xlink:href="#SVGID_136_" overflow="visible"/>
				</clipPath>
				<g clip-path="url(#SVGID_137_)">
					<defs>
						<path id="SVGID_138_" d="M109.086,323.137c1.538-2.425,4.263-4.95,9.644-9.934c5.558-5.151,5.344-4.219,6.438-5.741        c4.9-6.813,2.248-14.092,3.458-22.879c0.676-4.9,2.839-11.306,9.139-18.48c-2.951,0.543-5.779,1.714-7.838,3.986        c-2.527,2.789-2.342,5.52-3.77,13.406c-2.061,11.383-3.087,17.074-6.256,22.43c-4.324,7.316-8.16,7.048-12.467,15.337        c-2.353,4.531-3.346,8.726-3.816,11.563c0.403,0.192,1.001,0.419,1.757,0.513c0.595,0.073,1.127,0.039,1.563-0.028        C106.586,327.551,108.306,324.366,109.086,323.137"/>
					</defs>
					<clipPath id="SVGID_139_">
						<use xlink:href="#SVGID_138_" overflow="visible"/>
					</clipPath>
					
						<linearGradient id="SVGID_140_" gradientUnits="userSpaceOnUse" x1="101.7983" y1="299.5156" x2="103.7983" y2="299.5156" gradientTransform="matrix(-12.7292 25.52 25.52 12.7292 -6217.2729 -6130.4756)">
						<stop offset="0" style="stop-color:#AB316D"/>
						<stop offset="1" style="stop-color:#792D3D"/>
					</linearGradient>
					<polygon clip-path="url(#SVGID_139_)" fill="url(#SVGID_140_)" points="164.65,279.511 130.963,347.048 76.736,320        110.423,252.463      "/>
				</g>
			</g>
		</g>
	</g>
	<g clip-path="url(#SVGID_2_)">
		<defs>
			<path id="SVGID_141_" d="M138.283,209.045c-1.513,1.729-2.431,1.504-3.323,3.01c-0.207,0.35-1.145,1.932-0.57,3.113     c0.737,1.507,3.64,1.748,4.851,0.585c0.577-0.552,0.334-1.001,1.245-2.792c0.737-1.455,1.042-1.448,1.224-2.215     c0.414-1.75-0.652-3.975-1.559-4.004c-0.007,0-0.012,0-0.019,0C139.566,206.742,139.504,207.645,138.283,209.045"/>
		</defs>
		<clipPath id="SVGID_142_">
			<use xlink:href="#SVGID_141_" overflow="visible"/>
		</clipPath>
		
			<linearGradient id="SVGID_143_" gradientUnits="userSpaceOnUse" x1="98.4683" y1="294.2373" x2="100.4683" y2="294.2373" gradientTransform="matrix(0.1574 -5.3508 5.3508 0.1574 -1452.0107 695.1293)">
			<stop offset="0" style="stop-color:#444B8C"/>
			<stop offset="0.9964" style="stop-color:#26264F"/>
			<stop offset="1" style="stop-color:#26264F"/>
		</linearGradient>
		<polygon clip-path="url(#SVGID_142_)" fill="url(#SVGID_143_)" points="142.116,217.16 142.42,206.75 133.822,206.498     133.514,216.906   "/>
	</g>
	<g clip-path="url(#SVGID_2_)">
		<defs>
			<path id="SVGID_144_" d="M138.31,214.529c0,0,0.517,2.765,0.149,5.016c-0.336,2.031-4.099,4.142-4.82,4.747     c-0.721,0.605,1.913,1.263,4.331,0.946s9.035-2.434,10.042-3.615c0.69-0.808-0.119-0.788-1.284-0.77     c-0.534,0.01-1.142,0.018-1.716-0.053c-1.832-0.223-3.58-3.29-3.634-4.859c-0.043-1.309-2.161-1.416-2.852-1.416     C138.389,214.525,138.31,214.529,138.31,214.529"/>
		</defs>
		<clipPath id="SVGID_145_">
			<use xlink:href="#SVGID_144_" overflow="visible"/>
		</clipPath>
		
			<linearGradient id="SVGID_146_" gradientUnits="userSpaceOnUse" x1="100.0146" y1="298.6309" x2="102.0129" y2="298.6309" gradientTransform="matrix(1.4646 21.9693 21.9693 -1.4646 -6567.4248 -1555.2246)">
			<stop offset="0" style="stop-color:#F36F56"/>
			<stop offset="0.0036" style="stop-color:#F36F56"/>
			<stop offset="1" style="stop-color:#FFC444"/>
		</linearGradient>
		<polygon clip-path="url(#SVGID_145_)" fill="url(#SVGID_146_)" points="148.631,213.479 149.434,225.506 132.988,226.602     132.186,214.574   "/>
	</g>
	<g clip-path="url(#SVGID_2_)">
		<defs>
			<path id="SVGID_147_" d="M138.725,212.135c-0.254,0.309-0.267,0.514-0.692,1.01c-0.391,0.455-0.563,0.499-0.623,0.721     c-0.074,0.277,0.053,0.742,1.057,1.539c-0.5-0.092-0.931,0.039-1.099,0.332c-0.025,0.045-0.081,0.19-0.065,0.342     c0.062,0.545,0.771,0.799,1.792,0.516c0,0,1.855,0.813,3.493-0.498c1.465-1.174-0.716-4.779-2.208-4.824     c-0.011,0-0.022,0-0.033,0C139.85,211.271,139.147,211.627,138.725,212.135"/>
		</defs>
		<clipPath id="SVGID_148_">
			<use xlink:href="#SVGID_147_" overflow="visible"/>
		</clipPath>
		
			<linearGradient id="SVGID_149_" gradientUnits="userSpaceOnUse" x1="95.6563" y1="296.4854" x2="97.6563" y2="296.4854" gradientTransform="matrix(5.1919 3.1855 3.1855 -5.1919 -1308.8258 1443.7886)">
			<stop offset="0" style="stop-color:#F36F56"/>
			<stop offset="0.0036" style="stop-color:#F36F56"/>
			<stop offset="1" style="stop-color:#FFC444"/>
		</linearGradient>
		<polygon clip-path="url(#SVGID_148_)" fill="url(#SVGID_149_)" points="139.139,208.256 146.788,212.949 142.203,220.422     134.553,215.729   "/>
	</g>
	<g clip-path="url(#SVGID_2_)">
		<defs>
			<path id="SVGID_150_" d="M183.361,201.154c-0.598,1.614-2.038,2.845-2.038,2.845s-0.057-0.968-0.454-1.265     c-0.395-0.299-0.605,0.266-0.331,1.942c0.352,2.142-0.771,2.3-0.771,2.3l1.935,1.039c0,0,0.81-2.063,1.361-2.527     c0.552-0.467,1.531-2.975,1.401-3.783c-0.083-0.531-0.278-1.304-0.573-1.304C183.74,200.401,183.561,200.605,183.361,201.154"/>
		</defs>
		<clipPath id="SVGID_151_">
			<use xlink:href="#SVGID_150_" overflow="visible"/>
		</clipPath>
		
			<linearGradient id="SVGID_152_" gradientUnits="userSpaceOnUse" x1="102.1182" y1="302.6445" x2="104.1178" y2="302.6445" gradientTransform="matrix(-0.8781 2.8043 -2.8043 -0.8781 1119.6387 186.563)">
			<stop offset="0" style="stop-color:#F36F56"/>
			<stop offset="0.0036" style="stop-color:#F36F56"/>
			<stop offset="1" style="stop-color:#FFC444"/>
		</linearGradient>
		<polygon clip-path="url(#SVGID_151_)" fill="url(#SVGID_152_)" points="180.199,199.023 177.595,207.336 184.163,209.393     186.767,201.08   "/>
	</g>
	<g clip-path="url(#SVGID_2_)">
		<defs>
			<path id="SVGID_153_" d="M170.857,219.785c-3.8,2.078-7.383,1.117-11.939,0.154c-4.108-0.865-9.006-1.732-15.565-0.369     c-3.809,0.792-10.451,2.266-14.137,7.693c-0.968,1.429-1.312,2.507-2.921,12.747c-2.053,13.086-2.127,15.368-1.837,18.188     c0.53,5.152,0.849,8.281,3.227,11.047c6.317,7.344,19.735,3.557,21.417,3.059c3.108-0.921,7.939-2.354,9.858-6.459     c0.902-1.934,0.806-3.696-0.582-10.765c-2.747-14-3.099-14.903-2.332-16.437c2.59-5.172,10.794-2.213,17.729-7.027     c4.051-2.813,8.618-8.94,8.98-24.065c-1.275-0.896-2.551-1.787-3.826-2.68C177.377,214.406,173.852,218.148,170.857,219.785"/>
		</defs>
		<clipPath id="SVGID_154_">
			<use xlink:href="#SVGID_153_" overflow="visible"/>
		</clipPath>
		
			<linearGradient id="SVGID_155_" gradientUnits="userSpaceOnUse" x1="98.771" y1="300.1172" x2="100.771" y2="300.1172" gradientTransform="matrix(26.8512 -39.2191 -39.2191 -26.8512 9239.4629 12219.8691)">
			<stop offset="0" style="stop-color:#F36F56"/>
			<stop offset="0.0036" style="stop-color:#F36F56"/>
			<stop offset="1" style="stop-color:#FFC444"/>
		</linearGradient>
		<polygon clip-path="url(#SVGID_154_)" fill="url(#SVGID_155_)" points="90.738,253.699 142.865,177.563 216.184,227.76     164.056,303.897   "/>
	</g>
	<g clip-path="url(#SVGID_2_)">
		<defs>
			<rect id="SVGID_156_" width="400" height="400"/>
		</defs>
		<clipPath id="SVGID_157_">
			<use xlink:href="#SVGID_156_" overflow="visible"/>
		</clipPath>
		<g opacity="0.3" clip-path="url(#SVGID_157_)">
			<g>
				<defs>
					<rect id="SVGID_158_" x="138.879" y="224.652" width="40.559" height="49.063"/>
				</defs>
				<clipPath id="SVGID_159_">
					<use xlink:href="#SVGID_158_" overflow="visible"/>
				</clipPath>
				<g clip-path="url(#SVGID_159_)">
					<defs>
						<path id="SVGID_160_" d="M142.814,270.434c1.353-2.776-0.466-5.331,1.528-8.667c2.543-4.252,7.117-2.81,8.837-5.949        c2.947-5.373-8.642-12.863-6.288-21.415c1.124-4.085,5.051-7.038,8.328-8.157c7.28-2.487,12.042,3.85,18.866,1.868        c1.619-0.469,3.474-1.442,5.352-3.461c-1.659,3.501-3.723,5.618-5.663,6.966c-6.935,4.813-15.14,1.85-17.729,7.025        c-0.767,1.533-0.415,2.437,2.332,16.437c1.388,7.066,1.484,8.831,0.582,10.765c-1.919,4.105-6.75,5.538-9.858,6.459        c-0.922,0.273-5.358,1.525-10.224,1.403C141.048,272.828,142.216,271.657,142.814,270.434"/>
					</defs>
					<clipPath id="SVGID_161_">
						<use xlink:href="#SVGID_160_" overflow="visible"/>
					</clipPath>
					
						<linearGradient id="SVGID_162_" gradientUnits="userSpaceOnUse" x1="100.5449" y1="300.5371" x2="102.5449" y2="300.5371" gradientTransform="matrix(-5.4387 28.3265 -28.3265 -5.4387 9223.7148 -988.5013)">
						<stop offset="0" style="stop-color:#F36F56"/>
						<stop offset="0.0036" style="stop-color:#F36F56"/>
						<stop offset="1" style="stop-color:#FFC444"/>
					</linearGradient>
					<polygon clip-path="url(#SVGID_161_)" fill="url(#SVGID_162_)" points="140.32,216.248 129.607,272.048 177.996,281.34        188.709,225.539      "/>
				</g>
			</g>
		</g>
	</g>
</g>
</svg>