<svg version="1.1" id="Layer_1" xmlns="http://www.w3.org/2000/svg" xmlns:xlink="http://www.w3.org/1999/xlink" x="0px" y="0px" width="400px" height="400px" viewBox="0 0 400 400" enable-background="new 0 0 400 400" xml:space="preserve">
<g>
	<defs>
		<rect id="SVGID_1_" x="-7" y="-7" width="407" height="407"/>
	</defs>
	<clipPath id="SVGID_2_">
		<use xlink:href="#SVGID_1_" overflow="visible"/>
	</clipPath>
	<g clip-path="url(#SVGID_2_)">
		<defs>
			<path id="SVGID_3_" d="M260.618,296.531c-6.871,10.333-23.489,2.414-25.208,18.685c-0.556,5.241-0.266,10.376-0.289,14.956     h48.443c-0.664-1.421-1.708-2.938-3.2-4.537c-9.835-10.583,12.432-22.615,31.737-23.021     c18.892-0.394,29.093-34.204-11.876-37.104c-0.899-0.063-1.783-0.095-2.642-0.095     C275.15,265.413,267.235,286.584,260.618,296.531"/>
		</defs>
		<clipPath id="SVGID_4_">
			<use xlink:href="#SVGID_3_" overflow="visible"/>
		</clipPath>
		<path clip-path="url(#SVGID_4_)" fill="#4B839B" d="M215.317,374.966l20.752,11.338c0,0,9.718-8.511,8.74-18.802    c-2.004-20.994,16.525-21.281,24.268-22.563c11.677-1.934,19.798-8.234,12.896-18.972c-7.813-12.15,10.823-22.947,30.129-23.351    c18.893-0.396,29.094-34.206-11.876-37.106c-24.467-1.733-32.737,20.691-39.607,31.021c-6.871,10.333-23.491,2.416-25.208,18.685    c-1.467,13.893,2.981,27.044-8.106,31.088C216.215,350.349,210.739,358.686,215.317,374.966"/>
		<g opacity="0.5" clip-path="url(#SVGID_4_)">
			<g>
				<defs>
					<rect id="SVGID_5_" x="221.887" y="262.755" width="112.732" height="119.2"/>
				</defs>
				<clipPath id="SVGID_6_">
					<use xlink:href="#SVGID_5_" overflow="visible"/>
				</clipPath>
				<path clip-path="url(#SVGID_6_)" fill="#BEB8F2" d="M223.247,381.799l0.474,0.156c0.097-0.294,9.905-29.654,28.401-55.827      c17.039-24.114,45.16-50.381,82.345-38.57l0.152-0.476c-16.553-5.258-32.718-3.537-48.041,5.112      c-12.243,6.909-23.975,18.231-34.871,33.653C233.17,352.083,223.344,381.505,223.247,381.799"/>
				<path clip-path="url(#SVGID_6_)" fill="#BEB8F2" d="M280.33,296.086l0.463,0.183c6.104-15.453,22.846-32.994,23.014-33.168      l-0.36-0.346C303.278,262.93,286.47,280.542,280.33,296.086"/>
				<path clip-path="url(#SVGID_6_)" fill="#BEB8F2" d="M290.698,290.604c19.766-1.134,31.135,10.804,31.248,10.924l0.363-0.341      c-0.11-0.123-11.631-12.227-31.64-11.083L290.698,290.604z"/>
				<path clip-path="url(#SVGID_6_)" fill="#BEB8F2" d="M240.96,343.898c16.183-17.978,47.04-7.697,47.331-7.57l0.228-0.444      c-0.275-0.151-31.604-10.458-47.929,7.681L240.96,343.898z"/>
				<path clip-path="url(#SVGID_6_)" fill="#BEB8F2" d="M245.606,335.074l0.479,0.144c4.485-14.769-4.913-31.75-5.01-31.922      l-0.438,0.246C240.734,303.709,250.03,320.512,245.606,335.074"/>
				<path clip-path="url(#SVGID_6_)" fill="#BEB8F2" d="M227.597,370.385l0.469,0.163c2.362-6.871-3.313-19.061-5.178-23.068      c-0.263-0.566-0.491-1.055-0.515-1.15l-0.486,0.112c0.031,0.134,0.18,0.459,0.547,1.248      C224.279,351.649,229.888,363.702,227.597,370.385"/>
			</g>
		</g>
	</g>
	<g clip-path="url(#SVGID_2_)">
		<defs>
			<rect id="SVGID_7_" x="202.305" y="197.516" width="138.198" height="132.656"/>
		</defs>
		<clipPath id="SVGID_8_">
			<use xlink:href="#SVGID_7_" overflow="visible"/>
		</clipPath>
		<path clip-path="url(#SVGID_8_)" fill="#70A1B2" d="M258.8,294.254c2.678,4.631,0.754,9.448-1.18,12.719    c-0.514,0.022-0.803,0.168-1.314,0.307c-4.613,1.249-6.847,0.8-11.586,1.313c-1.02,0.112-4.113-0.476-5.362-0.797l-2.317-0.633    c0,0-4.811-11.335,1.297-14.767c6.11-3.433,2.905-14.777,1.948-20.996c-0.587-3.817,0.369-5.754,0.377-7.191    c0.101-15.221-4.71-19.477-1.636-24.405c3.392-5.441,10.222-1.814,14.225-7.537c4.519-6.465-1.155-15.432,4.487-20.594    c0.969-0.885,1.986-1.769,3.637-2.346c4.077-1.433,7.561,0.805,10.34-2.752c5.574-7.152,15.22-10.028,21.555-3.158    c6.255,6.78,0.191,21.028-16.482,32.961c-10.894,9.837-10.881,12.648-9.505,19.443c0.961,4.758,6.724,17.022,0.075,22.284    C260.71,283.366,255.738,288.96,258.8,294.254"/>
	</g>
	<g clip-path="url(#SVGID_2_)">
		<defs>
			<path id="SVGID_9_" d="M271.711,206.574c-3.566,4.574-8.313-0.428-13.973,5.098c-4.966,4.853-2.121,15.876-1.729,21.698     c1.472,21.896-18.317,21.158-15.724,38.029c0.957,6.219,4.162,17.563-1.947,20.996c-6.108,3.432-0.888,15.166-0.888,15.166     l17.393,3.403c0,0,8.616-8.654,3.955-16.711c-3.06-5.294,1.912-10.892,8.561-16.152c6.646-5.258,0.885-17.523-0.079-22.281     c-1.373-6.796-1.386-9.606,9.508-19.443c16.675-11.933,22.737-26.181,16.481-32.961c-2.513-2.727-5.545-3.916-8.64-3.916     C279.925,199.5,275.078,202.26,271.711,206.574"/>
		</defs>
		<clipPath id="SVGID_10_">
			<use xlink:href="#SVGID_9_" overflow="visible"/>
		</clipPath>
		<g opacity="0.5" clip-path="url(#SVGID_10_)">
			<g>
				<defs>
					<rect id="SVGID_11_" x="236.316" y="197.197" width="62.727" height="111.52"/>
				</defs>
				<clipPath id="SVGID_12_">
					<use xlink:href="#SVGID_11_" overflow="visible"/>
				</clipPath>
				<path clip-path="url(#SVGID_12_)" fill="#FCFDFE" d="M247.212,308.67l-0.35-0.026c0.125-1.935,0.278-3.886,0.456-5.797      c1.305-14.148,3.989-27.642,7.975-40.109c3.375-10.567,7.734-20.546,12.955-29.66c4.196-7.328,8.971-14.141,14.188-20.25      c3.669-4.292,7.515-8.196,11.435-11.597c0.682-0.596,1.419-1.164,2.128-1.719c0.949-0.734,1.925-1.494,2.792-2.314l0.253,0.23      c-0.877,0.831-1.861,1.598-2.816,2.338c-0.709,0.549-1.438,1.117-2.114,1.705c-3.908,3.393-7.74,7.282-11.401,11.563      c-5.205,6.091-9.966,12.89-14.152,20.201c-5.208,9.095-9.56,19.055-12.932,29.601c-3.978,12.447-6.655,25.921-7.959,40.045      C247.49,304.791,247.337,306.735,247.212,308.67"/>
				<path clip-path="url(#SVGID_12_)" fill="#FCFDFE" d="M262.709,244.576l-0.327-0.123c5.522-12.916-1.681-36.063-1.756-36.296      l0.337-0.085C261.034,208.305,268.277,231.56,262.709,244.576"/>
				<path clip-path="url(#SVGID_12_)" fill="#FCFDFE" d="M250.697,282.015l-0.341-0.09c2.64-9.203,20.433-16.945,20.612-17.022      l0.152,0.298C270.941,265.277,253.293,272.956,250.697,282.015"/>
				<path clip-path="url(#SVGID_12_)" fill="#FCFDFE" d="M249.689,287.367l-0.35-0.034c0.544-6.214-2.296-15.03-8.001-24.816      c-0.287-0.494-0.287-0.494-0.283-0.556l0.35,0.029l-0.175-0.017l0.166-0.044c0.017,0.035,0.126,0.221,0.25,0.436      C247.383,272.208,250.239,281.089,249.689,287.367"/>
				<path clip-path="url(#SVGID_12_)" fill="#FCFDFE" d="M247.497,305.142l-0.328-0.127c2.688-6.361,13.17-9.253,13.275-9.282      l0.104,0.314C260.444,296.073,250.126,298.924,247.497,305.142"/>
				<path clip-path="url(#SVGID_12_)" fill="#FCFDFE" d="M246.684,308.717c-1.691-5.354-5.083-10.461-10.367-15.616l0.251-0.223      c5.329,5.196,8.746,10.349,10.454,15.754L246.684,308.717z"/>
				<path clip-path="url(#SVGID_12_)" fill="#FCFDFE" d="M279.702,216.679l-0.318-0.141c3.508-7.014,5.421-15.165,6.051-17.846      c0.152-0.649,0.204-0.878,0.241-0.952l0.323,0.129c-0.023,0.061-0.111,0.43-0.222,0.898      C285.146,201.457,283.224,209.636,279.702,216.679"/>
				<path clip-path="url(#SVGID_12_)" fill="#FCFDFE" d="M272.17,227.264l-0.26-0.223c5.246-5.347,20.961-5.819,21.626-5.838      l0.015,0.326C293.392,221.534,277.319,222.017,272.17,227.264"/>
			</g>
		</g>
	</g>
	<g clip-path="url(#SVGID_2_)">
		<defs>
			<rect id="SVGID_13_" x="202.305" y="197.516" width="138.198" height="132.656"/>
		</defs>
		<clipPath id="SVGID_14_">
			<use xlink:href="#SVGID_13_" overflow="visible"/>
		</clipPath>
		<path clip-path="url(#SVGID_14_)" fill="#366D8B" d="M246.961,344.112c-1.178-0.292,0.948-6.307-1.62-14.621    c-0.639-2.075-3.35-13.647-12.184-14.991c-1.717-0.26-3.433-0.521-5.147-0.783c-1.03-4.04-1.256-8.037,4.14-8.915    c8.382-1.359,9.961-14.899,8.215-19.958c-2.16-6.262-6.878-20.928,6.04-23.226c10.752-1.913,18.159-1.05,20.186-13.686    c2.026-12.634,10.166-19.717,22.272-17.546c12.743,2.288,24.898-12.649,34.854-6.023c17.345,11.545-2.091,37.648-25.174,43.183    c-23.087,5.533-11.092,14.611-11.549,25.089c-0.1,0.971-0.325,2.47-0.929,4.185c-3.707,10.564-15.25,11.121-24.382,19.065    C249.233,326.719,248.948,344.602,246.961,344.112"/>
	</g>
	<g clip-path="url(#SVGID_2_)">
		<defs>
			<path id="SVGID_15_" d="M305.35,226.642c-5.289,2.381-10.829,4.762-16.487,3.745c-12.104-2.171-20.249,4.913-22.272,17.549     c-2.026,12.633-9.434,11.77-20.186,13.683c-12.92,2.298-8.2,16.964-6.04,23.227c1.746,5.058,0.167,18.598-8.216,19.957     c-6.024,0.979-4.71,8.137-3.498,12.078l27.921,3.455c-0.598-3.808-0.764-9.94,3.882-13.829c5.93-4.96,25.913,0.438,26.539-13.871     c0.459-10.478-11.54-19.556,11.548-25.089c23.09-5.534,42.521-31.638,25.177-43.18c-1.831-1.223-3.741-1.711-5.713-1.711     C314.021,222.655,309.775,224.647,305.35,226.642"/>
		</defs>
		<clipPath id="SVGID_16_">
			<use xlink:href="#SVGID_15_" overflow="visible"/>
		</clipPath>
		<g opacity="0.5" clip-path="url(#SVGID_16_)">
			<g>
				<defs>
					<rect id="SVGID_17_" x="240.451" y="227.485" width="94.057" height="87.066"/>
				</defs>
				<clipPath id="SVGID_18_">
					<use xlink:href="#SVGID_17_" overflow="visible"/>
				</clipPath>
				<path clip-path="url(#SVGID_18_)" fill="#FCFDFE" d="M243.884,314.552l-0.581-0.183c13.064-40.02,46.697-73.31,87.77-86.884      l0.214,0.547C290.387,241.548,256.897,274.7,243.884,314.552"/>
				<path clip-path="url(#SVGID_18_)" fill="#FCFDFE" d="M252.994,293.364l-0.607-0.074c1.737-16.463-11.798-31.071-11.933-31.218      l0.447-0.381C241.038,261.842,254.754,276.642,252.994,293.364"/>
				<path clip-path="url(#SVGID_18_)" fill="#FCFDFE" d="M246.498,307.259l-0.502-0.335c9.92-13.688,42.173-11.939,42.496-11.917      l-0.023,0.574C288.149,295.562,256.229,293.83,246.498,307.259"/>
				<path clip-path="url(#SVGID_18_)" fill="#FCFDFE" d="M278.245,260.271l-0.53-0.293c6.846-11.48,0.443-31.171,0.379-31.37      l0.577-0.159C278.738,228.648,285.222,248.581,278.245,260.271"/>
				<path clip-path="url(#SVGID_18_)" fill="#FCFDFE" d="M299.592,243.249l-0.266-0.527c14.406-6.274,34.977,0.603,35.182,0.673      l-0.192,0.543C334.112,243.867,313.777,237.071,299.592,243.249"/>
			</g>
		</g>
	</g>
	<g clip-path="url(#SVGID_2_)">
		<defs>
			<path id="SVGID_19_" d="M98.395,263.433c-40.971,2.899-30.769,36.711-11.876,37.104c19.308,0.404,41.573,12.439,31.737,23.018     c-1.489,1.602-2.534,3.115-3.201,4.541H163.5c-0.023-4.581,0.265-9.715-0.287-14.957c-1.721-16.268-18.34-8.353-25.211-18.682     c-6.618-9.95-14.532-31.12-36.965-31.12C100.179,263.337,99.297,263.368,98.395,263.433"/>
		</defs>
		<clipPath id="SVGID_20_">
			<use xlink:href="#SVGID_19_" overflow="visible"/>
		</clipPath>
		<path clip-path="url(#SVGID_20_)" fill="#4B839B" d="M183.303,372.89l-20.75,11.334c0,0-9.722-8.508-8.741-18.799    c2.003-20.995-16.527-21.281-24.268-22.564c-11.677-1.931-19.798-8.233-12.894-18.973c7.811-12.146-10.825-22.947-30.132-23.351    c-18.891-0.394-29.092-34.205,11.876-37.104c24.467-1.732,32.739,20.691,39.607,31.024c6.87,10.329,23.492,2.414,25.209,18.681    c1.469,13.895-2.982,27.043,8.106,31.088C182.408,348.271,187.882,356.608,183.303,372.89"/>
		<g opacity="0.5" clip-path="url(#SVGID_20_)">
			<g>
				<defs>
					<rect id="SVGID_21_" x="64.002" y="260.677" width="112.732" height="119.199"/>
				</defs>
				<clipPath id="SVGID_22_">
					<use xlink:href="#SVGID_21_" overflow="visible"/>
				</clipPath>
				<path clip-path="url(#SVGID_22_)" fill="#BEB8F2" d="M175.374,379.722l-0.473,0.154c-0.096-0.292-9.903-29.652-28.401-55.827      c-17.039-24.114-45.158-50.378-82.345-38.57L64,285.004c16.555-5.257,32.719-3.538,48.042,5.111      c12.242,6.911,23.975,18.234,34.872,33.654C165.452,350.006,175.277,379.427,175.374,379.722"/>
				<path clip-path="url(#SVGID_22_)" fill="#BEB8F2" d="M118.291,294.008l-0.466,0.185c-6.104-15.454-22.843-32.993-23.012-33.169      l0.36-0.347C95.345,260.853,112.15,278.464,118.291,294.008"/>
				<path clip-path="url(#SVGID_22_)" fill="#BEB8F2" d="M107.921,288.524c-19.765-1.131-31.133,10.805-31.246,10.926l-0.366-0.34      c0.114-0.124,11.632-12.229,31.641-11.086L107.921,288.524z"/>
				<path clip-path="url(#SVGID_22_)" fill="#BEB8F2" d="M157.66,341.819c-16.183-17.978-47.039-7.694-47.33-7.569l-0.229-0.443      c0.277-0.151,31.604-10.457,47.932,7.68L157.66,341.819z"/>
				<path clip-path="url(#SVGID_22_)" fill="#BEB8F2" d="M153.015,332.997l-0.478,0.144c-4.488-14.768,4.912-31.75,5.008-31.922      l0.434,0.245C157.885,301.633,148.591,318.434,153.015,332.997"/>
				<path clip-path="url(#SVGID_22_)" fill="#BEB8F2" d="M171.026,368.307l-0.471,0.163c-2.36-6.871,3.313-19.063,5.178-23.069      c0.263-0.564,0.492-1.053,0.514-1.148l0.489,0.111c-0.033,0.136-0.185,0.46-0.551,1.248      C174.341,349.574,168.732,361.628,171.026,368.307"/>
			</g>
		</g>
	</g>
	<g clip-path="url(#SVGID_2_)">
		<defs>
			<rect id="SVGID_23_" x="58.118" y="195.441" width="138.198" height="132.654"/>
		</defs>
		<clipPath id="SVGID_24_">
			<use xlink:href="#SVGID_23_" overflow="visible"/>
		</clipPath>
		<path clip-path="url(#SVGID_24_)" fill="#70A1B2" d="M139.821,292.176c-2.678,4.631-0.757,9.451,1.181,12.719    c0.512,0.025,0.803,0.171,1.314,0.307c4.612,1.25,6.843,0.801,11.584,1.313c1.021,0.112,4.113-0.476,5.362-0.796l2.318-0.635    c0,0,4.811-11.336-1.298-14.767c-6.109-3.434-2.906-14.776-1.948-20.995c0.585-3.818-0.369-5.752-0.376-7.19    c-0.101-15.223,4.708-19.476,1.635-24.406c-3.392-5.442-10.223-1.813-14.226-7.538c-4.52-6.465,1.157-15.432-4.488-20.593    c-0.968-0.885-1.985-1.767-3.636-2.347c-4.074-1.43-7.562,0.806-10.335-2.752c-5.577-7.152-15.223-10.029-21.559-3.158    c-6.253,6.782-0.191,21.031,16.484,32.962c10.891,9.837,10.878,12.648,9.505,19.442c-0.963,4.761-6.727,17.023-0.078,22.281    C137.91,281.288,142.881,286.883,139.821,292.176"/>
	</g>
	<g clip-path="url(#SVGID_2_)">
		<defs>
			<path id="SVGID_25_" d="M105.35,201.338c-6.252,6.782-0.19,21.031,16.484,32.962c10.891,9.837,10.879,12.648,9.505,19.442     c-0.963,4.761-6.727,17.023-0.078,22.284c6.648,5.262,11.62,10.856,8.559,16.148c-4.657,8.055,3.956,16.713,3.956,16.713     l17.394-3.405c0,0,5.222-11.734-0.887-15.165c-6.109-3.434-2.906-14.778-1.948-20.995c2.595-16.874-17.196-16.131-15.725-38.031     c0.396-5.82,3.236-16.845-1.73-21.697c-5.656-5.529-10.403-0.522-13.97-5.098c-3.368-4.316-8.212-7.072-12.918-7.074     C110.896,197.422,107.863,198.613,105.35,201.338"/>
		</defs>
		<clipPath id="SVGID_26_">
			<use xlink:href="#SVGID_25_" overflow="visible"/>
		</clipPath>
		<g opacity="0.5" clip-path="url(#SVGID_26_)">
			<g>
				<defs>
					<rect id="SVGID_27_" x="99.578" y="195.12" width="62.728" height="111.521"/>
				</defs>
				<clipPath id="SVGID_28_">
					<use xlink:href="#SVGID_27_" overflow="visible"/>
				</clipPath>
				<path clip-path="url(#SVGID_28_)" fill="#FCFDFE" d="M151.409,306.593l0.35-0.026c-0.126-1.936-0.28-3.886-0.455-5.797      c-1.306-14.146-3.99-27.642-7.976-40.109c-3.378-10.566-7.737-20.545-12.955-29.66c-4.196-7.327-8.97-14.142-14.188-20.249      c-3.667-4.293-7.514-8.195-11.435-11.6c-0.684-0.592-1.417-1.163-2.128-1.716c-0.946-0.735-1.927-1.494-2.79-2.314l-0.254,0.23      c0.875,0.831,1.862,1.595,2.817,2.338c0.706,0.547,1.439,1.116,2.114,1.703c3.91,3.391,7.743,7.281,11.4,11.565      c5.205,6.091,9.967,12.888,14.153,20.2c5.208,9.097,9.558,19.055,12.931,29.6c3.978,12.448,6.659,25.922,7.96,40.046      C151.128,302.713,151.283,304.66,151.409,306.593"/>
				<path clip-path="url(#SVGID_28_)" fill="#FCFDFE" d="M135.912,242.498l0.326-0.127c-5.523-12.909,1.683-36.057,1.757-36.293      l-0.336-0.084C137.585,206.228,130.345,229.481,135.912,242.498"/>
				<path clip-path="url(#SVGID_28_)" fill="#FCFDFE" d="M147.923,279.938l0.34-0.087c-2.639-9.203-20.431-16.945-20.61-17.025      l-0.155,0.297C127.677,263.197,145.327,270.879,147.923,279.938"/>
				<path clip-path="url(#SVGID_28_)" fill="#FCFDFE" d="M148.932,285.288l0.35-0.032c-0.545-6.217,2.296-15.031,8-24.818      c0.287-0.491,0.287-0.491,0.283-0.552l-0.351,0.026l0.175-0.013l-0.166-0.049c-0.015,0.036-0.123,0.222-0.249,0.437      C151.237,270.131,148.38,279.009,148.932,285.288"/>
				<path clip-path="url(#SVGID_28_)" fill="#FCFDFE" d="M151.124,303.063l0.328-0.122c-2.691-6.367-13.17-9.258-13.273-9.285      l-0.106,0.313C138.175,293.998,148.497,296.847,151.124,303.063"/>
				<path clip-path="url(#SVGID_28_)" fill="#FCFDFE" d="M151.937,306.637c1.691-5.351,5.082-10.46,10.369-15.615l-0.252-0.223      c-5.327,5.197-8.747,10.349-10.455,15.754L151.937,306.637z"/>
				<path clip-path="url(#SVGID_28_)" fill="#FCFDFE" d="M118.917,214.603l0.318-0.144c-3.505-7.01-5.419-15.166-6.048-17.844      c-0.154-0.648-0.208-0.876-0.243-0.953l-0.323,0.131c0.024,0.058,0.111,0.429,0.222,0.897      C113.475,199.379,115.397,207.557,118.917,214.603"/>
				<path clip-path="url(#SVGID_28_)" fill="#FCFDFE" d="M126.45,225.187l0.261-0.222c-5.247-5.347-20.958-5.82-21.626-5.837      l-0.016,0.325C105.228,219.457,121.301,219.939,126.45,225.187"/>
			</g>
		</g>
	</g>
	<g clip-path="url(#SVGID_2_)">
		<defs>
			<rect id="SVGID_29_" x="58.118" y="195.441" width="138.198" height="132.654"/>
		</defs>
		<clipPath id="SVGID_30_">
			<use xlink:href="#SVGID_29_" overflow="visible"/>
		</clipPath>
		<path clip-path="url(#SVGID_30_)" fill="#366D8B" d="M151.659,342.034c1.181-0.291-0.946-6.307,1.618-14.621    c0.641-2.076,3.351-13.646,12.188-14.989c1.713-0.263,3.429-0.522,5.144-0.782c1.032-4.042,1.258-8.039-4.139-8.916    c-8.379-1.359-9.958-14.901-8.212-19.96c2.158-6.261,6.876-20.93-6.041-23.228c-10.754-1.911-18.16-1.047-20.187-13.683    c-2.025-12.635-10.165-19.717-22.27-17.545c-12.745,2.285-24.902-12.651-34.858-6.025c-17.345,11.546,2.092,37.649,25.176,43.183    c23.09,5.534,11.091,14.612,11.551,25.092c0.095,0.97,0.323,2.465,0.926,4.183c3.707,10.564,15.25,11.12,24.381,19.064    C149.388,324.642,149.671,342.526,151.659,342.034"/>
	</g>
	<g clip-path="url(#SVGID_2_)">
		<defs>
			<path id="SVGID_31_" d="M74.905,222.285c-17.348,11.546,2.087,37.649,25.173,43.183c23.09,5.534,11.091,14.614,11.55,25.092     c0.627,14.308,20.61,8.912,26.539,13.872c4.646,3.886,4.481,10.017,3.882,13.826l27.918-3.453     c1.214-3.943,2.53-11.103-3.498-12.079c-8.38-1.359-9.958-14.901-8.211-19.96c2.159-6.26,6.874-20.928-6.04-23.229     c-10.755-1.91-18.163-1.046-20.188-13.682c-2.023-12.635-10.164-19.715-22.272-17.545c-5.657,1.016-11.2-1.365-16.485-3.745     c-4.426-1.996-8.672-3.988-12.656-3.988C78.645,220.577,76.737,221.066,74.905,222.285"/>
		</defs>
		<clipPath id="SVGID_32_">
			<use xlink:href="#SVGID_31_" overflow="visible"/>
		</clipPath>
		<g opacity="0.5" clip-path="url(#SVGID_32_)">
			<g>
				<defs>
					<rect id="SVGID_33_" x="64.112" y="225.409" width="94.057" height="87.066"/>
				</defs>
				<clipPath id="SVGID_34_">
					<use xlink:href="#SVGID_33_" overflow="visible"/>
				</clipPath>
				<path clip-path="url(#SVGID_34_)" fill="#FCFDFE" d="M154.738,312.476l0.582-0.185c-13.069-40.02-46.7-73.311-87.772-86.882      l-0.213,0.544C108.234,239.47,141.723,272.623,154.738,312.476"/>
				<path clip-path="url(#SVGID_34_)" fill="#FCFDFE" d="M145.628,291.285l0.603-0.073c-1.733-16.46,11.8-31.072,11.938-31.218      l-0.45-0.38C157.582,259.765,143.866,274.563,145.628,291.285"/>
				<path clip-path="url(#SVGID_34_)" fill="#FCFDFE" d="M152.121,305.183l0.504-0.336c-9.92-13.69-42.171-11.939-42.497-11.918      l0.022,0.574C110.473,293.484,142.388,291.753,152.121,305.183"/>
				<path clip-path="url(#SVGID_34_)" fill="#FCFDFE" d="M120.373,258.197l0.532-0.296c-6.846-11.48-0.442-31.173-0.377-31.37      l-0.58-0.161C119.88,226.572,113.402,246.503,120.373,258.197"/>
				<path clip-path="url(#SVGID_34_)" fill="#FCFDFE" d="M99.029,241.174l0.267-0.526c-14.411-6.277-34.977,0.601-35.185,0.671      l0.193,0.543C64.509,241.79,84.846,234.994,99.029,241.174"/>
			</g>
		</g>
	</g>
	<g clip-path="url(#SVGID_2_)">
		<defs>
			<rect id="SVGID_35_" x="-7" y="-7" width="407" height="407"/>
		</defs>
		<clipPath id="SVGID_36_">
			<use xlink:href="#SVGID_35_" overflow="visible"/>
		</clipPath>
		<path clip-path="url(#SVGID_36_)" fill="#BFC8D6" d="M244.612,153.318l1.277-2.82c0.479-1.056,0.197-2.327-0.637-2.837    l-3.313-2.036c0.896-2.545,1.527-5.235,1.842-8.019l3.698-0.259c0.956-0.067,1.726-1.063,1.726-2.229v-3.092    c0-1.161-0.77-2.063-1.726-2.006l-3.6,0.204c-0.249-2.804-0.821-5.478-1.673-7.975l3.046-2.26    c0.097-0.071,0.185-0.154,0.268-0.244l0.392,1.014l5.004-6.157l-6.534-0.555c-0.284-0.373-0.671-0.595-1.079-0.644    c-0.364-0.042-0.746,0.051-1.088,0.301l-3.01,2.186c-1.4-2.247-3.074-4.253-4.967-5.953l0.227-0.473l4.6,0.939l0.583-7.612    l-6.985-1.154c-0.805-0.31-1.712,0.081-2.153,0.994l-1.734,3.577c-2.232-1.108-0.383-2.274-2.919-2.612l2.653-3.908    c0-1.215-7.771-2.026-8.819-2.026h-2.81c-1.062,0-1.926,0.999-1.926,2.233v4.181c-2.625,0.404-5.153,1.237-7.531,2.448    l4.797-3.526c0,0-8.45-1.602-9.415-0.965l-2.57,1.699c-0.972,0.641-1.306,2.047-0.743,3.137l1.945,3.764    c-2.131,1.895-3.035,2.988-4.645,5.491l-4.521-1.021c-0.998-0.61-2.279-0.194-2.86,0.934l-1.548,3.015    c-0.584,1.138-0.236,2.555,0.773,3.162l3.643,2.182c-1.009,2.808-1.69,5.793-1.987,8.889l-4.372,0.251    c-1.175,0.067-2.135,1.174-2.135,2.472v3.452c0,1.175,0.791,2.093,1.814,2.193l4.966,0.796c0.41,2.582,1.1,5.034,2.03,7.312    l-3.958,2.877c-1.009,0.734-1.357,2.193-0.773,3.258l1.548,2.818c0.581,1.057,9.786,1.7,9.786,1.7l-2.921-4.101    c1.598,2.147,3.458,4.009,5.522,5.529l-2.308,4.758c-0.563,1.159-0.229,2.522,0.743,3.042l2.57,1.374    c0.164,0.085,0.335,0.14,0.508,0.171l-0.01,0.046l8.021,0.989l0.786-6.056c0.932,0.145,1.879,0.232,2.844,0.259v5.178    c0,0.922,0.48,1.652,1.168,1.906l-0.036,0.15l7.949,0.993l0.159-9.822c1.456-0.554,2.855-1.237,4.197-2.041l2.117,4.101    c0.262,0.509,0.692,0.81,1.166,0.887l7.684,1.04l-2.631-7.241l-1.064,0.327l-1.752-3.431c1.842-1.827,3.479-3.916,4.875-6.201    l3.429,2.058C243.053,154.836,244.128,154.38,244.612,153.318 M218.29,150.665c-7.522,0.669-13.76-5.93-13.76-14.754    c0-8.826,6.237-16.209,13.76-16.484c7.334-0.268,13.148,6.358,13.148,14.793C231.438,142.657,225.624,150.012,218.29,150.665     M250.41,133.719l5.202-2.464l-5.202-0.634V133.719z M244.022,154.743l5.952,0.803l0.868-2.033l-4.931-2.996L244.022,154.743z"/>
		<path clip-path="url(#SVGID_36_)" fill="#D8DEE8" d="M255.153,131.164l-3.583,0.207c-0.247-2.798-0.815-5.463-1.661-7.953    l3.029-2.252c0.825-0.616,1.109-1.919,0.632-2.912l-1.273-2.65c-0.481-0.997-1.545-1.314-2.382-0.705l-2.992,2.182    c-1.393-2.243-3.057-4.24-4.937-5.934l1.721-3.606c0.49-1.034,0.198-2.344-0.657-2.929l-2.293-1.563    c-0.865-0.592-1.977-0.229-2.479,0.812l-1.729,3.572c-2.216-1.105-4.615-1.857-7.144-2.193v-4.126    c0-1.214-0.844-2.202-1.885-2.202l-2.793,0.002c-1.057,0-1.918,0.998-1.918,2.229v4.169c-2.608,0.402-5.122,1.236-7.491,2.443    l-1.863-3.669c-0.549-1.078-1.766-1.441-2.723-0.806l-2.555,1.694c-0.967,0.64-1.303,2.044-0.742,3.129l1.936,3.753    c-2.119,1.89-4.01,4.12-5.613,6.619l-3.499-2.157c-0.993-0.61-2.267-0.196-2.842,0.932l-1.538,3.007    c-0.581,1.134-0.238,2.548,0.767,3.148l3.623,2.177c-1.006,2.798-1.685,5.776-1.979,8.866l-4.345,0.252    c-1.169,0.066-2.12,1.169-2.12,2.463v3.443c0,1.292,0.951,2.276,2.12,2.194l4.462-0.318c0.375,2.981,1.118,5.798,2.176,8.391    l-3.937,2.873c-1.005,0.731-1.348,2.188-0.767,3.246l1.538,2.811c0.575,1.054,1.849,1.304,2.842,0.565l3.979-2.963    c1.59,2.141,3.44,3.997,5.493,5.511l-2.295,4.746c-0.561,1.157-0.225,2.516,0.742,3.035l2.555,1.367    c0.957,0.511,2.174-0.008,2.723-1.158l2.274-4.764c2.246,0.812,4.619,1.273,7.08,1.342v5.165c0,1.229,0.861,2.116,1.918,1.979    l2.793-0.355c1.041-0.134,1.885-1.229,1.885-2.447v-5.106c2.385-0.62,4.653-1.597,6.765-2.869l2.107,4.089    c0.503,0.979,1.614,1.196,2.479,0.493l2.293-1.855c0.855-0.695,1.147-2.043,0.657-3.014l-2.046-4.02    c1.828-1.822,3.461-3.904,4.845-6.184l3.409,2.048c0.837,0.503,1.9,0.049,2.382-1.012l1.273-2.813    c0.478-1.054,0.193-2.32-0.632-2.83l-3.295-2.03c0.891-2.538,1.515-5.219,1.83-7.993l3.68-0.261    c0.946-0.066,1.713-1.063,1.713-2.221v-3.086C256.866,132.006,256.1,131.11,255.153,131.164 M226.125,151.762    c-7.477,0.669-13.679-5.905-13.679-14.708c0-8.798,6.202-16.163,13.679-16.44c7.295-0.27,13.076,6.333,13.076,14.744    S233.42,151.109,226.125,151.762"/>
		<path clip-path="url(#SVGID_36_)" fill="#BFC8D6" d="M163.575,135.218l1.71-3.772c0.644-1.413,0.261-3.111-0.853-3.795    l-4.435-2.725c1.201-3.404,2.042-7.003,2.467-10.727l4.949-0.348c1.275-0.088,2.308-1.423,2.308-2.977v-4.14    c0-1.555-1.033-2.758-2.308-2.686l-4.818,0.275c-0.333-3.753-1.1-7.332-2.24-10.668l4.077-3.027    c0.132-0.095,0.25-0.206,0.358-0.327l0.524,1.357l6.694-8.234l-8.74-0.744c-0.384-0.497-0.899-0.798-1.445-0.861    c-0.489-0.057-0.997,0.067-1.458,0.403l-4.027,2.927c-1.872-3.011-4.111-5.692-6.644-7.965l0.302-0.633l6.154,1.258l0.782-10.187    l-9.345-1.546c-1.076-0.413-2.292,0.113-2.881,1.333l-2.322,4.789c-2.986-1.483-0.513-3.046-3.905-3.498l3.548-5.226    c0-1.629-10.394-2.712-11.799-2.712h-3.756c-1.423,0-2.578,1.335-2.578,2.986v5.594c-3.51,0.538-6.897,1.655-10.078,3.272    l6.417-4.717c0,0-11.305-2.14-12.592-1.29l-3.441,2.272c-1.301,0.862-1.748,2.742-0.995,4.197l2.603,5.037    c-2.849,2.537-4.062,4.001-6.218,7.348l-6.043-1.365c-1.337-0.817-3.05-0.262-3.825,1.25l-2.071,4.035    c-0.783,1.523-0.318,3.416,1.033,4.225l4.873,2.924c-1.35,3.753-2.263,7.748-2.661,11.894l-5.847,0.336    c-1.575,0.087-2.854,1.571-2.854,3.307v4.617c0,1.575,1.055,2.802,2.423,2.935v0.002l6.645,1.064    c0.549,3.454,1.474,6.731,2.719,9.782l-5.297,3.85c-1.351,0.983-1.815,2.935-1.033,4.359l2.071,3.769    c0.775,1.415,13.09,2.273,13.09,2.273l-3.909-5.484c2.14,2.872,4.627,5.363,7.389,7.396l-3.087,6.368    c-0.752,1.553-0.306,3.377,0.995,4.07l3.441,1.837c0.218,0.115,0.446,0.188,0.675,0.227l-0.013,0.065l10.734,1.323l1.051-8.101    c1.249,0.19,2.516,0.309,3.806,0.343v6.931c0,1.231,0.645,2.206,1.563,2.545l-0.048,0.202l10.632,1.329l0.213-13.141    c1.946-0.737,3.822-1.656,5.616-2.729l2.834,5.485c0.352,0.683,0.926,1.085,1.558,1.187v0.001l10.278,1.393l-3.519-9.688    l-1.424,0.437l-2.342-4.593c2.464-2.447,4.657-5.238,6.521-8.295l4.586,2.75C161.491,137.251,162.927,136.644,163.575,135.218     M128.359,131.668c-10.063,0.898-18.409-7.932-18.409-19.739c0-11.81,8.346-21.685,18.409-22.053    c9.812-0.36,17.592,8.507,17.592,19.793C145.951,120.953,138.17,130.796,128.359,131.668 M171.331,108.998l6.961-3.294    l-6.961-0.845V108.998z M162.785,137.125l7.964,1.072l1.163-2.715l-6.597-4.008L162.785,137.125z"/>
		<path clip-path="url(#SVGID_36_)" fill="#D8DEE8" d="M177.676,105.578l-4.79,0.28c-0.333-3.744-1.093-7.313-2.228-10.642    l4.056-3.016c1.106-0.825,1.484-2.566,0.846-3.893l-1.703-3.545c-0.642-1.337-2.07-1.764-3.188-0.944l-4.003,2.917    c-1.865-2.997-4.088-5.671-6.607-7.937l2.303-4.824c0.661-1.387,0.269-3.139-0.879-3.92l-3.064-2.089    c-1.161-0.792-2.646-0.308-3.32,1.086l-2.31,4.776c-2.967-1.475-6.176-2.484-9.558-2.935v-5.517c0-1.628-1.129-2.947-2.526-2.944    h-3.735c-1.415,0.001-2.564,1.335-2.564,2.984v5.577c-3.49,0.538-6.855,1.65-10.021,3.264l-2.495-4.906    c-0.733-1.441-2.363-1.93-3.643-1.08l-3.42,2.269c-1.294,0.856-1.737,2.732-0.99,4.186l2.587,5.021    c-2.831,2.529-5.364,5.513-7.51,8.854l-4.68-2.882c-1.329-0.817-3.033-0.262-3.804,1.247l-2.06,4.024    c-0.777,1.518-0.315,3.405,1.028,4.211l4.845,2.913c-1.343,3.744-2.25,7.727-2.645,11.862l-5.814,0.336    c-1.564,0.089-2.835,1.568-2.835,3.298v4.606c0,1.731,1.271,3.043,2.835,2.934l5.968-0.423c0.503,3.987,1.499,7.755,2.913,11.226    l-5.267,3.841c-1.343,0.979-1.805,2.926-1.028,4.344l2.06,3.761c0.771,1.406,2.475,1.747,3.804,0.758l5.326-3.964    c2.126,2.863,4.601,5.346,7.347,7.373l-3.07,6.349c-0.748,1.548-0.305,3.365,0.99,4.061l3.42,1.829    c1.28,0.684,2.91-0.012,3.643-1.549l3.042-6.373c3.004,1.085,6.184,1.703,9.473,1.791v6.909c0,1.648,1.15,2.835,2.564,2.654    l3.735-0.479c1.397-0.179,2.526-1.643,2.526-3.272v-6.832c3.191-0.827,6.224-2.134,9.05-3.834l2.818,5.47    c0.674,1.303,2.159,1.599,3.32,0.659l3.064-2.484c1.147-0.928,1.54-2.734,0.879-4.031l-2.735-5.379    c2.449-2.438,4.627-5.224,6.482-8.271l4.56,2.738c1.118,0.673,2.546,0.065,3.188-1.355l1.703-3.762    c0.638-1.412,0.26-3.104-0.846-3.787l-4.41-2.715c1.194-3.394,2.03-6.982,2.452-10.693l4.92-0.35    c1.27-0.09,2.296-1.421,2.296-2.971v-4.128C179.972,106.707,178.946,105.507,177.676,105.578 M138.843,133.137    c-10.005,0.897-18.302-7.901-18.302-19.676c0-11.773,8.297-21.624,18.302-21.996c9.757-0.362,17.493,8.473,17.493,19.727    C156.336,122.445,148.6,132.261,138.843,133.137"/>
		<path clip-path="url(#SVGID_36_)" fill="#BFC8D6" d="M349.125,328.457l-231.106-1.996v5.91c0,1.603,1.01,2.968,2.374,3.21    l65.348,11.64c0.778,0.138,1.563,0.176,2.347,0.109l158.526-13.271c1.415-0.116,2.512-1.489,2.512-3.135V328.457z"/>
		<path clip-path="url(#SVGID_36_)" fill="#BFC8D6" d="M264.076,318.986l-146.885,10.812c-2.63,0.193-4.765-1.86-4.765-4.591    V215.823c0-2.731,2.135-4.942,4.765-4.942h146.885c2.166,0,3.918,1.998,3.918,4.468v98.878    C267.994,316.696,266.242,318.826,264.076,318.986"/>
		<path clip-path="url(#SVGID_36_)" fill="#FFFFFF" d="M266.419,318.986l-146.886,10.812c-2.63,0.193-4.766-1.86-4.766-4.591    V215.823c0-2.731,2.136-4.942,4.766-4.942h146.886c2.166,0,3.918,1.998,3.918,4.468v98.878    C270.337,316.696,268.585,318.826,266.419,318.986"/>
	</g>
	<g clip-path="url(#SVGID_2_)">
		<defs>
			<path id="SVGID_37_" d="M261.846,217.228l-136.813,0.592c-2.136,0.011-3.876,1.825-3.876,4.053v95.763     c0,2.23,1.74,3.918,3.876,3.771l136.813-9.393c1.785-0.121,3.229-1.869,3.229-3.896v-87.226c0-2.026-1.438-3.664-3.219-3.664     C261.853,217.228,261.848,217.228,261.846,217.228"/>
		</defs>
		<clipPath id="SVGID_38_">
			<use xlink:href="#SVGID_37_" overflow="visible"/>
		</clipPath>
		
			<linearGradient id="SVGID_39_" gradientUnits="userSpaceOnUse" x1="100.1162" y1="300.0859" x2="102.1516" y2="300.0859" gradientTransform="matrix(-120.7908 161.2038 161.2038 120.7908 -36080.9102 -52127.6758)">
			<stop offset="0" style="stop-color:#FFC444"/>
			<stop offset="0.9964" style="stop-color:#F36F56"/>
			<stop offset="1" style="stop-color:#F36F56"/>
		</linearGradient>
		<polygon clip-path="url(#SVGID_38_)" fill="url(#SVGID_39_)" points="315.138,254.74 213.326,390.615 71.093,284.04     172.906,148.165   "/>
	</g>
	<g clip-path="url(#SVGID_2_)">
		<defs>
			<rect id="SVGID_40_" x="-7" y="-7" width="407" height="407"/>
		</defs>
		<clipPath id="SVGID_41_">
			<use xlink:href="#SVGID_40_" overflow="visible"/>
		</clipPath>
		<path clip-path="url(#SVGID_41_)" fill="#FFFFFF" d="M198.164,213.871c0,1.018-0.756,1.842-1.69,1.846    c-0.936,0.002-1.692-0.82-1.692-1.84c0-1.018,0.757-1.845,1.692-1.845C197.408,212.031,198.164,212.855,198.164,213.871"/>
		<g opacity="0.48" clip-path="url(#SVGID_41_)">
			<g>
				<defs>
					<rect id="SVGID_42_" x="114.767" y="210.881" width="154.24" height="118.929"/>
				</defs>
				<clipPath id="SVGID_43_">
					<use xlink:href="#SVGID_42_" overflow="visible"/>
				</clipPath>
				<path clip-path="url(#SVGID_43_)" fill="#FFFFFF" d="M119.533,329.798l146.144-10.759l0.742-0.053      c0.992-0.074,1.896-0.565,2.588-1.312c-10.516-0.575-17.049-4.308-21.263-8.163c-8.462-7.744-6.994-15.382-16.121-20.473      c-11.38-6.351-20.329,1.697-28.967-6.244c-5.235-4.814-2.665-8.401-9.106-15.598c-7.138-7.967-11.783-5.286-18.955-12.46      c-9.067-9.065-4.534-16.12-12.343-22.631c-9.478-7.896-19.698-0.586-28.717-8.16c-3.891-3.267-6.025-8.017-7.139-13.068h-6.863      c-2.63,0-4.766,2.214-4.766,4.945v109.384C114.767,327.935,116.903,329.991,119.533,329.798"/>
			</g>
		</g>
	</g>
	<g clip-path="url(#SVGID_2_)">
		<defs>
			<path id="SVGID_44_" d="M273.34,318.383L118.019,329.77l67.722,12.062c0.778,0.139,1.563,0.174,2.345,0.108l161.039-13.482     l-73.315-9.995c-0.533-0.071-1.07-0.109-1.612-0.109C273.91,318.353,273.627,318.362,273.34,318.383"/>
		</defs>
		<clipPath id="SVGID_45_">
			<use xlink:href="#SVGID_44_" overflow="visible"/>
		</clipPath>
		
			<linearGradient id="SVGID_46_" gradientUnits="userSpaceOnUse" x1="99.6177" y1="299.4316" x2="101.6523" y2="299.4316" gradientTransform="matrix(113.5658 0 0 -113.5658 -11195.1641 34335.4141)">
			<stop offset="0" style="stop-color:#EBEFF2"/>
			<stop offset="0.494" style="stop-color:#EBEFF2"/>
			<stop offset="1" style="stop-color:#FFFFFF"/>
		</linearGradient>
		<rect x="118.019" y="318.353" clip-path="url(#SVGID_45_)" fill="url(#SVGID_46_)" width="231.106" height="23.652"/>
	</g>
	<g clip-path="url(#SVGID_2_)">
		<defs>
			<rect id="SVGID_47_" x="-7" y="-7" width="407" height="407"/>
		</defs>
		<clipPath id="SVGID_48_">
			<use xlink:href="#SVGID_47_" overflow="visible"/>
		</clipPath>
		<polygon clip-path="url(#SVGID_48_)" fill="#D8DEE8" points="140.682,329.864 269.992,320.248 310.012,325.661 181.815,335.939       "/>
	</g>
	<g clip-path="url(#SVGID_2_)">
		<defs>
			<path id="SVGID_49_" d="M282.422,221.824c-1.449,0.633-7.136,7.431-7.136,7.431l2.405,1.548c0,0,2.273-2.716,6.538-2.848     c4.267-0.129,10.082-2.661,12.575-2.884c0.603-0.054,0.903-0.229,0.952-0.447c0.105-0.453-2.665-1.11-5.121-1.192     c-1.827-0.062-3.328,0.194-4.505,0.452c-1.642,0.357-2.647,0.715-2.987,0.212c-0.655-0.958,2.156-3.58,1.641-4.168     c-0.051-0.059-0.128-0.088-0.228-0.088C285.888,219.84,284.205,221.051,282.422,221.824"/>
		</defs>
		<clipPath id="SVGID_50_">
			<use xlink:href="#SVGID_49_" overflow="visible"/>
		</clipPath>
		
			<linearGradient id="SVGID_51_" gradientUnits="userSpaceOnUse" x1="98.0669" y1="297.7188" x2="100.1017" y2="297.7188" gradientTransform="matrix(-11.9517 9.2217 -9.2217 -11.9517 4207.9829 2876.2439)">
			<stop offset="0" style="stop-color:#AB316D"/>
			<stop offset="1" style="stop-color:#792D3D"/>
		</linearGradient>
		<polygon clip-path="url(#SVGID_50_)" fill="url(#SVGID_51_)" points="289.438,208.923 269.986,223.931 283.711,241.72     303.164,226.71   "/>
	</g>
	<g clip-path="url(#SVGID_2_)">
		<defs>
			<path id="SVGID_52_" d="M262.267,235.634c-6.731,5.205-8.112,7.73-13.523,11.016c-3.638,2.207-12.187,7.408-19.864,5.99     c-6.831-1.261-12.774-7.726-16.296-17.028c-2.235-5.896-10.098-6.982-13.877-1.938c-7.677,10.255-10.878,21.145-7.706,29.976     c2.011,5.6,6.148,9.107,10.761,13.09c4.985,4.304,18.163,15.549,33.869,13.968c20.597-2.07,32.294-24.889,37.425-34.898     c4.77-9.303,6.9-17.79,7.947-23.537c-1.056-2.135-2.113-4.273-3.175-6.405C274.123,227.712,268.488,230.822,262.267,235.634"/>
		</defs>
		<clipPath id="SVGID_53_">
			<use xlink:href="#SVGID_52_" overflow="visible"/>
		</clipPath>
		
			<linearGradient id="SVGID_54_" gradientUnits="userSpaceOnUse" x1="98.7388" y1="299.5684" x2="100.7735" y2="299.5684" gradientTransform="matrix(-27.6761 -23.8476 23.8476 -27.6761 -4153.6021 10924.6904)">
			<stop offset="0" style="stop-color:#FF9085"/>
			<stop offset="1" style="stop-color:#FB6FBB"/>
		</linearGradient>
		<polygon clip-path="url(#SVGID_53_)" fill="url(#SVGID_54_)" points="313.847,254.17 227.53,179.793 154.983,263.985     241.299,338.362   "/>
	</g>
	<g clip-path="url(#SVGID_2_)">
		<defs>
			<rect id="SVGID_55_" x="-7" y="-7" width="407" height="407"/>
		</defs>
		<clipPath id="SVGID_56_">
			<use xlink:href="#SVGID_55_" overflow="visible"/>
		</clipPath>
		<g opacity="0.3" clip-path="url(#SVGID_56_)">
			<g>
				<defs>
					<rect id="SVGID_57_" x="189.91" y="229.577" width="91.092" height="61.281"/>
				</defs>
				<clipPath id="SVGID_58_">
					<use xlink:href="#SVGID_57_" overflow="visible"/>
				</clipPath>
				<g clip-path="url(#SVGID_58_)">
					<defs>
						<path id="SVGID_59_" d="M215.305,273.732c5.882-1.323,8.101-6.787,16.165-7.275c10.197-0.621,14.578,7.634,21.099,5.457        c5.323-1.776,6.208-8.543,9.92-17.254c2.877-6.757,7.872-15.646,17.178-25.083l1.336,2.694        c-1.047,5.747-3.18,14.234-7.947,23.537c-5.131,10.01-16.828,32.828-37.425,34.898c-15.706,1.581-28.882-9.664-33.872-13.968        c-4.611-3.98-8.749-7.49-10.758-13.09c-0.558-1.548-0.916-3.162-1.088-4.824C202.072,272.712,210.026,274.921,215.305,273.732        "/>
					</defs>
					<clipPath id="SVGID_60_">
						<use xlink:href="#SVGID_59_" overflow="visible"/>
					</clipPath>
					
						<linearGradient id="SVGID_61_" gradientUnits="userSpaceOnUse" x1="98.7417" y1="299.5605" x2="100.7768" y2="299.5605" gradientTransform="matrix(-27.725 -23.8898 23.8898 -27.725 -4161.6182 10943.8906)">
						<stop offset="0" style="stop-color:#FF9085"/>
						<stop offset="1" style="stop-color:#FB6FBB"/>
					</linearGradient>
					<polygon clip-path="url(#SVGID_60_)" fill="url(#SVGID_61_)" points="312.012,256.297 228.724,184.531 158.9,265.566        242.188,337.332      "/>
				</g>
			</g>
		</g>
	</g>
	<g clip-path="url(#SVGID_2_)">
		<defs>
			<path id="SVGID_62_" d="M179.553,227.256c-12.653,6.476-19.246,16.27-22.973,21.801c-16.25,24.14-15.924,57.71-15.8,63.792     c1.262,1.693,3.368,3.995,6.585,5.708c8.23,4.382,16.772,1.182,18.288,0.586c-0.106-5.116,0.034-10.757,0.585-16.826     c0.795-8.768,2.273-16.578,3.948-23.265c1.574,5.884,3.023,12.547,4.1,19.898c1.039,7.105,1.559,13.687,1.754,19.606     c12.486-1.074,24.969-2.146,37.46-3.217c0.214-5.141,0.828-12.939,2.776-22.243c3.599-17.15,7.976-21.49,6.802-32.505     c-1.005-9.449-5.348-16.769-7.973-21.191c-4.141-6.985-8.835-11.925-12.287-15.07l-10.828-1.611     C188.937,223.431,184.487,224.73,179.553,227.256"/>
		</defs>
		<clipPath id="SVGID_63_">
			<use xlink:href="#SVGID_62_" overflow="visible"/>
		</clipPath>
		
			<linearGradient id="SVGID_64_" gradientUnits="userSpaceOnUse" x1="99.751" y1="299.1152" x2="101.7855" y2="299.1152" gradientTransform="matrix(-40.5505 0 0 -40.5505 4268.1982 12402.1357)">
			<stop offset="0" style="stop-color:#FF9085"/>
			<stop offset="1" style="stop-color:#FB6FBB"/>
		</linearGradient>
		<rect x="140.331" y="222.719" clip-path="url(#SVGID_63_)" fill="url(#SVGID_64_)" width="83.922" height="100.22"/>
	</g>
	<g clip-path="url(#SVGID_2_)">
		<defs>
			<path id="SVGID_65_" d="M107.349,101.881c-28.991,1.937-43.872,27.036-45.352,29.634c-13.72,24.063-7.19,53.095,6.792,69.813     c3.999,4.78,14.224,17.012,26.062,15.795c11.398-1.169,14.611-13.815,30.464-15.887c2.214-0.291,8.923-1.167,16.286,1.671     c8.315,3.201,9.615,8.123,18.48,11.215c7.191,2.504,13.442,1.747,14.688,1.578c7.858-1.057,12.877-5.038,22.588-12.951     c8.334-6.791,12.505-10.191,14.06-14.532c3.388-9.484-1.178-20.226-6.634-26.417c-7.662-8.688-18.835-10.414-25.907-11.507     c-4.288-0.66-6.68-0.532-8.456-0.406c-1.991,0.14-3.208,0.284-5.442-0.685c-11.705-5.042-7.759-21.577-18.638-34.271     c-9.924-11.583-26.383-13.183-34.854-13.183C109.712,101.749,108.291,101.818,107.349,101.881"/>
		</defs>
		<clipPath id="SVGID_66_">
			<use xlink:href="#SVGID_65_" overflow="visible"/>
		</clipPath>
		
			<linearGradient id="SVGID_67_" gradientUnits="userSpaceOnUse" x1="99.9399" y1="300.2813" x2="101.9752" y2="300.2813" gradientTransform="matrix(-77.7169 0 0 -77.7169 7979.5684 23496.8809)">
			<stop offset="0" style="stop-color:#311944"/>
			<stop offset="1" style="stop-color:#6B3976"/>
		</linearGradient>
		<rect x="48.277" y="101.749" clip-path="url(#SVGID_66_)" fill="url(#SVGID_67_)" width="166.527" height="116.59"/>
	</g>
	<g clip-path="url(#SVGID_2_)">
		<defs>
			<rect id="SVGID_68_" x="-7" y="-7" width="407" height="407"/>
		</defs>
		<clipPath id="SVGID_69_">
			<use xlink:href="#SVGID_68_" overflow="visible"/>
		</clipPath>
		<g opacity="0.3" clip-path="url(#SVGID_69_)">
			<g>
				<defs>
					<rect id="SVGID_70_" x="54.426" y="137.11" width="143.956" height="80.096"/>
				</defs>
				<clipPath id="SVGID_71_">
					<use xlink:href="#SVGID_70_" overflow="visible"/>
				</clipPath>
				<g clip-path="url(#SVGID_71_)">
					<defs>
						<path id="SVGID_72_" d="M59.201,137.108c-2.966,26.958,0.022,36.668,4.921,38.645c6.852,2.764,15.796-10.275,26.506-6.693        c9.632,3.22,8.359,15.763,17.205,18.517c11.177,3.481,18.701-14.85,32.063-13.698c15.9,1.37,17.903,28.424,35.611,33.201        c5.361,1.446,12.74,0.997,22.876-5.167c-0.336,0.273-0.676,0.55-1.025,0.836c-9.711,7.913-14.726,11.895-22.586,12.951        c-1.248,0.169-7.499,0.928-14.688-1.578c-8.868-3.092-10.167-8.01-18.482-11.215c-7.36-2.838-14.072-1.961-16.286-1.671        c-15.853,2.073-19.065,14.718-30.464,15.887c-11.838,1.216-22.063-11.015-26.062-15.795        C55.875,185.886,49.318,159.942,59.201,137.108"/>
					</defs>
					<clipPath id="SVGID_73_">
						<use xlink:href="#SVGID_72_" overflow="visible"/>
					</clipPath>
					
						<linearGradient id="SVGID_74_" gradientUnits="userSpaceOnUse" x1="99.9409" y1="300.1641" x2="101.9762" y2="300.1641" gradientTransform="matrix(-77.7171 0 0 -77.7171 7979.6064 23505.6055)">
						<stop offset="0" style="stop-color:#311944"/>
						<stop offset="1" style="stop-color:#6B3976"/>
					</linearGradient>
					<rect x="49.318" y="137.108" clip-path="url(#SVGID_73_)" fill="url(#SVGID_74_)" width="149.063" height="81.229"/>
				</g>
			</g>
		</g>
	</g>
	<g clip-path="url(#SVGID_2_)">
		<defs>
			<path id="SVGID_75_" d="M188.47,221.06c-2.201,1.704-11.851,8.121-11.851,8.121s9.604,0.523,19.467,0     c9.868-0.524,8.043-3.647,8.043-3.647s-3.321-2.191-3.1-6.034c0.305-5.246,0-13.065,0-13.065l-10.584-7.9     C191.854,206.604,190.675,219.354,188.47,221.06"/>
		</defs>
		<clipPath id="SVGID_76_">
			<use xlink:href="#SVGID_75_" overflow="visible"/>
		</clipPath>
		
			<linearGradient id="SVGID_77_" gradientUnits="userSpaceOnUse" x1="99.0962" y1="299.7734" x2="101.1309" y2="299.7734" gradientTransform="matrix(0.7894 -25.4592 25.4592 0.7894 -7520.0068 2534.5486)">
			<stop offset="0" style="stop-color:#AB316D"/>
			<stop offset="1" style="stop-color:#792D3D"/>
		</linearGradient>
		<polygon clip-path="url(#SVGID_76_)" fill="url(#SVGID_77_)" points="205.926,230.612 206.92,198.563 176.645,197.625     175.652,229.675   "/>
	</g>
	<g clip-path="url(#SVGID_2_)">
		<defs>
			<path id="SVGID_78_" d="M187.15,182.729c-1.423,4.679-0.508,7.905-0.508,7.905c-5.787-3.264-3.577,8.237-0.604,10.284     c2.979,2.049,3.764,0,3.764,0s5.845,7.608,9.726,9.416c3.88,1.805,8.994-2.393,9.023-9.708     c0.024-7.317-4.995-19.425-4.995-19.425c-0.653-3.163-3.036-4.354-5.795-4.354C193.375,176.848,188.027,179.857,187.15,182.729"/>
		</defs>
		<clipPath id="SVGID_79_">
			<use xlink:href="#SVGID_78_" overflow="visible"/>
		</clipPath>
		
			<linearGradient id="SVGID_80_" gradientUnits="userSpaceOnUse" x1="99.8643" y1="299.8691" x2="101.8994" y2="299.8691" gradientTransform="matrix(-7.2036 -23.5844 23.5844 -7.2036 -6152.959 4726.6958)">
			<stop offset="0" style="stop-color:#AB316D"/>
			<stop offset="1" style="stop-color:#792D3D"/>
		</linearGradient>
		<polygon clip-path="url(#SVGID_79_)" fill="url(#SVGID_80_)" points="218.438,209.127 206.213,169.103 170.997,179.86     183.22,219.885   "/>
	</g>
	<g clip-path="url(#SVGID_2_)">
		<defs>
			<rect id="SVGID_81_" x="-7" y="-7" width="407" height="407"/>
		</defs>
		<clipPath id="SVGID_82_">
			<use xlink:href="#SVGID_81_" overflow="visible"/>
		</clipPath>
		<g opacity="0.3" clip-path="url(#SVGID_82_)">
			<g>
				<defs>
					<rect id="SVGID_83_" x="146.056" y="258.364" width="62.088" height="62.465"/>
				</defs>
				<clipPath id="SVGID_84_">
					<use xlink:href="#SVGID_83_" overflow="visible"/>
				</clipPath>
				<g clip-path="url(#SVGID_84_)">
					<defs>
						<path id="SVGID_85_" d="M161.849,297.31c4.352-6.831-2.284-12.75,0.534-23.563c2.406-9.223,10.243-16.423,13.123-15.261        c3.978,1.608-3.841,18.242,4.014,25.973c5.217,5.13,12.013,1.102,19.012,5.622c4.615,2.981,9.251,9.65,9.612,25.717        c-10.7,0.921-21.399,1.841-32.103,2.759c-0.196-5.92-0.715-12.501-1.754-19.605c-1.077-7.354-2.526-14.016-4.098-19.9        c-1.677,6.688-3.155,14.498-3.952,23.266c-0.549,6.069-0.69,11.71-0.583,16.826c-1.516,0.6-10.058,3.798-18.291-0.586        c-0.458-0.244-0.894-0.503-1.308-0.768c0.211-3.546,1.119-7.594,3.745-11.106C154.065,300.973,158.699,302.254,161.849,297.31        "/>
					</defs>
					<clipPath id="SVGID_86_">
						<use xlink:href="#SVGID_85_" overflow="visible"/>
					</clipPath>
					
						<linearGradient id="SVGID_87_" gradientUnits="userSpaceOnUse" x1="99.751" y1="298.9063" x2="101.786" y2="298.9063" gradientTransform="matrix(-40.5506 0 0 -40.5506 4268.209 12410.9277)">
						<stop offset="0" style="stop-color:#FF9085"/>
						<stop offset="1" style="stop-color:#FB6FBB"/>
					</linearGradient>
					<rect x="146.055" y="257.324" clip-path="url(#SVGID_86_)" fill="url(#SVGID_87_)" width="62.089" height="65.616"/>
				</g>
			</g>
		</g>
		<path clip-path="url(#SVGID_82_)" fill="#FFFFFF" d="M195.906,211.753c-7.029,0-9.676-10.073-9.704-10.182    c-0.064-0.263,0.09-0.528,0.353-0.597c0.264-0.064,0.529,0.094,0.594,0.354c0.029,0.109,2.881,10.937,10.313,9.265    c0.264-0.057,0.524,0.107,0.584,0.369c0.061,0.265-0.107,0.527-0.37,0.587C197.059,211.687,196.469,211.753,195.906,211.753"/>
		<path clip-path="url(#SVGID_82_)" fill="#FFFFFF" d="M202.112,210.14c0.194,0.741-0.745,1.627-2.097,1.979    c-1.352,0.35-2.604,0.034-2.795-0.705c-0.191-0.742,0.745-1.628,2.099-1.979C200.669,209.084,201.919,209.399,202.112,210.14"/>
		<path clip-path="url(#SVGID_82_)" fill="#FFFFFF" d="M188.092,199.326c0.524,2.021-0.071,3.924-1.334,4.252    c-1.261,0.33-2.712-1.043-3.236-3.064c-0.524-2.018,0.071-3.925,1.333-4.251C186.12,195.934,187.567,197.305,188.092,199.326"/>
		<path clip-path="url(#SVGID_82_)" fill="#FFFFFF" d="M184.616,197.918c0,0-0.06-0.143-0.17-0.408    c-0.105-0.265-0.252-0.651-0.42-1.152c-0.33-0.997-0.755-2.439-1.04-4.22c-0.291-1.776-0.433-3.904-0.126-6.152    c0.148-1.123,0.427-2.271,0.861-3.386c0.429-1.116,1.013-2.193,1.727-3.172c0.708-0.989,1.589-1.838,2.502-2.593    c0.232-0.185,0.47-0.368,0.701-0.548c0.247-0.161,0.49-0.322,0.73-0.483l0.364-0.237l0.378-0.212    c0.249-0.135,0.498-0.275,0.744-0.412c0.268-0.142,0.503-0.24,0.755-0.359c0.266-0.1,0.527-0.213,0.789-0.296    c0.519-0.171,1.039-0.317,1.554-0.405c1.027-0.184,2.025-0.215,2.926-0.132c0.22,0.013,0.442,0.045,0.661,0.083    c0.221,0.032,0.434,0.064,0.635,0.122c0.203,0.05,0.4,0.089,0.59,0.149c0.187,0.066,0.37,0.126,0.545,0.191    c0.178,0.05,0.339,0.146,0.496,0.215c0.157,0.078,0.316,0.136,0.454,0.222c0.271,0.174,0.536,0.316,0.748,0.483    c0.207,0.168,0.396,0.319,0.559,0.449c0.149,0.145,0.267,0.278,0.368,0.382c0.196,0.208,0.302,0.32,0.302,0.32    c0.1,0.105,0.096,0.27-0.012,0.367c-0.104,0.101-0.267,0.096-0.364-0.008l-0.022-0.023c0,0-0.101-0.105-0.285-0.293    c-0.095-0.095-0.203-0.218-0.343-0.349c-0.152-0.119-0.325-0.256-0.52-0.411c-0.195-0.152-0.442-0.276-0.695-0.437    c-0.127-0.075-0.274-0.13-0.422-0.203c-0.148-0.061-0.292-0.149-0.46-0.195c-0.165-0.054-0.335-0.11-0.51-0.171    c-0.175-0.055-0.366-0.088-0.554-0.134c-0.189-0.051-0.385-0.078-0.587-0.107c-0.196-0.03-0.402-0.059-0.628-0.072    c-0.863-0.069-1.802-0.031-2.771,0.155c-0.484,0.087-0.973,0.229-1.46,0.395c-0.246,0.082-0.479,0.185-0.723,0.278    c-0.237,0.118-0.507,0.237-0.726,0.356c-0.237,0.136-0.477,0.27-0.718,0.404l-0.359,0.208l-0.346,0.233    c-0.231,0.156-0.463,0.315-0.698,0.472c-0.223,0.176-0.443,0.353-0.666,0.527c-0.868,0.731-1.692,1.547-2.352,2.491    c-0.665,0.936-1.206,1.957-1.602,3.016c-0.4,1.058-0.653,2.151-0.786,3.224c-0.267,2.149-0.114,4.196,0.186,5.907    c0.293,1.72,0.719,3.114,1.048,4.074c0.169,0.478,0.314,0.848,0.416,1.098c0.103,0.245,0.161,0.377,0.161,0.377l0.006,0.017    c0.098,0.232-0.01,0.5-0.242,0.6c-0.229,0.099-0.5-0.008-0.599-0.24V197.918z"/>
		<path clip-path="url(#SVGID_82_)" fill="#366D8B" d="M332.743,131.688v61.262c0,3.636-2.92,6.683-6.555,6.716l-106.346,1.178    h-0.003l-0.58-0.77c-0.609-0.715-0.659-1.803-0.114-2.569l13.776-19.4c1.922-2.716,3.009-5.988,3.009-9.321v-40.368    c0-2.449,1.274-4.571,3.242-5.705c1.048-0.61,2.248-0.938,3.549-0.88l1.688,0.065l82.013,3.178    C329.968,125.225,332.743,128.145,332.743,131.688"/>
		<path clip-path="url(#SVGID_82_)" fill="#366D8B" d="M335.699,131.688v61.262c0,3.636-2.92,6.589-6.552,6.619l-109.33,1.107    l0.022-0.023l16.037-22.573c1.925-2.716,3.009-5.963,3.009-9.295v-40.368c0-1.498,0.449-2.875,1.293-3.981    c1.016-1.343,2.511-2.281,4.243-2.539c0.41-0.061,0.82-0.084,1.249-0.065l83.713,3.243    C332.924,125.225,335.699,128.145,335.699,131.688"/>
		<path clip-path="url(#SVGID_82_)" fill="#FFFFFF" d="M256.624,169.952v-0.256l3.687-3.187c2.339-2.06,4.052-3.643,4.973-4.756    c0.928-1.113,1.649-2.196,2.09-3.256c0.439-1.058,0.677-2.194,0.677-3.407c0-1.387-0.349-2.634-1.066-3.721    c-0.717-1.089-1.723-1.944-3.022-2.561c-1.307-0.616-2.81-0.938-4.518-0.959c-1.297-0.019-2.473,0.089-3.521,0.322    c-1.052,0.233-2.019,0.573-2.912,1.021c-0.888,0.453-2.014,1.219-3.373,2.316l3.166,3.647c1.094-0.855,2.141-1.516,3.144-1.977    c0.997-0.46,2.031-0.686,3.088-0.671c1.011,0.008,1.818,0.276,2.421,0.799c0.606,0.527,0.908,1.319,0.908,2.377    c0,0.71-0.139,1.396-0.411,2.055c-0.276,0.661-0.722,1.376-1.346,2.146c-0.622,0.775-2.007,2.159-4.042,4.166l-6.962,6.703v4.225    h19.585v-5L256.624,169.952z"/>
		<path clip-path="url(#SVGID_82_)" fill="#FFFFFF" d="M287.662,164.978v-16.375l-5.201-0.07l-11.794,16.812v3.868l11.454,0.028    v5.737h5.541v-5.72l2.957,0.007v-4.273L287.662,164.978z M282.229,157.389c-0.061,1.405-0.108,2.393-0.108,3.132v4.43l-6.438-0.03    l4.929-7.137c0.633-0.927,1.187-2.022,1.636-2.762h0.15C282.358,155.023,282.292,155.984,282.229,157.389"/>
		<polygon clip-path="url(#SVGID_82_)" fill="#FFFFFF" points="301.509,148.785 297.889,158.484 291.69,174.977 296.691,174.977     299.984,166.12 306.458,148.929   "/>
		<polygon clip-path="url(#SVGID_82_)" fill="#FFFFFF" points="307.616,148.904 307.616,153.486 320.375,153.788 310.676,174.979     316.41,174.979 326.092,152.539 326.092,149.146   "/>
	</g>
</g>
</svg>