<?xml version="1.0" encoding="utf-8"?>
<!-- Generator: Adobe Illustrator 16.0.0, SVG Export Plug-In . SVG Version: 6.00 Build 0)  -->
<!DOCTYPE svg PUBLIC "-//W3C//DTD SVG 1.1//EN" "http://www.w3.org/Graphics/SVG/1.1/DTD/svg11.dtd">
<svg version="1.1" id="Layer_1" xmlns="http://www.w3.org/2000/svg" xmlns:xlink="http://www.w3.org/1999/xlink" x="0px" y="0px"
	 width="400px" height="400px" viewBox="0 0 400 400" enable-background="new 0 0 400 400" xml:space="preserve">
<g>
	<defs>
		<rect id="SVGID_1_" width="400" height="400"/>
	</defs>
	<clipPath id="SVGID_2_">
		<use xlink:href="#SVGID_1_"  overflow="visible"/>
	</clipPath>
	<g clip-path="url(#SVGID_2_)">
		<defs>
			<rect id="SVGID_3_" width="400" height="400"/>
		</defs>
		<clipPath id="SVGID_4_">
			<use xlink:href="#SVGID_3_"  overflow="visible"/>
		</clipPath>
		<path clip-path="url(#SVGID_4_)" fill="#4B839B" d="M264.641,171.166c-1.148,0.102-2.246,0.219-3.25,0.318
			c-3.112,0.303-9.933,2.189-12.281-0.908c-3.878-5.113,5.973-13.781,8.45-17.674c3.068-4.818,6.867-10.182,7.484-16.03
			c0.938-8.901-5.157-20.934-12.68-25.582c-10.375-6.41-24.869-2.048-34.192,4.246c-13.504,9.114-22.992,24.149-26.845,39.853
			c-4.151,16.931,1.574,34.453-0.066,51.609c-2.578,26.967-40.798-7.387-33.331,63.525c1.651,15.653,4.338,32.778,13.131,46.198
			c3.648,5.563,10.941,13.297,18.208,12.849c10.303-0.633,9.844-15.211,13.043-21.941c3.734-7.866,10.255-14.082,17.503-18.73
			c9.212-5.914,19.898-11.2,23.56-22.367c2.38-7.25-1.199-14.717-5.781-20.355c-2.523-3.109-7.903-6.662-7.098-11.242
			c0.671-3.799,6.008-6.59,8.789-8.592c8.562-6.16,16.883-12.797,24.493-20.102c6.834-6.557,18.389-16.504,17.452-27.158
			C280.479,170.508,271.617,170.545,264.641,171.166"/>
	</g>
	<g clip-path="url(#SVGID_2_)">
		<defs>
			<path id="SVGID_5_" d="M218.172,115.537c-13.504,9.114-22.992,24.149-26.844,39.853c-4.152,16.931,1.573,34.453-0.068,51.609
				c-2.578,26.967-40.801-7.387-33.331,63.525c1.651,15.653,4.338,32.778,13.135,46.199c3.645,5.563,10.938,13.296,18.205,12.848
				c10.306-0.633,9.845-15.211,13.043-21.94c3.737-7.867,10.258-14.083,17.503-18.731c9.212-5.914,19.899-11.2,23.563-22.367
				c2.376-7.25-1.202-14.715-5.784-20.355c-2.523-3.109-7.906-6.662-7.098-11.244c0.671-3.797,6.008-6.59,8.788-8.59
				c8.563-6.16,16.884-12.795,24.497-20.102c6.831-6.557,18.386-16.504,17.449-27.158c-0.751-8.574-9.613-8.537-16.587-7.916
				c-1.151,0.1-2.249,0.222-3.25,0.318c-3.115,0.302-9.933,2.189-12.284-0.908c-3.878-5.11,5.973-13.781,8.45-17.672
				c3.069-4.82,6.867-10.184,7.484-16.035c0.938-8.896-5.156-20.932-12.68-25.579c-3.599-2.224-7.695-3.151-11.896-3.151
				C232.558,108.139,224.262,111.426,218.172,115.537"/>
		</defs>
		<clipPath id="SVGID_6_">
			<use xlink:href="#SVGID_5_"  overflow="visible"/>
		</clipPath>
		<g opacity="0.8" clip-path="url(#SVGID_6_)">
			<g>
				<defs>
					<rect id="SVGID_7_" x="160.648" y="99.712" width="104.586" height="248.384"/>
				</defs>
				<clipPath id="SVGID_8_">
					<use xlink:href="#SVGID_7_"  overflow="visible"/>
				</clipPath>
				<path clip-path="url(#SVGID_8_)" fill="#FFFFFF" d="M209.722,348.097c-0.107,0-0.211-0.031-0.304-0.1
					c-17.587-12.563-25.866-31.744-25.306-58.643c0.487-23.45,7.362-48.894,14.011-73.499c5.233-19.377,10.177-37.68,11.077-52.38
					c0.723-11.777,4.085-22.461,9.996-31.754c4.729-7.43,11.086-13.989,18.896-19.496c13.284-9.359,26.37-12.469,26.503-12.5
					c0.278-0.065,0.56,0.111,0.625,0.394c0.066,0.278-0.109,0.561-0.388,0.625c-0.132,0.031-13.047,3.104-26.167,12.359
					c-12.078,8.523-26.815,24.188-28.419,50.437c-0.906,14.805-5.866,33.16-11.114,52.588
					c-13.082,48.422-27.907,103.304,10.895,131.017c0.235,0.17,0.29,0.495,0.122,0.732
					C210.044,348.02,209.886,348.097,209.722,348.097"/>
				<path clip-path="url(#SVGID_8_)" fill="#FFFFFF" d="M210.137,159.5c-0.054,0-0.105-0.008-0.16-0.026
					c-0.141-0.044-3.488-1.162-7.152-5.516c-3.34-3.972-7.587-11.531-8.859-24.992c-0.029-0.287,0.181-0.542,0.47-0.57
					c0.286-0.027,0.542,0.186,0.57,0.473c1.242,13.134,5.342,20.491,8.562,24.347c3.476,4.16,6.701,5.251,6.732,5.262
					c0.273,0.09,0.423,0.387,0.336,0.66C210.563,159.361,210.356,159.5,210.137,159.5"/>
				<path clip-path="url(#SVGID_8_)" fill="#FFFFFF" d="M204.906,192.365c-0.263,0-0.489-0.2-0.52-0.468
					c-0.027-0.288,0.18-0.545,0.469-0.574c0.09-0.009,9.062-0.975,20.819-6.164c10.841-4.782,26.338-14.242,38.604-32.133
					c0.164-0.238,0.49-0.297,0.727-0.133c0.24,0.161,0.3,0.487,0.136,0.725c-12.417,18.111-28.106,27.68-39.083,32.518
					c-11.901,5.244-21.007,6.219-21.097,6.229C204.942,192.365,204.926,192.365,204.906,192.365"/>
				<path clip-path="url(#SVGID_8_)" fill="#FFFFFF" d="M186.03,272.558c-0.057,0-0.116-0.011-0.173-0.03
					c-0.365-0.129-9-3.243-16.14-11.975c-4.191-5.129-6.967-11.131-8.247-17.84c-1.598-8.361-0.863-17.842,2.182-28.182
					c0.082-0.277,0.373-0.436,0.65-0.354c0.276,0.082,0.436,0.373,0.352,0.65c-6.77,22.984-0.558,37.172,5.844,45.025
					c6.949,8.519,15.618,11.657,15.707,11.688c0.272,0.095,0.414,0.393,0.32,0.666C186.447,272.425,186.246,272.558,186.03,272.558"
					/>
				<path clip-path="url(#SVGID_8_)" fill="#FFFFFF" d="M189.073,254.908c-0.258,0-0.484-0.191-0.518-0.455
					c-0.038-0.285,0.163-0.549,0.449-0.586c0.418-0.055,41.931-5.695,52.105-21.404c0.156-0.242,0.48-0.311,0.723-0.154
					c0.242,0.158,0.313,0.48,0.156,0.723c-4.395,6.785-14.637,12.529-30.441,17.074c-11.719,3.369-22.301,4.785-22.404,4.799
					C189.119,254.906,189.094,254.908,189.073,254.908"/>
			</g>
		</g>
	</g>
	<g clip-path="url(#SVGID_2_)">
		<defs>
			<rect id="SVGID_9_" width="400" height="400"/>
		</defs>
		<clipPath id="SVGID_10_">
			<use xlink:href="#SVGID_9_"  overflow="visible"/>
		</clipPath>
		<path clip-path="url(#SVGID_10_)" fill="#70A1B2" d="M321.785,196.016c-3.608-12.994-15.023-22.836-28.082-26.232
			c-7.953-2.067-17.659-2.768-25.77-1.355c-11.406,1.984-20.821,9.426-28.163,18.05c-8.622,10.133-9.431,22.692-12.513,35.167
			c-0.604,2.445-4.591,15.912-7.609,8.02c-4.208-11.006-13.597-9.064-13.598-9.064c-7.346,1.52-12.991,6.914-15.707,13.701
			c-7.255,18.129-5.013,41.68-3.478,60.684c0.72,8.94,1.835,17.831,3.159,26.692c0.328,2.19,1.901,3.99,4.03,4.602
			c2.13,0.612,4.419-0.072,5.859-1.758c1.5-1.75,3.07-3.356,4.521-4.771c13.977-13.599,35.859-15.613,54.323-16.426
			c10.778-0.477,19.661-1.16,29.055-6.949c3.902-2.406,8.145-5.359,9.953-9.755c1.638-3.979,1.957-10.787-0.511-14.483
			c-3.07-4.605-9.885-4.316-13.946-7.709c-6.559-5.48,10.595-9.295,14.048-10.406c5.514-1.771,9.163-6.164,13.289-9.973
			c3.154-2.91,6.116-6.076,8.405-9.723C326.036,223.193,325.177,208.248,321.785,196.016"/>
	</g>
	<g clip-path="url(#SVGID_2_)">
		<defs>
			<path id="SVGID_11_" d="M267.935,168.428c-11.408,1.984-20.822,9.424-28.165,18.05c-8.621,10.133-9.43,22.692-12.509,35.168
				c-0.607,2.443-4.593,15.912-7.612,8.018c-4.208-11.006-13.597-9.064-13.598-9.064c-7.346,1.518-12.994,6.914-15.707,13.701
				c-7.255,18.127-5.012,41.68-3.478,60.684c0.723,8.94,1.835,17.832,3.159,26.692c0.327,2.19,1.901,3.99,4.028,4.602
				c2.13,0.615,4.422-0.072,5.863-1.759c1.498-1.75,3.068-3.355,4.518-4.77c13.977-13.599,35.859-15.612,54.323-16.426
				c10.778-0.478,19.661-1.16,29.055-6.946c3.903-2.406,8.145-5.362,9.953-9.758c1.637-3.977,1.957-10.787-0.508-14.483
				c-3.073-4.608-9.891-4.316-13.948-7.709c-6.557-5.482,10.594-9.295,14.047-10.406c5.511-1.771,9.163-6.166,13.289-9.973
				c3.154-2.908,6.116-6.076,8.405-9.723c6.985-11.133,6.126-26.078,2.733-38.313c-3.607-12.994-15.021-22.834-28.084-26.23
				c-5.111-1.329-10.953-2.094-16.627-2.095C273.925,167.689,270.828,167.924,267.935,168.428"/>
		</defs>
		<clipPath id="SVGID_12_">
			<use xlink:href="#SVGID_11_"  overflow="visible"/>
		</clipPath>
		<g opacity="0.8" clip-path="url(#SVGID_12_)">
			<g>
				<defs>
					<rect id="SVGID_13_" x="187.337" y="167.166" width="154.675" height="163.779"/>
				</defs>
				<clipPath id="SVGID_14_">
					<use xlink:href="#SVGID_13_"  overflow="visible"/>
				</clipPath>
				<path clip-path="url(#SVGID_14_)" fill="#70A1B2" d="M187.861,330.945c-0.077,0-0.152-0.016-0.223-0.05
					c-0.262-0.122-0.374-0.435-0.25-0.696c0.172-0.366,17.476-36.929,41.358-74.404c14.035-22.021,27.563-40.047,40.21-53.578
					c15.854-16.965,30.384-26.89,43.185-29.493c0.284-0.059,0.559,0.124,0.614,0.407c0.061,0.281-0.125,0.56-0.407,0.616
					c-12.582,2.563-26.926,12.379-42.629,29.184c-12.602,13.482-26.09,31.459-40.09,53.426
					c-23.848,37.42-41.125,73.924-41.297,74.288C188.245,330.836,188.057,330.945,187.861,330.945"/>
				<path clip-path="url(#SVGID_14_)" fill="#70A1B2" d="M250.052,226.311c-0.025,0-0.056-0.002-0.083-0.008
					c-0.284-0.045-0.479-0.313-0.434-0.598c0.079-0.494,7.785-49.408,0.133-57.662c-0.195-0.209-0.184-0.541,0.03-0.738
					c0.211-0.197,0.54-0.184,0.736,0.029c7.995,8.624,0.459,56.502,0.133,58.536C250.527,226.127,250.305,226.311,250.052,226.311"
					/>
				<path clip-path="url(#SVGID_14_)" fill="#70A1B2" d="M341.492,200.984c-0.097,0-0.191-0.025-0.277-0.08
					c-20.515-12.82-63.187-6.125-63.616-6.054c-0.286,0.044-0.555-0.149-0.599-0.434c-0.047-0.285,0.146-0.554,0.434-0.6
					c0.108-0.018,10.957-1.744,24.223-1.844c12.276-0.099,29.2,1.225,40.113,8.045c0.243,0.154,0.319,0.477,0.165,0.721
					C341.836,200.898,341.667,200.984,341.492,200.984"/>
				<path clip-path="url(#SVGID_14_)" fill="#70A1B2" d="M205.075,297.551c-0.039,0-0.079-0.004-0.117-0.015
					c-0.282-0.063-0.458-0.345-0.392-0.626c5.598-24.194-15.395-59.467-15.607-59.82c-0.149-0.246-0.069-0.57,0.179-0.719
					c0.247-0.148,0.567-0.068,0.719,0.18c0.053,0.088,5.422,9.057,10.013,20.93c4.252,10.985,8.697,26.788,5.713,39.664
					C205.528,297.387,205.315,297.551,205.075,297.551"/>
				<path clip-path="url(#SVGID_14_)" fill="#70A1B2" d="M222.433,267.448c-0.222,0-0.425-0.141-0.498-0.359
					c-0.088-0.276,0.061-0.571,0.334-0.661c0.188-0.063,19.018-6.238,41.825-10.713c21.089-4.137,49.992-7.623,67.935-0.734
					c0.271,0.104,0.405,0.406,0.303,0.674c-0.104,0.271-0.405,0.406-0.675,0.303c-17.715-6.801-46.409-3.326-67.362,0.785
					c-22.743,4.461-41.513,10.617-41.697,10.677C222.542,267.438,222.487,267.448,222.433,267.448"/>
			</g>
		</g>
	</g>
	<g clip-path="url(#SVGID_2_)">
		<defs>
			<path id="SVGID_15_" d="M83.959,81.408l29.508,248.378c0.445,3.726,4.371,7.39,11.542,6.944l117.071-12.853
				c3.383-0.335,5.797-3.476,5.375-6.979L219.348,83.276c-0.421-3.485-3.554-6.383-6.97-6.438L94.24,74.35
				C87.038,74.35,83.518,77.702,83.959,81.408"/>
		</defs>
		<clipPath id="SVGID_16_">
			<use xlink:href="#SVGID_15_"  overflow="visible"/>
		</clipPath>
		
			<linearGradient id="SVGID_17_" gradientUnits="userSpaceOnUse" x1="100.7642" y1="300.1807" x2="102.764" y2="300.1807" gradientTransform="matrix(-23.0684 2.5165 2.5165 23.0684 1734.0078 -6972.4175)">
			<stop  offset="0" style="stop-color:#444B8C"/>
			<stop  offset="0.9964" style="stop-color:#26264F"/>
			<stop  offset="1" style="stop-color:#26264F"/>
		</linearGradient>
		<polygon clip-path="url(#SVGID_16_)" fill="url(#SVGID_17_)" points="276.211,334.086 85.451,354.895 55.184,77.441 
			245.942,56.631 		"/>
	</g>
	<g clip-path="url(#SVGID_2_)">
		<defs>
			<path id="SVGID_18_" d="M88.705,80.982l29.673,249.663c0.447,3.745,3.933,6.498,7.738,6.117l121.372-12.086
				c3.393-0.336,5.814-3.492,5.392-7.01L224.614,82.874c-0.419-3.5-3.563-6.414-7-6.469l-122.71-2.072
				c-0.04-0.002-0.08-0.002-0.121-0.002C90.998,74.33,88.266,77.298,88.705,80.982"/>
		</defs>
		<clipPath id="SVGID_19_">
			<use xlink:href="#SVGID_18_"  overflow="visible"/>
		</clipPath>
		
			<linearGradient id="SVGID_20_" gradientUnits="userSpaceOnUse" x1="99.7197" y1="299.9385" x2="101.7197" y2="299.9385" gradientTransform="matrix(-57.0415 194.1932 194.1932 57.0415 -52351.3398 -36390.1875)">
			<stop  offset="0" style="stop-color:#444B8C"/>
			<stop  offset="0.9964" style="stop-color:#26264F"/>
			<stop  offset="1" style="stop-color:#26264F"/>
		</linearGradient>
		<polygon clip-path="url(#SVGID_19_)" fill="url(#SVGID_20_)" points="324.367,95.205 240.192,381.77 17.201,316.269 
			101.374,29.703 		"/>
	</g>
	<g clip-path="url(#SVGID_2_)">
		<defs>
			<path id="SVGID_21_" d="M94.698,94.82l27.425,230.629c0.414,3.484,3.653,6.055,7.192,5.711l114.143-11.095
				c3.18-0.311,5.446-3.253,5.051-6.545L222.313,95.824c-0.394-3.272-3.332-5.979-6.544-6.01l-115.317-1.23c-0.024,0-0.045,0-0.07,0
				C96.846,88.584,94.287,91.376,94.698,94.82"/>
		</defs>
		<clipPath id="SVGID_22_">
			<use xlink:href="#SVGID_21_"  overflow="visible"/>
		</clipPath>
		
			<linearGradient id="SVGID_23_" gradientUnits="userSpaceOnUse" x1="99.4277" y1="300.1523" x2="101.4275" y2="300.1523" gradientTransform="matrix(20.6827 -72.7823 -72.7823 -20.6827 19941.9688 13721.124)">
			<stop  offset="0" style="stop-color:#EBEFF2"/>
			<stop  offset="0.494" style="stop-color:#EBEFF2"/>
			<stop  offset="1" style="stop-color:#FFFFFF"/>
		</linearGradient>
		<polygon clip-path="url(#SVGID_22_)" fill="url(#SVGID_23_)" points="30.413,313.354 105.838,47.928 312.777,106.736 
			237.352,372.159 		"/>
	</g>
	<g clip-path="url(#SVGID_2_)">
		<defs>
			<path id="SVGID_24_" d="M156.545,82.652c0.152,1.25,1.294,2.279,2.552,2.295c1.259,0.015,2.155-0.984,2.006-2.235
				c-0.149-1.249-1.289-2.277-2.548-2.296c-0.011,0-0.02,0-0.03,0C157.284,80.416,156.398,81.408,156.545,82.652"/>
		</defs>
		<clipPath id="SVGID_25_">
			<use xlink:href="#SVGID_24_"  overflow="visible"/>
		</clipPath>
		
			<linearGradient id="SVGID_26_" gradientUnits="userSpaceOnUse" x1="99.7285" y1="299.7949" x2="101.6973" y2="299.7949" gradientTransform="matrix(-67.0391 181.5643 181.5643 67.0391 -47584.2813 -38131.3086)">
			<stop  offset="0" style="stop-color:#311944"/>
			<stop  offset="1" style="stop-color:#893976"/>
		</linearGradient>
		<polygon clip-path="url(#SVGID_25_)" fill="url(#SVGID_26_)" points="162.729,80.961 160.669,86.539 154.92,84.417 156.98,78.838 
					"/>
	</g>
	<g clip-path="url(#SVGID_2_)">
		<defs>
			<rect id="SVGID_27_" width="400" height="400"/>
		</defs>
		<clipPath id="SVGID_28_">
			<use xlink:href="#SVGID_27_"  overflow="visible"/>
		</clipPath>
		<g opacity="0.5" clip-path="url(#SVGID_28_)">
			<g>
				<defs>
					<rect id="SVGID_29_" x="88.658" y="74.33" width="132.905" height="262.47"/>
				</defs>
				<clipPath id="SVGID_30_">
					<use xlink:href="#SVGID_29_"  overflow="visible"/>
				</clipPath>
				<path clip-path="url(#SVGID_30_)" fill="#FFFFFF" d="M202.581,241.957c-23.37-43.205-58.279-56.134-68.788-100.662
					c-5.68-24.066-1.81-47.104,4.708-66.227l-43.598-0.737c-3.848-0.063-6.644,2.929-6.201,6.652l29.674,249.663
					c0.446,3.745,3.934,6.498,7.738,6.117l95.411-9.497C222.229,288.552,212.996,261.217,202.581,241.957"/>
			</g>
		</g>
		<g opacity="0.3" clip-path="url(#SVGID_28_)">
			<g>
				<defs>
					<rect id="SVGID_31_" x="99.611" y="92.928" width="126.315" height="72.758"/>
				</defs>
				<clipPath id="SVGID_32_">
					<use xlink:href="#SVGID_31_"  overflow="visible"/>
				</clipPath>
				<g clip-path="url(#SVGID_32_)">
					<defs>
						<path id="SVGID_33_" d="M222.152,162.779l-109.576,2.907c-2.746,0.072-5.348-2.947-5.804-6.75L99.68,99.854
							c-0.462-3.854,1.422-6.955,4.202-6.926l110.849,1.148c2.469,0.025,4.782,2.98,5.172,6.6l5.97,55.517
							C226.258,159.766,224.594,162.712,222.152,162.779"/>
					</defs>
					<clipPath id="SVGID_34_">
						<use xlink:href="#SVGID_33_"  overflow="visible"/>
					</clipPath>
					
						<linearGradient id="SVGID_35_" gradientUnits="userSpaceOnUse" x1="98.6543" y1="298.834" x2="100.6547" y2="298.834" gradientTransform="matrix(-17.3384 24.6851 24.6851 17.3384 -5477.7769 -7523.8765)">
						<stop  offset="0" style="stop-color:#AA80F9"/>
						<stop  offset="0.9964" style="stop-color:#6165D7"/>
						<stop  offset="1" style="stop-color:#6165D7"/>
					</linearGradient>
					<polygon clip-path="url(#SVGID_34_)" fill="url(#SVGID_35_)" points="260.527,116.967 184.289,225.51 64.949,141.688 
						141.186,33.146 					"/>
				</g>
			</g>
		</g>
		<g opacity="0.3" clip-path="url(#SVGID_28_)">
			<g>
				<defs>
					<rect id="SVGID_36_" x="118.979" y="246.352" width="123.081" height="78.148"/>
				</defs>
				<clipPath id="SVGID_37_">
					<use xlink:href="#SVGID_36_"  overflow="visible"/>
				</clipPath>
				<g clip-path="url(#SVGID_37_)">
					<defs>
						<path id="SVGID_38_" d="M238.37,312.918l-106.822,11.562c-2.672,0.289-5.205-2.453-5.646-6.132l-6.857-57.129
							c-0.446-3.725,1.39-6.904,4.097-7.098l108.038-7.762c2.41-0.172,4.664,2.531,5.043,6.037l5.782,53.787
							C242.379,309.646,240.754,312.66,238.37,312.918"/>
					</defs>
					<clipPath id="SVGID_39_">
						<use xlink:href="#SVGID_38_"  overflow="visible"/>
					</clipPath>
					
						<linearGradient id="SVGID_40_" gradientUnits="userSpaceOnUse" x1="99.3423" y1="299.3047" x2="101.3418" y2="299.3047" gradientTransform="matrix(61.5402 0 0 -61.5402 -5994.5454 18704.7949)">
						<stop  offset="0" style="stop-color:#AA80F9"/>
						<stop  offset="0.9964" style="stop-color:#6165D7"/>
						<stop  offset="1" style="stop-color:#6165D7"/>
					</linearGradient>
					<rect x="118.6" y="246.188" clip-path="url(#SVGID_39_)" fill="url(#SVGID_40_)" width="123.779" height="78.581"/>
				</g>
			</g>
		</g>
		<g opacity="0.3" clip-path="url(#SVGID_28_)">
			<g>
				<defs>
					<rect id="SVGID_41_" x="109.377" y="170.822" width="124.682" height="74.932"/>
				</defs>
				<clipPath id="SVGID_42_">
					<use xlink:href="#SVGID_41_"  overflow="visible"/>
				</clipPath>
				<g clip-path="url(#SVGID_42_)">
					<defs>
						<path id="SVGID_43_" d="M230.325,238.441l-108.183,7.305c-2.71,0.182-5.276-2.697-5.726-6.436l-6.969-58.094
							c-0.455-3.789,1.403-6.929,4.145-7.012l109.429-3.38c2.44-0.076,4.725,2.752,5.107,6.311l5.876,54.642
							C234.383,235.297,232.738,238.277,230.325,238.441"/>
					</defs>
					<clipPath id="SVGID_44_">
						<use xlink:href="#SVGID_43_"  overflow="visible"/>
					</clipPath>
					
						<linearGradient id="SVGID_45_" gradientUnits="userSpaceOnUse" x1="99.2729" y1="299.9336" x2="101.2734" y2="299.9336" gradientTransform="matrix(62.3405 0 0 -62.3405 -6079.3433 18906.3125)">
						<stop  offset="0" style="stop-color:#AA80F9"/>
						<stop  offset="0.9964" style="stop-color:#6165D7"/>
						<stop  offset="1" style="stop-color:#6165D7"/>
					</linearGradient>
					<rect x="108.992" y="170.748" clip-path="url(#SVGID_44_)" fill="url(#SVGID_45_)" width="125.391" height="75.18"/>
				</g>
			</g>
		</g>
	</g>
	<g clip-path="url(#SVGID_2_)">
		<defs>
			<polygon id="SVGID_46_" points="132.956,216.693 134.525,219.697 135.975,219.697 132.956,212.59 			"/>
		</defs>
		<clipPath id="SVGID_47_">
			<use xlink:href="#SVGID_46_"  overflow="visible"/>
		</clipPath>
		
			<linearGradient id="SVGID_48_" gradientUnits="userSpaceOnUse" x1="77.8047" y1="294.6563" x2="79.8037" y2="294.6563" gradientTransform="matrix(1.5103 0 0 -1.5103 15.4454 661.1698)">
			<stop  offset="0" style="stop-color:#FFC444"/>
			<stop  offset="0.9964" style="stop-color:#F36F56"/>
			<stop  offset="1" style="stop-color:#F36F56"/>
		</linearGradient>
		<rect x="132.956" y="212.59" clip-path="url(#SVGID_47_)" fill="url(#SVGID_48_)" width="3.02" height="7.107"/>
	</g>
	<g clip-path="url(#SVGID_2_)">
		<defs>
			<path id="SVGID_49_" d="M98.756,216.543c-5.141,1.848-8.432,10.506-6.121,15.902c3.529,8.234,20.607,10.074,31.869,3.803
				c7.693-4.279,11.126-11.48,12.4-14.625c-0.202-0.873-0.638-2.109-1.711-2.818c-3.3-2.188-8.003,3.629-14.723,4.631
				c-4.871,0.729-8.544-1.412-11.791-3.547c-2.806-1.85-5.292-3.695-7.958-3.695C100.08,216.193,99.426,216.303,98.756,216.543"/>
		</defs>
		<clipPath id="SVGID_50_">
			<use xlink:href="#SVGID_49_"  overflow="visible"/>
		</clipPath>
		
			<linearGradient id="SVGID_51_" gradientUnits="userSpaceOnUse" x1="98.2949" y1="300.3799" x2="100.2949" y2="300.3799" gradientTransform="matrix(26.0739 -19.5554 -19.5554 -26.0739 3405.1985 9998.2959)">
			<stop  offset="0" style="stop-color:#FFC444"/>
			<stop  offset="0.9964" style="stop-color:#F36F56"/>
			<stop  offset="1" style="stop-color:#F36F56"/>
		</linearGradient>
		<polygon clip-path="url(#SVGID_50_)" fill="url(#SVGID_51_)" points="77.688,225.672 120.135,193.836 149.541,233.043 
			107.092,264.879 		"/>
	</g>
	<g clip-path="url(#SVGID_2_)">
		<defs>
			<path id="SVGID_52_" d="M143.284,162.638c-9.206,6.828-15.2,16.833-16.879,28.173c-1.679,11.337,1.157,22.652,7.985,31.857
				l17.535-13.008c-6.928-9.334-4.969-22.564,4.367-29.49l42.094-31.23l-13.009-17.534l-15.543-0.553L143.284,162.638z"/>
		</defs>
		<clipPath id="SVGID_53_">
			<use xlink:href="#SVGID_52_"  overflow="visible"/>
		</clipPath>
		
			<linearGradient id="SVGID_54_" gradientUnits="userSpaceOnUse" x1="99.4927" y1="299.7891" x2="101.4927" y2="299.7891" gradientTransform="matrix(3.4332 90.5963 90.5963 -3.4332 -27342.3672 -7874.9082)">
			<stop  offset="0" style="stop-color:#AB316D"/>
			<stop  offset="1" style="stop-color:#792D3D"/>
		</linearGradient>
		<polygon clip-path="url(#SVGID_53_)" fill="url(#SVGID_54_)" points="198.28,128.066 201.859,222.537 124.832,225.455 
			121.252,130.986 		"/>
	</g>
	<g clip-path="url(#SVGID_2_)">
		<defs>
			<path id="SVGID_55_" d="M181.414,214.029c-9.336,6.928-22.566,4.967-29.49-4.369l-15.547-0.553l-1.988,13.561
				c6.831,9.203,16.836,15.197,28.177,16.879c11.337,1.682,22.65-1.156,31.855-7.984l42.091-31.23l-13.008-17.533l-15.54-0.553
				L181.414,214.029z"/>
		</defs>
		<clipPath id="SVGID_56_">
			<use xlink:href="#SVGID_55_"  overflow="visible"/>
		</clipPath>
		
			<linearGradient id="SVGID_57_" gradientUnits="userSpaceOnUse" x1="99.833" y1="299.916" x2="101.8317" y2="299.916" gradientTransform="matrix(11.3398 92.7429 92.7429 -11.3398 -28766.5977 -5686.8818)">
			<stop  offset="0" style="stop-color:#26264F"/>
			<stop  offset="0.0036" style="stop-color:#26264F"/>
			<stop  offset="1" style="stop-color:#444B8C"/>
		</linearGradient>
		<polygon clip-path="url(#SVGID_56_)" fill="url(#SVGID_57_)" points="235.011,169.943 243.62,240.359 135.895,253.531 
			127.284,183.115 		"/>
	</g>
	<g clip-path="url(#SVGID_2_)">
		<defs>
			<path id="SVGID_58_" d="M165.87,213.477c-9.333,6.928-22.563,4.965-29.492-4.369l-17.532,13.006
				c6.83,9.205,16.836,15.201,28.174,16.881c11.338,1.68,22.655-1.158,31.858-7.988l42.094-31.227l-13.007-17.533L165.87,213.477z"
				/>
		</defs>
		<clipPath id="SVGID_59_">
			<use xlink:href="#SVGID_58_"  overflow="visible"/>
		</clipPath>
		
			<linearGradient id="SVGID_60_" gradientUnits="userSpaceOnUse" x1="99.8281" y1="299.8252" x2="101.8281" y2="299.8252" gradientTransform="matrix(10.8177 88.4734 88.4734 -10.8177 -27441.1367 -5415.2832)">
			<stop  offset="0" style="stop-color:#AA80F9"/>
			<stop  offset="0.9964" style="stop-color:#6165D7"/>
			<stop  offset="1" style="stop-color:#6165D7"/>
		</linearGradient>
		<polygon clip-path="url(#SVGID_59_)" fill="url(#SVGID_60_)" points="219.465,169.943 228.011,239.813 120.35,252.977 
			111.807,183.107 		"/>
	</g>
	<g clip-path="url(#SVGID_2_)">
		<defs>
			<path id="SVGID_61_" d="M127.74,162.084c-9.204,6.828-15.199,16.834-16.878,28.172c-1.682,11.34,1.156,22.652,7.984,31.857
				l17.532-13.006c-6.926-9.335-4.965-22.566,4.37-29.492l42.092-31.23l-13.006-17.532L127.74,162.084z"/>
		</defs>
		<clipPath id="SVGID_62_">
			<use xlink:href="#SVGID_61_"  overflow="visible"/>
		</clipPath>
		
			<linearGradient id="SVGID_63_" gradientUnits="userSpaceOnUse" x1="99.4873" y1="299.6992" x2="101.4882" y2="299.6992" gradientTransform="matrix(3.3898 89.4515 89.4515 -3.3898 -27002.3066 -7773.0522)">
			<stop  offset="0" style="stop-color:#FF9085"/>
			<stop  offset="1" style="stop-color:#FB6FBB"/>
		</linearGradient>
		<polygon clip-path="url(#SVGID_62_)" fill="url(#SVGID_63_)" points="182.734,128.066 186.293,221.982 109.285,224.902 
			105.727,130.986 		"/>
	</g>
	<g clip-path="url(#SVGID_2_)">
		<defs>
			<rect id="SVGID_64_" width="400" height="400"/>
		</defs>
		<clipPath id="SVGID_65_">
			<use xlink:href="#SVGID_64_"  overflow="visible"/>
		</clipPath>
		<g opacity="0.45" clip-path="url(#SVGID_65_)">
			<g>
				<defs>
					<rect id="SVGID_66_" x="169.833" y="130.852" width="28.552" height="18.087"/>
				</defs>
				<clipPath id="SVGID_67_">
					<use xlink:href="#SVGID_66_"  overflow="visible"/>
				</clipPath>
				<path clip-path="url(#SVGID_67_)" fill="#FFFFFF" d="M169.833,130.854c0.646,0.871,13.008,17.532,13.008,17.532l15.544,0.554
					l-13.008-17.535L169.833,130.854z"/>
			</g>
		</g>
		<g opacity="0.45" clip-path="url(#SVGID_65_)">
			<g>
				<defs>
					<rect id="SVGID_68_" x="207.965" y="182.246" width="28.548" height="18.084"/>
				</defs>
				<clipPath id="SVGID_69_">
					<use xlink:href="#SVGID_68_"  overflow="visible"/>
				</clipPath>
				<polygon clip-path="url(#SVGID_69_)" fill="#FFFFFF" points="207.964,182.246 220.972,199.779 236.516,200.332 223.505,182.798 
									"/>
			</g>
		</g>
		<g opacity="0.45" clip-path="url(#SVGID_65_)">
			<g>
				<defs>
					<rect id="SVGID_70_" x="110.389" y="165.939" width="110.583" height="73.526"/>
				</defs>
				<clipPath id="SVGID_71_">
					<use xlink:href="#SVGID_70_"  overflow="visible"/>
				</clipPath>
				<path clip-path="url(#SVGID_71_)" fill="#FFFFFF" d="M199.458,208.305c-6.742-0.246-9.531-4.521-14.977-8.635l-18.612,13.807
					c-9.333,6.926-22.563,4.965-29.492-4.369c-4.629-6.242-5.288-14.225-2.426-20.898c-3.704-6.471-2.364-14.954-9.759-21.477
					c-0.316-0.281-0.64-0.542-0.968-0.796c-6.647,6.508-10.977,14.958-12.363,24.32c-1.68,11.339,1.156,22.652,7.986,31.857
					c6.828,9.205,16.834,15.201,28.172,16.881c11.341,1.68,22.652-1.158,31.858-7.986l42.094-31.232l-1.695-2.284
					C214.035,203.309,207.216,208.586,199.458,208.305"/>
			</g>
		</g>
	</g>
	<g clip-path="url(#SVGID_2_)">
		<defs>
			<path id="SVGID_72_" d="M214.555,109.168l-0.003,0.016c-0.234,1.996-0.556,3.956-1.031,5.797
				c-0.057,0.232-0.111,0.466-0.177,0.689l-0.207,0.664c-0.126,0.457-0.293,0.868-0.445,1.292c-0.074,0.219-0.164,0.414-0.25,0.614
				c-0.087,0.195-0.171,0.406-0.262,0.598c-0.191,0.371-0.371,0.76-0.583,1.092c-0.412,0.689-0.859,1.294-1.343,1.764
				c-0.484,0.476-1,0.831-1.582,1.098c-0.574,0.271-1.219,0.409-1.973,0.466c-0.762,0.042-1.626-0.02-2.571-0.168
				c-0.952-0.152-1.964-0.373-3.05-0.604c-1.088-0.232-2.234-0.48-3.474-0.641c-1.235-0.158-2.563-0.244-3.938-0.098
				c-0.685,0.058-1.379,0.2-2.056,0.375c-0.339,0.101-0.677,0.201-1.007,0.327c-0.324,0.129-0.656,0.25-0.965,0.41
				c-1.255,0.599-2.392,1.403-3.348,2.333c-0.959,0.929-1.746,1.968-2.393,3.042c-1.294,2.156-2.063,4.436-2.604,6.686
				c-0.229,0.977,0.307,1.998,1.276,2.338c1.038,0.36,2.168-0.186,2.529-1.219l0.008-0.025c0.672-1.922,1.528-3.737,2.646-5.216
				c0.555-0.737,1.172-1.385,1.837-1.903c0.666-0.523,1.381-0.908,2.124-1.172c0.37-0.134,0.749-0.216,1.126-0.287
				c0.384-0.048,0.767-0.092,1.172-0.077c0.795-0.003,1.655,0.135,2.559,0.348c1.823,0.427,3.81,1.215,6.161,1.848
				c1.18,0.31,2.479,0.571,3.896,0.648c1.415,0.061,2.963-0.07,4.442-0.542c1.469-0.457,2.87-1.203,4.058-2.125
				c1.188-0.919,2.165-1.989,2.992-3.087c0.431-0.548,0.778-1.111,1.143-1.676c0.175-0.283,0.327-0.565,0.49-0.851
				c0.158-0.285,0.325-0.572,0.461-0.857c0.278-0.572,0.57-1.148,0.802-1.723l0.37-0.863c0.111-0.287,0.213-0.574,0.325-0.862
				c0.852-2.306,1.465-4.607,1.977-6.901c0.034-0.147,0.06-0.307,0.078-0.463c0.301-2.544-1.519-4.848-4.065-5.147
				c-0.182-0.023-0.364-0.033-0.544-0.033C216.839,105.074,214.833,106.81,214.555,109.168"/>
		</defs>
		<clipPath id="SVGID_73_">
			<use xlink:href="#SVGID_72_"  overflow="visible"/>
		</clipPath>
		
			<linearGradient id="SVGID_74_" gradientUnits="userSpaceOnUse" x1="100.1548" y1="301.3564" x2="102.1553" y2="301.3564" gradientTransform="matrix(23.7449 -11.4125 -11.4125 -23.7449 1238.2109 8432.2686)">
			<stop  offset="0" style="stop-color:#FFC444"/>
			<stop  offset="0.9964" style="stop-color:#F36F56"/>
			<stop  offset="1" style="stop-color:#F36F56"/>
		</linearGradient>
		<polygon clip-path="url(#SVGID_73_)" fill="url(#SVGID_74_)" points="168.357,111.182 215.996,88.284 236.773,131.513 
			189.134,154.409 		"/>
	</g>
	<g clip-path="url(#SVGID_2_)">
		<defs>
			<path id="SVGID_75_" d="M223.785,127.98l-0.038,0.052c-2.087,3.02-4.377,5.891-6.984,8.095c-1.299,1.098-2.681,1.984-4.086,2.56
				c-0.703,0.268-1.411,0.467-2.119,0.559c-0.714,0.098-1.421,0.076-2.162-0.038c-0.372-0.066-0.751-0.148-1.141-0.262
				c-0.392-0.115-0.786-0.25-1.196-0.406c-0.82-0.319-1.676-0.712-2.594-1.123c-0.921-0.406-1.902-0.832-2.977-1.162
				c-0.534-0.168-1.092-0.312-1.666-0.414c-0.573-0.104-1.161-0.174-1.75-0.186c-0.591-0.017-1.184,0.008-1.762,0.088
				c-0.292,0.035-0.573,0.09-0.856,0.144c-0.283,0.06-0.559,0.137-0.836,0.206c-1.103,0.316-2.141,0.792-3.081,1.369
				c-0.944,0.575-1.798,1.258-2.56,1.996c-0.77,0.735-1.452,1.532-2.074,2.356c-0.379,0.498-0.331,1.215,0.133,1.66
				c0.5,0.481,1.294,0.466,1.773-0.037l0.01-0.01c0.635-0.664,1.307-1.281,2.018-1.816c0.706-0.542,1.452-1,2.222-1.352
				c0.771-0.354,1.56-0.604,2.359-0.734c0.2-0.022,0.398-0.055,0.599-0.071c0.199-0.012,0.398-0.033,0.594-0.029
				c0.394-0.008,0.777,0.025,1.16,0.082c1.527,0.223,2.986,0.979,4.616,1.951c0.815,0.481,1.679,1.008,2.625,1.512
				c0.479,0.251,0.982,0.492,1.503,0.717c0.527,0.223,1.081,0.423,1.653,0.595c1.155,0.333,2.406,0.527,3.644,0.517
				c1.239-0.005,2.456-0.188,3.62-0.479c2.31-0.627,4.369-1.674,6.212-2.883c1.844-1.212,3.488-2.59,5.035-4.025l1.144-1.09
				l1.087-1.125c0.18-0.186,0.367-0.372,0.539-0.563l0.522-0.575l1.039-1.154c0.104-0.123,0.22-0.267,0.313-0.398
				c1.251-1.806,0.799-4.283-1.006-5.534c-0.688-0.478-1.479-0.707-2.259-0.707C225.8,126.268,224.559,126.866,223.785,127.98"/>
		</defs>
		<clipPath id="SVGID_76_">
			<use xlink:href="#SVGID_75_"  overflow="visible"/>
		</clipPath>
		
			<linearGradient id="SVGID_77_" gradientUnits="userSpaceOnUse" x1="99.8921" y1="301.2832" x2="101.8926" y2="301.2832" gradientTransform="matrix(24.2828 -4.9775 -4.9775 -24.2828 -743.5756 7954.1108)">
			<stop  offset="0" style="stop-color:#FFC444"/>
			<stop  offset="0.9964" style="stop-color:#F36F56"/>
			<stop  offset="1" style="stop-color:#F36F56"/>
		</linearGradient>
		<polygon clip-path="url(#SVGID_76_)" fill="url(#SVGID_77_)" points="181.877,127.016 229.716,117.209 235.222,144.063 
			187.38,153.869 		"/>
	</g>
	<g clip-path="url(#SVGID_2_)">
		<defs>
			<path id="SVGID_78_" d="M239.247,171.994c-0.095,1.199-0.243,2.367-0.47,3.439c-0.227,1.064-0.538,2.057-0.905,2.76
				c-0.18,0.359-0.361,0.652-0.533,0.863c-0.178,0.218-0.336,0.369-0.537,0.503c-0.192,0.129-0.431,0.219-0.781,0.278
				c-0.356,0.047-0.821,0.047-1.372-0.018c-0.555-0.064-1.177-0.178-1.875-0.307s-1.449-0.271-2.292-0.363
				c-0.838-0.09-1.759-0.133-2.731-0.016c-0.481,0.049-0.977,0.16-1.457,0.292c-0.48,0.146-0.954,0.322-1.397,0.548
				c-0.884,0.44-1.674,1.02-2.33,1.682c-0.656,0.66-1.186,1.385-1.608,2.124c-0.845,1.482-1.312,3-1.629,4.476
				c-0.2,0.937,0.302,1.91,1.224,2.269c1.023,0.395,2.178-0.111,2.57-1.136l0.019-0.04c0.448-1.148,1.004-2.203,1.672-3.008
				c0.332-0.399,0.688-0.734,1.051-0.981c0.366-0.254,0.738-0.418,1.109-0.523c0.368-0.102,0.72-0.125,1.121-0.092
				c0.395,0.029,0.847,0.124,1.354,0.268c1.025,0.286,2.242,0.813,3.806,1.273c0.785,0.223,1.681,0.423,2.694,0.496
				c1.013,0.061,2.156-0.021,3.25-0.355c1.091-0.32,2.135-0.863,3.013-1.525s1.59-1.42,2.188-2.186
				c0.309-0.386,0.559-0.77,0.824-1.163c0.124-0.192,0.23-0.387,0.348-0.583c0.113-0.191,0.231-0.39,0.328-0.582
				c0.199-0.386,0.409-0.78,0.574-1.164l0.259-0.581c0.084-0.191,0.155-0.381,0.233-0.573c0.605-1.534,1.047-3.044,1.418-4.541
				l0.019-0.066c0.055-0.233,0.095-0.475,0.114-0.721c0.207-2.561-1.7-4.799-4.261-5.006c-0.126-0.012-0.252-0.016-0.377-0.016
				C241.479,167.72,239.445,169.564,239.247,171.994"/>
		</defs>
		<clipPath id="SVGID_79_">
			<use xlink:href="#SVGID_78_"  overflow="visible"/>
		</clipPath>
		
			<linearGradient id="SVGID_80_" gradientUnits="userSpaceOnUse" x1="100.5298" y1="300.1377" x2="102.5298" y2="300.1377" gradientTransform="matrix(16.4775 -7.9196 -7.9196 -16.4775 936.2375 5929.7549)">
			<stop  offset="0" style="stop-color:#FF9085"/>
			<stop  offset="1" style="stop-color:#FB6FBB"/>
		</linearGradient>
		<polygon clip-path="url(#SVGID_79_)" fill="url(#SVGID_80_)" points="210.067,172.073 243.168,156.166 257.778,186.566 
			224.68,202.475 		"/>
	</g>
	<g clip-path="url(#SVGID_2_)">
		<defs>
			<path id="SVGID_81_" d="M245.574,183.209l-0.009,0.012c-1.195,1.886-2.511,3.668-3.952,5.011
				c-0.718,0.668-1.457,1.195-2.173,1.55c-0.357,0.161-0.706,0.29-1.055,0.366c-0.086,0.012-0.175,0.029-0.264,0.045
				c-0.087,0.007-0.174,0.015-0.266,0.026c-0.067-0.003-0.133-0.003-0.197,0c-0.116,0.001-0.234,0.004-0.358-0.019
				c-0.195-0.004-0.406-0.053-0.621-0.094c-0.227-0.063-0.448-0.112-0.699-0.202c-0.238-0.074-0.507-0.185-0.767-0.283l-0.859-0.345
				c-0.601-0.242-1.245-0.507-1.987-0.712c-0.734-0.202-1.531-0.362-2.356-0.358c-0.82,0.001-1.631,0.118-2.375,0.352
				c-0.75,0.234-1.448,0.574-2.069,0.977c-1.257,0.813-2.215,1.866-2.985,2.954c-0.35,0.484-0.311,1.162,0.117,1.604
				c0.484,0.498,1.281,0.514,1.778,0.03l0.019-0.017c0.802-0.779,1.685-1.413,2.591-1.773c0.453-0.18,0.906-0.297,1.349-0.344
				c0.451-0.043,0.878-0.006,1.279,0.07c0.799,0.174,1.579,0.616,2.571,1.26l0.78,0.498c0.282,0.172,0.557,0.348,0.88,0.523
				c0.301,0.176,0.653,0.342,0.996,0.508c0.368,0.154,0.733,0.313,1.141,0.429c0.395,0.139,0.827,0.215,1.25,0.305
				c0.219,0.031,0.437,0.055,0.655,0.082c0.216,0.016,0.435,0.027,0.656,0.035c0.875,0.012,1.735-0.101,2.549-0.289
				c1.623-0.402,3.045-1.09,4.303-1.871c1.259-0.786,2.369-1.668,3.415-2.583l0.77-0.695l0.731-0.711
				c0.25-0.241,0.483-0.482,0.717-0.726l0.696-0.73c0.171-0.184,0.344-0.398,0.483-0.615c1.18-1.861,0.626-4.324-1.233-5.505
				c-0.663-0.419-1.399-0.618-2.132-0.618C247.622,181.357,246.332,182.012,245.574,183.209"/>
		</defs>
		<clipPath id="SVGID_82_">
			<use xlink:href="#SVGID_81_"  overflow="visible"/>
		</clipPath>
		
			<linearGradient id="SVGID_83_" gradientUnits="userSpaceOnUse" x1="100.5986" y1="300.1445" x2="102.5991" y2="300.1445" gradientTransform="matrix(16.7083 -3.4249 -3.4249 -16.7083 -433.5852 5551.7686)">
			<stop  offset="0" style="stop-color:#FF9085"/>
			<stop  offset="1" style="stop-color:#FB6FBB"/>
		</linearGradient>
		<polygon clip-path="url(#SVGID_82_)" fill="url(#SVGID_83_)" points="219.409,181.935 252.227,175.208 256.31,195.133 
			223.492,201.859 		"/>
	</g>
	<g clip-path="url(#SVGID_2_)">
		<defs>
			<path id="SVGID_84_" d="M141.326,195.947c-1.042,2.063-2.104,1.493-2.104,1.493l1.016,2.109c0,0,1.987-1.267,2.755-1.319
				c0.768-0.059,3.182-1.604,3.578-2.381c0.396-0.775,0.919-2.186-0.604-1.168c-1.523,1.019-3.542,1.17-3.542,1.17
				s0.56-0.867,0.404-1.371c-0.042-0.141-0.115-0.215-0.212-0.215C142.361,194.266,141.917,194.776,141.326,195.947"/>
		</defs>
		<clipPath id="SVGID_85_">
			<use xlink:href="#SVGID_84_"  overflow="visible"/>
		</clipPath>
		
			<linearGradient id="SVGID_86_" gradientUnits="userSpaceOnUse" x1="102.5444" y1="297.7188" x2="104.5444" y2="297.7188" gradientTransform="matrix(-5.781 3.2658 3.2658 5.781 -224.0661 -1866.23)">
			<stop  offset="0" style="stop-color:#FFC444"/>
			<stop  offset="0.9964" style="stop-color:#F36F56"/>
			<stop  offset="1" style="stop-color:#F36F56"/>
		</linearGradient>
		<polygon clip-path="url(#SVGID_85_)" fill="url(#SVGID_86_)" points="150.01,198.126 141.223,203.09 136.701,195.088 
			145.49,190.123 		"/>
	</g>
	<g clip-path="url(#SVGID_2_)">
		<defs>
			<path id="SVGID_87_" d="M88.288,340.016c-0.192,0.903,1.56,1.534,3.69,1.453c0.825-0.034,2.118,0.06,3.384,0.159
				c1.99,0.149,3.914,0.298,3.835-0.053c-0.13-0.572-8.041-4.169-8.041-4.169l-1.928-0.56
				C89.228,336.847,88.48,339.113,88.288,340.016"/>
		</defs>
		<clipPath id="SVGID_88_">
			<use xlink:href="#SVGID_87_"  overflow="visible"/>
		</clipPath>
		
			<linearGradient id="SVGID_89_" gradientUnits="userSpaceOnUse" x1="105.2915" y1="303.7949" x2="107.2915" y2="303.7949" gradientTransform="matrix(-0.9828 12.5086 -12.5086 -0.9828 3998.3511 -693.5438)">
			<stop  offset="0" style="stop-color:#311944"/>
			<stop  offset="1" style="stop-color:#A03976"/>
		</linearGradient>
		<polygon clip-path="url(#SVGID_88_)" fill="url(#SVGID_89_)" points="88.166,335.973 87.699,341.895 99.207,342.8 99.673,336.878 
					"/>
	</g>
	<g clip-path="url(#SVGID_2_)">
		<defs>
			<path id="SVGID_90_" d="M88.87,337.969c0.84,0.527,2.094,0.082,2.094,0.082l0.48-3.563l-2.934-0.429L88.87,337.969z"/>
		</defs>
		<clipPath id="SVGID_91_">
			<use xlink:href="#SVGID_90_"  overflow="visible"/>
		</clipPath>
		
			<linearGradient id="SVGID_92_" gradientUnits="userSpaceOnUse" x1="94.5835" y1="295.8281" x2="96.5835" y2="295.8281" gradientTransform="matrix(0.1787 -12.9552 12.9552 0.1787 -3759.4729 1511.3408)">
			<stop  offset="0" style="stop-color:#FFC444"/>
			<stop  offset="0.9964" style="stop-color:#F36F56"/>
			<stop  offset="1" style="stop-color:#F36F56"/>
		</linearGradient>
		<polygon clip-path="url(#SVGID_91_)" fill="url(#SVGID_92_)" points="91.443,338.536 91.505,334.06 88.51,334.02 88.449,338.496 
					"/>
	</g>
	<g clip-path="url(#SVGID_2_)">
		<defs>
			<path id="SVGID_93_" d="M53.26,336.051c-0.256,0.414-0.332,0.91-0.208,1.382c0.32,1.228,0.961,3.625,1.243,4.247
				c0.38,0.849,5.503,1.355,5.503,1.355s0.456-0.642-0.605-1.421c-1.065-0.774-1.746-0.896-2.123-2.041
				c-0.376-1.146-0.627-4.386-0.627-4.386l-2.261-0.614L53.26,336.051z"/>
		</defs>
		<clipPath id="SVGID_94_">
			<use xlink:href="#SVGID_93_"  overflow="visible"/>
		</clipPath>
		
			<linearGradient id="SVGID_95_" gradientUnits="userSpaceOnUse" x1="105.2915" y1="305.2617" x2="107.2901" y2="305.2617" gradientTransform="matrix(-0.9828 12.5085 -12.5085 -0.9828 3979.7432 -694.9986)">
			<stop  offset="0" style="stop-color:#311944"/>
			<stop  offset="1" style="stop-color:#A03976"/>
		</linearGradient>
		<polygon clip-path="url(#SVGID_94_)" fill="url(#SVGID_95_)" points="52.973,334 52.267,342.984 60.209,343.606 60.916,334.622 		
			"/>
	</g>
	<g clip-path="url(#SVGID_2_)">
		<defs>
			<path id="SVGID_96_" d="M54.03,335.302L54.03,335.302c-0.112-0.114-0.149-0.15-0.152-0.15L54.03,335.302 M54.03,335.301
				c0.094,0.094,0.24,0.235,0.458,0.453c1.012,1.001,1.542,0.324,1.542,0.324s1.646-4.992,1.982-5.261l-3.792-0.424L54.03,335.301z"
				/>
		</defs>
		<clipPath id="SVGID_97_">
			<use xlink:href="#SVGID_96_"  overflow="visible"/>
		</clipPath>
		
			<linearGradient id="SVGID_98_" gradientUnits="userSpaceOnUse" x1="94.584" y1="294.5127" x2="96.582" y2="294.5127" gradientTransform="matrix(0.1787 -12.9556 12.9556 0.1787 -3776.5996 1511.1428)">
			<stop  offset="0" style="stop-color:#FFC444"/>
			<stop  offset="0.9964" style="stop-color:#F36F56"/>
			<stop  offset="1" style="stop-color:#F36F56"/>
		</linearGradient>
		<polygon clip-path="url(#SVGID_97_)" fill="url(#SVGID_98_)" points="58.01,336.813 58.1,330.394 53.879,330.336 53.791,336.754 
					"/>
	</g>
	<g clip-path="url(#SVGID_2_)">
		<defs>
			<path id="SVGID_99_" d="M78.146,259.277c-0.719,0.66-2.196,2.486-0.213,14.656c1.83,11.219,3.387,11.523,4.48,19.423
				c1.24,8.922-0.548,9.972,0.975,22.008c0.433,3.42,1.041,6.992,2.05,10.979c0.954,3.792,2.024,6.964,2.931,9.378
				c0.451,0.031,0.914,0.055,1.394,0.064c0.711,0.022,1.395,0.019,2.042-0.002c1.743-11.639,3.125-24.475,3.816-38.365
				c0.61-12.333,0.594-23.88,0.176-34.505c-5.041-3.082-9.972-4.949-13.574-4.949C80.529,257.965,79.124,258.381,78.146,259.277"/>
		</defs>
		<clipPath id="SVGID_100_">
			<use xlink:href="#SVGID_99_"  overflow="visible"/>
		</clipPath>
		
			<linearGradient id="SVGID_101_" gradientUnits="userSpaceOnUse" x1="105.4238" y1="294.9414" x2="107.4238" y2="294.9414" gradientTransform="matrix(-9.5788 0 0 -9.5788 1105.9302 3122.0786)">
			<stop  offset="0" style="stop-color:#444B8C"/>
			<stop  offset="0.9964" style="stop-color:#3E4177"/>
			<stop  offset="1" style="stop-color:#3E4177"/>
		</linearGradient>
		<rect x="75.951" y="257.965" clip-path="url(#SVGID_100_)" fill="url(#SVGID_101_)" width="20.282" height="77.844"/>
	</g>
	<g clip-path="url(#SVGID_2_)">
		<defs>
			<rect id="SVGID_102_" width="400" height="400"/>
		</defs>
		<clipPath id="SVGID_103_">
			<use xlink:href="#SVGID_102_"  overflow="visible"/>
		</clipPath>
		<g opacity="0.3" clip-path="url(#SVGID_103_)">
			<g>
				<defs>
					<rect id="SVGID_104_" x="76.94" y="257.965" width="17.833" height="77.836"/>
				</defs>
				<clipPath id="SVGID_105_">
					<use xlink:href="#SVGID_104_"  overflow="visible"/>
				</clipPath>
				<g clip-path="url(#SVGID_105_)">
					<defs>
						<path id="SVGID_106_" d="M78.146,259.277c2.915-2.678,9.584-1.057,16.628,3.031c-8.105,8.754-8.987,14.434-8.017,18.117
							c1.099,4.164,4.436,5.363,4.424,9.918c-0.016,5.597-5.066,7.078-4.96,13c0.073,3.917,2.291,3.875,2.816,8.711
							c0.621,5.723-2.28,7.692-1.34,11.927c0.402,1.823,1.556,4.202,4.84,6.655c-0.238,1.735-0.48,3.46-0.731,5.147
							c-0.648,0.021-1.331,0.024-2.042,0.002c-0.48-0.01-0.945-0.033-1.394-0.064c-0.906-2.414-1.977-5.586-2.931-9.378
							c-1.009-3.984-1.615-7.56-2.05-10.979c-1.523-12.036,0.263-13.086-0.973-22.008c-1.096-7.899-2.654-8.205-4.482-19.423
							C75.952,261.764,77.428,259.938,78.146,259.277"/>
					</defs>
					<clipPath id="SVGID_107_">
						<use xlink:href="#SVGID_106_"  overflow="visible"/>
					</clipPath>
					
						<linearGradient id="SVGID_108_" gradientUnits="userSpaceOnUse" x1="105.4233" y1="295.0146" x2="107.4233" y2="295.0146" gradientTransform="matrix(-9.5788 0 0 -9.5788 1105.9247 3122.073)">
						<stop  offset="0" style="stop-color:#444B8C"/>
						<stop  offset="0.9964" style="stop-color:#3E4177"/>
						<stop  offset="1" style="stop-color:#3E4177"/>
					</linearGradient>
					<rect x="75.952" y="256.6" clip-path="url(#SVGID_107_)" fill="url(#SVGID_108_)" width="18.823" height="79.209"/>
				</g>
			</g>
		</g>
	</g>
	<g clip-path="url(#SVGID_2_)">
		<defs>
			<path id="SVGID_109_" d="M65.098,271.808c-2.498,8.539-1.865,10.239-4.471,17.063c-2.512,6.571-3.839,6.919-5.765,13.134
				c-1.719,5.546-2.145,10.039-2.381,12.735c-0.377,4.214-0.496,10.05,0.605,16.943c0.236,0.268,1.139,1.231,2.645,1.431
				c1.105,0.147,1.97-0.191,2.336-0.36c2.709-9.617,6.397-20.406,11.482-31.898c6.728-15.206,14.254-27.912,21.231-38.12
				c-6.702-1.965-13.403-3.93-20.104-5.896C67.842,263.082,66.124,268.302,65.098,271.808"/>
		</defs>
		<clipPath id="SVGID_110_">
			<use xlink:href="#SVGID_109_"  overflow="visible"/>
		</clipPath>
		
			<linearGradient id="SVGID_111_" gradientUnits="userSpaceOnUse" x1="102.832" y1="297.5352" x2="104.832" y2="297.5352" gradientTransform="matrix(-19.2831 0 0 -19.2831 2073.7039 6032.4385)">
			<stop  offset="0" style="stop-color:#444B8C"/>
			<stop  offset="0.9964" style="stop-color:#3E4177"/>
			<stop  offset="1" style="stop-color:#3E4177"/>
		</linearGradient>
		<rect x="51.984" y="256.838" clip-path="url(#SVGID_110_)" fill="url(#SVGID_111_)" width="38.795" height="76.423"/>
	</g>
	<g clip-path="url(#SVGID_2_)">
		<defs>
			<path id="SVGID_112_" d="M92.166,210.215c-0.904,2-5.36,3.133-6.268,3.559c-0.91,0.422,1.624,1.824,4.197,2.166
				c2.574,0.34,9.971-0.018,11.33-0.957c1.361-0.936-1.042-0.936-2.865-1.67c-1.821-0.736-2.774-4.375-2.399-6.002
				c0.375-1.629-2.77-2.299-2.77-2.299S93.162,208,92.166,210.215"/>
		</defs>
		<clipPath id="SVGID_113_">
			<use xlink:href="#SVGID_112_"  overflow="visible"/>
		</clipPath>
		
			<linearGradient id="SVGID_114_" gradientUnits="userSpaceOnUse" x1="100.1567" y1="293.25" x2="102.1574" y2="293.25" gradientTransform="matrix(-0.4585 7.7936 7.7936 0.4585 -2144.8237 -718.7604)">
			<stop  offset="0" style="stop-color:#FFC444"/>
			<stop  offset="0.9964" style="stop-color:#F36F56"/>
			<stop  offset="1" style="stop-color:#F36F56"/>
		</linearGradient>
		<polygon clip-path="url(#SVGID_113_)" fill="url(#SVGID_114_)" points="103.447,205.051 102.725,217.324 84.327,216.24 
			85.049,203.969 		"/>
	</g>
	<g clip-path="url(#SVGID_2_)">
		<defs>
			<path id="SVGID_115_" d="M92.646,199.816c-1.715,1.404-2.549,2.123-2.593,3.092c-0.027,0.59,0.227,1.293,0.621,1.787
				c0.2,0.258,0.528,0.551,1.225,1.088c0.613,0.477,0.577,0.465,0.764,0.602c0.446,0.328,1.273,0.857,2.641,1.342
				c-0.038-0.33-0.061-0.748-0.031-1.219c0.012-0.182,0.066-0.896,0.298-1.555c0.4-1.135,1.098-1.643,1.538-2.225
				c1.358-1.803,0.78-5.336-0.432-5.789c-0.048-0.018-0.094-0.03-0.146-0.03C96.205,196.91,95.62,197.381,92.646,199.816"/>
		</defs>
		<clipPath id="SVGID_116_">
			<use xlink:href="#SVGID_115_"  overflow="visible"/>
		</clipPath>
		
			<linearGradient id="SVGID_117_" gradientUnits="userSpaceOnUse" x1="100.2676" y1="309.0615" x2="102.2676" y2="309.0615" gradientTransform="matrix(-0.4828 -5.7942 -5.7942 0.4828 1933.7031 637.4106)">
			<stop  offset="0" style="stop-color:#26264F"/>
			<stop  offset="0.0036" style="stop-color:#26264F"/>
			<stop  offset="1" style="stop-color:#444B8C"/>
		</linearGradient>
		<polygon clip-path="url(#SVGID_116_)" fill="url(#SVGID_117_)" points="90.084,208.424 89.131,196.984 98.408,196.212 
			99.361,207.652 		"/>
	</g>
	<g clip-path="url(#SVGID_2_)">
		<defs>
			<path id="SVGID_118_" d="M94.48,202.66c-0.346,0.248-0.42,0.455-0.992,0.85c-0.529,0.359-0.716,0.355-0.838,0.57
				c-0.154,0.264-0.15,0.775,0.666,1.873c-0.49-0.23-0.971-0.215-1.225,0.041c-0.04,0.041-0.137,0.174-0.16,0.336
				c-0.088,0.574,0.574,1.027,1.703,1.023c0,0,1.682,1.346,3.73,0.449c1.833-0.807,0.579-5.117-0.945-5.576
				c-0.125-0.037-0.268-0.055-0.424-0.055C95.514,202.172,94.922,202.346,94.48,202.66"/>
		</defs>
		<clipPath id="SVGID_119_">
			<use xlink:href="#SVGID_118_"  overflow="visible"/>
		</clipPath>
		
			<linearGradient id="SVGID_120_" gradientUnits="userSpaceOnUse" x1="94.6025" y1="293.8887" x2="96.6025" y2="293.8887" gradientTransform="matrix(4.4664 4.7078 4.7078 -4.4664 -1712.0079 1071.1721)">
			<stop  offset="0" style="stop-color:#FFC444"/>
			<stop  offset="0.9964" style="stop-color:#F36F56"/>
			<stop  offset="1" style="stop-color:#F36F56"/>
		</linearGradient>
		<polygon clip-path="url(#SVGID_119_)" fill="url(#SVGID_120_)" points="95.715,198.5 102.457,205.607 95.327,212.371 
			88.584,205.264 		"/>
	</g>
	<g clip-path="url(#SVGID_2_)">
		<defs>
			<path id="SVGID_121_" d="M126.268,206.869c-3.988,1.691-7.304,1.541-12.084,1.391c-1.712-0.055-3.609-0.107-5.795-0.078
				c-5.064,0.072-13.761,0.195-20.656,2.662c-17.244,6.174-23.625,27.166-25.515,33.375c-1.649,5.422-5.263,17.338,0.181,22.27
				c2.912,2.634,7.953,2.851,9.052,2.897c2.591,0.109,4.069-0.398,5.543-0.904c1.473-0.508,2.939-1.016,5.504-0.907
				c5.14,0.22,6.494,2.566,10.137,1.629c0.647-0.167,3.168-0.898,5.851-4.402c7.596-9.928,1.244-20.85,8.817-34.889
				c1.141-2.115,2.147-3.98,4.164-5.979c6.535-6.459,12.767-3.521,21-8.707c6.754-4.254,11.288-12.805,9.328-16.66
				c-0.887-1.748-1.656-1.518-2.849-1.658C136.939,200.309,131.975,204.457,126.268,206.869"/>
		</defs>
		<clipPath id="SVGID_122_">
			<use xlink:href="#SVGID_121_"  overflow="visible"/>
		</clipPath>
		
			<linearGradient id="SVGID_123_" gradientUnits="userSpaceOnUse" x1="99.001" y1="301.3164" x2="101.001" y2="301.3164" gradientTransform="matrix(-4.0646 -39.0924 -39.0924 4.0646 12287.6807 2934.1555)">
			<stop  offset="0" style="stop-color:#FFC444"/>
			<stop  offset="0.9964" style="stop-color:#F36F56"/>
			<stop  offset="1" style="stop-color:#F36F56"/>
		</linearGradient>
		<polygon clip-path="url(#SVGID_122_)" fill="url(#SVGID_123_)" points="57.883,279.067 49.412,197.603 142.827,187.889 
			151.298,269.355 		"/>
	</g>
	<g clip-path="url(#SVGID_2_)">
		<defs>
			<rect id="SVGID_124_" width="400" height="400"/>
		</defs>
		<clipPath id="SVGID_125_">
			<use xlink:href="#SVGID_124_"  overflow="visible"/>
		</clipPath>
		<g opacity="0.3" clip-path="url(#SVGID_125_)">
			<g>
				<defs>
					<rect id="SVGID_126_" x="59.506" y="219.438" width="39.091" height="49.987"/>
				</defs>
				<clipPath id="SVGID_127_">
					<use xlink:href="#SVGID_126_"  overflow="visible"/>
				</clipPath>
				<g clip-path="url(#SVGID_127_)">
					<defs>
						<path id="SVGID_128_" d="M76.522,261.719c-1.88-2.424,7.82-9.105,6.519-16.898c-1.097-6.564-8.875-7.219-10.865-13.277
							c-0.859-2.619-0.698-6.432,2.959-12.105c-8.02,8.697-11.59,20.406-12.919,24.779c-1.648,5.424-5.262,17.34,0.182,22.271
							c2.912,2.634,7.951,2.851,9.053,2.897c5.18,0.219,5.921-2.03,11.046-1.812c5.14,0.219,6.494,2.566,10.137,1.629
							c0.647-0.167,3.168-0.898,5.851-4.402c0.039-0.053,0.071-0.104,0.111-0.156c-2.023-1.93-4.451-3.484-7.35-4.133
							C84.111,258.916,78.044,263.684,76.522,261.719"/>
					</defs>
					<clipPath id="SVGID_129_">
						<use xlink:href="#SVGID_128_"  overflow="visible"/>
					</clipPath>
					
						<linearGradient id="SVGID_130_" gradientUnits="userSpaceOnUse" x1="99.0088" y1="301.584" x2="101.0095" y2="301.584" gradientTransform="matrix(-4.1042 -39.473 -39.473 4.1042 12393.3711 2961.7214)">
						<stop  offset="0" style="stop-color:#FFC444"/>
						<stop  offset="0.9964" style="stop-color:#F36F56"/>
						<stop  offset="1" style="stop-color:#F36F56"/>
					</linearGradient>
					<polygon clip-path="url(#SVGID_129_)" fill="url(#SVGID_130_)" points="57.4,274.425 51.738,219.98 98.152,215.154 
						103.814,269.598 					"/>
				</g>
			</g>
		</g>
	</g>
	<g clip-path="url(#SVGID_2_)">
		<defs>
			<path id="SVGID_131_" d="M252.609,229.531c-0.255,1.133-1.192,5.303,1.091,7.982c3.828,4.494,14.94,2.725,20.154-3.559
				c4.096-4.938,4.609-12.723,2.236-14.184c-2.86-1.764-11.406,4.838-12.056,5.34c-1.305,1.01-2.488,2.082-2.699,1.896
				c-0.352-0.322,2.45-3.988,4.996-7.178c-0.649-0.498-1.301-0.996-1.952-1.492C263.81,218.498,254.461,221.309,252.609,229.531"/>
		</defs>
		<clipPath id="SVGID_132_">
			<use xlink:href="#SVGID_131_"  overflow="visible"/>
		</clipPath>
		
			<linearGradient id="SVGID_133_" gradientUnits="userSpaceOnUse" x1="98.6938" y1="300.3271" x2="100.6938" y2="300.3271" gradientTransform="matrix(-20.7694 -81.4589 81.4589 -20.7694 -22106.5332 14676.2197)">
			<stop  offset="0" style="stop-color:#FF9085"/>
			<stop  offset="1" style="stop-color:#FB6FBB"/>
		</linearGradient>
		<polygon clip-path="url(#SVGID_132_)" fill="url(#SVGID_133_)" points="284.207,240.543 276.81,211.533 245.669,219.473 
			253.066,248.482 		"/>
	</g>
	<g clip-path="url(#SVGID_2_)">
		<defs>
			<path id="SVGID_134_" d="M338.612,276.081c-0.779,0.673-0.28,1.969-0.28,1.969s1.121,1.349,1.863,1.181
				c0.742-0.165,3.628-2.147,4.863-3.093c1.235-0.942,2.98-2.614,0.819-2.65c-0.023-0.003-0.046-0.003-0.068-0.003
				C343.621,273.484,339.387,275.409,338.612,276.081"/>
		</defs>
		<clipPath id="SVGID_135_">
			<use xlink:href="#SVGID_134_"  overflow="visible"/>
		</clipPath>
		
			<linearGradient id="SVGID_136_" gradientUnits="userSpaceOnUse" x1="100.2056" y1="304.9453" x2="102.2071" y2="304.9453" gradientTransform="matrix(9.5025 -13.2971 13.2971 9.5025 -4672.3794 -1277.3293)">
			<stop  offset="0" style="stop-color:#AB316D"/>
			<stop  offset="1" style="stop-color:#792D3D"/>
		</linearGradient>
		<polygon clip-path="url(#SVGID_135_)" fill="url(#SVGID_136_)" points="344.59,284.227 350.839,275.481 341.285,268.656 
			335.036,277.398 		"/>
	</g>
	<g clip-path="url(#SVGID_2_)">
		<defs>
			<path id="SVGID_137_" d="M341.164,276.188c-0.817,0.258-1.637,0.633-3.472,1.852c-0.829,0.552-1.924,1.316-3.182,2.297
				l1.877,1.19c0,0,1.695-1.297,2.232-1.702c3.682-2.796,5.181-3.595,5.028-3.938c-0.043-0.09-0.188-0.126-0.395-0.126
				C342.691,275.761,341.685,276.026,341.164,276.188"/>
		</defs>
		<clipPath id="SVGID_138_">
			<use xlink:href="#SVGID_137_"  overflow="visible"/>
		</clipPath>
		
			<linearGradient id="SVGID_139_" gradientUnits="userSpaceOnUse" x1="99.5767" y1="296.375" x2="101.5767" y2="296.375" gradientTransform="matrix(-12.2034 18.3515 -18.3515 -12.2034 6997.1987 2062.167)">
			<stop  offset="0" style="stop-color:#FFC444"/>
			<stop  offset="0.9964" style="stop-color:#F36F56"/>
			<stop  offset="1" style="stop-color:#F36F56"/>
		</linearGradient>
		<polygon clip-path="url(#SVGID_138_)" fill="url(#SVGID_139_)" points="337.359,271.477 331.852,279.758 340.95,285.809 
			346.458,277.527 		"/>
	</g>
	<g clip-path="url(#SVGID_2_)">
		<defs>
			<path id="SVGID_140_" d="M277.841,337.043c-0.742,0.168-3.619,2.149-4.856,3.098c-1.234,0.945-2.977,2.617-0.813,2.653
				c2.167,0.038,6.479-1.924,7.258-2.603c0.781-0.68,0.281-1.97,0.281-1.97s-0.996-1.195-1.731-1.195
				C277.933,337.026,277.887,337.031,277.841,337.043"/>
		</defs>
		<clipPath id="SVGID_141_">
			<use xlink:href="#SVGID_140_"  overflow="visible"/>
		</clipPath>
		
			<linearGradient id="SVGID_142_" gradientUnits="userSpaceOnUse" x1="101.7173" y1="295.6709" x2="103.7188" y2="295.6709" gradientTransform="matrix(-9.4834 13.3109 -13.3109 -9.4834 5183.6235 1778.3497)">
			<stop  offset="0" style="stop-color:#AB316D"/>
			<stop  offset="1" style="stop-color:#792D3D"/>
		</linearGradient>
		<polygon clip-path="url(#SVGID_141_)" fill="url(#SVGID_142_)" points="273.442,332.206 267.263,340.878 276.776,347.652 
			282.953,338.98 		"/>
	</g>
	<g clip-path="url(#SVGID_2_)">
		<defs>
			<path id="SVGID_143_" d="M277.284,333.188c0.118,0.7,0.188,1.7-0.109,2.805c-0.687,2.52-2.749,3.57-2.429,4.106
				c0.282,0.475,2.233,0.24,3.345-0.938c0.631-0.665,0.788-1.419,1.046-2.744c0.18-0.933,0.353-2.269,0.262-3.917L277.284,333.188z"
				/>
		</defs>
		<clipPath id="SVGID_144_">
			<use xlink:href="#SVGID_143_"  overflow="visible"/>
		</clipPath>
		
			<linearGradient id="SVGID_145_" gradientUnits="userSpaceOnUse" x1="95.1436" y1="301.0479" x2="97.1436" y2="301.0479" gradientTransform="matrix(-4.696 -15.5711 15.5711 -4.696 -3962.446 3236.5308)">
			<stop  offset="0" style="stop-color:#FFC444"/>
			<stop  offset="0.9964" style="stop-color:#F36F56"/>
			<stop  offset="1" style="stop-color:#F36F56"/>
		</linearGradient>
		<polygon clip-path="url(#SVGID_144_)" fill="url(#SVGID_145_)" points="281.722,339.898 279.067,331.099 272.195,333.175 
			274.848,341.973 		"/>
	</g>
	<g clip-path="url(#SVGID_2_)">
		<defs>
			<path id="SVGID_146_" d="M271.981,265.318c-2.916,3.075-2.278,7.463-1.367,15.334c0.769,6.601,1.812,16.36,2.796,28.72
				c0.892,8.62,1.781,17.241,2.676,25.862h4.458c1.82-3.872,3.991-9.801,4.101-17.125c0.093-6.065-1.327-6.859-1.601-13.73
				c-0.148-3.78,0.186-5.897,3.03-22.296c2.259-13.044,2.704-15.491,0.891-17.478c-1.491-1.631-4.038-2.436-6.704-2.436
				C277.192,262.17,273.966,263.23,271.981,265.318"/>
		</defs>
		<clipPath id="SVGID_147_">
			<use xlink:href="#SVGID_146_"  overflow="visible"/>
		</clipPath>
		
			<linearGradient id="SVGID_148_" gradientUnits="userSpaceOnUse" x1="97.9468" y1="301.957" x2="99.9464" y2="301.957" gradientTransform="matrix(7.3572 -25.817 25.817 7.3572 -8247.5068 641.3866)">
			<stop  offset="0" style="stop-color:#444B8C"/>
			<stop  offset="0.9964" style="stop-color:#26264F"/>
			<stop  offset="1" style="stop-color:#26264F"/>
		</linearGradient>
		<polygon clip-path="url(#SVGID_147_)" fill="url(#SVGID_148_)" points="287.3,340.43 308.036,267.659 270.544,256.973 
			249.808,329.746 		"/>
	</g>
	<g clip-path="url(#SVGID_2_)">
		<defs>
			<rect id="SVGID_149_" width="400" height="400"/>
		</defs>
		<clipPath id="SVGID_150_">
			<use xlink:href="#SVGID_149_"  overflow="visible"/>
		</clipPath>
		<g opacity="0.4" clip-path="url(#SVGID_150_)">
			<g>
				<defs>
					<rect id="SVGID_151_" x="276.206" y="262.178" width="11.883" height="73.057"/>
				</defs>
				<clipPath id="SVGID_152_">
					<use xlink:href="#SVGID_151_"  overflow="visible"/>
				</clipPath>
				<g clip-path="url(#SVGID_152_)">
					<defs>
						<path id="SVGID_153_" d="M280.901,325.386c-0.766-2.406-2.805-4.865-2.944-9.632c-0.163-5.626,2.538-7.031,2.141-12.306
							c-0.379-5.07-2.996-5.44-3.746-10.436c-0.87-5.802,2.355-7.32,3.479-14.18c1.023-6.258-0.46-12.356-2-16.435
							c3.462-0.631,7.189,0.082,9.134,2.207c1.813,1.986,1.368,4.434-0.891,17.478c-2.845,16.398-3.18,18.516-3.03,22.296
							c0.273,6.871,1.693,7.665,1.602,13.733c-0.109,7.322-2.281,13.251-4.102,17.122h-1.477
							C281.45,330.901,281.652,327.742,280.901,325.386"/>
					</defs>
					<clipPath id="SVGID_154_">
						<use xlink:href="#SVGID_153_"  overflow="visible"/>
					</clipPath>
					
						<linearGradient id="SVGID_155_" gradientUnits="userSpaceOnUse" x1="97.9448" y1="302.0195" x2="99.9452" y2="302.0195" gradientTransform="matrix(7.3572 -25.817 25.817 7.3572 -8246.1758 641.7814)">
						<stop  offset="0" style="stop-color:#444B8C"/>
						<stop  offset="0.9964" style="stop-color:#26264F"/>
						<stop  offset="1" style="stop-color:#26264F"/>
					</linearGradient>
					<polygon clip-path="url(#SVGID_154_)" fill="url(#SVGID_155_)" points="287.781,338.738 308.144,267.285 276.48,258.264 
						256.12,329.716 					"/>
				</g>
			</g>
		</g>
	</g>
	<g clip-path="url(#SVGID_2_)">
		<defs>
			<path id="SVGID_156_" d="M277.57,260.203c2.332,3.068,5.621,7.441,9.484,12.742c16.059,22.059,18.043,27.278,23.508,28.555
				c10.333,2.414,22.285-11.816,28.536-20.427c-1.067-1.373-2.135-2.737-3.208-4.104c-7.638,2.574-12.75,5.918-16.052,8.56
				c-2.522,2.021-3.703,3.404-5.53,3.211c-3.733-0.392-5.212-6.86-9.313-16.36c-1.718-3.976-4.488-9.859-8.702-16.813
				C290.052,257.111,283.813,258.658,277.57,260.203"/>
		</defs>
		<clipPath id="SVGID_157_">
			<use xlink:href="#SVGID_156_"  overflow="visible"/>
		</clipPath>
		
			<linearGradient id="SVGID_158_" gradientUnits="userSpaceOnUse" x1="99.0576" y1="303.2832" x2="101.0576" y2="303.2832" gradientTransform="matrix(10.0602 -18.3959 18.3959 10.0602 -6277.7041 -930.2109)">
			<stop  offset="0" style="stop-color:#444B8C"/>
			<stop  offset="0.9964" style="stop-color:#26264F"/>
			<stop  offset="1" style="stop-color:#26264F"/>
		</linearGradient>
		<polygon clip-path="url(#SVGID_157_)" fill="url(#SVGID_158_)" points="324.935,329.816 359.453,266.698 291.737,229.664 
			257.216,292.784 		"/>
	</g>
	<g clip-path="url(#SVGID_2_)">
		<defs>
			<path id="SVGID_159_" d="M320.008,181.127c-4.91,3.951-2.945,9.913-8.5,12.873c-2.411,1.287-4.339,0.994-6.37,0.702
				c-2.138-0.309-4.393-0.614-7.453,0.917c-4.665,2.34-4.766,5.735-9.963,7.053c-2.102,0.531-3.378,0.309-6.206,1.422
				c-2.18,0.859-4.13,1.662-5.398,3.695c-0.219,0.357-1.98,3.275-0.745,6.172c1.406,3.289,5.381,3.908,6.499,4.086
				c3.723,0.582,6.39-1.008,8.234-1.578c10.032-3.102,16.999,13.227,32.749,15.352c8.734,1.178,18.648-2.219,20.822-7.738
				c0.233-0.594,1.683-4.273,0.12-7.482c-1.215-2.488-3.285-2.729-3.406-4.477c-0.172-2.461,3.246-3.928,5.625-6.686
				c4.086-4.734,4.633-13.168,1.737-18.63c-3.125-5.903-10.507-8.79-17.266-8.788C326.414,178.02,322.566,179.066,320.008,181.127"
				/>
		</defs>
		<clipPath id="SVGID_160_">
			<use xlink:href="#SVGID_159_"  overflow="visible"/>
		</clipPath>
		
			<linearGradient id="SVGID_161_" gradientUnits="userSpaceOnUse" x1="98.3208" y1="300.4658" x2="100.3219" y2="300.4658" gradientTransform="matrix(-45.7896 -28.3687 28.3687 -45.7896 -3639.2971 16796.3379)">
			<stop  offset="0" style="stop-color:#444B8C"/>
			<stop  offset="0.9964" style="stop-color:#26264F"/>
			<stop  offset="1" style="stop-color:#26264F"/>
		</linearGradient>
		<polygon clip-path="url(#SVGID_160_)" fill="url(#SVGID_161_)" points="375.262,193.268 295.356,143.764 249.521,217.748 
			329.426,267.253 		"/>
	</g>
	<g clip-path="url(#SVGID_2_)">
		<defs>
			<path id="SVGID_162_" d="M279.278,218.523c-13.018,1.377-12.509,7.855-10.149,13.76c2.406,6.029,2.32,11.35,2.274,13.242
				c-0.079,3.051-0.634,5.496-1.742,10.387c-1.924,8.498-3.36,10.447-2.005,12.622c1.979,3.166,7.521,3.01,8.492,2.963
				c4.925-0.235,5.969-3.125,10.12-3.58c4.821-0.53,5.935,3.088,12.642,5.525c7.913,2.878,18.102,2.116,22.835-3.182
				c1.828-2.047,3-4.874,2.212-5.763c-0.524-0.596-1.688-0.059-3.207,0.48c-1.574,0.555-3.527,1.113-5.543,0.41
				c-2.625-0.916-2.387-2.934-5.53-4.9c-3.781-2.371-6.008-0.627-8.571-2.154c-4-2.385-3.14-9.34-3.461-20.791
				c-0.134-4.738-0.508-11.484-1.594-19.695c-0.423,0-0.859-0.002-1.301-0.002C290.214,217.846,284.801,217.941,279.278,218.523"/>
		</defs>
		<clipPath id="SVGID_163_">
			<use xlink:href="#SVGID_162_"  overflow="visible"/>
		</clipPath>
		
			<linearGradient id="SVGID_164_" gradientUnits="userSpaceOnUse" x1="98.6929" y1="300.5078" x2="100.6929" y2="300.5078" gradientTransform="matrix(-20.7694 -81.4589 81.4589 -20.7694 -22096.6152 14673.7412)">
			<stop  offset="0" style="stop-color:#FF9085"/>
			<stop  offset="1" style="stop-color:#FB6FBB"/>
		</linearGradient>
		<polygon clip-path="url(#SVGID_163_)" fill="url(#SVGID_164_)" points="338.742,272.75 321.175,203.844 252.262,221.416 
			269.831,290.323 		"/>
	</g>
	<g clip-path="url(#SVGID_2_)">
		<defs>
			<path id="SVGID_165_" d="M312.729,226.844c-7.25-1.426-9.734-8.654-16.679-8.996c-5.837-0.281-10.884,4.494-14.352,8.807
				c1.054,2.215,2.996,5.59,6.437,8.57c10.966,9.498,31.22,9.84,41.899-1.24c1.868-1.938,5.679-6.545,7.047-14.75
				c-1.335-0.617-2.668-1.234-4-1.852C323.672,226.523,317.12,227.711,312.729,226.844"/>
		</defs>
		<clipPath id="SVGID_166_">
			<use xlink:href="#SVGID_165_"  overflow="visible"/>
		</clipPath>
		
			<linearGradient id="SVGID_167_" gradientUnits="userSpaceOnUse" x1="98.6904" y1="300.5723" x2="100.6925" y2="300.5723" gradientTransform="matrix(-20.7694 -81.4589 81.4589 -20.7694 -22084.9863 14670.7334)">
			<stop  offset="0" style="stop-color:#FF9085"/>
			<stop  offset="1" style="stop-color:#FB6FBB"/>
		</linearGradient>
		<polygon clip-path="url(#SVGID_166_)" fill="url(#SVGID_167_)" points="343.708,243.375 333.7,204.123 275.073,219.072 
			285.081,258.322 		"/>
	</g>
	<g clip-path="url(#SVGID_2_)">
		<defs>
			<path id="SVGID_168_" d="M280.847,212.504l-0.484,0.346c-0.233,0.168-0.357,0.451-0.319,0.738l0.234,1.852
				c0.023,0.168-0.001,1.311-0.086,1.457c-0.73,1.268-3.637,2.102-4.749,2.322c-0.72,0.141-0.868,1.111-0.219,1.461l0.328,0.174
				c0.037,0.023,0.077,0.041,0.116,0.055c5.751,2.033,14.383-2.443,14.031-2.785s-3.126,0.039-4.97-0.822
				c-1.284-0.6-2.225-2.99-2.679-4.396c-0.11-0.344-0.423-0.549-0.749-0.549C281.146,212.355,280.987,212.404,280.847,212.504"/>
		</defs>
		<clipPath id="SVGID_169_">
			<use xlink:href="#SVGID_168_"  overflow="visible"/>
		</clipPath>
		
			<linearGradient id="SVGID_170_" gradientUnits="userSpaceOnUse" x1="97.5938" y1="297.3105" x2="99.5938" y2="297.3105" gradientTransform="matrix(-4.9367 -12.0609 -12.0609 4.9367 4355.6782 -58.9315)">
			<stop  offset="0" style="stop-color:#FFC444"/>
			<stop  offset="0.9964" style="stop-color:#F36F56"/>
			<stop  offset="1" style="stop-color:#F36F56"/>
		</linearGradient>
		<polygon clip-path="url(#SVGID_169_)" fill="url(#SVGID_170_)" points="276.794,228.367 270.863,213.875 287.831,206.93 
			293.762,221.424 		"/>
	</g>
	<g clip-path="url(#SVGID_2_)">
		<defs>
			<path id="SVGID_171_" d="M279.44,209.545c-1.193,0.609-1.644,4.783-0.006,5.17c1.834,0.432,2.769-1.24,2.769-1.24
				c0.145-0.043,0.456-0.156,0.688-0.455c0.065-0.086,0.362-0.463,0.222-0.701c-0.112-0.186-0.475-0.248-0.858-0.084
				c0.391-1.404-0.71-2.48-1.095-2.662c-0.276-0.129-0.609-0.186-0.925-0.186C279.926,209.387,279.638,209.441,279.44,209.545"/>
		</defs>
		<clipPath id="SVGID_172_">
			<use xlink:href="#SVGID_171_"  overflow="visible"/>
		</clipPath>
		
			<linearGradient id="SVGID_173_" gradientUnits="userSpaceOnUse" x1="98.2256" y1="302.2842" x2="100.2274" y2="302.2842" gradientTransform="matrix(-10.1045 10.6751 10.6751 10.1045 -1949.9412 -3894.8838)">
			<stop  offset="0" style="stop-color:#FFC444"/>
			<stop  offset="0.9964" style="stop-color:#F36F56"/>
			<stop  offset="1" style="stop-color:#F36F56"/>
		</linearGradient>
		<polygon clip-path="url(#SVGID_172_)" fill="url(#SVGID_173_)" points="286.128,212.107 280.675,217.869 274.919,212.424 
			280.375,206.662 		"/>
	</g>
	<g clip-path="url(#SVGID_2_)">
		<defs>
			<path id="SVGID_174_" d="M334.254,210.262c-2.741,0.879,0.603,6.348,0.603,6.348l-0.656,1.293l2.029,0.936
				c0,0,0.828-2.477,0.349-3.221c-0.474-0.74-0.977-3.178-0.667-3.926c0.248-0.588,0.781-1.689-0.36-1.689
				C335.247,210.002,334.828,210.078,334.254,210.262"/>
		</defs>
		<clipPath id="SVGID_175_">
			<use xlink:href="#SVGID_174_"  overflow="visible"/>
		</clipPath>
		
			<linearGradient id="SVGID_176_" gradientUnits="userSpaceOnUse" x1="100.3701" y1="296.0645" x2="102.3683" y2="296.0645" gradientTransform="matrix(0.9187 16.8234 -16.8234 0.9187 5222.373 -1755.376)">
			<stop  offset="0" style="stop-color:#FFC444"/>
			<stop  offset="0.9964" style="stop-color:#F36F56"/>
			<stop  offset="1" style="stop-color:#F36F56"/>
		</linearGradient>
		<polygon clip-path="url(#SVGID_175_)" fill="url(#SVGID_176_)" points="331.034,210.027 331.531,219.141 337.536,218.813 
			337.039,209.701 		"/>
	</g>
	<g clip-path="url(#SVGID_2_)">
		<defs>
			<rect id="SVGID_177_" width="400" height="400"/>
		</defs>
		<clipPath id="SVGID_178_">
			<use xlink:href="#SVGID_177_"  overflow="visible"/>
		</clipPath>
		<g opacity="0.3" clip-path="url(#SVGID_178_)">
			<g>
				<defs>
					<rect id="SVGID_179_" x="292.146" y="230.557" width="37.258" height="39.682"/>
				</defs>
				<clipPath id="SVGID_180_">
					<use xlink:href="#SVGID_179_"  overflow="visible"/>
				</clipPath>
				<g clip-path="url(#SVGID_180_)">
					<defs>
						<path id="SVGID_181_" d="M310.508,269.825c-1.73-1.177-0.539-3.483-2.497-5.349c-1.792-1.707-3.753-0.691-6.956-1.605
							c-3.852-1.1-6.833-4.225-8.206-6.957c-0.977-1.945-0.898-3.221,0-13.197c0.857-9.5,1.1-11.82,2.319-12.129
							c2.223-0.559,4.212,6.42,8.563,6.422c2.457,0,2.789-2.227,5.884-3.389c5.256-1.975,9.008,2.668,14.628,2.496
							c1.434-0.043,3.176-0.418,5.164-1.535c-8.094,7.809-21.133,9.516-31.7,5.977c0.142,9.656-0.233,15.609,3.399,17.775
							c2.563,1.529,4.79-0.215,8.571,2.154c3.144,1.969,2.906,3.984,5.53,4.9c3.961,1.382,7.684-2.104,8.75-0.891
							c0.712,0.807-0.191,3.201-1.727,5.166c-0.902-0.371-1.898-0.645-2.983-0.729C315.102,268.612,312.55,271.215,310.508,269.825"
							/>
					</defs>
					<clipPath id="SVGID_182_">
						<use xlink:href="#SVGID_181_"  overflow="visible"/>
					</clipPath>
					
						<linearGradient id="SVGID_183_" gradientUnits="userSpaceOnUse" x1="96.5264" y1="298.6348" x2="98.5269" y2="298.6348" gradientTransform="matrix(-18.6291 0 0 -18.6291 2127.6194 5813.9316)">
						<stop  offset="0" style="stop-color:#FF9085"/>
						<stop  offset="1" style="stop-color:#FB6FBB"/>
					</linearGradient>
					<rect x="291.872" y="230.029" clip-path="url(#SVGID_182_)" fill="url(#SVGID_183_)" width="37.534" height="41.186"/>
				</g>
			</g>
		</g>
	</g>
	<g clip-path="url(#SVGID_2_)">
		<defs>
			<path id="SVGID_184_" d="M259.344,194.844c-1.864,0.982-7.496,4.479-9.172,11.586c-0.089,0.373,0.066,0.762,0.387,0.973
				c0.585,0.381,1.267,0.707,1.267,0.707l9.362-10.581l0.489-1.271l-1.267-1.256c-0.176-0.174-0.407-0.264-0.642-0.264
				C259.622,194.738,259.479,194.772,259.344,194.844"/>
		</defs>
		<clipPath id="SVGID_185_">
			<use xlink:href="#SVGID_184_"  overflow="visible"/>
		</clipPath>
		
			<linearGradient id="SVGID_186_" gradientUnits="userSpaceOnUse" x1="102.5186" y1="297.1016" x2="104.5189" y2="297.1016" gradientTransform="matrix(4.7116 4.8679 -4.8679 4.7116 1215.1152 -1701.5752)">
			<stop  offset="0" style="stop-color:#AB316D"/>
			<stop  offset="1" style="stop-color:#792D3D"/>
		</linearGradient>
		<polygon clip-path="url(#SVGID_185_)" fill="url(#SVGID_186_)" points="243.402,201.205 255.691,213.904 268.362,201.643 
			256.07,188.944 		"/>
	</g>
	<g clip-path="url(#SVGID_2_)">
		<defs>
			<path id="SVGID_187_" d="M267.5,212.914l-0.755,4.16c0,0-0.045,1.203-0.237,1.668c0.477,0.623,1.661,0.924,1.661,0.924
				l2.365-4.697l-2.896-2.068L267.5,212.914z"/>
		</defs>
		<clipPath id="SVGID_188_">
			<use xlink:href="#SVGID_187_"  overflow="visible"/>
		</clipPath>
		
			<linearGradient id="SVGID_189_" gradientUnits="userSpaceOnUse" x1="103.7314" y1="297.3223" x2="105.7314" y2="297.3223" gradientTransform="matrix(4.9739 5.1389 -5.1389 4.9739 1276.3268 -1799.9153)">
			<stop  offset="0" style="stop-color:#AB316D"/>
			<stop  offset="1" style="stop-color:#792D3D"/>
		</linearGradient>
		<polygon clip-path="url(#SVGID_188_)" fill="url(#SVGID_189_)" points="263.128,216.172 268.456,221.678 273.917,216.393 
			268.586,210.889 		"/>
	</g>
	<g clip-path="url(#SVGID_2_)">
		<defs>
			<path id="SVGID_190_" d="M267.863,215.428c-1.742,0.227-2.358,1.563-2.358,1.563l-0.677,1.688l0.919,0.705
				c0,0,0.758-0.545,1.467-1.629c0.502-1.066,1.236-1.275,1.236-1.275l1.139-0.338c0,0,0.013-0.748-1.219-0.748
				C268.222,215.393,268.052,215.404,267.863,215.428"/>
		</defs>
		<clipPath id="SVGID_191_">
			<use xlink:href="#SVGID_190_"  overflow="visible"/>
		</clipPath>
		
			<linearGradient id="SVGID_192_" gradientUnits="userSpaceOnUse" x1="94.3359" y1="285.2246" x2="96.3363" y2="285.2246" gradientTransform="matrix(-1.236 1.8496 -1.8496 -1.236 912.6483 393.5201)">
			<stop  offset="0" style="stop-color:#FFC444"/>
			<stop  offset="0.9964" style="stop-color:#F36F56"/>
			<stop  offset="1" style="stop-color:#F36F56"/>
		</linearGradient>
		<polygon clip-path="url(#SVGID_191_)" fill="url(#SVGID_192_)" points="266.301,213.188 262.984,218.15 268.129,221.588 
			271.445,216.623 		"/>
	</g>
	<g clip-path="url(#SVGID_2_)">
		<defs>
			<path id="SVGID_193_" d="M251.825,208.109c0,0,15.14,4.936,20.097,8.793c1.773-0.391,2.469-3.148,2.469-3.148
				s-10.57-10.125-12.714-17.496C254.164,198.33,251.825,208.109,251.825,208.109"/>
		</defs>
		<clipPath id="SVGID_194_">
			<use xlink:href="#SVGID_193_"  overflow="visible"/>
		</clipPath>
		
			<linearGradient id="SVGID_195_" gradientUnits="userSpaceOnUse" x1="100.0186" y1="298.4766" x2="102.0176" y2="298.4766" gradientTransform="matrix(1.201 20.6047 -20.6047 1.201 6292.4619 -2222.2178)">
			<stop  offset="0" style="stop-color:#444B8C"/>
			<stop  offset="0.9964" style="stop-color:#26264F"/>
			<stop  offset="1" style="stop-color:#26264F"/>
		</linearGradient>
		<polygon clip-path="url(#SVGID_194_)" fill="url(#SVGID_195_)" points="250.628,196.328 251.902,218.213 275.59,216.832 
			274.315,194.947 		"/>
	</g>
	<g clip-path="url(#SVGID_2_)">
		<defs>
			<path id="SVGID_196_" d="M257.582,188.958c-0.446,0.091-10.931,2.48-13.387,17.26c-0.114,0.693,0.356,1.352,1.051,1.467
				c0.22,0.037,0.438,0.012,0.634-0.057c0.425-0.148,0.757-0.518,0.835-0.992c2.172-13.081,11.305-15.162,11.395-15.181
				c0.691-0.148,1.13-0.824,0.987-1.513c-0.128-0.601-0.659-1.013-1.25-1.013C257.761,188.93,257.669,188.939,257.582,188.958"/>
		</defs>
		<clipPath id="SVGID_197_">
			<use xlink:href="#SVGID_196_"  overflow="visible"/>
		</clipPath>
		
			<linearGradient id="SVGID_198_" gradientUnits="userSpaceOnUse" x1="93.1665" y1="304.1719" x2="95.1664" y2="304.1719" gradientTransform="matrix(-2.877 -1.7253 1.7253 -2.877 -3.0396 1235.4246)">
			<stop  offset="0" style="stop-color:#AB316D"/>
			<stop  offset="1" style="stop-color:#792D3D"/>
		</linearGradient>
		<polygon clip-path="url(#SVGID_197_)" fill="url(#SVGID_198_)" points="267.528,193.9 248.09,182.244 235.792,202.752 
			255.23,214.408 		"/>
	</g>
	<g clip-path="url(#SVGID_2_)">
		<defs>
			<path id="SVGID_199_" d="M253.383,115.287c0-0.003,0-0.003,0-0.003C253.383,115.287,253.383,115.287,253.383,115.287
				 M261.543,78.24c-12.454,0.375-22.124,8.984-22.124,19.24c0,4.273,1.683,8.283,4.546,11.552c-0.204,0.345-0.43,0.672-0.66,0.985
				c1.988,1.975,4.435,3.613,7.214,4.809c0.216-0.15,0.411-0.304,0.579-0.441c0.345,0.168,0.699,0.308,1.056,0.462
				c0.404,0.174,0.813,0.284,1.229,0.436c-0.003-0.001-0.004-0.024-0.004-0.047c0-0.024-0.001-0.051-0.001-0.051
				c1.328,0.492,2.728,0.949,4.182,0.949h0.006c0.169,0,0.345,0.276,0.518,0.306c0.019,0.007,0.039,0.22,0.063,0.224
				c0.155,0.026,0.308,0.049,0.464,0.072c0.036,0.008,0.074,0.014,0.106,0.02c0.144,0.023,0.284,0.04,0.428,0.061
				c0.047,0.004,0.094,0.01,0.141,0.016c0.133,0.018,0.267,0.034,0.398,0.044c0.055,0.009,0.11,0.016,0.165,0.022
				c0.129,0.014,0.259,0.025,0.387,0.037c0.06,0.007,0.117,0.008,0.18,0.016c0.113,0.011,0.234,0.016,0.354,0.026
				c0.013,0,0.031,0.004,0.044,0.004c0.051,0.002,0.106,0.008,0.161,0.012c0.188,0.012,0.375,0.02,0.569,0.032
				c2.548,0.112,5.03-0.127,7.366-0.664c0.185-0.043,0.369-0.087,0.556-0.137c0.277-0.069,0.551-0.141,0.824-0.221
				c0.185-0.052,0.363-0.105,0.544-0.166c0.271-0.082,0.538-0.17,0.803-0.262c0.619-0.218,1.224-0.454,1.813-0.714
				c0.087-0.038,0.169-0.075,0.251-0.112c1.344-0.608,2.602-1.32,3.767-2.131c0.07-0.05,0.141-0.105,0.217-0.155
				c3.383-2.415,5.922-5.651,7.166-9.387c0.054-0.158,0.101-0.32,0.151-0.48c0.07-0.239,0.129-0.485,0.191-0.727
				c0.125-0.492,0.211-0.988,0.29-1.492c0.042-0.253,0.045-0.504,0.073-0.765c0.063-0.594,0.039-1.2,0.039-1.81
				c0-0.136-0.122-0.266-0.122-0.398v-0.063v-0.399V96.93c-0.378-10.441-10.624-18.544-22.827-18.699
				c-0.121-0.002-0.233-0.002-0.337-0.002C262.058,78.228,261.825,78.232,261.543,78.24"/>
		</defs>
		<clipPath id="SVGID_200_">
			<use xlink:href="#SVGID_199_"  overflow="visible"/>
		</clipPath>
		
			<linearGradient id="SVGID_201_" gradientUnits="userSpaceOnUse" x1="98.8877" y1="300.1074" x2="100.886" y2="300.1074" gradientTransform="matrix(-34.6635 86.6587 86.6587 34.6635 -22283.3301 -18957.6563)">
			<stop  offset="0" style="stop-color:#311944"/>
			<stop  offset="1" style="stop-color:#893976"/>
		</linearGradient>
		<polygon clip-path="url(#SVGID_200_)" fill="url(#SVGID_201_)" points="299.035,83.595 279.246,133.068 226.003,111.771 
			245.793,62.298 		"/>
	</g>
	<g clip-path="url(#SVGID_2_)">
		<defs>
			<path id="SVGID_202_" d="M259.88,78.17c-12.453,0.375-22.119,8.984-22.119,19.242c0,4.75,2.075,9.178,5.544,12.614
				c1.988,1.974,4.435,3.621,7.214,4.814c0.393,0.17,0.794,0.33,1.204,0.482c1.329,0.494,2.728,0.886,4.181,1.168
				c0.146,0.027,0.288,0.051,0.436,0.078c0.242,0.043,0.485,0.086,0.729,0.117c0.172,0.027,0.342,0.049,0.511,0.07
				c0.175,0.024,0.348,0.042,0.52,0.061c0.056,0.01,0.109,0.012,0.165,0.02c0.271,0.029,0.542,0.049,0.815,0.07
				c0.263,0.021,0.534,0.037,0.802,0.049c0.297,0.011,0.594,0.022,0.889,0.022c12.688,0.16,23.282-8.294,23.282-19.248
				c0-0.173-0.001-0.341-0.008-0.514c-0.007-0.152-0.012-0.304-0.02-0.458c-0.004-0.041-0.008-0.082-0.011-0.123
				c-0.005-0.131-0.018-0.266-0.028-0.397c-0.011-0.12-0.021-0.238-0.039-0.357c-0.008-0.094-0.021-0.191-0.034-0.288
				c0-0.006-0.001-0.01,0-0.012c-0.031-0.252-0.071-0.504-0.114-0.754c-0.031-0.17-0.066-0.338-0.102-0.506
				c-0.016-0.068-0.027-0.137-0.043-0.204c-0.047-0.212-0.098-0.422-0.155-0.632c0,0,0,0,0-0.004
				c-2.181-8.313-10.619-14.52-20.744-15.25c-0.667-0.051-1.339-0.074-2.015-0.074C260.453,78.158,260.168,78.162,259.88,78.17"/>
		</defs>
		<clipPath id="SVGID_203_">
			<use xlink:href="#SVGID_202_"  overflow="visible"/>
		</clipPath>
		
			<linearGradient id="SVGID_204_" gradientUnits="userSpaceOnUse" x1="98.8179" y1="301.5195" x2="100.8179" y2="301.5195" gradientTransform="matrix(15.9491 29.5808 29.5808 -15.9491 -10243.0088 1967.429)">
			<stop  offset="0" style="stop-color:#FF9085"/>
			<stop  offset="1" style="stop-color:#FB6FBB"/>
		</linearGradient>
		<polygon clip-path="url(#SVGID_203_)" fill="url(#SVGID_204_)" points="273.625,58.822 300.333,108.358 248.185,136.475 
			221.477,86.938 		"/>
	</g>
	<g clip-path="url(#SVGID_2_)">
		<defs>
			<path id="SVGID_205_" d="M259.88,78.17c-12.453,0.375-22.119,8.984-22.119,19.242c0,4.75,2.075,9.178,5.544,12.614
				c1.988,1.974,4.435,3.621,7.214,4.814c0.393,0.17,0.794,0.33,1.204,0.482c1.329,0.494,2.728,0.886,4.181,1.168
				c0.146,0.027,0.288,0.051,0.436,0.078c0.242,0.043,0.485,0.086,0.729,0.117c0.172,0.027,0.342,0.049,0.511,0.07
				c0.175,0.024,0.348,0.042,0.52,0.061c0.056,0.01,0.109,0.012,0.165,0.02c0.271,0.029,0.542,0.049,0.815,0.07
				c0.263,0.021,0.534,0.037,0.802,0.049c0.297,0.011,0.594,0.022,0.889,0.022c12.688,0.16,23.282-8.294,23.282-19.248
				c0-0.173-0.001-0.341-0.008-0.514c-0.007-0.152-0.012-0.304-0.02-0.458c-0.004-0.041-0.008-0.082-0.011-0.123
				c-0.005-0.131-0.018-0.266-0.028-0.397c-0.011-0.12-0.021-0.238-0.039-0.357c-0.008-0.094-0.021-0.191-0.034-0.288
				c0-0.006-0.001-0.01,0-0.012c-0.031-0.252-0.071-0.504-0.114-0.754c-0.031-0.17-0.066-0.338-0.102-0.506
				c-0.016-0.068-0.027-0.137-0.043-0.204c-0.047-0.212-0.098-0.422-0.155-0.632c0,0,0,0,0-0.004
				c-2.181-8.313-10.619-14.52-20.744-15.25c-0.667-0.051-1.339-0.074-2.015-0.074C260.453,78.158,260.168,78.162,259.88,78.17"/>
		</defs>
		<clipPath id="SVGID_206_">
			<use xlink:href="#SVGID_205_"  overflow="visible"/>
		</clipPath>
		
			<linearGradient id="SVGID_207_" gradientUnits="userSpaceOnUse" x1="98.8179" y1="301.5195" x2="100.8179" y2="301.5195" gradientTransform="matrix(15.9491 29.5808 29.5808 -15.9491 -10243.0088 1967.429)">
			<stop  offset="0" style="stop-color:#FF9085"/>
			<stop  offset="1" style="stop-color:#FB6FBB"/>
		</linearGradient>
		<polygon clip-path="url(#SVGID_206_)" fill="url(#SVGID_207_)" points="273.625,58.822 300.333,108.358 248.185,136.475 
			221.477,86.938 		"/>
	</g>
	<g clip-path="url(#SVGID_2_)">
		<defs>
			<rect id="SVGID_208_" width="400" height="400"/>
		</defs>
		<clipPath id="SVGID_209_">
			<use xlink:href="#SVGID_208_"  overflow="visible"/>
		</clipPath>
		<path clip-path="url(#SVGID_209_)" fill="#FFFFFF" d="M247.195,92.377L247.195,92.377c0.935-2.668,3.276-4.586,6.042-4.621
			c3.646-0.042,6.642,3.208,6.642,7.258c0-4.049,3.032-7.372,6.82-7.418c2.941-0.036,5.483,1.91,6.512,4.701
			c3.95,10.066-13.332,18.898-13.332,18.898S243.672,101.838,247.195,92.377"/>
		<g opacity="0.3" clip-path="url(#SVGID_209_)">
			<g>
				<defs>
					<rect id="SVGID_210_" x="251.719" y="85.5" width="32.332" height="31.482"/>
				</defs>
				<clipPath id="SVGID_211_">
					<use xlink:href="#SVGID_210_"  overflow="visible"/>
				</clipPath>
				<g clip-path="url(#SVGID_211_)">
					<defs>
						<path id="SVGID_212_" d="M254.332,111.822c2.742-5.602-0.031-10.961,3.684-14.602c3.828-3.75,8.888-0.21,14.441-3.314
							c2.181-1.216,4.626-3.563,6.457-8.406c3.208,3.352,5.137,7.6,5.137,12.228c0,11.208-11.094,19.805-24.171,19.227
							c-2.906-0.128-5.656-0.701-8.161-1.628C252.949,114.176,253.77,112.967,254.332,111.822"/>
					</defs>
					<clipPath id="SVGID_213_">
						<use xlink:href="#SVGID_212_"  overflow="visible"/>
					</clipPath>
					
						<linearGradient id="SVGID_214_" gradientUnits="userSpaceOnUse" x1="98.0352" y1="299.7852" x2="100.0352" y2="299.7852" gradientTransform="matrix(-15.6333 31.3724 -31.3724 -15.6333 11214.0693 1695.2435)">
						<stop  offset="0" style="stop-color:#FF9085"/>
						<stop  offset="1" style="stop-color:#FB6FBB"/>
					</linearGradient>
					<polygon clip-path="url(#SVGID_213_)" fill="url(#SVGID_214_)" points="258.151,72.594 238.933,111.16 277.62,130.439 
						296.836,91.873 					"/>
				</g>
			</g>
		</g>
	</g>
	<g clip-path="url(#SVGID_2_)">
		<defs>
			<path id="SVGID_215_" d="M314.591,102.033c-6.009,0.192-11.239,2.901-14.502,6.903c0,0,0-0.004,0-0.006
				c-0.021,0.026-0.039,0.055-0.062,0.078c-0.056,0.07-0.11,0.141-0.165,0.212c-0.102,0.129-0.202,0.258-0.297,0.392
				c-0.058,0.076-0.116,0.154-0.171,0.234c-0.093,0.129-0.184,0.265-0.274,0.396c-0.05,0.078-0.102,0.154-0.148,0.229
				c-0.102,0.155-0.198,0.313-0.289,0.472c-0.034,0.055-0.073,0.113-0.107,0.168c-0.125,0.215-0.242,0.431-0.354,0.649
				c-0.031,0.059-0.061,0.118-0.086,0.176c-0.084,0.162-0.164,0.326-0.242,0.496c-0.039,0.082-0.073,0.164-0.112,0.246
				c-0.063,0.148-0.128,0.296-0.188,0.446c-0.035,0.089-0.07,0.172-0.104,0.261c-0.057,0.156-0.111,0.31-0.169,0.465
				c-0.026,0.08-0.059,0.162-0.082,0.244c-0.066,0.197-0.126,0.393-0.181,0.59c-0.014,0.044-0.029,0.084-0.038,0.124
				c-0.066,0.241-0.125,0.48-0.181,0.727c-0.015,0.07-0.029,0.144-0.045,0.214c-0.039,0.176-0.071,0.348-0.102,0.527
				c-0.016,0.091-0.028,0.181-0.041,0.271c-0.023,0.163-0.05,0.327-0.069,0.491c-0.009,0.091-0.022,0.185-0.03,0.278
				c-0.018,0.174-0.031,0.348-0.044,0.523c-0.004,0.082-0.012,0.162-0.016,0.244c-0.012,0.256-0.021,0.514-0.021,0.771
				c0,6.164,3.731,11.602,9.329,14.512c0.516,0.266,1.046,0.512,1.593,0.738c0.271,0.114,0.548,0.219,0.829,0.32
				c1.969,0.707,4.11,1.128,6.368,1.192c0.312,0.011,0.62,0.011,0.928,0.008c0.103-0.001,0.208-0.008,0.31-0.013
				c0.203-0.004,0.406-0.011,0.606-0.023c0.125-0.006,0.248-0.016,0.373-0.028c0.181-0.012,0.359-0.026,0.539-0.044
				c0.13-0.014,0.259-0.031,0.392-0.048c0.168-0.02,0.336-0.04,0.507-0.063c0.134-0.019,0.266-0.042,0.399-0.064
				c0.164-0.027,0.324-0.056,0.485-0.086c0.133-0.023,0.271-0.052,0.401-0.082c0.159-0.033,0.316-0.07,0.472-0.104
				c0.135-0.035,0.267-0.066,0.4-0.101c0.155-0.04,0.311-0.079,0.46-0.124c0.133-0.038,0.266-0.076,0.395-0.116
				c0.05-0.015,0.098-0.026,0.145-0.041l-0.004-0.004c7.301-2.287,12.604-8.487,12.604-15.892c0-9.391-8.476-16.77-18.719-16.772
				C315.055,102.02,314.824,102.025,314.591,102.033"/>
		</defs>
		<clipPath id="SVGID_216_">
			<use xlink:href="#SVGID_215_"  overflow="visible"/>
		</clipPath>
		
			<linearGradient id="SVGID_217_" gradientUnits="userSpaceOnUse" x1="98.7583" y1="302.2432" x2="100.7583" y2="302.2432" gradientTransform="matrix(13.8488 27.7911 27.7911 -13.8488 -9477.0449 1509.9226)">
			<stop  offset="0" style="stop-color:#FFC444"/>
			<stop  offset="0.9964" style="stop-color:#F36F56"/>
			<stop  offset="1" style="stop-color:#F36F56"/>
		</linearGradient>
		<polygon clip-path="url(#SVGID_216_)" fill="url(#SVGID_217_)" points="326.535,87.038 347.418,128.941 303.935,150.608 
			283.055,108.705 		"/>
	</g>
	<g clip-path="url(#SVGID_2_)">
		<defs>
			<path id="SVGID_218_" d="M313.238,102.076c-10.109,0.328-18.031,7.836-18.031,16.781c0,8.941,7.922,16.426,18.031,16.719
				c10.5,0.305,19.316-7.203,19.316-16.781c0-9.37-8.433-16.729-18.625-16.729C313.699,102.066,313.472,102.07,313.238,102.076"/>
		</defs>
		<clipPath id="SVGID_219_">
			<use xlink:href="#SVGID_218_"  overflow="visible"/>
		</clipPath>
		
			<linearGradient id="SVGID_220_" gradientUnits="userSpaceOnUse" x1="99.4224" y1="302.4453" x2="101.4229" y2="302.4453" gradientTransform="matrix(13.4514 24.9484 24.9484 -13.4514 -8576.3242 1693.2495)">
			<stop  offset="0" style="stop-color:#FFC444"/>
			<stop  offset="0.9964" style="stop-color:#F36F56"/>
			<stop  offset="1" style="stop-color:#F36F56"/>
		</linearGradient>
		<polygon clip-path="url(#SVGID_219_)" fill="url(#SVGID_220_)" points="324.144,86.466 346.68,128.266 303.62,151.482 
			281.082,109.682 		"/>
	</g>
	<g clip-path="url(#SVGID_2_)">
		<defs>
			<rect id="SVGID_221_" width="400" height="400"/>
		</defs>
		<clipPath id="SVGID_222_">
			<use xlink:href="#SVGID_221_"  overflow="visible"/>
		</clipPath>
		<path clip-path="url(#SVGID_222_)" fill="#FFFFFF" d="M312.028,108.951l-2.825,5.204l-5.708,0.684
			c-0.823,0.101-1.214,1.126-0.659,1.741l3.854,4.288l-1.313,5.9c-0.195,0.867,0.646,1.586,1.424,1.214l5.37-2.577l5.211,3.163
			c0.773,0.467,1.724-0.168,1.606-1.077l-0.798-6.153l4.516-4.109c0.66-0.603,0.343-1.695-0.538-1.849l-5.924-1.033l-2.375-5.364
			C313.527,108.209,312.441,108.193,312.028,108.951"/>
		<g opacity="0.2" clip-path="url(#SVGID_222_)">
			<g>
				<defs>
					<rect id="SVGID_223_" x="295.207" y="108.958" width="24.809" height="26.627"/>
				</defs>
				<clipPath id="SVGID_224_">
					<use xlink:href="#SVGID_223_"  overflow="visible"/>
				</clipPath>
				<g clip-path="url(#SVGID_224_)">
					<defs>
						<path id="SVGID_225_" d="M317.805,131.408c-2.278-5.019,0.026-9.652-3.051-12.868c-3.09-3.234-7.055-0.212-11.254-2.798
							c-1.606-0.988-3.383-2.88-4.692-6.784c-2.265,2.778-3.601,6.204-3.601,9.898c0,8.941,7.923,16.426,18.031,16.719
							c2.368,0.07,4.656-0.26,6.777-0.928C318.969,133.556,318.276,132.448,317.805,131.408"/>
					</defs>
					<clipPath id="SVGID_226_">
						<use xlink:href="#SVGID_225_"  overflow="visible"/>
					</clipPath>
					
						<linearGradient id="SVGID_227_" gradientUnits="userSpaceOnUse" x1="99.3594" y1="302.2598" x2="101.3602" y2="302.2598" gradientTransform="matrix(13.0677 26.2236 26.2236 -13.0677 -8924.25 1452.256)">
						<stop  offset="0" style="stop-color:#FFC444"/>
						<stop  offset="0.9964" style="stop-color:#F36F56"/>
						<stop  offset="1" style="stop-color:#F36F56"/>
					</linearGradient>
					<polygon clip-path="url(#SVGID_226_)" fill="url(#SVGID_227_)" points="315.082,99.055 330.669,130.337 300.144,145.549 
						284.555,114.267 					"/>
				</g>
			</g>
		</g>
	</g>
	<g clip-path="url(#SVGID_2_)">
		<defs>
			<path id="SVGID_228_" d="M268.659,173.631L268.659,173.631 M276.628,137.452c-12.163,0.369-21.608,8.773-21.608,18.789
				c0,4.178,1.642,8.096,4.441,11.282c-0.2,0.34-0.418,0.658-0.646,0.966c1.939,1.928,4.33,3.527,7.044,4.695
				c0.214-0.146,0.403-0.298,0.567-0.428c0.339,0.164,0.683,0.296,1.03,0.45c0.392,0.168,0.796,0.279,1.202,0.426
				c-0.006-0.005-0.006-0.024-0.006-0.047c-0.001-0.027-0.001-0.05-0.001-0.05c1.297,0.482,2.665,0.929,4.087,0.929h0.003
				c0.167,0,0.339,0.27,0.505,0.299c0.019,0.004,0.039,0.213,0.062,0.216c0.155,0.028,0.301,0.051,0.453,0.071
				c0.038,0.007,0.071,0.012,0.103,0.019c0.144,0.021,0.281,0.04,0.417,0.055c0.05,0.008,0.097,0.012,0.141,0.019
				c0.129,0.018,0.261,0.034,0.391,0.047c0.051,0.004,0.105,0.016,0.16,0.02c0.125,0.013,0.254,0.024,0.379,0.036
				c0.058,0.006,0.113,0.01,0.172,0.016c0.114,0.012,0.23,0.019,0.347,0.028c0.017,0,0.031,0.003,0.044,0.003
				c0.052,0.004,0.105,0.008,0.16,0.009c0.181,0.015,0.366,0.023,0.554,0.033c2.489,0.111,4.911-0.124,7.192-0.648
				c0.183-0.044,0.363-0.088,0.543-0.13c0.273-0.071,0.54-0.141,0.806-0.219c0.179-0.05,0.354-0.106,0.531-0.162
				c0.265-0.08,0.526-0.166,0.781-0.256c0.608-0.211,1.201-0.446,1.776-0.7c0.082-0.035,0.164-0.07,0.242-0.105
				c1.31-0.595,2.539-1.289,3.68-2.085c0.073-0.048,0.138-0.098,0.211-0.149c3.302-2.359,5.784-5.519,7.003-9.168
				c0.048-0.156,0.096-0.315,0.143-0.468c0.069-0.236,0.131-0.475,0.19-0.711c0.12-0.479,0.206-0.964,0.284-1.458
				c0.039-0.246,0.04-0.494,0.07-0.744c0.06-0.582,0.036-1.174,0.036-1.769c0-0.133-0.12-0.262-0.12-0.389v-0.06v-0.392v-0.011
				c-0.364-10.2-10.376-18.11-22.294-18.262c-0.136-0.001-0.258-0.004-0.378-0.004C277.098,137.44,276.887,137.444,276.628,137.452"
				/>
		</defs>
		<clipPath id="SVGID_229_">
			<use xlink:href="#SVGID_228_"  overflow="visible"/>
		</clipPath>
		
			<linearGradient id="SVGID_230_" gradientUnits="userSpaceOnUse" x1="99.4341" y1="300.3066" x2="101.4324" y2="300.3066" gradientTransform="matrix(-33.8547 84.6368 84.6368 33.8547 -21760.4492 -18457.6719)">
			<stop  offset="0" style="stop-color:#444B8C"/>
			<stop  offset="0.9964" style="stop-color:#26264F"/>
			<stop  offset="1" style="stop-color:#26264F"/>
		</linearGradient>
		<polygon clip-path="url(#SVGID_229_)" fill="url(#SVGID_230_)" points="313.245,142.682 293.917,191.001 241.917,170.201 
			261.245,121.881 		"/>
	</g>
	<g clip-path="url(#SVGID_2_)">
		<defs>
			<path id="SVGID_231_" d="M275.004,137.384c-12.163,0.366-21.605,8.774-21.605,18.79c0,4.643,2.028,8.964,5.417,12.32
				c1.939,1.93,4.33,3.536,7.044,4.703c0.387,0.168,0.778,0.323,1.176,0.471c1.298,0.484,2.668,0.866,4.086,1.142
				c0.14,0.026,0.281,0.051,0.423,0.075c0.234,0.042,0.476,0.082,0.714,0.115c0.167,0.029,0.332,0.045,0.5,0.068
				c0.168,0.023,0.336,0.042,0.505,0.062c0.058,0.005,0.108,0.009,0.163,0.016c0.262,0.023,0.527,0.051,0.796,0.067
				c0.259,0.023,0.521,0.037,0.782,0.046c0.29,0.015,0.579,0.023,0.866,0.028c12.392,0.155,22.739-8.104,22.739-18.801
				c0-0.166-0.003-0.334-0.008-0.5c-0.004-0.15-0.011-0.297-0.02-0.45c-0.001-0.039-0.007-0.078-0.008-0.119
				c-0.007-0.13-0.016-0.26-0.03-0.389c-0.009-0.115-0.023-0.233-0.036-0.347c-0.008-0.094-0.02-0.189-0.031-0.281
				c0-0.004-0.004-0.011,0-0.012c-0.034-0.245-0.073-0.492-0.117-0.734c-0.027-0.166-0.06-0.332-0.097-0.496
				c-0.013-0.066-0.025-0.132-0.04-0.2c-0.047-0.207-0.101-0.413-0.152-0.617c0,0,0-0.002,0-0.004
				c-2.13-8.118-10.372-14.18-20.262-14.894c-0.648-0.051-1.304-0.074-1.962-0.074C275.566,137.37,275.285,137.374,275.004,137.384"
				/>
		</defs>
		<clipPath id="SVGID_232_">
			<use xlink:href="#SVGID_231_"  overflow="visible"/>
		</clipPath>
		
			<linearGradient id="SVGID_233_" gradientUnits="userSpaceOnUse" x1="99.6938" y1="301.334" x2="101.6938" y2="301.334" gradientTransform="matrix(15.5769 28.8906 28.8906 -15.5769 -9991.0859 1954.3763)">
			<stop  offset="0" style="stop-color:#FF9085"/>
			<stop  offset="1" style="stop-color:#FB6FBB"/>
		</linearGradient>
		<polygon clip-path="url(#SVGID_232_)" fill="url(#SVGID_233_)" points="288.427,118.483 314.513,166.867 263.581,194.328 
			237.495,145.945 		"/>
	</g>
	<g clip-path="url(#SVGID_2_)">
		<defs>
			<path id="SVGID_234_" d="M275.004,137.384c-12.163,0.366-21.605,8.774-21.605,18.79c0,4.643,2.028,8.964,5.417,12.32
				c1.939,1.93,4.33,3.536,7.044,4.703c0.387,0.168,0.778,0.323,1.176,0.471c1.298,0.484,2.668,0.866,4.086,1.142
				c0.14,0.026,0.281,0.051,0.423,0.075c0.234,0.042,0.476,0.082,0.714,0.115c0.167,0.029,0.332,0.045,0.5,0.068
				c0.168,0.023,0.336,0.042,0.505,0.062c0.058,0.005,0.108,0.009,0.163,0.016c0.262,0.023,0.527,0.051,0.796,0.067
				c0.259,0.023,0.521,0.037,0.782,0.046c0.29,0.015,0.579,0.023,0.866,0.028c12.392,0.155,22.739-8.104,22.739-18.801
				c0-0.166-0.003-0.334-0.008-0.5c-0.004-0.15-0.011-0.297-0.02-0.45c-0.001-0.039-0.007-0.078-0.008-0.119
				c-0.007-0.13-0.016-0.26-0.03-0.389c-0.009-0.115-0.023-0.233-0.036-0.347c-0.008-0.094-0.02-0.189-0.031-0.281
				c0-0.004-0.004-0.011,0-0.012c-0.034-0.245-0.073-0.492-0.117-0.734c-0.027-0.166-0.06-0.332-0.097-0.496
				c-0.013-0.066-0.025-0.132-0.04-0.2c-0.047-0.207-0.101-0.413-0.152-0.617c0,0,0-0.002,0-0.004
				c-2.13-8.118-10.372-14.18-20.262-14.894c-0.648-0.051-1.304-0.074-1.962-0.074C275.566,137.37,275.285,137.374,275.004,137.384"
				/>
		</defs>
		<clipPath id="SVGID_235_">
			<use xlink:href="#SVGID_234_"  overflow="visible"/>
		</clipPath>
		
			<linearGradient id="SVGID_236_" gradientUnits="userSpaceOnUse" x1="99.6938" y1="301.334" x2="101.6938" y2="301.334" gradientTransform="matrix(15.5769 28.8906 28.8906 -15.5769 -9991.0859 1954.3763)">
			<stop  offset="0" style="stop-color:#AA80F9"/>
			<stop  offset="0.9964" style="stop-color:#6165D7"/>
			<stop  offset="1" style="stop-color:#6165D7"/>
		</linearGradient>
		<polygon clip-path="url(#SVGID_235_)" fill="url(#SVGID_236_)" points="288.427,118.483 314.513,166.867 263.581,194.328 
			237.495,145.945 		"/>
	</g>
	<g clip-path="url(#SVGID_2_)">
		<defs>
			<rect id="SVGID_237_" width="400" height="400"/>
		</defs>
		<clipPath id="SVGID_238_">
			<use xlink:href="#SVGID_237_"  overflow="visible"/>
		</clipPath>
		<path clip-path="url(#SVGID_238_)" fill="#FFFFFF" d="M271.176,167.168c0.046-8.766,0.324-15.146,0.598-15.914
			c0.059-0.162,0.161-0.374,0.297-0.734c1.466-3.963,0.344-6.541,1.62-7.4c0.564-0.381,1.283-0.209,1.883-0.067
			c2.875,0.69,4.755,4.731,4.114,7.805c-0.099,0.477-0.242,0.848-0.325,1.045c0.197,0.008,0.352,0.012,0.505,0.02
			c1.289,0.061,2.589,0.042,3.864,0.202c2.553,0.319,4.445,2.535,4.414,5.107c-0.017,1.38-0.005,2.773-0.213,4.13
			c-0.335,2.165-1.711,3.665-3.523,4.782c-1.054,0.651-2.171,1.085-3.358,1.263c-0.688,0.104-1.223,0.094-1.5,0.086
			C276.527,167.424,271.832,167.201,271.176,167.168"/>
		<path clip-path="url(#SVGID_238_)" fill="#FFFFFF" d="M269.641,151.547c-0.19,5.208-0.378,10.361-0.567,15.545
			c-1.109-0.04-2.203-0.049-3.292-0.131c-0.5-0.041-0.801-0.506-0.785-1.076c0.023-1.01,0.066-2.018,0.103-3.027
			c0.124-3.393,0.25-6.788,0.378-10.184c0.034-0.902,0.414-1.259,1.308-1.231C267.729,151.475,268.675,151.51,269.641,151.547"/>
		<g opacity="0.3" clip-path="url(#SVGID_238_)">
			<g>
				<defs>
					<rect id="SVGID_239_" x="267.031" y="144.542" width="31.578" height="30.746"/>
				</defs>
				<clipPath id="SVGID_240_">
					<use xlink:href="#SVGID_239_"  overflow="visible"/>
				</clipPath>
				<g clip-path="url(#SVGID_240_)">
					<defs>
						<path id="SVGID_241_" d="M269.583,170.25c2.679-5.47-0.028-10.708,3.6-14.26c3.739-3.662,8.681-0.207,14.106-3.238
							c2.129-1.191,4.519-3.477,6.305-8.21c3.137,3.273,5.016,7.422,5.016,11.945c0,10.943-10.833,19.338-23.605,18.775
							c-2.837-0.126-5.523-0.684-7.973-1.588C268.237,172.548,269.035,171.373,269.583,170.25"/>
					</defs>
					<clipPath id="SVGID_242_">
						<use xlink:href="#SVGID_241_"  overflow="visible"/>
					</clipPath>
					
						<linearGradient id="SVGID_243_" gradientUnits="userSpaceOnUse" x1="98.6631" y1="299.2012" x2="100.6647" y2="299.2012" gradientTransform="matrix(-15.2686 30.6404 -30.6404 -15.2686 10965.3613 1688.5399)">
						<stop  offset="0" style="stop-color:#AA80F9"/>
						<stop  offset="0.9964" style="stop-color:#6165D7"/>
						<stop  offset="1" style="stop-color:#6165D7"/>
					</linearGradient>
					<polygon clip-path="url(#SVGID_242_)" fill="url(#SVGID_243_)" points="273.315,131.936 254.544,169.602 292.328,188.43 
						311.098,150.764 					"/>
				</g>
			</g>
		</g>
	</g>
	<g clip-path="url(#SVGID_2_)">
		<defs>
			<path id="SVGID_244_" d="M296.152,79.538c0,4.68,3.626,8.869,8.782,10.728c-0.001,0-0.001,0-0.001,0
				c0.031,0.014,0.066,0.022,0.098,0.034c0.148,0.054,0.301,0.105,0.456,0.155c0.033,0.012,0.072,0.026,0.111,0.036
				c0.151,0.046,0.304,0.092,0.456,0.136c0.028,0.008,0.059,0.017,0.09,0.026c0.171,0.045,0.34,0.09,0.512,0.134l0.099,0.021
				c0.175,0.044,0.351,0.081,0.526,0.119c0.035,0.004,0.07,0.014,0.106,0.022c0.178,0.037,0.354,0.066,0.534,0.097
				c0.034,0.008,0.067,0.012,0.102,0.016c0.183,0.03,0.367,0.056,0.552,0.079c0.029,0.007,0.062,0.009,0.092,0.013
				c0.188,0.023,0.383,0.045,0.572,0.061c0.022,0.003,0.039,0.004,0.063,0.004c0.202,0.019,0.409,0.035,0.615,0.044
				c7.758,0.402,14.13-4.33,14.13-10.574c0-0.146-0.004-0.291-0.012-0.436c-0.001-0.027-0.004-0.05-0.007-0.078
				c-0.005-0.14-0.017-0.281-0.031-0.422c-0.001-0.018-0.005-0.039-0.008-0.059c-0.032-0.3-0.078-0.599-0.142-0.894
				c-0.001-0.005-0.001-0.013-0.001-0.02c-1.14-5.374-6.979-9.618-13.93-9.832c-0.18-0.005-0.359-0.008-0.539-0.008
				C301.984,68.94,296.152,73.6,296.152,79.538"/>
		</defs>
		<clipPath id="SVGID_245_">
			<use xlink:href="#SVGID_244_"  overflow="visible"/>
		</clipPath>
		
			<linearGradient id="SVGID_246_" gradientUnits="userSpaceOnUse" x1="102.999" y1="306.5273" x2="104.9987" y2="306.5273" gradientTransform="matrix(10.555 2.4933 2.4933 -10.555 -1555.5294 3055.5564)">
			<stop  offset="0" style="stop-color:#311944"/>
			<stop  offset="1" style="stop-color:#893976"/>
		</linearGradient>
		<polygon clip-path="url(#SVGID_245_)" fill="url(#SVGID_246_)" points="297.628,62.699 329.13,70.141 322.573,97.905 
			291.067,90.463 		"/>
	</g>
	<g clip-path="url(#SVGID_2_)">
		<defs>
			<path id="SVGID_247_" d="M294.68,79.538c0,6.082,6.12,11.327,13.763,11.724c7.758,0.402,14.132-4.33,14.132-10.574
				c0-6.245-6.374-11.502-14.132-11.74c-0.18-0.005-0.36-0.008-0.54-0.008C300.511,68.938,294.68,73.598,294.68,79.538"/>
		</defs>
		<clipPath id="SVGID_248_">
			<use xlink:href="#SVGID_247_"  overflow="visible"/>
		</clipPath>
		
			<linearGradient id="SVGID_249_" gradientUnits="userSpaceOnUse" x1="95.6104" y1="298.9795" x2="97.6104" y2="298.9795" gradientTransform="matrix(-9.0489 16.783 -16.783 -9.0489 6196.5586 1171.8851)">
			<stop  offset="0" style="stop-color:#E38DDD"/>
			<stop  offset="0.0036" style="stop-color:#E38DDD"/>
			<stop  offset="1" style="stop-color:#9571F6"/>
		</linearGradient>
		<polygon clip-path="url(#SVGID_248_)" fill="url(#SVGID_249_)" points="300.964,57.287 285.188,86.545 316.292,103.316 
			332.066,74.057 		"/>
	</g>
	<g clip-path="url(#SVGID_2_)">
		<defs>
			<rect id="SVGID_250_" width="400" height="400"/>
		</defs>
		<clipPath id="SVGID_251_">
			<use xlink:href="#SVGID_250_"  overflow="visible"/>
		</clipPath>
		<path clip-path="url(#SVGID_251_)" fill="#FFFFFF" d="M311.238,76.338c0,2.158-1.734,3.852-3.813,3.785
			c-2.016-0.066-3.608-1.773-3.608-3.815c0-2.04,1.593-3.733,3.608-3.782C309.504,72.474,311.238,74.182,311.238,76.338"/>
		<path clip-path="url(#SVGID_251_)" fill="#FFFFFF" d="M301.914,85.816c0-2.447,2.41-4.652,5.511-4.525
			c3.251,0.136,6.005,2.763,6.005,5.429L301.914,85.816z"/>
		<g opacity="0.2" clip-path="url(#SVGID_251_)">
			<g>
				<defs>
					<rect id="SVGID_252_" x="303.464" y="73.725" width="19.11" height="17.562"/>
				</defs>
				<clipPath id="SVGID_253_">
					<use xlink:href="#SVGID_252_"  overflow="visible"/>
				</clipPath>
				<g clip-path="url(#SVGID_253_)">
					<defs>
						<path id="SVGID_254_" d="M305.07,88.254c1.675-3.208-0.02-6.355,2.246-8.384c2.312-2.071,5.328,0.066,8.595-1.575
							c1.269-0.636,2.683-1.896,3.737-4.569c1.833,1.968,2.926,4.383,2.926,6.962c0,6.244-6.374,10.977-14.132,10.574
							c-1.76-0.092-3.439-0.439-4.979-0.994C304.223,89.608,304.724,88.914,305.07,88.254"/>
					</defs>
					<clipPath id="SVGID_255_">
						<use xlink:href="#SVGID_254_"  overflow="visible"/>
					</clipPath>
					
						<linearGradient id="SVGID_256_" gradientUnits="userSpaceOnUse" x1="95.814" y1="298.7969" x2="97.814" y2="298.7969" gradientTransform="matrix(-8.8675 17.7949 -17.7949 -8.8675 6484.6279 1017.3766)">
						<stop  offset="0" style="stop-color:#E38DDD"/>
						<stop  offset="0.0036" style="stop-color:#E38DDD"/>
						<stop  offset="1" style="stop-color:#9571F6"/>
					</linearGradient>
					<polygon clip-path="url(#SVGID_255_)" fill="url(#SVGID_256_)" points="307.263,66.096 296.301,88.096 318.771,99.293 
						329.734,77.294 					"/>
				</g>
			</g>
		</g>
	</g>
</g>
</svg>
