<svg xmlns="http://www.w3.org/2000/svg" width="26" height="26" viewBox="0 0 26 26" fill="none"><rect width="26" height="26" rx="6" fill="#FFE8F1"></rect><path d="M12.5001 6C12.9303 6 13.2779 6.39184 13.2779 6.875V7.85063C13.3167 7.85637 13.3532 7.86266 13.3921 7.86895C13.6497 7.91215 14.4177 8.05133 14.7337 8.14129C15.1275 8.25996 15.4021 8.73711 15.2952 9.20469C15.1906 9.67227 14.7677 9.95664 14.3497 9.83906C14.1237 9.74883 13.4358 9.64492 13.1636 9.60117C12.3834 9.46992 11.715 9.53555 11.2557 9.73242C10.8114 9.92383 10.6269 10.1945 10.5781 10.498C10.5309 10.7906 10.5666 10.9574 10.6094 11.0613C10.6554 11.1707 10.745 11.2938 10.9237 11.4277C11.3189 11.7203 11.9216 11.9172 12.7043 12.1551L12.7723 12.177C13.4626 12.3875 14.3084 12.6473 14.9354 13.1148C15.2781 13.3719 15.6014 13.7191 15.8007 14.2004C16.0024 14.6871 16.0462 15.234 15.9538 15.7918C15.7837 16.8555 15.1275 17.55 14.357 17.9109C14.0264 18.0641 13.6619 18.1625 13.2779 18.2117V19.125C13.2779 19.609 12.9303 20 12.5001 20C12.0699 20 11.7223 19.609 11.7223 19.125V18.1707C11.7126 18.1707 11.7005 18.1434 11.6907 18.1652H11.6859C11.0953 18.0613 10.1199 17.7742 9.46199 17.4461C9.06946 17.2492 8.89277 16.7324 9.06727 16.2895C9.24178 15.8492 9.70139 15.6496 10.072 15.8465C10.6019 16.1008 11.438 16.3496 11.9216 16.4344C12.6994 16.5656 13.3386 16.4891 13.7712 16.2922C14.182 16.1035 14.3691 15.8301 14.4226 15.502C14.4688 15.2094 14.4348 15.0426 14.391 14.9387C14.3448 14.8293 14.2549 14.7062 14.0775 14.5723C13.6813 14.2797 13.0786 14.0828 12.2959 13.8449L12.2279 13.823C11.5376 13.6125 10.6913 13.3527 10.0638 12.8852C9.72083 12.6281 9.39952 12.2809 9.19998 11.7996C8.99752 11.3129 8.95353 10.766 9.04759 10.1836C9.21967 9.11992 9.90069 8.44152 10.7006 8.09809C11.017 7.96219 11.3602 7.87277 11.7223 7.82465V6.875C11.7223 6.39184 12.0699 6 12.5001 6Z" fill="#FF3C90" stroke="#FF3B90"></path></svg>