<?xml version="1.0" encoding="utf-8"?>
<!-- Generator: Adobe Illustrator 21.1.0, SVG Export Plug-In . SVG Version: 6.00 Build 0)  -->
<svg version="1.1" id="Layer_1" xmlns="http://www.w3.org/2000/svg" xmlns:xlink="http://www.w3.org/1999/xlink" x="0px" y="0px"
	 viewBox="0 0 500 500" style="enable-background:new 0 0 500 500;" xml:space="preserve">
<style type="text/css">
	.st0{fill:url(#SVGID_1_);}
	.st1{fill:url(#SVGID_2_);}
	.st2{opacity:0.6;fill:url(#SVGID_3_);enable-background:new    ;}
	.st3{fill:#1C1C1C;}
	.st4{fill:url(#SVGID_4_);}
	.st5{fill:url(#SVGID_5_);}
	.st6{fill:#5DC5C7;}
	.st7{fill:url(#SVGID_6_);}
	.st8{fill:url(#SVGID_7_);}
	.st9{fill:url(#SVGID_8_);}
	.st10{fill:#FFFFFF;}
	.st11{opacity:0.5;fill:#134744;enable-background:new    ;}
	.st12{opacity:0.3;}
	.st13{fill:url(#SVGID_9_);}
	.st14{opacity:0.8;fill:#134744;enable-background:new    ;}
	.st15{fill:url(#SVGID_10_);}
	.st16{opacity:0.5;fill:#FFFFFF;enable-background:new    ;}
	.st17{fill:url(#SVGID_11_);}
	.st18{fill:#134744;}
	.st19{fill:url(#SVGID_12_);}
	.st20{fill:url(#SVGID_13_);}
	.st21{fill:url(#SVGID_14_);}
	.st22{fill:url(#SVGID_15_);}
	.st23{fill:url(#SVGID_16_);}
	.st24{fill:url(#SVGID_17_);}
	.st25{fill:url(#SVGID_18_);}
	.st26{fill:url(#SVGID_19_);}
	.st27{fill:url(#SVGID_20_);}
	.st28{fill:url(#SVGID_21_);}
	.st29{fill:url(#SVGID_22_);}
	.st30{fill:url(#SVGID_23_);}
	.st31{fill:url(#SVGID_24_);}
	.st32{fill:url(#SVGID_25_);}
	.st33{fill:url(#SVGID_26_);}
	.st34{fill:url(#SVGID_27_);}
	.st35{fill:url(#SVGID_28_);}
	.st36{opacity:0.7273;fill:#1AA897;enable-background:new    ;}
	.st37{opacity:0.7521;fill:#199F8F;enable-background:new    ;}
	.st38{opacity:0.7769;fill:#199688;enable-background:new    ;}
	.st39{opacity:0.8017;fill:#188E80;enable-background:new    ;}
	.st40{opacity:0.8264;fill:#178579;enable-background:new    ;}
	.st41{opacity:0.8512;fill:#177C71;enable-background:new    ;}
	.st42{opacity:0.876;fill:#16736A;enable-background:new    ;}
	.st43{opacity:0.9008;fill:#166A62;enable-background:new    ;}
	.st44{opacity:0.9256;fill:#15615B;enable-background:new    ;}
	.st45{opacity:0.9504;fill:#145953;enable-background:new    ;}
	.st46{opacity:0.9752;fill:#14504C;enable-background:new    ;}
</style>
<g id="Layer_1_1_">
</g>
<g id="Layer_6">
</g>
<g id="Layer_2">
</g>
<g id="Layer_3">
</g>
<g id="Layer_4">
</g>
<g id="Layer_5">
	<g>
		<g>
			
				<linearGradient id="SVGID_1_" gradientUnits="userSpaceOnUse" x1="140.7861" y1="474.8498" x2="302.5403" y2="194.6833" gradientTransform="matrix(1 0 0 -1 0 500)">
				<stop  offset="5.555570e-02" style="stop-color:#111111"/>
				<stop  offset="0.2725" style="stop-color:#131313"/>
				<stop  offset="0.3793" style="stop-color:#1B1B1B"/>
				<stop  offset="0.462" style="stop-color:#282828"/>
				<stop  offset="0.4697" style="stop-color:#292929"/>
				<stop  offset="0.4821" style="stop-color:#2E2E2E"/>
				<stop  offset="0.4956" style="stop-color:#3B3B3B"/>
				<stop  offset="0.5097" style="stop-color:#515151"/>
				<stop  offset="0.524" style="stop-color:#6F6F6F"/>
				<stop  offset="0.5303" style="stop-color:#7F7F7F"/>
				<stop  offset="0.5357" style="stop-color:#777777"/>
				<stop  offset="0.5611" style="stop-color:#555555"/>
				<stop  offset="0.5853" style="stop-color:#3D3D3D"/>
				<stop  offset="0.6077" style="stop-color:#2E2E2E"/>
				<stop  offset="0.6263" style="stop-color:#292929"/>
				<stop  offset="0.6489" style="stop-color:#242424"/>
				<stop  offset="0.7384" style="stop-color:#161616"/>
				<stop  offset="0.8131" style="stop-color:#111111"/>
				<stop  offset="1" style="stop-color:#111111"/>
			</linearGradient>
			<path class="st0" d="M330.8,481.4L207,409.9c-14-8.1-25.3-29.7-25.3-48.3V31.8c0-9.5-7.8-11.6-3.1-15c0.2-0.1,11.1-5.1,11.3-5.1
				c5.1-1.9,10.5-2.8,17.1,1l123.8,71.5c14,8.1,25.3,29.7,25.3,48.3v329.8c0,9.9-3.2,17-8.3,20.2c-0.3,0.2-13.4,6.4-13.7,6.5
				C329.6,490.5,336.9,484.9,330.8,481.4z"/>
			
				<radialGradient id="SVGID_2_" cx="392.159" cy="361.0259" r="303.5476" gradientTransform="matrix(1 0 0 -1 0 500)" gradientUnits="userSpaceOnUse">
				<stop  offset="0" style="stop-color:#3E3E3E"/>
				<stop  offset="0.2318" style="stop-color:#383838"/>
				<stop  offset="0.5207" style="stop-color:#292929"/>
				<stop  offset="0.8386" style="stop-color:#101010"/>
				<stop  offset="1" style="stop-color:#000000"/>
			</radialGradient>
			<path class="st1" d="M329.7,84.5L205.8,13c-6.6-3.8,117,73.8,117,73.8c14,8.1,25.3,29.7,25.3,48.3c0,0,6.8,337.4,6.8,327.5V132.9
				C355,114.2,343.6,92.6,329.7,84.5z"/>
			
				<radialGradient id="SVGID_3_" cx="341.3766" cy="382.7132" r="178.8323" gradientTransform="matrix(1 0 0 -1 0 500)" gradientUnits="userSpaceOnUse">
				<stop  offset="0" style="stop-color:#A2A2A2"/>
				<stop  offset="1" style="stop-color:#101010"/>
			</radialGradient>
			<path class="st2" d="M321.2,485.8l-123.8-71.5c-14-8.1-25.3-29.7-25.3-48.3V36.2c0-18.6,11.3-27.2,25.3-19.1l123.8,71.5
				c14,8.1,25.3,29.7,25.3,48.3v329.8C346.5,485.3,335.2,493.8,321.2,485.8z"/>
			<path class="st3" d="M319,487l-123.8-71.5c-14-8.1-25.3-29.7-25.3-48.3V37.4c0-18.6,11.3-27.2,25.3-19.1L319,89.7
				c14,8.1,25.3,29.7,25.3,48.3v329.8C344.3,486.5,332.9,495,319,487z"/>
			
				<linearGradient id="SVGID_4_" gradientUnits="userSpaceOnUse" x1="362.2569" y1="25.1618" x2="111.1996" y2="555.6495" gradientTransform="matrix(1 0 0 -1 0 500)">
				<stop  offset="0" style="stop-color:#292929"/>
				<stop  offset="0.1289" style="stop-color:#222222"/>
				<stop  offset="0.4949" style="stop-color:#111111"/>
				<stop  offset="1" style="stop-color:#080808"/>
			</linearGradient>
			<path class="st4" d="M173.3,369.3V39.2c0-16.3,9.9-23.8,22.2-16.8l123.2,71.1c12.2,7.1,22.2,26,22.2,42.4v330.2
				c0,16.3-9.9,23.8-22.2,16.8l-123.2-71.1C183.2,404.6,173.3,385.7,173.3,369.3z"/>
			
				<linearGradient id="SVGID_5_" gradientUnits="userSpaceOnUse" x1="178.2" y1="247.4" x2="335.9" y2="247.4" gradientTransform="matrix(1 0 0 -1 0 500)">
				<stop  offset="1.082549e-07" style="stop-color:#292929"/>
				<stop  offset="0.1289" style="stop-color:#222222"/>
				<stop  offset="0.4949" style="stop-color:#111111"/>
				<stop  offset="1" style="stop-color:#080808"/>
			</linearGradient>
			<path class="st5" d="M178.2,371.3V42.8c0-13.7,8.3-19.9,18.6-14l120.5,69.6c10.2,5.9,18.6,21.8,18.6,35.5v328.5
				c0,13.7-8.3,19.9-18.6,14l-120.5-69.6C186.5,400.9,178.2,385,178.2,371.3z"/>
			<path class="st6" d="M198.2,32.4c-9.7-5.6-17.5-1.1-17.5,10v332.2c0,11.1,7.8,24.6,17.5,30.2l117.8,68c9.7,5.6,17.5,1.1,17.5-10
				V130.6c0-11.1-7.8-24.6-17.5-30.2L198.2,32.4z"/>
			
				<linearGradient id="SVGID_6_" gradientUnits="userSpaceOnUse" x1="-252.5644" y1="-10115.3701" x2="-224.3298" y2="-10115.3701" gradientTransform="matrix(-0.5 1.4434 0.866 -0.5 8992.1865 -4512.5103)">
				<stop  offset="0" style="stop-color:#292929"/>
				<stop  offset="0.1377" style="stop-color:#212121"/>
				<stop  offset="0.5036" style="stop-color:#101010"/>
				<stop  offset="1" style="stop-color:#080808"/>
			</linearGradient>
			<path class="st7" d="M347.6,214.4v-22.3c0-2.8,1.7-6.2,3.9-7.4l0,0c2.1-1.2,3.9,0.1,3.9,2.9v22.3c0,2.8-1.7,6.2-3.9,7.4l0,0
				C349.3,218.5,347.6,217.2,347.6,214.4z"/>
			
				<linearGradient id="SVGID_7_" gradientUnits="userSpaceOnUse" x1="358.7253" y1="298.7849" x2="339.2734" y2="299.6216" gradientTransform="matrix(1 0 0 -1 0 500)">
				<stop  offset="0" style="stop-color:#202020"/>
				<stop  offset="1" style="stop-color:#484848"/>
			</linearGradient>
			<path class="st8" d="M349.9,216.9c-1.1,0-1.5-1.4-1.5-2.6V192c0-2.5,1.6-5.6,3.4-6.7c0.4-0.2,0.8-0.4,1.1-0.4
				c1.1,0,1.5,1.4,1.5,2.6v22.3c0,2.5-1.6,5.6-3.4,6.7C350.6,216.8,350.3,216.9,349.9,216.9z"/>
			
				<radialGradient id="SVGID_8_" cx="348.94" cy="306.9817" r="11.424" gradientTransform="matrix(1 0 0 -1 0 500)" gradientUnits="userSpaceOnUse">
				<stop  offset="0" style="stop-color:#3E3E3E"/>
				<stop  offset="0.2318" style="stop-color:#383838"/>
				<stop  offset="0.5207" style="stop-color:#292929"/>
				<stop  offset="0.8386" style="stop-color:#101010"/>
				<stop  offset="1" style="stop-color:#000000"/>
			</radialGradient>
			<path class="st9" d="M349.6,214.9v-22.3c0-2.5,1.6-5.6,3.4-6.7c0.4-0.2,0.7-0.3,1-0.3c-0.2-0.4-0.6-0.6-1-0.6
				c-0.3,0-0.7,0.1-1.1,0.4c-1.9,1.1-3.4,4.1-3.4,6.7v22.3c0,1.2,0.4,2.6,1.5,2.6h0.1C349.7,216.4,349.6,215.6,349.6,214.9z"/>
		</g>
		<g>
			<path class="st10" d="M302.6,112.4l15,8.7c0.6,0.3,1,0.1,1-0.6s-0.5-1.5-1-1.8l-15-8.7c-0.6-0.3-1-0.1-1,0.6
				C301.6,111.3,302.1,112.1,302.6,112.4z M317.6,124.1l-15-8.7c-0.6-0.3-1-0.1-1,0.6s0.5,1.5,1,1.8l15,8.7c0.6,0.3,1,0.1,1-0.6
				C318.7,125.2,318.2,124.4,317.6,124.1z M317.6,129.4l-15-8.7c-0.6-0.3-1-0.1-1,0.6s0.5,1.5,1,1.8l15,8.7c0.6,0.3,1,0.1,1-0.6
				C318.7,130.5,318.2,129.7,317.6,129.4z"/>
			<g>
				<path class="st10" d="M210.8,60.7c0,1.6-1.1,2.2-2.5,1.4s-2.5-2.7-2.5-4.3s1.1-2.2,2.5-1.4S210.8,59.1,210.8,60.7z"/>
				<path class="st10" d="M203.3,56.3c0,1.6-1.1,2.2-2.5,1.4s-2.5-2.7-2.5-4.3s1.1-2.2,2.5-1.4S203.3,54.7,203.3,56.3z"/>
				<path class="st10" d="M195.7,51.9c0,1.6-1.1,2.2-2.5,1.4s-2.5-2.7-2.5-4.3s1.1-2.2,2.5-1.4C194.6,48.4,195.7,50.3,195.7,51.9z"
					/>
			</g>
		</g>
		<path class="st11" d="M254.8,78.6c-10.2-5.9-18.5-1.2-18.5,10.5c0,11.2,7.5,24.7,17.1,31v10.4l8-7.2c6.9,0.9,11.8-3.9,11.8-12.9
			C273.3,98.7,265,84.5,254.8,78.6z M250,88.3c0-3.1,2.2-4.3,4.9-2.8c2.7,1.5,4.9,5.3,4.9,8.4v8.6c0,3.1-2.2,4.3-4.9,2.8
			c-2.7-1.5-4.9-5.3-4.9-8.4V88.3z M262.7,104.3c0,4.5-2.9,6.6-6.7,5.1v4.1c1,1,1.6,2.3,1.6,3.4l-5.7-3.3c0-1.1,0.7-1.7,1.6-1.6v-4
			c-3.8-2.9-6.7-8.3-6.7-12.8V93c0-0.5,0.4-0.7,0.8-0.5c0.4,0.3,0.8,0.9,0.8,1.4V96c0,4,2.8,8.8,6.3,10.9c3.5,2,6.3,0.4,6.3-3.6
			v-2.1c0-0.5,0.4-0.7,0.8-0.5c0.4,0.3,0.8,0.9,0.8,1.4v2.2H262.7z"/>
		<g class="st12">
			
				<linearGradient id="SVGID_9_" gradientUnits="userSpaceOnUse" x1="135.4113" y1="513.4913" x2="243.8376" y2="306.7424" gradientTransform="matrix(1 0 0 -1 0 500)">
				<stop  offset="1.010100e-02" style="stop-color:#9F19AB"/>
				<stop  offset="0.4293" style="stop-color:#5F27BD"/>
				<stop  offset="0.904" style="stop-color:#3D065F"/>
			</linearGradient>
			<path class="st13" d="M144.5,81.8c-9.2-5.3-16.6-1.1-16.6,9.4v10.7c0,10.5,7.4,23.3,16.6,28.6l154.3,89.6
				c9.2,5.3,16.6,1.1,16.6-9.4V200c0-10.5-7.4-23.3-16.6-28.6L144.5,81.8z"/>
		</g>
		<path class="st14" d="M298.7,170.2L144,80.4c-9.2-5.3-16.6-1.1-16.6,9.5V110c0,10.5,7.4,23.4,16.6,28.7l126.6,73.6l17.9,28.1
			v-17.7l10.2,5.9c9.2,5.3,16.6,1.1,16.6-9.5V199C315.3,188.4,307.9,175.6,298.7,170.2z"/>
		
			<radialGradient id="SVGID_10_" cx="221.35" cy="360.645" r="79.3018" gradientTransform="matrix(1 0 0 -1 0 500)" gradientUnits="userSpaceOnUse">
			<stop  offset="0" style="stop-color:#FFFFFF"/>
			<stop  offset="1" style="stop-color:#000000"/>
		</radialGradient>
		<path class="st15" d="M298.7,170.2L144,80.4c-9.2-5.3-16.6-1.1-16.6,9.5v1.6c0-10.5,7.4-14.8,16.6-9.5l154.7,89.9
			c9.2,5.3,16.6,18.1,16.6,28.7V199C315.3,188.4,307.9,175.6,298.7,170.2z"/>
		<path class="st10" d="M154.6,97.7c-8.6-5-15.6-1-15.6,8.9s7,21.9,15.6,26.8c8.6,5,15.6,1,15.6-8.9S163.2,102.6,154.6,97.7z
			 M154.6,131.1c-7.5-4.3-13.6-14.9-13.6-23.5s6.1-12.1,13.6-7.8c7.5,4.3,13.6,14.9,13.6,23.5S162.1,135.4,154.6,131.1z M150.8,103
			c-1-0.6-1.9-0.1-1.9,1.1v16.2c0,1.2,0.8,2.7,1.9,3.2c1,0.6,1.9,0.1,1.9-1.1v-16.2C152.7,105.1,151.8,103.6,150.8,103z
			 M158.4,107.5c-1-0.6-1.9-0.1-1.9,1.1v16.2c0,1.2,0.8,2.7,1.9,3.2c1,0.6,1.9,0.1,1.9-1.1v-16.2
			C160.3,109.5,159.5,108.1,158.4,107.5z"/>
		<g>
			<path class="st10" d="M177.2,128.7c-0.3-0.1-0.5,0-0.5,0.3v2.8c0,0.3,0.2,0.6,0.5,0.8c0.3,0.1,0.5,0,0.5-0.3v-2.8
				C177.6,129.2,177.4,128.9,177.2,128.7z"/>
			<path class="st10" d="M179,129.8c-0.3-0.1-0.5,0-0.5,0.3v2.8c0,0.3,0.2,0.6,0.5,0.8c0.3,0.1,0.5,0,0.5-0.3v-2.8
				C179.5,130.3,179.3,130,179,129.8z"/>
			<path class="st10" d="M180.9,131.7c-0.3-0.1-0.5,0-0.5,0.3v1.3c0,0.3,0.2,0.6,0.5,0.8c0.3,0.1,0.5,0,0.5-0.3v-1.3
				C181.3,132.2,181.1,131.8,180.9,131.7z"/>
			<path class="st10" d="M182.7,132.7c-0.3-0.1-0.5,0-0.5,0.3v1.3c0,0.3,0.2,0.6,0.5,0.8c0.3,0.1,0.5,0,0.5-0.3v-1.3
				C183.2,133.2,183,132.8,182.7,132.7z"/>
			<path class="st10" d="M184.6,132.8c-0.3-0.1-0.5,0-0.5,0.3v3.4c0,0.3,0.2,0.6,0.5,0.8c0.3,0.1,0.5,0,0.5-0.3v-3.4
				C185,133.3,184.8,132.9,184.6,132.8z"/>
			<path class="st10" d="M186.4,134.8c-0.3-0.1-0.5,0-0.5,0.3v1.4c0,0.3,0.2,0.6,0.5,0.8c0.3,0.1,0.5,0,0.5-0.3v-1.4
				C186.9,135.3,186.7,134.9,186.4,134.8z"/>
			<path class="st10" d="M188.3,135c-0.3-0.1-0.5,0-0.5,0.3v3.2c0,0.3,0.2,0.6,0.5,0.8c0.3,0.1,0.5,0,0.5-0.3v-3.2
				C188.8,135.5,188.5,135.1,188.3,135z"/>
			<path class="st10" d="M190.1,133.3c-0.3-0.1-0.5,0-0.5,0.3v8.6c0,0.3,0.2,0.6,0.5,0.8c0.3,0.1,0.5,0,0.5-0.3v-8.6
				C190.6,133.8,190.4,133.5,190.1,133.3z"/>
			<path class="st10" d="M192,131.6c-0.3-0.1-0.5,0-0.5,0.3v14.2c0,0.3,0.2,0.6,0.5,0.8c0.3,0.1,0.5-1.5,0.5-1.8v-12.6
				C192.5,132.1,192.3,131.8,192,131.6z"/>
			<path class="st10" d="M193.9,134.7c-0.3-0.1-0.5,0-0.5,0.3v10.2c0,0.3,0.2,0.6,0.5,0.8c0.3,0.1,0.5,0,0.5-0.3v-10.2
				C194.3,135.2,194.1,134.8,193.9,134.7z"/>
			<path class="st10" d="M195.7,134.9c-0.3-0.1-0.5,0-0.5,0.3v12c0,0.3,0.2,0.6,0.5,0.8c0.3,0.1,0.5,0,0.5-0.3v-12
				C196.2,135.4,196,135,195.7,134.9z"/>
			<path class="st10" d="M197.6,133.8c-0.3-0.1-0.5,0-0.5,0.3v16.4c0,0.3,0.2,0.6,0.5,0.8c0.3,0.1,0.5,0,0.5-0.3v-16.4
				C198,134.3,197.8,133.9,197.6,133.8z"/>
			<path class="st10" d="M199.4,131.4c-0.3-0.1-0.5,0-0.5,0.3V155c0,0.3,0.2,0.6,0.5,0.8c0.3,0.1,0.5,0,0.5-0.3v-23.3
				C199.9,131.9,199.7,131.5,199.4,131.4z"/>
			<path class="st10" d="M201.3,135.5c-0.3-0.1-0.5,0-0.5,0.3V153c0,0.3,0.2,0.6,0.5,0.8c0.3,0.1,0.5,0,0.5-0.3v-17.2
				C201.7,136,201.5,135.6,201.3,135.5z"/>
			<path class="st10" d="M203.1,138.3c-0.3-0.1-0.5,0-0.5,0.3v13.7c0,0.3,0.2,0.6,0.5,0.8c0.3,0.1,0.5,0,0.5-0.3v-13.7
				C203.6,138.8,203.4,138.4,203.1,138.3z"/>
			<path class="st10" d="M205,136.8c-0.3-0.1-0.5,0-0.5,0.3V156c0,0.3,0.2,0.6,0.5,0.8c0.3,0.1,0.5,0,0.5-0.3v-18.9
				C205.5,137.3,205.2,136.9,205,136.8z"/>
			<path class="st10" d="M206.8,140.5c-0.3-0.1-0.5,0-0.5,0.3v13.6c0,0.3,0.2,0.6,0.5,0.8c0.3,0.1,0.5,0,0.5-0.3v-13.6
				C207.3,141,207.1,140.6,206.8,140.5z"/>
			<path class="st10" d="M208.7,143c-0.3-0.1-0.5,0-0.5,0.3V154c0,0.3,0.2,0.6,0.5,0.8c0.3,0.1,0.5,0,0.5-0.3v-10.8
				C209.2,143.5,209,143.1,208.7,143z"/>
			<path class="st10" d="M210.6,145.2c-0.3-0.1-0.5,0-0.5,0.3v8.5c0,0.3,0.2,0.6,0.5,0.8c0.3,0.1,0.5,0,0.5-0.3V146
				C211,145.7,210.8,145.3,210.6,145.2z"/>
			<path class="st10" d="M212.4,147c-0.3-0.1-0.5,0-0.5,0.3v6.9c0,0.3,0.2,0.6,0.5,0.8c0.3,0.1,0.5,0,0.5-0.3v-6.9
				C212.9,147.5,212.7,147.2,212.4,147z"/>
			<path class="st10" d="M214.3,147.1c-0.3-0.1-0.5,0-0.5,0.3v9c0,0.3,0.2,0.6,0.5,0.8c0.3,0.1,0.5,0,0.5-0.3v-9
				C214.7,147.6,214.5,147.2,214.3,147.1z"/>
			<path class="st10" d="M216.1,150.1c-0.3-0.1-0.5,0-0.5,0.3v5.1c0,0.3,0.2,0.6,0.5,0.8c0.3,0.1,0.5,0,0.5-0.3v-5.1
				C216.6,150.6,216.4,150.2,216.1,150.1z"/>
			<path class="st10" d="M218,152.9c-0.3-0.1-0.5,0-0.5,0.3v1.6c0,0.3,0.2,0.6,0.5,0.8c0.3,0.1,0.5,0,0.5-0.3v-1.6
				C218.4,153.4,218.2,153.1,218,152.9z"/>
			<path class="st10" d="M219.8,152.6c-0.3-0.1-0.5,0-0.5,0.3v4.4c0,0.3,0.2,0.6,0.5,0.8c0.3,0.1,0.5,0,0.5-0.3v-4.4
				C220.3,153.1,220.1,152.7,219.8,152.6z"/>
			<path class="st10" d="M221.7,155.3c-0.3-0.1-0.5,0-0.5,0.3v1.2c0,0.3,0.2,0.6,0.5,0.8c0.3,0.1,0.5,0,0.5-0.3v-1.2
				C222.2,155.8,221.9,155.4,221.7,155.3z"/>
			<path class="st10" d="M223.6,156.2c-0.3-0.1-0.5,0-0.5,0.3v1.5c0,0.3,0.2,0.6,0.5,0.8s0.5,0,0.5-0.3V157
				C224,156.7,223.8,156.3,223.6,156.2z"/>
			<path class="st10" d="M225.4,155.1c-0.3-0.1-0.5,0-0.5,0.3v5.8c0,0.3,0.2,0.6,0.5,0.8c0.3,0.1,0.5,0,0.5-0.3v-5.8
				C225.9,155.6,225.7,155.2,225.4,155.1z"/>
			<path class="st10" d="M227.3,154.7c-0.3-0.1-0.5,0-0.5,0.3v8.7c0,0.3,0.2,0.6,0.5,0.8c0.3,0.1,0.5,0,0.5-0.3v-8.7
				C227.7,155.2,227.5,154.9,227.3,154.7z"/>
			<path class="st10" d="M229.1,152.9c-0.3-0.1-0.5,0-0.5,0.3v14.4c0,0.3,0.2,0.6,0.5,0.8c0.3,0.1,0.5,0,0.5-0.3v-14.4
				C229.6,153.4,229.4,153.1,229.1,152.9z"/>
			<path class="st10" d="M231,153c-0.3-0.1-0.5,0-0.5,0.3v16.5c0,0.3,0.2,0.6,0.5,0.8c0.3,0.1,0.5,0,0.5-0.3v-16.5
				C231.4,153.5,231.2,153.1,231,153z"/>
			<path class="st10" d="M232.8,151.2c-0.3-0.1-0.5,0-0.5,0.3v22.3c0,0.3,0.2,0.6,0.5,0.8c0.3,0.1,0.5,0,0.5-0.3V152
				C233.3,151.7,233.1,151.3,232.8,151.2z"/>
			<path class="st10" d="M234.7,150c-0.3-0.1-0.5,0-0.5,0.3V177c0,0.3,0.2,0.6,0.5,0.8c0.3,0.1,0.5,0,0.5-0.3v-26.7
				C235.1,150.5,234.9,150.2,234.7,150z"/>
			<path class="st16" d="M236.5,152.3c-0.3-0.1-0.5,0-0.5,0.3v24.2c0,0.3,0.2,0.6,0.5,0.8c0.3,0.1,0.5,0,0.5-0.3v-24.2
				C237,152.8,236.8,152.5,236.5,152.3z"/>
			<path class="st16" d="M238.4,154.9c-0.3-0.1-0.5,0-0.5,0.3v21.2c0,0.3,0.2,0.6,0.5,0.8c0.3,0.1,0.5,0,0.5-0.3v-21.2
				C238.9,155.4,238.7,155,238.4,154.9z"/>
			<path class="st16" d="M240.3,154.7c-0.3-0.1-0.5,0-0.5,0.3v23.8c0,0.3,0.2,0.6,0.5,0.8c0.3,0.1,0.5,0,0.5-0.3v-23.8
				C240.7,155.2,240.5,154.8,240.3,154.7z"/>
			<path class="st16" d="M242.1,153.4c-0.3-0.1-0.5,0-0.5,0.3v28.6c0,0.3,0.2,0.6,0.5,0.8c0.3,0.1,0.5,0,0.5-0.3v-28.6
				C242.6,153.9,242.4,153.5,242.1,153.4z"/>
			<path class="st16" d="M244,160.2c-0.3-0.1-0.5,0-0.5,0.3v17c0,0.3,0.2,0.6,0.5,0.8c0.3,0.1,0.5,0,0.5-0.3v-17
				C244.4,160.7,244.2,160.4,244,160.2z"/>
			<path class="st16" d="M245.8,161.4c-0.3-0.1-0.5,0-0.5,0.3v16.8c0,0.3,0.2,0.6,0.5,0.8c0.3,0.1,0.5,0,0.5-0.3v-16.8
				C246.3,161.9,246.1,161.5,245.8,161.4z"/>
			<path class="st16" d="M247.7,164.4c-0.3-0.1-0.5,0-0.5,0.3v12.8c0,0.3,0.2,0.6,0.5,0.8c0.3,0.1,0.5,0,0.5-0.3v-12.8
				C248.1,164.9,247.9,164.6,247.7,164.4z"/>
			<path class="st16" d="M249.5,168.8c-0.3-0.1-0.5,0-0.5,0.3v7.7c0,0.3,0.2,0.6,0.5,0.8c0.3,0.1,0.5,0,0.5-0.3v-7.7
				C250,169.3,249.8,169,249.5,168.8z"/>
			<path class="st16" d="M251.4,168.9c-0.3-0.1-0.5,0-0.5,0.3v8.3c0,0.3,0.2,0.6,0.5,0.8c0.3,0.1,0.5,0,0.5-0.3v-8.3
				C251.8,169.4,251.6,169,251.4,168.9z"/>
			<path class="st16" d="M253.2,171.1c-0.3-0.1-0.5,0-0.5,0.3v5.9c0,0.3,0.2,0.6,0.5,0.8c0.3,0.1,0.5,0,0.5-0.3v-5.9
				C253.7,171.6,253.5,171.2,253.2,171.1z"/>
			<path class="st16" d="M255.1,169.9c-0.3-0.1-0.5,0-0.5,0.3v10.6c0,0.3,0.2,0.6,0.5,0.8c0.3,0.1,0.5,0,0.5-0.3v-10.6
				C255.6,170.4,255.4,170,255.1,169.9z"/>
			<path class="st16" d="M257,170.2c-0.3-0.1-0.5,0-0.5,0.3v12c0,0.3,0.2,0.6,0.5,0.8c0.3,0.1,0.5,0,0.5-0.3v-12
				C257.4,170.7,257.2,170.4,257,170.2z"/>
			<path class="st16" d="M258.8,169.4c-0.3-0.1-0.5,0-0.5,0.3v15.8c0,0.3,0.2,0.6,0.5,0.8c0.3,0.1,0.5,0,0.5-0.3v-15.8
				C259.3,169.9,259.1,169.5,258.8,169.4z"/>
			<path class="st16" d="M260.7,172.3c-0.3-0.1-0.5,0-0.5,0.3v12.2c0,0.3,0.2,0.6,0.5,0.8c0.3,0.1,0.5,0,0.5-0.3v-12.2
				C261.1,172.8,260.9,172.4,260.7,172.3z"/>
			<path class="st16" d="M262.5,174.2c-0.3-0.1-0.5,0-0.5,0.3v10.4c0,0.3,0.2,0.6,0.5,0.8s0.5,0,0.5-0.3V175
				C263,174.7,262.8,174.4,262.5,174.2z"/>
			<path class="st16" d="M264.4,178.1c-0.3-0.1-0.5,0-0.5,0.3v4.8c0,0.3,0.2,0.6,0.5,0.8c0.3,0.1,0.5,0,0.5-0.3v-4.8
				C264.8,178.6,264.6,178.3,264.4,178.1z"/>
			<path class="st16" d="M266.2,178.9c-0.3-0.1-0.5,0-0.5,0.3v5.4c0,0.3,0.2,0.6,0.5,0.8c0.3,0.1,0.5,0,0.5-0.3v-5.4
				C266.7,179.4,266.5,179,266.2,178.9z"/>
			<path class="st16" d="M268.1,182.4c-0.3-0.1-0.5,0-0.5,0.3v0.5c0,0.3,0.2,0.6,0.5,0.8c0.3,0.1,0.5,0,0.5-0.3v-0.5
				C268.6,182.9,268.3,182.6,268.1,182.4z"/>
			<path class="st16" d="M269.9,182.2c-0.3-0.1-0.5,0-0.5,0.3v3c0,0.3,0.2,0.6,0.5,0.8c0.3,0.1,0.5,0,0.5-0.3v-3
				C270.4,182.7,270.2,182.4,269.9,182.2z"/>
			<path class="st16" d="M271.8,183.2c-0.3-0.1-0.5,0-0.5,0.3v3.2c0,0.3,0.2,0.6,0.5,0.8c0.3,0.1,0.5,0,0.5-0.3V184
				C272.3,183.7,272.1,183.3,271.8,183.2z"/>
			<path class="st16" d="M273.7,182.4c-0.3-0.1-0.5,0-0.5,0.3v6.9c0,0.3,0.2,0.6,0.5,0.8c0.3,0.1,0.5,0,0.5-0.3v-6.9
				C274.1,182.9,273.9,182.6,273.7,182.4z"/>
			<path class="st16" d="M275.5,186.1c-0.3-0.1-0.5,0-0.5,0.3v1.6c0,0.3,0.2,0.6,0.5,0.8c0.3,0.1,0.5,0,0.5-0.3v-1.6
				C276,186.6,275.8,186.3,275.5,186.1z"/>
			<path class="st16" d="M277.4,184.9c-0.3-0.1-0.5,0-0.5,0.3v6.3c0,0.3,0.2,0.6,0.5,0.8c0.3,0.1,0.5,0,0.5-0.3v-6.3
				C277.8,185.4,277.6,185,277.4,184.9z"/>
			<path class="st16" d="M279.2,186.3c-0.3-0.1-0.5,0-0.5,0.3v5.5c0,0.3,0.2,0.6,0.5,0.8c0.3,0.1,0.5,0,0.5-0.3v-5.5
				C279.7,186.8,279.5,186.5,279.2,186.3z"/>
			<path class="st16" d="M281.1,184.6c-0.3-0.1-0.5,0-0.5,0.3V196c0,0.3,0.2,0.6,0.5,0.8c0.3,0.1,0.5,0,0.5-0.3v-11.2
				C281.5,185.1,281.3,184.7,281.1,184.6z"/>
			<path class="st16" d="M282.9,186.2c-0.3-0.1-0.5,0-0.5,0.3v10.1c0,0.3,0.2,0.6,0.5,0.8c0.3,0.1,0.5,0,0.5-0.3V187
				C283.4,186.7,283.2,186.3,282.9,186.2z"/>
			<path class="st16" d="M284.8,185c-0.3-0.1-0.5,0-0.5,0.3v14.6c0,0.3,0.2,0.6,0.5,0.8c0.3,0.1,0.5,0,0.5-0.3v-14.6
				C285.3,185.5,285,185.1,284.8,185z"/>
			<path class="st16" d="M286.6,182.5c-0.3-0.1-0.5,0-0.5,0.3v21.7c0,0.3,0.2,0.6,0.5,0.8c0.3,0.1,0.5,0,0.5-0.3v-21.7
				C287.1,183,286.9,182.6,286.6,182.5z"/>
			<path class="st16" d="M288.5,186.4c-0.3-0.1-0.5,0-0.5,0.3v16c0,0.3,0.2,0.6,0.5,0.8c0.3,0.1,0.5,0,0.5-0.3v-16
				C289,186.9,288.8,186.6,288.5,186.4z"/>
			<path class="st16" d="M290.4,185.8c-0.3-0.1-0.5,0-0.5,0.3v19.4c0,0.3,0.2,0.6,0.5,0.8s0.5,0,0.5-0.3v-19.4
				C290.8,186.3,290.6,185.9,290.4,185.8z"/>
			<path class="st16" d="M292.2,188.4c-0.3-0.1-0.5,0-0.5,0.3V205c0,0.3,0.2,0.6,0.5,0.8c0.3,0.1,0.5,0,0.5-0.3v-16.4
				C292.7,188.9,292.5,188.5,292.2,188.4z"/>
			<path class="st16" d="M294.1,192.8c-0.3-0.1-0.5,0-0.5,0.3v9.7c0,0.3,0.2,0.6,0.5,0.8c0.3,0.1,0.5,0,0.5-0.3v-9.7
				C294.5,193.3,294.3,192.9,294.1,192.8z"/>
			<path class="st16" d="M295.9,192c-0.3-0.1-0.5,0-0.5,0.3v13.5c0,0.3,0.2,0.6,0.5,0.8c0.3,0.1,0.5,0,0.5-0.3v-13.5
				C296.4,192.5,296.2,192.1,295.9,192z"/>
			<path class="st16" d="M297.8,195.2c-0.3-0.1-0.5,0-0.5,0.3v9.1c0,0.3,0.2,0.6,0.5,0.8c0.3,0.1,0.5,0,0.5-0.3V196
				C298.2,195.7,298,195.4,297.8,195.2z"/>
			<path class="st16" d="M299.6,198c-0.3-0.1-0.5,0-0.5,0.3v5.8c0,0.3,0.2,0.6,0.5,0.8c0.3,0.1,0.5,0,0.5-0.3v-5.8
				C300.1,198.5,299.9,198.1,299.6,198z"/>
			<path class="st16" d="M301.5,200c-0.3-0.1-0.5,0-0.5,0.3v3.9c0,0.3,0.2,0.6,0.5,0.8c0.3,0.1,0.5,0,0.5-0.3v-3.9
				C302,200.5,301.7,200.1,301.5,200z"/>
			<path class="st16" d="M303.4,203.2c-0.3-0.1-0.5,0-0.5,0.3v-0.4c0,0.3,0.2,0.6,0.5,0.8c0.3,0.1,0.5,0,0.5-0.3v0.4
				C303.8,203.7,303.6,203.4,303.4,203.2z"/>
			<path class="st16" d="M305.2,203c-0.3-0.1-0.5,0-0.5,0.3v2.1c0,0.3,0.2,0.6,0.5,0.8s0.5,0,0.5-0.3v-2.1
				C305.7,203.5,305.5,203.2,305.2,203z"/>
			<path class="st16" d="M307.1,204.3c-0.3-0.1-0.5,0-0.5,0.3v1.7c0,0.3,0.2,0.6,0.5,0.8c0.3,0.1,0.5,0,0.5-0.3v-1.7
				C307.5,204.8,307.3,204.4,307.1,204.3z"/>
		</g>
		<path class="st14" d="M356,287.1l-154.7-89.9c-9.2-5.3-16.6-1.1-16.6,9.5v20.1c0,10.5,7.4,23.4,16.6,28.7l8.5,4.1v21l17.9-10.6
			L356,345.4c9.2,5.3,16.6,1.1,16.6-9.5v-20.1C372.6,305.3,365.2,292.4,356,287.1z"/>
		
			<radialGradient id="SVGID_11_" cx="278.65" cy="243.845" r="79.3018" gradientTransform="matrix(1 0 0 -1 0 500)" gradientUnits="userSpaceOnUse">
			<stop  offset="0" style="stop-color:#FFFFFF"/>
			<stop  offset="1" style="stop-color:#000000"/>
		</radialGradient>
		<path class="st17" d="M356,287.1l-154.7-89.9c-9.2-5.3-16.6-1.1-16.6,9.5v1.6c0-10.5,7.4-14.8,16.6-9.5L356,288.7
			c9.2,5.3,16.6,18.1,16.6,28.7v-1.6C372.6,305.3,365.2,292.4,356,287.1z"/>
		<path class="st10" d="M216,234l-10.5-14.5c-0.9-1.3-2.2-1.3-2.2,0v17c0,1.3,1.3,2.9,2.2,2.6l10.5-2.4
			C216.8,236.5,216.8,235.2,216,234z M208.6,213.2c-8.6-5-15.6-1-15.6,8.9c0,9.8,7,21.9,15.6,26.8c8.6,5,15.6,1,15.6-8.9
			C224.1,230.2,217.1,218.2,208.6,213.2z M208.6,246.7c-7.5-4.3-13.6-14.9-13.6-23.5s6.1-12.1,13.6-7.8s13.6,14.9,13.6,23.5
			C222.2,247.5,216.1,251,208.6,246.7z"/>
		<path class="st16" d="M230.7,243.2c-0.3-0.1-0.5,0-0.5,0.3v1.9c0,0.3,0.2,0.6,0.5,0.8c0.3,0.1,0.5,0,0.5-0.3V244
			C231.2,243.7,231,243.3,230.7,243.2z M232.6,244.2c-0.3-0.1-0.5,0-0.5,0.3v1.9c0,0.3,0.2,0.6,0.5,0.8c0.3,0.1,0.5,0,0.5-0.3V245
			C233,244.8,232.8,244.4,232.6,244.2z M234.4,245.3c-0.3-0.1-0.5,0-0.5,0.3v1.9c0,0.3,0.2,0.6,0.5,0.8c0.3,0.1,0.5,0,0.5-0.3v-1.9
			C234.9,245.8,234.7,245.5,234.4,245.3z M236.3,244.8c-0.3-0.1-0.5,0-0.5,0.3v5.1c0,0.3,0.2,0.6,0.5,0.8c0.3,0.1,0.5,0,0.5-0.3
			v-5.1C236.8,245.4,236.6,245,236.3,244.8z M238.2,247.5c-0.3-0.1-0.5,0-0.5,0.3v1.9c0,0.3,0.2,0.6,0.5,0.8c0.3,0.1,0.5,0,0.5-0.3
			v-1.9C238.6,248,238.4,247.6,238.2,247.5z M240,248.6c-0.3-0.1-0.5,0-0.5,0.3v1.9c0,0.3,0.2,0.6,0.5,0.8c0.3,0.1,0.5,0,0.5-0.3
			v-1.9C240.5,249.1,240.3,248.7,240,248.6z M241.9,249.6c-0.3-0.1-0.5,0-0.5,0.3v1.9c0,0.3,0.2,0.6,0.5,0.8c0.3,0.1,0.5,0,0.5-0.3
			v-1.9C242.4,250.1,242.2,249.8,241.9,249.6z M243.8,250.5c-0.3-0.1-0.5,0-0.5,0.3v2.5c0,0.3,0.2,0.6,0.5,0.8
			c0.3,0.1,0.5,0,0.5-0.3v-2.5C244.2,251,244,250.6,243.8,250.5z M245.7,250.6c-0.3-0.1-0.5,0-0.5,0.3v4.3c0,0.3,0.2,0.6,0.5,0.8
			c0.3,0.1,0.5,0,0.5-0.3v-4.3C246.1,251.1,245.9,250.8,245.7,250.6z M247.5,250c-0.3-0.1-0.5,0-0.5,0.3v7.6c0,0.3,0.2,0.6,0.5,0.8
			c0.3,0.1,0.5,0,0.5-0.3v-7.6C248,250.5,247.8,250.2,247.5,250z M249.4,248.7c-0.3-0.1-0.5,0-0.5,0.3v12.4c0,0.3,0.2,0.6,0.5,0.8
			c0.3,0.1,0.5,0,0.5-0.3v-12.4C249.8,249.3,249.6,248.9,249.4,248.7z M251.3,250.5c-0.3-0.1-0.5,0-0.5,0.3v11
			c0,0.3,0.2,0.6,0.5,0.8c0.3,0.1,0.5,0,0.5-0.3v-11C251.7,251,251.5,250.7,251.3,250.5z M253.1,249.8c-0.3-0.1-0.5,0-0.5,0.3v14.6
			c0,0.3,0.2,0.6,0.5,0.8c0.3,0.1,0.5,0,0.5-0.3v-14.6C253.6,250.3,253.4,249.9,253.1,249.8z M255,246.6c-0.3-0.1-0.5,0-0.5,0.3V270
			c0,0.3,0.2,0.6,0.5,0.8c0.3,0.1,0.5,0,0.5-0.3v-23.1C255.5,247.1,255.2,246.8,255,246.6z M256.9,245.6c-0.3-0.1-0.5,0-0.5,0.3
			v27.2c0,0.3,0.2,0.6,0.5,0.8c0.3,0.1,0.5,0,0.5-0.3v-27.2C257.3,246.1,257.1,245.8,256.9,245.6z M258.7,248.2
			c-0.3-0.1-0.5,0-0.5,0.3v24.2c0,0.3,0.2,0.6,0.5,0.8c0.3,0.1,0.5,0,0.5-0.3V249C259.2,248.7,259,248.4,258.7,248.2z M260.6,246.5
			c-0.3-0.1-0.5,0-0.5,0.3v29.8c0,0.3,0.2,0.6,0.5,0.8c0.3,0.1,0.5,0,0.5-0.3v-29.8C261.1,247,260.9,246.6,260.6,246.5z
			 M262.5,251.7c-0.3-0.1-0.5,0-0.5,0.3v21.6c0,0.3,0.2,0.6,0.5,0.8c0.3,0.1,0.5,0,0.5-0.3v-21.6
			C262.9,252.2,262.7,251.8,262.5,251.7z M264.3,254.9c-0.3-0.1-0.5,0-0.5,0.3v17.2c0,0.3,0.2,0.6,0.5,0.8c0.3,0.1,0.5,0,0.5-0.3
			v-17.2C264.8,255.4,264.6,255.1,264.3,254.9z M266.2,258.3c-0.3-0.1-0.5,0-0.5,0.3v12.6c0,0.3,0.2,0.6,0.5,0.8
			c0.3,0.1,0.5,0,0.5-0.3v-12.6C266.7,258.8,266.5,258.5,266.2,258.3z M268.1,260.9c-0.3-0.1-0.5,0-0.5,0.3v9.6
			c0,0.3,0.2,0.6,0.5,0.8c0.3,0.1,0.5,0,0.5-0.3v-9.6C268.5,261.4,268.3,261.1,268.1,260.9z M269.9,263c-0.3-0.1-0.5,0-0.5,0.3v7.6
			c0,0.3,0.2,0.6,0.5,0.8c0.3,0.1,0.5,0,0.5-0.3v-7.6C270.4,263.5,270.2,263.1,269.9,263z M271.8,264.7c-0.3-0.1-0.5,0-0.5,0.3v6.2
			c0,0.3,0.2,0.6,0.5,0.8c0.3,0.1,0.5,0,0.5-0.3v-6.2C272.3,265.3,272.1,264.9,271.8,264.7z M273.7,264.7c-0.3-0.1-0.5,0-0.5,0.3
			v8.4c0,0.3,0.2,0.6,0.5,0.8c0.3,0.1,0.5,0,0.5-0.3v-8.4C274.1,265.2,273.9,264.9,273.7,264.7z M275.5,267.7
			c-0.3-0.1-0.5,0-0.5,0.3v4.7c0,0.3,0.2,0.6,0.5,0.8c0.3,0.1,0.5,0,0.5-0.3v-4.7C276,268.2,275.8,267.8,275.5,267.7z M277.4,269
			c-0.3-0.1-0.5,0-0.5,0.3v4.3c0,0.3,0.2,0.6,0.5,0.8c0.3,0.1,0.5,0,0.5-0.3v-4.3C277.9,269.5,277.7,269.1,277.4,269z M279.3,271.6
			c-0.3-0.1-0.5,0-0.5,0.3v1.2c0,0.3,0.2,0.6,0.5,0.8c0.3,0.1,0.5,0,0.5-0.3v-1.2C279.7,272.1,279.5,271.8,279.3,271.6z
			 M281.1,272.4c-0.3-0.1-0.5,0-0.5,0.3v1.6c0,0.3,0.2,0.6,0.5,0.8c0.3,0.1,0.5,0,0.5-0.3v-1.6C281.6,272.9,281.4,272.6,281.1,272.4
			z M283,271.4c-0.3-0.1-0.5,0-0.5,0.3v6c0,0.3,0.2,0.6,0.5,0.8c0.3,0.1,0.5,0,0.5-0.3v-6C283.5,271.9,283.3,271.5,283,271.4z
			 M284.9,271.3c-0.3-0.1-0.5,0-0.5,0.3v8.3c0,0.3,0.2,0.6,0.5,0.8c0.3,0.1,0.5,0,0.5-0.3v-8.3C285.3,271.8,285.1,271.4,284.9,271.3
			z M286.7,270.4c-0.3-0.1-0.5,0-0.5,0.3V283c0,0.3,0.2,0.6,0.5,0.8c0.3,0.1,0.5,0,0.5-0.3v-12.3C287.2,270.9,287,270.5,286.7,270.4
			z M288.6,268.4c-0.3-0.1-0.5,0-0.5,0.3V287c0,0.3,0.2,0.6,0.5,0.8c0.3,0.1,0.5,0,0.5-0.3v-18.4
			C289.1,268.9,288.9,268.5,288.6,268.4z M290.5,266c-0.3-0.1-0.5,0-0.5,0.3v25.3c0,0.3,0.2,0.6,0.5,0.8c0.3,0.1,0.5,0,0.5-0.3
			v-25.3C290.9,266.5,290.7,266.1,290.5,266z M292.4,267.6c-0.3-0.1-0.5,0-0.5,0.3v24.2c0,0.3,0.2,0.6,0.5,0.8
			c0.3,0.1,0.5,0,0.5-0.3v-24.2C292.8,268.2,292.6,267.8,292.4,267.6z M294.2,264.1c-0.3-0.1-0.5,0-0.5,0.3v33.3
			c0,0.3,0.2,0.6,0.5,0.8c0.3,0.1,0.5,0,0.5-0.3v-33.3C294.7,264.6,294.5,264.3,294.2,264.1z M296.1,267.6c-0.3-0.1-0.5,0-0.5,0.3
			v28.7c0,0.3,0.2,0.6,0.5,0.8c0.3,0.1,0.5,0,0.5-0.3v-28.7C296.6,268.1,296.3,267.7,296.1,267.6z M298,265.2
			c-0.3-0.1-0.5,0-0.5,0.3V301c0,0.3,0.2,0.6,0.5,0.8c0.3,0.1,0.5,0,0.5-0.3V266C298.4,265.7,298.2,265.4,298,265.2z M299.8,263.2
			c-0.3-0.1-0.5,0-0.5,0.3v41.6c0,0.3,0.2,0.6,0.5,0.8c0.3,0.1,0.5,0,0.5-0.3V264C300.3,263.7,300.1,263.4,299.8,263.2z
			 M301.7,267.9c-0.3-0.1-0.5,0-0.5,0.3v34.6c0,0.3,0.2,0.6,0.5,0.8c0.3,0.1,0.5,0,0.5-0.3v-34.6C302.2,268.4,302,268,301.7,267.9z
			 M303.6,273.1c-0.3-0.1-0.5,0-0.5,0.3v26.1c0,0.3,0.2,0.6,0.5,0.8c0.3,0.1,0.5,0,0.5-0.3v-26.1C304,273.6,303.8,273.3,303.6,273.1
			z M305.4,273.5c-0.3-0.1-0.5,0-0.5,0.3v27.7c0,0.3,0.2,0.6,0.5,0.8c0.3,0.1,0.5,0,0.5-0.3v-27.7
			C305.9,274,305.7,273.6,305.4,273.5z M307.3,278.8c-0.3-0.1-0.5,0-0.5,0.3v19.1c0,0.3,0.2,0.6,0.5,0.8c0.3,0.1,0.5,0,0.5-0.3
			v-19.1C307.8,279.3,307.6,279,307.3,278.8z M309.2,284c-0.3-0.1-0.5,0-0.5,0.3v10.8c0,0.3,0.2,0.6,0.5,0.8c0.3,0.1,0.5,0,0.5-0.3
			v-10.8C309.6,284.5,309.4,284.2,309.2,284z M311,287.5c-0.3-0.1-0.5,0-0.5,0.3v6.1c0,0.3,0.2,0.6,0.5,0.8c0.3,0.1,0.5,0,0.5-0.3
			v-6.1C311.5,288,311.3,287.6,311,287.5z M312.9,289.8c-0.3-0.1-0.5,0-0.5,0.3v3.5c0,0.3,0.2,0.6,0.5,0.8c0.3,0.1,0.5,0,0.5-0.3
			v-3.5C313.4,290.4,313.2,290,312.9,289.8z M314.8,291.6c-0.3-0.1-0.5,0-0.5,0.3v2.1c0,0.3,0.2,0.6,0.5,0.8c0.3,0.1,0.5,0,0.5-0.3
			v-2.1C315.2,292.1,315,291.8,314.8,291.6z M316.6,293c-0.3-0.1-0.5,0-0.5,0.3v1.5c0,0.3,0.2,0.6,0.5,0.8c0.3,0.1,0.5,0,0.5-0.3
			v-1.5C317.1,293.5,316.9,293.1,316.6,293z M318.5,294.2c-0.3-0.1-0.5,0-0.5,0.3v1.3c0,0.3,0.2,0.6,0.5,0.8c0.3,0.1,0.5,0,0.5-0.3
			V295C319,294.7,318.8,294.3,318.5,294.2z M320.4,295.2c-0.3-0.1-0.5,0-0.5,0.3v1.5c0,0.3,0.2,0.6,0.5,0.8c0.3,0.1,0.5,0,0.5-0.3
			V296C320.8,295.7,320.6,295.3,320.4,295.2z M322.2,295.9c-0.3-0.1-0.5,0-0.5,0.3v2.1c0,0.3,0.2,0.6,0.5,0.8c0.3,0.1,0.5,0,0.5-0.3
			v-2.1C322.7,296.4,322.5,296.1,322.2,295.9z M324.1,296.4c-0.3-0.1-0.5,0-0.5,0.3v3.3c0,0.3,0.2,0.6,0.5,0.8
			c0.3,0.1,0.5,0,0.5-0.3v-3.3C324.6,296.9,324.4,296.6,324.1,296.4z M326,296.6c-0.3-0.1-0.5,0-0.5,0.3v5.1c0,0.3,0.2,0.6,0.5,0.8
			c0.3,0.1,0.5,0,0.5-0.3v-5.1C326.4,297.1,326.2,296.7,326,296.6z M327.8,294.9c-0.3-0.1-0.5,0-0.5,0.3v10.6c0,0.3,0.2,0.6,0.5,0.8
			c0.3,0.1,0.5,0,0.5-0.3v-10.6C328.3,295.5,328.1,295.1,327.8,294.9z M329.7,297.9c-0.3-0.1-0.5,0-0.5,0.3v6.7
			c0,0.3,0.2,0.6,0.5,0.8c0.3,0.1,0.5,0,0.5-0.3v-6.7C330.2,298.4,330,298.1,329.7,297.9z M331.6,298c-0.3-0.1-0.5,0-0.5,0.3v8.8
			c0,0.3,0.2,0.6,0.5,0.8c0.3,0.1,0.5,0,0.5-0.3v-8.8C332,298.5,331.8,298.1,331.6,298z M333.5,296.7c-0.3-0.1-0.5,0-0.5,0.3v13.5
			c0,0.3,0.2,0.6,0.5,0.8c0.3,0.1,0.5,0,0.5-0.3v-13.5C333.9,297.2,333.7,296.9,333.5,296.7z M335.3,300.3c-0.3-0.1-0.5,0-0.5,0.3
			v8.4c0,0.3,0.2,0.6,0.5,0.8c0.3,0.1,0.5,0,0.5-0.3v-8.4C335.8,300.8,335.6,300.5,335.3,300.3z M337.2,297.9
			c-0.3-0.1-0.5,0-0.5,0.3v15.4c0,0.3,0.2,0.6,0.5,0.8c0.3,0.1,0.5,0,0.5-0.3v-15.4C337.7,298.4,337.4,298.1,337.2,297.9z
			 M339.1,298.8c-0.3-0.1-0.5,0-0.5,0.3v15.8c0,0.3,0.2,0.6,0.5,0.8c0.3,0.1,0.5,0,0.5-0.3v-15.8
			C339.5,299.3,339.3,298.9,339.1,298.8z M342.8,300.9c-0.3-0.1-0.5,0-0.5,0.3v16c0,0.3,0.2,0.6,0.5,0.8c0.3,0.1,0.5,0,0.5-0.3v-16
			C343.3,301.4,343.1,301,342.8,300.9z M340.9,296.6c-0.3-0.1-0.5,0-0.5,0.3v22.3c0,0.3,0.2,0.6,0.5,0.8c0.3,0.1,0.5,0,0.5-0.3
			v-22.3C341.4,297.1,341.2,296.8,340.9,296.6z M344.7,305.4c-0.3-0.1-0.5,0-0.5,0.3v9c0,0.3,0.2,0.6,0.5,0.8c0.3,0.1,0.5,0,0.5-0.3
			v-9C345.1,305.9,344.9,305.6,344.7,305.4z M346.5,304.2c-0.3-0.1-0.5,0-0.5,0.3v13.7c0,0.3,0.2,0.6,0.5,0.8c0.3,0.1,0.5,0,0.5-0.3
			V305C347,304.7,346.8,304.3,346.5,304.2z M348.4,306.2c-0.3-0.1-0.5,0-0.5,0.3v11.9c0,0.3,0.2,0.6,0.5,0.8c0.3,0.1,0.5,0,0.5-0.3
			V307C348.9,306.7,348.7,306.3,348.4,306.2z M350.3,308.2c-0.3-0.1-0.5,0-0.5,0.3v10c0,0.3,0.2,0.6,0.5,0.8c0.3,0.1,0.5,0,0.5-0.3
			v-10C350.7,308.7,350.5,308.3,350.3,308.2z M352.1,311.6c-0.3-0.1-0.5,0-0.5,0.3v5.3c0,0.3,0.2,0.6,0.5,0.8c0.3,0.1,0.5,0,0.5-0.3
			v-5.3C352.6,312.1,352.4,311.7,352.1,311.6z M354,313.3c-0.3-0.1-0.5,0-0.5,0.3v4.1c0,0.3,0.2,0.6,0.5,0.8c0.3,0.1,0.5,0,0.5-0.3
			v-4.1C354.5,313.8,354.3,313.4,354,313.3z M355.9,313.3c-0.3-0.1-0.5,0-0.5,0.3v6.2c0,0.3,0.2,0.6,0.5,0.8c0.3,0.1,0.5,0,0.5-0.3
			v-6.2C356.3,313.8,356.1,313.4,355.9,313.3z M357.7,316.3c-0.3-0.1-0.5,0-0.5,0.3v2.5c0,0.3,0.2,0.6,0.5,0.8
			c0.3,0.1,0.5,0,0.5-0.3V317C358.2,316.8,358,316.4,357.7,316.3z M359.6,317.5c-0.3-0.1-0.5,0-0.5,0.3v2c0,0.3,0.2,0.6,0.5,0.8
			c0.3,0.1,0.5,0,0.5-0.3v-2C360.1,318.1,359.9,317.7,359.6,317.5z M361.5,317.2c-0.3-0.1-0.5,0-0.5,0.3v4.9c0,0.3,0.2,0.6,0.5,0.8
			c0.3,0.1,0.5,0,0.5-0.3V318C361.9,317.7,361.7,317.3,361.5,317.2z"/>
		<g>
			<path class="st18" d="M257.7,294c-25.3-14.6-45.9-2.9-45.9,26.2c0,29,20.6,64.6,45.9,79.2s45.9,2.9,45.9-26.2
				S283,308.6,257.7,294z"/>
			<path class="st18" d="M267,395.7c-25.3-14.6-45.9-50.1-45.9-79.2c0-13.6,4.5-23.4,11.9-28.5c-12.8,2-21.3,13.5-21.3,32.1
				c0,29,20.6,64.6,45.9,79.2c13.4,7.8,25.6,8.1,34,2.3C284.5,402.8,276.1,400.9,267,395.7z"/>
			<path class="st18" d="M303.3,373.5c0-29-20.6-64.6-45.9-79.2c-10.2-5.9-19.7-7.5-27.3-5.4c-2.8,0.8-61.9,29.4-64.1,30.7
				c-8.1,4.8-13.2,14.9-13.2,29.3c0,29,20.6,64.6,45.9,79.2c11.3,6.5,21.7,7.8,29.7,4.6c1.9-0.8,59.9-28.7,62.2-30.1
				C298.4,397.7,303.3,387.7,303.3,373.5z"/>
		</g>
		<g>
			
				<radialGradient id="SVGID_12_" cx="276.6779" cy="174.5538" r="53.6419" gradientTransform="matrix(1 0 0 -1 0 500)" gradientUnits="userSpaceOnUse">
				<stop  offset="0" style="stop-color:#FFFFFF"/>
				<stop  offset="1" style="stop-color:#000000"/>
			</radialGradient>
			<path class="st19" d="M215.4,316.8c-0.7-0.4-1.3-0.1-1.3,0.7v7.8c0,0.8,0.6,1.8,1.3,2.2c0.7,0.4,1.3,0.1,1.3-0.7V319
				C216.7,318.2,216.1,317.2,215.4,316.8z"/>
			
				<radialGradient id="SVGID_13_" cx="276.6745" cy="174.4227" r="53.9976" gradientTransform="matrix(1 0 0 -1 0 500)" gradientUnits="userSpaceOnUse">
				<stop  offset="0" style="stop-color:#FFFFFF"/>
				<stop  offset="1" style="stop-color:#000000"/>
			</radialGradient>
			<path class="st20" d="M220.6,316.7c-0.7-0.4-1.3-0.1-1.3,0.7v14.1c0,0.8,0.6,1.8,1.3,2.2c0.7,0.4,1.3,0.1,1.3-0.7v-14.1
				C221.9,318.1,221.3,317.1,220.6,316.7z"/>
			
				<radialGradient id="SVGID_14_" cx="276.6782" cy="174.5538" r="53.6425" gradientTransform="matrix(1 0 0 -1 0 500)" gradientUnits="userSpaceOnUse">
				<stop  offset="0" style="stop-color:#FFFFFF"/>
				<stop  offset="1" style="stop-color:#000000"/>
			</radialGradient>
			<path class="st21" d="M225.8,322.7c-0.7-0.4-1.3-0.1-1.3,0.7v8c0,0.8,0.6,1.8,1.3,2.2c0.7,0.4,1.3,0.1,1.3-0.7v-8
				C227.1,324.1,226.5,323.1,225.8,322.7z"/>
			
				<radialGradient id="SVGID_15_" cx="276.6748" cy="178.7854" r="57.2343" gradientTransform="matrix(1 0 0 -1 0 500)" gradientUnits="userSpaceOnUse">
				<stop  offset="0" style="stop-color:#FFFFFF"/>
				<stop  offset="1" style="stop-color:#000000"/>
			</radialGradient>
			<path class="st22" d="M231,320.4c-0.7-0.4-1.3-0.1-1.3,0.7v18.7c0,0.8,0.6,1.8,1.3,2.2c0.7,0.4,1.3,0.1,1.3-0.7v-18.7
				C232.2,321.8,231.7,320.8,231,320.4z"/>
			
				<radialGradient id="SVGID_16_" cx="276.6771" cy="174.5538" r="53.6415" gradientTransform="matrix(1 0 0 -1 0 500)" gradientUnits="userSpaceOnUse">
				<stop  offset="0" style="stop-color:#FFFFFF"/>
				<stop  offset="1" style="stop-color:#000000"/>
			</radialGradient>
			<path class="st23" d="M236.1,326.4c-0.7-0.4-1.3-0.1-1.3,0.7v12.6c0,0.8,0.6,1.8,1.3,2.2c0.7,0.4,1.3,0.1,1.3-0.7v-12.6
				C237.4,327.8,236.8,326.8,236.1,326.4z"/>
			
				<radialGradient id="SVGID_17_" cx="276.675" cy="169.322" r="47.7962" gradientTransform="matrix(1 0 0 -1 0 500)" gradientUnits="userSpaceOnUse">
				<stop  offset="0" style="stop-color:#FFFFFF"/>
				<stop  offset="1" style="stop-color:#000000"/>
			</radialGradient>
			<path class="st24" d="M241.3,331.6c-0.7-0.4-1.3-0.1-1.3,0.7v8.3c0,0.8,0.6,1.8,1.3,2.2c0.7,0.4,1.3,0.1,1.3-0.7v-8.3
				C242.6,333,242,332,241.3,331.6z"/>
			
				<radialGradient id="SVGID_18_" cx="276.6771" cy="174.5538" r="53.6413" gradientTransform="matrix(1 0 0 -1 0 500)" gradientUnits="userSpaceOnUse">
				<stop  offset="0" style="stop-color:#FFFFFF"/>
				<stop  offset="1" style="stop-color:#000000"/>
			</radialGradient>
			<path class="st25" d="M246.5,326.7c-0.7-0.4-1.3-0.1-1.3,0.7v24c0,0.8,0.6,1.8,1.3,2.2c0.7,0.4,1.3,0.1,1.3-0.7v-24
				C247.8,328.1,247.2,327.1,246.5,326.7z"/>
			
				<radialGradient id="SVGID_19_" cx="276.6756" cy="179.3944" r="64.0108" gradientTransform="matrix(1 0 0 -1 0 500)" gradientUnits="userSpaceOnUse">
				<stop  offset="0" style="stop-color:#FFFFFF"/>
				<stop  offset="1" style="stop-color:#000000"/>
			</radialGradient>
			<path class="st26" d="M251.6,321.6c-0.7-0.4-1.3-0.1-1.3,0.7v40.1c0,0.8,0.6,1.8,1.3,2.2c0.7,0.4,1.3,0.1,1.3-0.7v-40.1
				C252.9,323,252.4,322,251.6,321.6z"/>
			
				<radialGradient id="SVGID_20_" cx="276.6767" cy="174.5538" r="53.6408" gradientTransform="matrix(1 0 0 -1 0 500)" gradientUnits="userSpaceOnUse">
				<stop  offset="0" style="stop-color:#FFFFFF"/>
				<stop  offset="1" style="stop-color:#000000"/>
			</radialGradient>
			<path class="st27" d="M256.8,326.1c-0.7-0.4-1.3-0.1-1.3,0.7v37.1c0,0.8,0.6,1.8,1.3,2.2c0.7,0.4,1.3,0.1,1.3-0.7v-37.1
				C258.1,327.5,257.5,326.5,256.8,326.1z"/>
			
				<radialGradient id="SVGID_21_" cx="276.6757" cy="179.4114" r="63.8734" gradientTransform="matrix(1 0 0 -1 0 500)" gradientUnits="userSpaceOnUse">
				<stop  offset="0" style="stop-color:#FFFFFF"/>
				<stop  offset="1" style="stop-color:#000000"/>
			</radialGradient>
			<path class="st28" d="M262,321.9c-0.7-0.4-1.3-0.1-1.3,0.7v51.5c0,0.8,0.6,1.8,1.3,2.2c0.7,0.4,1.3,0.1,1.3-0.7v-51.5
				C263.3,323.3,262.7,322.3,262,321.9z"/>
			
				<radialGradient id="SVGID_22_" cx="276.6764" cy="183.0301" r="70.3255" gradientTransform="matrix(1 0 0 -1 0 500)" gradientUnits="userSpaceOnUse">
				<stop  offset="0" style="stop-color:#FFFFFF"/>
				<stop  offset="1" style="stop-color:#000000"/>
			</radialGradient>
			<path class="st29" d="M267.2,320c-0.7-0.4-1.3-0.1-1.3,0.7v61.1c0,0.8,0.6,1.8,1.3,2.2c0.7,0.4,1.3,0.1,1.3-0.7v-61.1
				C268.4,321.4,267.9,320.5,267.2,320z"/>
			
				<radialGradient id="SVGID_23_" cx="276.676" cy="174.5538" r="53.6403" gradientTransform="matrix(1 0 0 -1 0 500)" gradientUnits="userSpaceOnUse">
				<stop  offset="0" style="stop-color:#FFFFFF"/>
				<stop  offset="1" style="stop-color:#000000"/>
			</radialGradient>
			<path class="st30" d="M272.3,329.8c-0.7-0.4-1.3-0.1-1.3,0.7V378c0,0.8,0.6,1.8,1.3,2.2c0.7,0.4,1.3,0.1,1.3-0.7V332
				C273.6,331.2,273,330.2,272.3,329.8z"/>
			
				<radialGradient id="SVGID_24_" cx="276.6761" cy="160.6919" r="30.8813" gradientTransform="matrix(1 0 0 -1 0 500)" gradientUnits="userSpaceOnUse">
				<stop  offset="0" style="stop-color:#FFFFFF"/>
				<stop  offset="1" style="stop-color:#000000"/>
			</radialGradient>
			<path class="st31" d="M277.5,343.5c-0.7-0.4-1.3-0.1-1.3,0.7v26.2c0,0.8,0.6,1.8,1.3,2.2c0.7,0.4,1.3,0.1,1.3-0.7v-26.2
				C278.8,344.9,278.2,343.9,277.5,343.5z"/>
			
				<radialGradient id="SVGID_25_" cx="276.6763" cy="170.1484" r="47.1028" gradientTransform="matrix(1 0 0 -1 0 500)" gradientUnits="userSpaceOnUse">
				<stop  offset="0" style="stop-color:#FFFFFF"/>
				<stop  offset="1" style="stop-color:#000000"/>
			</radialGradient>
			<path class="st32" d="M282.7,339.2c-0.7-0.4-1.3-0.1-1.3,0.7v40.8c0,0.8,0.6,1.8,1.3,2.2c0.7,0.4,1.3,0.1,1.3-0.7v-40.8
				C284,340.6,283.4,339.6,282.7,339.2z"/>
			
				<radialGradient id="SVGID_26_" cx="276.6758" cy="161.3601" r="35.1657" gradientTransform="matrix(1 0 0 -1 0 500)" gradientUnits="userSpaceOnUse">
				<stop  offset="0" style="stop-color:#FFFFFF"/>
				<stop  offset="1" style="stop-color:#000000"/>
			</radialGradient>
			<path class="st33" d="M287.9,348.4c-0.7-0.4-1.3-0.1-1.3,0.7V376c0,0.8,0.6,1.8,1.3,2.2c0.7,0.4,1.3,0.1,1.3-0.7v-26.9
				C289.1,349.8,288.6,348.8,287.9,348.4z"/>
			
				<radialGradient id="SVGID_27_" cx="276.6766" cy="148.6066" r="23.5363" gradientTransform="matrix(1 0 0 -1 0 500)" gradientUnits="userSpaceOnUse">
				<stop  offset="0" style="stop-color:#FFFFFF"/>
				<stop  offset="1" style="stop-color:#000000"/>
			</radialGradient>
			<path class="st34" d="M293,359.1c-0.7-0.4-1.3-0.1-1.3,0.7v11.4c0,0.8,0.6,1.8,1.3,2.2c0.7,0.4,1.3,0.1,1.3-0.7v-11.4
				C294.3,360.5,293.7,359.5,293,359.1z"/>
			
				<radialGradient id="SVGID_28_" cx="276.6755" cy="139.952" r="21.3971" gradientTransform="matrix(1 0 0 -1 0 500)" gradientUnits="userSpaceOnUse">
				<stop  offset="0" style="stop-color:#FFFFFF"/>
				<stop  offset="1" style="stop-color:#000000"/>
			</radialGradient>
			<path class="st35" d="M298.2,366c-0.7-0.4-1.3-0.1-1.3,0.7v3.6c0,0.8,0.6,1.8,1.3,2.2c0.7,0.4,1.3,0.1,1.3-0.7v-3.6
				C299.5,367.4,298.9,366.4,298.2,366z"/>
		</g>
		<g>
			<path class="st36" d="M251.1,398.7c0-29-20.6-64.6-45.9-79.2c-10.2-5.9-19.7-7.5-27.3-5.4c-2.8,0.8-12.6,5.2-14.8,6.5
				c-8.1,4.8-13.2,14.9-13.2,29.3c0,29,20.6,64.6,45.9,79.2c11.3,6.5,21.7,7.8,29.7,4.6c1.9-0.8,10.6-4.5,12.9-5.9
				C246.3,422.8,251.1,412.8,251.1,398.7z"/>
			<path class="st37" d="M161.9,323.3c-6.8,5.8-11.9,15-11.6,28.8c0.6,28.4,20.8,62.7,45.5,77c11.9,6.9,22.9,8,30.7,3.7
				c2-1.1,9.9-5.4,12.1-7.3c6.8-5.7,11.5-15,11.2-28.6c-0.6-28.4-20.8-62.7-45.5-77c-10.8-6.3-20.8-7.6-28.4-4.6
				C173,316.4,164.1,321.4,161.9,323.3z"/>
			<path class="st38" d="M160.7,325.9c-5.7,6.4-10.6,15.2-10,28.4c1.2,27.8,21.1,60.8,45.1,74.7c12.5,7.2,24.1,8,31.8,2.7
				c2.2-1.5,9.2-6.2,11.4-8.6c5.7-6.2,10.3-15.1,9.7-28.1c-1.2-27.8-21.1-60.9-45.2-74.8c-11.4-6.6-21.9-7.7-29.5-3.9
				C170.9,317.9,162.9,323.4,160.7,325.9z"/>
			<path class="st39" d="M159.5,328.6c-5.9,5.6-9.3,15.3-8.4,27.9c1.8,27.2,21.3,59,44.8,72.5c13.1,7.6,25.2,8,32.8,1.8
				c2.3-1.9,8.5-6.9,10.7-9.9c4.8-6.5,9-15.2,8.2-27.7c-1.8-27.2-21.3-59-44.8-72.6c-12-6.9-23-7.8-30.6-3.1
				C168.8,319.5,161.1,325,159.5,328.6z"/>
			<path class="st40" d="M158.3,331.3c-5.2,5.9-8,15.4-6.9,27.5c2.4,26.6,21.6,57.1,44.4,70.3c13.7,7.9,26.3,8,33.8,0.9
				c2.4-2.3,7.8-7.6,9.9-11.3c3.9-6.7,7.7-15.3,6.6-27.3c-2.4-26.6-21.6-57.2-44.4-70.4c-12.6-7.3-24.1-7.8-31.7-2.4
				C166.7,321,159.7,326.8,158.3,331.3z"/>
			<path class="st41" d="M157.1,333.9c-4.4,6.2-6.6,15.5-5.3,27c3,26,21.8,55.3,44,68.1c14.4,8.3,27.4,7.9,34.9,0
				c2.5-2.7,7.2-8.3,9.2-12.6c3.2-6.8,6.4-15.4,5.1-26.8c-3-26.1-21.8-55.4-44-68.2c-13.2-7.6-25.1-7.9-32.8-1.6
				C164.7,322.6,158.3,328.7,157.1,333.9z"/>
			<path class="st42" d="M155.9,336.6c-3.7,6.5-5.3,15.6-3.7,26.6c3.7,25.4,22,53.4,43.6,65.9c15,8.6,28.5,7.9,35.9-1
				c2.6-3.1,6.6-8.9,8.5-13.9c2.6-6.9,5.1-15.5,3.6-26.4c-3.7-25.5-22-53.5-43.7-66c-13.7-7.9-26.2-7.9-33.9-0.9
				C162.6,324.2,156.9,330.6,155.9,336.6z"/>
			<path class="st43" d="M154.7,339.2c-1.9,7.1-4,15.7-2.1,26.2c4.3,24.8,22.3,51.6,43.2,63.7c15.6,9,29.5,7.8,37-1.9
				c2.7-3.6,6.1-9.6,7.7-15.3c2-7,3.8-15.6,2-25.9c-4.3-24.9-22.3-51.7-43.3-63.8c-14.3-8.3-27.2-7.9-35-0.1
				C160.5,325.8,156.5,332.7,154.7,339.2z"/>
			<path class="st44" d="M153.5,341.9c-1.4,7.2-2.6,15.8-0.6,25.7c5,24.2,22.5,49.7,42.9,61.4c16.2,9.3,30.6,7.7,38-2.8
				c2.8-4,5.7-10.2,7-16.6c1.4-7.2,2.5-15.7,0.5-25.5c-5-24.3-22.5-49.8-42.9-61.6c-14.9-8.6-28.3-7.8-36.1,0.6
				C158.5,327.3,155,334.5,153.5,341.9z"/>
			<path class="st45" d="M152.3,344.6c-0.9,7.4-1.2,15.9,1,25.3c5.7,23.6,22.8,47.8,42.5,59.2c16.8,9.7,31.6,7.6,39.1-3.7
				c2.9-4.4,5.3-10.9,6.2-17.9c0.9-7.3,1.2-15.8-1-25c-5.7-23.6-22.8-48-42.5-59.4c-15.5-9-29.3-7.8-37.2,1.4
				C156.4,328.9,153.3,336.3,152.3,344.6z"/>
			<path class="st46" d="M151.1,347.2c-0.5,7.6,0.1,16,2.6,24.8c6.5,23,23,46,42.1,57c17.4,10,32.6,7.5,40.1-4.6
				c3-4.9,5-11.5,5.5-19.3c0.5-7.5-0.1-15.9-2.6-24.6c-6.5-23-23-46.2-42.2-57.2c-16.1-9.3-30.3-7.8-38.2,2.1
				C154.4,330.5,151.7,338.1,151.1,347.2z"/>
			<path class="st18" d="M195.8,323.7c-25.3-14.6-45.9-2.9-45.9,26.2c0,29,20.6,64.6,45.9,79.2s45.9,2.9,45.9-26.2
				C241.7,373.9,221.1,338.3,195.8,323.7z"/>
		</g>
		<g>
			<path class="st10" d="M196.4,389.7c6.5,3.7,11.8,0.7,11.8-6.7v-20.8c0-7.4-5.3-16.6-11.8-20.3s-11.8-0.7-11.8,6.7v20.8
				C184.7,376.9,190,386,196.4,389.7z"/>
			<path class="st10" d="M213.7,378.7c-1.1-0.6-2-0.1-2,1.1v5.2c0,9.7-6.8,13.6-15.3,8.7s-15.3-16.7-15.3-26.3v-5.2
				c0-1.2-0.9-2.8-2-3.4s-2-0.1-2,1.1v5.2c0,11,7.1,24.2,16.2,31.1v10c-2.3-0.2-3.9,1.1-3.9,3.8l13.8,7.9c0-2.7-1.6-5.9-3.9-8.4v-10
				c9.2,3.7,16.2-1.4,16.2-12.4v-5.2C215.6,380.9,214.8,379.3,213.7,378.7z"/>
		</g>
	</g>
</g>
</svg>
